<?xml version="1.0" standalone="no"?>
<!DOCTYPE svg PUBLIC "-//W3C//DTD SVG 20010904//EN"
 "http://www.w3.org/TR/2001/REC-SVG-20010904/DTD/svg10.dtd">
<svg version="1.0" xmlns="http://www.w3.org/2000/svg"
 width="512.000000pt" height="512.000000pt" viewBox="0 0 512.000000 512.000000"
 preserveAspectRatio="xMidYMid meet">
<metadata>
Created by potrace 1.11, written by Peter Selinger 2001-2013
</metadata>
<g transform="translate(0.000000,512.000000) scale(0.100000,-0.100000)"
fill="#000000" stroke="none">
<path d="M492 4610 c-4 -3 -8 -882 -7 -1953 l0 -1948 850 2 c898 1 945 3 1118
49 505 134 823 531 829 1037 2 136 -9 212 -44 323 -40 125 -89 218 -163 310
-35 43 -126 128 -169 157 -22 15 -43 30 -46 33 -12 13 -131 70 -188 91 l-64
22 60 28 c171 77 317 224 403 404 64 136 92 266 91 425 -5 424 -245 770 -642
923 -79 30 -105 39 -155 50 -11 3 -38 10 -60 15 -22 6 -60 13 -85 17 -25 3
-58 9 -75 12 -36 8 -1643 11 -1653 3z m1497 -743 c236 -68 352 -254 305 -486
-26 -124 -110 -224 -232 -277 -92 -40 -151 -46 -439 -49 l-283 -3 -1 27 c-1
36 -1 760 0 790 l1 23 298 -5 c226 -4 310 -9 351 -20z m-82 -1538 c98 -3 174
-19 247 -52 169 -78 257 -212 258 -395 0 -116 -36 -221 -100 -293 -64 -72
-192 -135 -314 -155 -23 -3 -181 -7 -350 -8 l-308 -2 -1 26 c-6 210 1 874 9
879 9 5 366 6 559 0z"/>
<path d="M4160 1789 c-275 -24 -499 -263 -503 -536 -1 -115 21 -212 66 -292
210 -369 697 -402 950 -65 77 103 110 199 111 329 0 50 -6 113 -13 140 -16 58
-62 155 -91 193 -33 43 -122 132 -132 132 -5 0 -26 11 -46 25 -85 56 -219 85
-342 74z"/>
</g>
</svg>
