<svg xmlns="http://www.w3.org/2000/svg" width="282" height="173" fill="none" viewBox="0 0 282 173"><path fill="#000" fill-opacity=".05" fill-rule="evenodd" d="M16.457 45.164c-5.406 1.007-8.971 6.206-7.964 11.612C9.5 62.18 14.7 65.747 20.105 64.74l7.448-1.388a9.942 9.942 0 0 0-2.5 8.608c1.008 5.405 6.207 8.971 11.612 7.964l53.026-9.881c.01.064.022.128.034.192a9.942 9.942 0 0 0 5.432 7.13l-3.254.606c-5.406 1.007-8.971 6.206-7.964 11.612 1.007 5.406 6.206 8.971 11.612 7.964l154.547-28.799c5.406-1.007 8.971-6.206 7.964-11.612a9.943 9.943 0 0 0-5.432-7.13l5.205-.97c5.406-1.007 8.972-6.206 7.964-11.611-1.007-5.406-6.206-8.972-11.612-7.964l-92.695 17.273a9.943 9.943 0 0 0-5.466-7.322l8.999-1.677c5.406-1.008 8.972-6.206 7.964-11.612-1.007-5.406-6.206-8.972-11.611-7.964L16.458 45.164Zm7.846 77.376c-1.007-5.406 2.558-10.604 7.964-11.612l158.589-29.552c5.406-1.007 10.605 2.558 11.612 7.964 1.008 5.406-2.558 10.605-7.964 11.612l-4.541.846c.53.259 1.036.564 1.511.91l54.956-10.24c5.405-1.008 10.604 2.558 11.611 7.964a9.942 9.942 0 0 1-2.499 8.608l1.107-.207c5.406-1.007 10.604 2.559 11.612 7.964 1.007 5.406-2.559 10.605-7.964 11.612L95.559 159.107c-5.406 1.007-10.605-2.558-11.612-7.964-1.007-5.406 2.558-10.605 7.964-11.612l12.029-2.241a10.097 10.097 0 0 1-1.511-.91L29.1 150.044c-5.406 1.007-10.604-2.558-11.612-7.964-1.007-5.406 2.559-10.605 7.964-11.612l4.283-.798a9.942 9.942 0 0 1-5.432-7.13Z" clip-rule="evenodd"/><circle cx="188" cy="55" r="6" fill="#69DDC7"/><circle cx="91" cy="92" r="6" fill="#69DDC7"/><path fill="#69DDC7" d="M121 114 95.5 88l-9 8 34.5 34 71.5-71-9-8-62.5 63Z"/></svg>