<svg xmlns="http://www.w3.org/2000/svg" xmlns:xlink="http://www.w3.org/1999/xlink" contentStyleType="text/css" data-diagram-type="DESCRIPTION" height="425px" preserveAspectRatio="none" style="width:452px;height:425px;background:#232323;" version="1.1" viewBox="0 0 452 425" width="452px" zoomAndPan="magnify"><defs/><g><rect fill="#2323231a" fill-opacity="0.10196" height="425" style="stroke:none;stroke-width:1;" width="452" x="0" y="0"/><!--entity someRootGroup--><g class="entity" data-entity="someRootGroup" data-source-line="5" data-uid="ent0002" id="entity_someRootGroup"><rect fill="#36BAA2" height="36.2969" rx="2.5" ry="2.5" style="stroke:#181818;stroke-width:0.5;" width="133.3877" x="175.31" y="7"/><text fill="#101010" font-family="sans-serif" font-size="14" lengthAdjust="spacing" textLength="113.3877" x="185.31" y="29.9951">someRootGroup</text></g><!--entity alpha--><g class="entity" data-entity="alpha" data-source-line="6" data-uid="ent0003" id="entity_alpha"><rect fill="#36BAA2" height="36.2969" rx="2.5" ry="2.5" style="stroke:#181818;stroke-width:0.5;" width="58.8076" x="160.6" y="103.3"/><text fill="#101010" font-family="sans-serif" font-size="14" lengthAdjust="spacing" textLength="38.8076" x="170.6" y="126.2951">alpha</text></g><!--entity beta--><g class="entity" data-entity="beta" data-source-line="7" data-uid="ent0004" id="entity_beta"><rect fill="#36BAA2" height="36.2969" rx="2.5" ry="2.5" style="stroke:#181818;stroke-width:0.5;" width="51.5684" x="288.22" y="103.3"/><text fill="#101010" font-family="sans-serif" font-size="14" lengthAdjust="spacing" textLength="31.5684" x="298.22" y="126.2951">beta</text></g><!--entity sharks--><g class="entity" data-entity="sharks" data-source-line="8" data-uid="ent0005" id="entity_sharks"><rect fill="#36BAA2" height="36.2969" rx="2.5" ry="2.5" style="stroke:#181818;stroke-width:0.5;" width="65.9033" x="20.05" y="221.6"/><text fill="#101010" font-family="sans-serif" font-size="14" lengthAdjust="spacing" textLength="45.9033" x="30.05" y="244.5951">sharks</text></g><!--entity goats--><g class="entity" data-entity="goats" data-source-line="9" data-uid="ent0006" id="entity_goats"><rect fill="#36BAA2" height="36.2969" rx="2.5" ry="2.5" style="stroke:#181818;stroke-width:0.5;" width="58.8145" x="160.59" y="221.6"/><text fill="#101010" font-family="sans-serif" font-size="14" lengthAdjust="spacing" textLength="38.8145" x="170.59" y="244.5951">goats</text></g><!--entity dolphins--><g class="entity" data-entity="dolphins" data-source-line="10" data-uid="ent0007" id="entity_dolphins"><rect fill="#36BAA2" height="36.2969" rx="2.5" ry="2.5" style="stroke:#181818;stroke-width:0.5;" width="79.1582" x="274.42" y="221.6"/><text fill="#101010" font-family="sans-serif" font-size="14" lengthAdjust="spacing" textLength="59.1582" x="284.42" y="244.5951">dolphins</text></g><!--entity John--><g class="entity" data-entity="John" data-source-line="11" data-uid="ent0008" id="entity_John"><ellipse cx="314" cy="357.89" fill="#40C8AF" rx="16" ry="16" style="stroke:#808080;stroke-width:1;"/><path d="M314,377.89 C318,377.89 321,377.89 325,373.89 C333,373.89 341,381.89 341,389.89 L341,393.89 C341,397.89 337,401.89 333,401.89 L295,401.89 C291,401.89 287,397.89 287,393.89 L287,389.89 C287,381.89 295,373.89 303,373.89 C307,377.89 310,377.89 314,377.89" fill="#40C8AF" style="stroke:#808080;stroke-width:1;"/><text fill="#e3e3e3" font-family="sans-serif" font-size="14" lengthAdjust="spacing" textLength="30.4404" x="298.7798" y="416.8851">John</text></g><!--entity Anna--><g class="entity" data-entity="Anna" data-source-line="12" data-uid="ent0009" id="entity_Anna"><ellipse cx="407" cy="357.89" fill="#40C8AF" rx="16" ry="16" style="stroke:#808080;stroke-width:1;"/><path d="M407,377.89 C411,377.89 414,377.89 418,373.89 C426,373.89 434,381.89 434,389.89 L434,393.89 C434,397.89 430,401.89 426,401.89 L388,401.89 C384,401.89 380,397.89 380,393.89 L380,389.89 C380,381.89 388,373.89 396,373.89 C400,377.89 403,377.89 407,377.89" fill="#40C8AF" style="stroke:#808080;stroke-width:1;"/><text fill="#e3e3e3" font-family="sans-serif" font-size="14" lengthAdjust="spacing" textLength="35.9023" x="389.0488" y="416.8851">Anna</text></g><!--entity Patricia--><g class="entity" data-entity="Patricia" data-source-line="13" data-uid="ent0010" id="entity_Patricia"><ellipse cx="418" cy="217.6" fill="#40C8AF" rx="16" ry="16" style="stroke:#808080;stroke-width:1;"/><path d="M418,237.6 C422,237.6 425,237.6 429,233.6 C437,233.6 445,241.6 445,249.6 L445,253.6 C445,257.6 441,261.6 437,261.6 L399,261.6 C395,261.6 391,257.6 391,253.6 L391,249.6 C391,241.6 399,233.6 407,233.6 C411,237.6 414,237.6 418,237.6" fill="#40C8AF" style="stroke:#808080;stroke-width:1;"/><text fill="#e3e3e3" font-family="sans-serif" font-size="14" lengthAdjust="spacing" textLength="52.3223" x="391.8389" y="276.5951">Patricia</text></g><!--entity Emil--><g class="entity" data-entity="Emil" data-source-line="14" data-uid="ent0011" id="entity_Emil"><ellipse cx="33" cy="357.89" fill="#40C8AF" rx="16" ry="16" style="stroke:#808080;stroke-width:1;"/><path d="M33,377.89 C37,377.89 40,377.89 44,373.89 C52,373.89 60,381.89 60,389.89 L60,393.89 C60,397.89 56,401.89 52,401.89 L14,401.89 C10,401.89 6,397.89 6,393.89 L6,389.89 C6,381.89 14,373.89 22,373.89 C26,377.89 29,377.89 33,377.89" fill="#40C8AF" style="stroke:#808080;stroke-width:1;"/><text fill="#e3e3e3" font-family="sans-serif" font-size="14" lengthAdjust="spacing" textLength="30.2627" x="17.8687" y="416.8851">Emil</text></g><!--entity Lovisa--><g class="entity" data-entity="Lovisa" data-source-line="15" data-uid="ent0012" id="entity_Lovisa"><ellipse cx="126" cy="357.89" fill="#40C8AF" rx="16" ry="16" style="stroke:#808080;stroke-width:1;"/><path d="M126,377.89 C130,377.89 133,377.89 137,373.89 C145,373.89 153,381.89 153,389.89 L153,393.89 C153,397.89 149,401.89 145,401.89 L107,401.89 C103,401.89 99,397.89 99,393.89 L99,389.89 C99,381.89 107,373.89 115,373.89 C119,377.89 122,377.89 126,377.89" fill="#40C8AF" style="stroke:#808080;stroke-width:1;"/><text fill="#e3e3e3" font-family="sans-serif" font-size="14" lengthAdjust="spacing" textLength="44.4131" x="103.7935" y="416.8851">Lovisa</text></g><!--entity Chandra--><g class="entity" data-entity="Chandra" data-source-line="16" data-uid="ent0013" id="entity_Chandra"><ellipse cx="220.0011" cy="357.89" fill="#40C8AF" rx="16" ry="16" style="stroke:#808080;stroke-width:1;"/><path d="M220.0011,377.89 C224.0011,377.89 227.0011,377.89 231.0011,373.89 C239.0011,373.89 247.0011,381.89 247.0011,389.89 L247.0011,393.89 C247.0011,397.89 243.0011,401.89 239.0011,401.89 L201.0011,401.89 C197.0011,401.89 193.0011,397.89 193.0011,393.89 L193.0011,389.89 C193.0011,381.89 201.0011,373.89 209.0011,373.89 C213.0011,377.89 216.0011,377.89 220.0011,377.89" fill="#40C8AF" style="stroke:#808080;stroke-width:1;"/><text fill="#e3e3e3" font-family="sans-serif" font-size="14" lengthAdjust="spacing" textLength="59.3223" x="190.34" y="416.8851">Chandra</text></g><!--link someRootGroup to alpha--><g class="link" data-entity-1="someRootGroup" data-entity-2="alpha" data-source-line="18" data-uid="lnk14" id="link_someRootGroup_alpha"><path d="M232.46,43.45 C223.14,60.35 211.9189,80.7068 202.5489,97.6868" fill="none" id="someRootGroup-to-alpha" style="stroke:#e3e3e3;stroke-width:1;"/><polygon fill="#363636" points="199.65,102.94,207.5005,96.9927,202.0657,98.5623,200.4961,93.1276,199.65,102.94" style="stroke:#e3e3e3;stroke-width:1;"/></g><!--link someRootGroup to beta--><g class="link" data-entity-1="someRootGroup" data-entity-2="beta" data-source-line="19" data-uid="lnk15" id="link_someRootGroup_beta"><path d="M255.21,43.45 C268.12,60.35 284.0297,81.1905 296.9897,98.1705" fill="none" id="someRootGroup-to-beta" style="stroke:#e3e3e3;stroke-width:1;"/><polygon fill="#363636" points="300.63,102.94,298.3492,93.3589,297.5964,98.9654,291.9899,98.2126,300.63,102.94" style="stroke:#e3e3e3;stroke-width:1;"/></g><!--link alpha to sharks--><g class="link" data-entity-1="alpha" data-entity-2="sharks" data-source-line="20" data-uid="lnk16" id="link_alpha_sharks"><path d="M169.49,139.86 C143.66,161.78 104.1139,195.3468 78.2239,217.3268" fill="none" id="alpha-to-sharks" style="stroke:#e3e3e3;stroke-width:1;"/><polygon fill="#363636" points="73.65,221.21,83.0997,218.4345,77.4616,217.974,77.9221,212.3359,73.65,221.21" style="stroke:#e3e3e3;stroke-width:1;"/></g><!--link alpha to goats--><g class="link" data-entity-1="alpha" data-entity-2="goats" data-source-line="21" data-uid="lnk17" id="link_alpha_goats"><path d="M190,139.86 C190,161.78 190,193.23 190,215.21" fill="none" id="alpha-to-goats" style="stroke:#e3e3e3;stroke-width:1;"/><polygon fill="#363636" points="190,221.21,194,212.21,190,216.21,186,212.21,190,221.21" style="stroke:#e3e3e3;stroke-width:1;"/></g><!--link beta to dolphins--><g class="link" data-entity-1="beta" data-entity-2="dolphins" data-source-line="22" data-uid="lnk18" id="link_beta_dolphins"><path d="M314,139.86 C314,161.78 314,193.23 314,215.21" fill="none" id="beta-to-dolphins" style="stroke:#e3e3e3;stroke-width:1;"/><polygon fill="#363636" points="314,221.21,318,212.21,314,216.21,310,212.21,314,221.21" style="stroke:#e3e3e3;stroke-width:1;"/></g><!--link dolphins to John--><g class="link" data-entity-1="dolphins" data-entity-2="John" data-source-line="23" data-uid="lnk19" id="link_dolphins_John"><path d="M314,258.26 C314,278.61 314,306.83 314,333.65" fill="none" id="dolphins-to-John" style="stroke:#e3e3e3;stroke-width:1;"/><polygon fill="#363636" points="314,339.65,318,330.65,314,334.65,310,330.65,314,339.65" style="stroke:#e3e3e3;stroke-width:1;"/></g><!--link dolphins to Anna--><g class="link" data-entity-1="dolphins" data-entity-2="Anna" data-source-line="24" data-uid="lnk20" id="link_dolphins_Anna"><path d="M325.78,258.26 C339.46,278.61 359.1213,307.8514 377.1613,334.6714" fill="none" id="dolphins-to-Anna" style="stroke:#e3e3e3;stroke-width:1;"/><polygon fill="#363636" points="380.51,339.65,378.8059,329.9497,377.7194,335.5012,372.1679,334.4147,380.51,339.65" style="stroke:#e3e3e3;stroke-width:1;"/></g><!--link beta to Patricia--><g class="link" data-entity-1="beta" data-entity-2="Patricia" data-source-line="25" data-uid="lnk21" id="link_beta_Patricia"><path d="M329.57,139.86 C345.1,157.22 365.3296,179.8482 384.5096,201.2882" fill="none" id="beta-to-Patricia" style="stroke:#e3e3e3;stroke-width:1;"/><polygon fill="#363636" points="388.51,205.76,385.4906,196.3854,385.1763,202.0335,379.5282,201.7193,388.51,205.76" style="stroke:#e3e3e3;stroke-width:1;"/></g><!--link sharks to Emil--><g class="link" data-entity-1="sharks" data-entity-2="Emil" data-source-line="26" data-uid="lnk22" id="link_sharks_Emil"><path d="M50.47,258.26 C47.52,278.61 43.4391,306.8918 39.5591,333.7118" fill="none" id="sharks-to-Emil" style="stroke:#e3e3e3;stroke-width:1;"/><polygon fill="#363636" points="38.7,339.65,43.9474,331.3154,39.4159,334.7015,36.0298,330.17,38.7,339.65" style="stroke:#e3e3e3;stroke-width:1;"/></g><!--link goats to Chandra--><g class="link" data-entity-1="goats" data-entity-2="Chandra" data-source-line="27" data-uid="lnk23" id="link_goats_Chandra"><path d="M193.8,258.26 C198.21,278.61 204.3676,306.9665 210.1876,333.7865" fill="none" id="goats-to-Chandra" style="stroke:#e3e3e3;stroke-width:1;"/><polygon fill="#363636" points="211.46,339.65,213.4604,330.0064,210.3997,334.7637,205.6424,331.703,211.46,339.65" style="stroke:#e3e3e3;stroke-width:1;"/></g><!--link goats to Lovisa--><g class="link" data-entity-1="goats" data-entity-2="Lovisa" data-source-line="28" data-uid="lnk24" id="link_goats_Lovisa"><path d="M181.89,258.26 C172.48,278.61 159.1596,307.3847 146.7496,334.2047" fill="none" id="goats-to-Lovisa" style="stroke:#e3e3e3;stroke-width:1;"/><polygon fill="#363636" points="144.23,339.65,151.6397,333.1618,146.3297,335.1122,144.3792,329.8023,144.23,339.65" style="stroke:#e3e3e3;stroke-width:1;"/></g><!--SRC=[bP9BQyCm48Jl_XK2drFweXG72cqeXT93QOyXXxMisCAoraZRH_vze_LB1GTY-sBccz5A6ljQsnOSDE89P5qw_BB51WqwaUxvkOB4Znw9JOjMMVgaWr72AKbWIwCY2qX2rs7uKHuRbH2sWb3aI8IDA7I8QRJ9k9e8jWz4UZdERqLwSvS3N4SSJ5l1Z9uhcfDz1QxsCw14e3czmEC0RIV4fn2lM5cHtbxAUzYlZROgAnqS-EiYHrEiIVqIQttWqLfO57W7SbhgPQ7dHfj5WJVyrdxPZ4q5jd3dPfBjlmPtOhLw45jkRHVkDBppdj1WPEaZZBeMJq1kCcBTEeo6CYCwIS6HXLwpapIKE57-nLWVkegImnQPXreYrk-GKN-R9sXNpmZ_0000]--></g></svg>