<svg xmlns="http://www.w3.org/2000/svg" width="641" height="640" fill="none" viewBox="0 0 641 640"><path fill="#121212" d="M519.448 248.009C526.67 243.568 533.404 238.376 539.536 232.521C540.716 231.371 541.851 230.236 542.971 229.086C547.26 224.714 551.218 220.031 554.816 215.076C558.481 210.036 561.643 204.648 564.255 198.99C567.841 191.269 570.04 182.978 570.752 174.495C572.978 145.535 555.816 116.738 517.551 93.5132L363.458 0L183.84 172.105L66.8921 284.154L229.095 382.596C255.072 398.495 284.909 406.971 315.364 407.106C352.585 407.106 388.251 393.962 414.568 368.736C443.185 341.313 452.684 305.826 435.03 276.328C432.159 271.54 428.751 267.096 424.874 263.08C434.347 265.198 444.023 266.275 453.73 266.291H453.954C469.792 266.319 485.495 263.386 500.255 257.643C506.926 255.008 513.349 251.784 519.448 248.009V248.009ZM369.268 337.34C340.412 364.987 293.991 369.049 256.204 346.153L143.976 278.03L244.718 181.485L358.843 250.758C399.961 275.685 397.706 310.083 369.268 337.34ZM382.606 214.538L277.084 150.478L373.286 58.2497L476.895 121.13C515.639 144.609 520.672 176.392 492.653 203.277C478.125 217.037 459.452 225.604 439.546 227.641C419.64 229.678 399.619 225.071 382.606 214.538V214.538ZM427.204 498.319C397.975 526.323 358.245 541.767 315.364 541.767C281.566 541.631 248.452 532.229 219.626 514.584L66.8921 421.967V458.814L229.095 557.256C255.071 573.159 284.907 581.641 315.364 581.78C352.585 581.78 388.251 568.622 414.568 543.41C433.806 524.979 444.44 502.889 443.962 481.441V478.768C439.038 485.843 433.425 492.412 427.204 498.379V498.319ZM427.204 440.069C397.975 468.074 358.245 483.502 315.364 483.502C281.569 483.365 248.456 473.969 219.626 456.334L66.8921 363.732V400.594L229.095 499.036C255.071 514.939 284.907 523.421 315.364 523.56C352.585 523.56 388.251 510.402 414.568 485.19C433.806 466.759 444.44 444.669 443.962 423.207V420.548C439.038 427.623 433.425 434.192 427.204 440.159V440.069ZM427.204 381.819C397.975 409.839 358.245 425.268 315.364 425.268C281.569 425.13 248.456 415.734 219.626 398.099L66.8921 305.512V342.374L229.095 440.816C255.072 456.714 284.909 465.191 315.364 465.326C352.585 465.326 388.251 452.182 414.568 426.97C433.806 408.525 444.44 386.449 443.962 364.987V362.268C439.05 369.366 433.435 375.951 427.204 381.924V381.819ZM552.217 420.264C527.836 443.489 495.932 457.194 462.303 458.888V498.856C491.213 497.253 518.608 485.408 539.581 465.445C560.491 445.461 571.155 423.46 570.946 401.759V398.488C565.462 406.398 559.187 413.73 552.217 420.369V420.264ZM427.204 556.494C397.975 584.513 358.245 599.942 315.364 599.942C281.566 599.806 248.452 590.404 219.626 572.759L66.8921 480.187V517.048L229.095 615.475C255.071 631.378 284.907 639.86 315.364 640C352.585 640 388.251 626.856 414.568 601.63C433.806 583.199 444.44 561.109 443.962 539.661V536.988C439.046 544.069 433.432 550.638 427.204 556.598V556.494ZM555.294 242.632C554.278 243.663 553.277 244.694 552.232 245.709C547.255 250.395 541.943 254.713 536.34 258.629C530.832 262.538 525.04 266.032 519.014 269.084C506.659 275.317 493.454 279.701 479.823 282.093C472.84 283.388 465.771 284.172 458.674 284.438C459.42 286.842 460.018 289.292 460.541 291.756C461.785 297.647 462.356 303.66 462.243 309.679V324.107H462.318C475.291 323.312 488.062 320.516 500.18 315.818C514.827 310.086 528.215 301.553 539.596 290.696C540.791 289.546 541.836 288.366 542.971 287.201C547.264 282.833 551.223 278.15 554.816 273.191C558.478 268.165 561.64 262.792 564.255 257.15C567.835 249.404 570.019 241.086 570.707 232.581C570.842 230.744 571.006 228.891 570.991 227.054V224.037C569.916 225.571 568.796 227.109 567.631 228.653C563.823 233.573 559.703 238.243 555.294 242.632V242.632ZM555.294 359.012C554.263 360.058 553.337 361.118 552.306 362.149C527.922 385.368 496.02 399.072 462.393 400.773V400.773V440.607C491.303 439.003 518.698 427.159 539.671 407.195C549.934 397.664 558.279 386.257 564.255 373.59C567.833 365.848 570.017 357.536 570.707 349.035C570.842 347.183 571.006 345.346 570.991 343.494V340.223C569.886 341.821 568.81 343.434 567.601 345.017C563.807 349.945 559.696 354.62 555.294 359.012V359.012ZM555.294 300.763C554.263 301.808 553.337 302.869 552.306 303.899C547.338 308.59 542.032 312.908 536.43 316.819C530.906 320.728 525.1 324.223 519.059 327.274C501.429 336.215 482.131 341.393 462.393 342.478V342.478V382.357C491.302 380.747 518.694 368.903 539.671 348.946C540.866 347.796 541.911 346.616 543.046 345.451C547.339 341.083 551.298 336.4 554.89 331.441C558.529 326.402 561.665 321.02 564.255 315.37C567.833 307.628 570.017 299.316 570.707 290.815C570.842 288.963 571.006 287.111 570.991 285.274V281.988C569.886 283.601 568.81 285.214 567.601 286.798C563.807 291.725 559.696 296.4 555.294 300.793V300.763Z"/></svg>