<svg xmlns="http://www.w3.org/2000/svg" width="32" height="32" viewBox="0 0 24 24"><path d="M0 9.277v9.297a4.118 4.118 0 0 0 4.105 4.106h8.477C6.219 21.008 1.277 15.793 0 9.277Zm19.527 13.286c1.801-.434 3.153-2.06 3.153-3.989v-2.3a11.83 11.83 0 0 1-3.153 1.195Zm0 0" style="stroke:none;fill-rule:nonzero;fill:#fff;fill-opacity:1"/><path d="M14.418 17.469c-5.281-1.172-9.246-5.89-9.246-11.524A11.71 11.71 0 0 1 6.785 0h-2.68A4.118 4.118 0 0 0 0 4.105v2.778c.434 7.933 6.336 14.433 13.992 15.797h.43Zm5.109-5.094v4.785a11.33 11.33 0 0 0 3.153-1.23V9.855a6.958 6.958 0 0 1-3.153 2.52Zm0 0" style="stroke:none;fill-rule:nonzero;fill:#fff;fill-opacity:1"/><path d="M14.418 17.16v-4.785a6.929 6.929 0 0 1-4.363-6.43A6.917 6.917 0 0 1 13.441 0H7.13a11.4 11.4 0 0 0-1.66 5.945c0 5.465 3.832 10.051 8.949 11.215Zm0 0" style="stroke:none;fill-rule:nonzero;fill:#fff;fill-opacity:1"/><path d="M10.355 5.945a6.62 6.62 0 0 0 4.063 6.106V9.918a4.695 4.695 0 0 0 5.11 0v2.133A6.653 6.653 0 0 0 22.68 9.3V4.105A4.118 4.118 0 0 0 18.574 0h-4.508a6.624 6.624 0 0 0-3.71 5.945Zm6.618-3.383a3.382 3.382 0 0 1 3.382 3.383 3.382 3.382 0 1 1-3.382-3.383Zm0 0" style="stroke:none;fill-rule:nonzero;fill:#fff;fill-opacity:1"/></svg>