<svg xmlns="http://www.w3.org/2000/svg" xmlns:xlink="http://www.w3.org/1999/xlink" width="32" height="32" version="1.1" viewBox="0 0 24 24"><g id="Logo"><path style="stroke:none;fill-rule:nonzero;fill:#fff;fill-opacity:1" d="M 0 9.277344 L 0 18.574219 C 0 20.832031 1.847656 22.679688 4.105469 22.679688 L 12.582031 22.679688 C 6.21875 21.007812 1.277344 15.792969 0 9.277344 Z M 0 9.277344"/><path style="stroke:none;fill-rule:nonzero;fill:#fff;fill-opacity:1" d="M 19.527344 22.5625 C 21.328125 22.128906 22.679688 20.503906 22.679688 18.574219 L 22.679688 16.273438 C 21.691406 16.820312 20.632812 17.222656 19.527344 17.46875 Z M 19.527344 22.5625"/><path style="stroke:none;fill-rule:nonzero;fill:#fff;fill-opacity:1" d="M 14.417969 17.46875 C 9.136719 16.296875 5.171875 11.578125 5.171875 5.945312 C 5.167969 3.855469 5.726562 1.804688 6.785156 0 L 4.105469 0 C 1.847656 0 0 1.847656 0 4.105469 L 0 6.882812 C 0.433594 14.816406 6.335938 21.316406 13.992188 22.679688 L 14.421875 22.679688 Z M 14.417969 17.46875"/><path style="stroke:none;fill-rule:nonzero;fill:#fff;fill-opacity:1" d="M 19.527344 12.375 L 19.527344 17.160156 C 20.632812 16.910156 21.695312 16.496094 22.679688 15.929688 L 22.679688 9.855469 C 21.902344 10.988281 20.804688 11.863281 19.527344 12.375 Z M 19.527344 12.375"/><path style="stroke:none;fill-rule:nonzero;fill:#fff;fill-opacity:1" d="M 14.417969 17.160156 L 14.417969 12.375 C 11.863281 11.355469 10.054688 8.859375 10.054688 5.945312 C 10.054688 3.503906 11.34375 1.246094 13.441406 0 L 7.128906 0 C 6.039062 1.792969 5.464844 3.847656 5.46875 5.945312 C 5.46875 11.410156 9.300781 15.996094 14.417969 17.160156 Z M 14.417969 17.160156"/><path style="stroke:none;fill-rule:nonzero;fill:#fff;fill-opacity:1" d="M 10.355469 5.945312 C 10.355469 8.613281 11.957031 11.019531 14.417969 12.050781 L 14.417969 9.917969 C 15.972656 10.925781 17.972656 10.925781 19.527344 9.917969 L 19.527344 12.050781 C 20.847656 11.496094 21.953125 10.53125 22.679688 9.300781 L 22.679688 4.105469 C 22.679688 1.847656 20.832031 0 18.574219 0 L 14.066406 0 C 11.796875 1.113281 10.355469 3.417969 10.355469 5.945312 Z M 16.972656 2.5625 C 18.84375 2.5625 20.355469 4.078125 20.355469 5.945312 C 20.355469 7.8125 18.84375 9.328125 16.972656 9.328125 C 15.105469 9.328125 13.589844 7.8125 13.589844 5.945312 C 13.59375 4.078125 15.105469 2.566406 16.972656 2.5625 Z M 16.972656 2.5625"/></g></svg>