<svg xmlns="http://www.w3.org/2000/svg" width="765" height="549" fill="none" viewBox="0 0 765 549"><path fill="#9BF0E1" d="M233.254 18.112c54.359-5.171 115.699-37.906 157.483-.208 42.525 38.364 29.093 109.492 29.758 169.134.678 60.796 9.229 125.588-25.94 173.234-38.283 51.865-99.773 84.161-161.301 80.437-59.166-3.581-102.461-53.625-144.092-98.919C47.925 296.924-2.505 250.018.097 187.038c2.553-61.821 53.54-107 101.305-141.607 38.575-27.948 85.501-22.909 131.852-27.319Z"/><path fill="#69DDC7" d="M513.385 20.444c53.308-5.55 100.424 41.943 137.361 86.37 32.539 39.138 37.101 95.115 55.086 145.104 20.07 55.778 71.924 106.774 56.265 164.38-15.641 57.543-79.612 73.993-127.683 98.36-38.572 19.552-78.922 25.045-121.029 27.711-44.88 2.842-94.835 18.637-131.144-11.745-36.298-30.373-30.785-92.879-49.732-139.602-22.856-56.362-86.603-101.789-72.492-161.804 13.962-59.383 89.452-59.683 133.006-95.571 43.195-35.593 67.39-107.688 120.362-113.203Z"/><path fill="#000" stroke="#000" d="m584.384 331.262 34.053 31.108a3.998 3.998 0 0 0 5.715-.328l1.595-1.833a3.999 3.999 0 0 0-.448-5.69l-35.116-29.443c-.724-.607-1.649-.983-2.577-.81-3.162.588-4.292 3.059-4.235 5.089.021.75.459 1.401 1.013 1.907Z"/><circle cx="630.54" cy="366.006" r="11.662" fill="#616161" transform="rotate(131.021 630.54 366.006)"/><rect width="25.444" height="3.18" x="639.69" y="357.103" fill="#282828" rx="1.59" transform="rotate(131.021 639.69 357.103)"/><path fill="#181818" d="M331.081 60.29c3.447 12.702 7.939 41.254 3.355 45.732h-29l-.009-.154c-10.748-1.189-19.108-10.302-19.108-21.368v-21c0-11.874 9.626-21.5 21.5-21.5h2c10.783 0 19.712 7.938 21.262 18.29Z"/><path fill="#EDB795" d="M297.581 80.49c-4.608-5.409-7.727-12.037-7.205-19.464 1.501-21.401 31.291-16.693 37.086-5.892 5.795 10.801 5.106 38.199-2.383 40.13-2.987.77-9.349-1.117-15.825-5.02L313.319 119h-24l8.262-38.51Z"/><path fill="#181818" d="M304.069 76.875c1.106 11.878.663 25.442-2.633 28.662h-29c-1.616-28.074 14-17.202 14-43.634.974-.951 1.894-1.893 2.804-2.705l-.032-.777C294.229 48.14 300.6 43 308.32 43c11.58 0 15.235 5.388 18.348 9.963-2.328 7.985-11.359 9.17-19.383 14.146a5.5 5.5 0 1 0-3.216 9.765Z"/><path fill="#C52B86" d="M250.727 300.088c23.989 6.71 44.686 10.065 62.091 10.065 17.406 0 33.572-5.167 48.501-15.5-23.476-6.887-42.809-10.33-58-10.33-15.191 0-32.722 5.255-52.592 15.765Z"/><path fill="#E7B291" d="M333.586 319.824a5.62 5.62 0 0 1-.582-1.135c-3.207-8.481-54.568-99.963-59.685-116.689h57.826c3.89 12.717 21.401 92.52 23.865 108.442 7.775 25.115 23.784 106.453 25.828 112.088 2.15 5.928-9.947 12.103-13.17 4.816-5.129-11.596-17.351-43.681-22.792-63.272-5.101-18.366-9.255-34.89-11.29-44.25Z"/><path fill="#EDB795" d="M286.276 330.994c-23.482 5.934-109.373 16.664-115.267 18.347-6.064 1.731-11.38-10.767-3.885-13.474 11.925-4.308 44.784-14.261 64.707-18.323 16.024-3.267 30.647-5.933 40.464-7.494-.831-27.577-4.633-93.756-2.141-108.05h51.165c-2.39 13.707-22.59 113.718-26.344 123.729-1.192 3.573-4.747 5.153-8.699 5.265Z"/><path fill="#fff" d="M167.668 332.539c-3.136-.583-5.433-.746-6.894-.489-1.776.313-4.315 1.066-7.618 2.259l9.795 55.545c5.026.602 7.455-.686 7.287-3.863a316.121 316.121 0 0 1-.336-7.932l6.957-27.846a1 1 0 0 0-.727-1.213l-.028-.006-4.318-.95c-1.851-2.642-2.935-4.863-3.252-6.663-.258-1.462-.024-3.586.703-6.371a2 2 0 0 0-1.569-2.471Zm196.329 93.863c-1.119 2.986-1.678 5.221-1.678 6.704 0 1.803.3 4.434.901 7.894h56.402c1.466-4.845.62-7.461-2.538-7.848a312.752 312.752 0 0 1-7.87-1.046l-26.215-11.687a1 1 0 0 0-1.321.506l-.011.026-1.685 4.088c-2.923 1.364-5.299 2.046-7.126 2.046-1.485 0-3.536-.6-6.153-1.799v-.001a2 2 0 0 0-2.706 1.117Z"/><path fill="#F038A5" d="M270.319 202c22.547-6.451 43.88-6.451 64 0 7 31.937 24.009 44.613 27 93.579-34 16.894-76-12.049-111 4.426-10-23.044 4-78.541 20-98.005Z"/><path fill="#EDB795" d="m367.319 162.311 39.483-5.386c7.898-4.393 15.164-7.367 21.797-8.922 1.867-.055 4.837.624.413 4.312-4.424 3.688-8.913 7.768-8.125 9.736.788 1.969 4.903 1.236 5.584 4.264.455 2.018-6.223 2.346-20.031.984L374.403 180l-7.084-17.689Zm-124.031 9.139 21.898.082c-24.011 54.034-36.531 82.325-37.559 84.874-2.314 5.734 2.582 14.468 4.676 19.161-6.82 3.052-6.093-8.25-14.696-4.248-7.853 3.654-13.827 10.273-22.899 4.675-1.116-.688-2.338-3.279.615-5.304 7.358-5.045 17.961-13.875 19.394-16.782 1.953-3.963 11.477-31.449 28.571-82.458Z"/><path fill="#EEE" d="m303.268 102 17.145 1.142c4.222 38.201 27.222 62.331 78.717 54.162l6.841 49.195c-48.13 6.22-90.339-13.049-98.99-65.221-2.239-13.505-4.008-27.56-3.713-39.278Z"/><path fill="#fff" d="m294.809 97.016 25.977 5.949c0 44.679 14.233 73.185 21.533 106.035h-70.157c-.988 11.351-1.595 23.018-1.911 35H217.72c11.904-63.336 37.029-112.336 75.374-147h1.702l.013.016Z"/><path fill="#EEE" d="M283.231 145.259c-1.808 27.842-.745 49.088 3.19 63.741h-14.259c1.958-22.486 5.413-43.733 11.069-63.741Z"/><path stroke="#F9F9F9" d="M420 184c18.174 24.939 53.047 103.772 47.144 219.592 2.596-29.635 14.512-88.226 41.404-85.505 26.893 2.721 22.957 83.076 17.628 122.913 5.876-55.708 26.158-85.913 47.324-90"/></svg>