<svg xmlns="http://www.w3.org/2000/svg" width="1354" height="865" fill="none" viewBox="0 0 1354 865"><rect width="589" height="408" x="303" y="195" fill="url(#paint0_linear)" rx="4"/><rect width="340" height="134" x="767" y="547" fill="url(#paint1_linear)" rx="4"/><rect width="255" height="154" x="262" y="113" fill="url(#paint2_linear)" rx="4"/><g filter="url(#filter0_d)"><rect width="136.743" height="176.012" fill="url(#paint3_linear)" rx="22" transform="matrix(-0.971919 0.235317 0 1 959.902 281)"/></g><rect width="90.346" height="5.61" fill="#C4C4C4" rx="2.805" transform="matrix(-0.962455 0.27144 0 1 944.275 337.065)"/><rect width="72.929" height="5.61" fill="#9AEEDF" rx="2.805" transform="matrix(-0.962455 0.27144 0 1 916.002 359.181)"/><rect width="84.85" height="6.311" fill="#C4C4C4" rx="3.156" transform="matrix(-0.962455 0.27144 0 1 939.275 325.04)"/><rect width="44.178" height="5.61" fill="#9BF0E1" rx="2.805" transform="matrix(-0.962455 0.27144 0 1 889.002 326.21)"/><rect width="56.801" height="5.61" fill="#F037A5" rx="2.805" transform="matrix(-0.962455 0.27144 0 1 900.67 310)"/><rect width="46.63" height="5.61" fill="#F037A5" rx="2.805" transform="matrix(-0.962455 0.27144 0 1 891.002 379.804)"/><path fill="#fff" d="M828.657 519.864V537H832.425V519.864H828.657ZM839.253 533.832V523.032H841.941C842.869 523.032 843.645 523.168 844.269 523.44C844.909 523.696 845.421 524.072 845.805 524.568C846.189 525.064 846.461 525.664 846.621 526.368C846.797 527.056 846.885 527.832 846.885 528.696C846.885 529.64 846.765 530.44 846.525 531.096C846.285 531.752 845.965 532.288 845.565 532.704C845.165 533.104 844.709 533.392 844.197 533.568C843.685 533.744 843.157 533.832 842.613 533.832H839.253ZM835.485 519.864V537H842.877C844.189 537 845.325 536.784 846.285 536.352C847.261 535.904 848.069 535.296 848.709 534.528C849.365 533.76 849.853 532.848 850.173 531.792C850.493 530.736 850.653 529.584 850.653 528.336C850.653 526.912 850.453 525.672 850.053 524.616C849.669 523.56 849.125 522.68 848.421 521.976C847.733 521.272 846.909 520.744 845.949 520.392C845.005 520.04 843.981 519.864 842.877 519.864H835.485ZM853.024 519.864V537H866.032V533.832H856.792V529.632H865.096V526.704H856.792V523.032H865.84V519.864H853.024Z"/><g filter="url(#filter1_d)"><rect width="136.743" height="176.012" fill="url(#paint4_linear)" rx="22" transform="matrix(-0.965926 0.258819 0 1 755.084 279)"/></g><rect width="13.122" height="13.122" fill="#388AED" transform="matrix(-0.965926 0.258819 0 1 739.951 378.123)"/><rect width="13.122" height="13.122" fill="#388AED" transform="matrix(-0.965926 0.258819 0 1 723.822 399.16)"/><rect width="13.122" height="13.122" fill="#388AED" transform="matrix(-0.965926 0.258819 0 1 723.822 382.33)"/><rect width="13.122" height="13.122" fill="#88BEFF" transform="matrix(-0.965926 0.258819 0 1 707.694 403.367)"/><rect width="13.122" height="13.122" fill="#88BEFF" transform="matrix(-0.965926 0.258819 0 1 707.694 386.538)"/><rect width="13.122" height="13.122" fill="#88BEFF" transform="matrix(-0.965926 0.258819 0 1 723.822 415.99)"/><rect width="13.122" height="13.122" fill="#388AED" transform="matrix(-0.965926 0.258819 0 1 723.822 432.82)"/><rect width="13.122" height="13.122" fill="#88BEFF" transform="matrix(-0.965926 0.258819 0 1 739.951 428.612)"/><rect width="13.122" height="13.122" fill="#388AED" transform="matrix(-0.965926 0.258819 0 1 739.951 411.782)"/><rect width="13.122" height="13.122" fill="#388AED" transform="matrix(-0.965926 0.258819 0 1 739.951 394.953)"/><rect width="13.122" height="13.122" fill="#388AED" transform="matrix(-0.965926 0.258819 0 1 723.822 348.671)"/><rect width="13.122" height="13.122" fill="#388AED" transform="matrix(-0.965926 0.258819 0 1 723.822 365.5)"/><rect width="13.122" height="13.122" fill="#388AED" transform="matrix(-0.965926 0.258819 0 1 739.951 361.293)"/><rect width="13.122" height="13.122" fill="#88BEFF" transform="matrix(-0.965926 0.258819 0 1 739.951 343.762)"/><rect width="13.122" height="13.122" fill="#388AED" transform="matrix(-0.965926 0.258819 0 1 707.694 369.708)"/><rect width="13.122" height="13.122" fill="#388AED" transform="matrix(-0.965926 0.258819 0 1 675.437 411.782)"/><rect width="13.122" height="13.122" fill="#88BEFF" transform="matrix(-0.965926 0.258819 0 1 675.437 445.442)"/><rect width="13.122" height="13.122" fill="#88BEFF" transform="matrix(-0.965926 0.258819 0 1 675.437 428.612)"/><rect width="13.122" height="13.122" fill="#388AED" transform="matrix(-0.965926 0.258819 0 1 659.309 449.649)"/><rect width="13.122" height="13.122" fill="#388AED" transform="matrix(-0.965926 0.258819 0 1 659.309 432.82)"/><rect width="13.122" height="13.122" fill="#388AED" transform="matrix(-0.965926 0.258819 0 1 691.565 441.235)"/><rect width="13.122" height="13.122" fill="#388AED" transform="matrix(-0.965926 0.258819 0 1 707.694 437.027)"/><rect width="13.122" height="13.122" fill="#388AED" transform="matrix(-0.965926 0.258819 0 1 707.694 420.198)"/><rect width="13.122" height="13.122" fill="#388AED" transform="matrix(-0.965926 0.258819 0 1 691.565 407.575)"/><rect width="13.122" height="13.122" fill="#388AED" transform="matrix(-0.965926 0.258819 0 1 691.565 390.745)"/><rect width="13.122" height="13.122" fill="#388AED" transform="matrix(-0.965926 0.258819 0 1 691.565 424.405)"/><path fill="#fff" d="M637.04 535.056L637.424 537H639.824V527.736H632.624V530.544H636.416C636.304 531.744 635.904 532.664 635.216 533.304C634.544 533.928 633.584 534.24 632.336 534.24C631.488 534.24 630.768 534.08 630.176 533.76C629.584 533.424 629.104 532.984 628.736 532.44C628.368 531.896 628.096 531.288 627.92 530.616C627.76 529.928 627.68 529.224 627.68 528.504C627.68 527.752 627.76 527.024 627.92 526.32C628.096 525.616 628.368 524.992 628.736 524.448C629.104 523.888 629.584 523.448 630.176 523.128C630.768 522.792 631.488 522.624 632.336 522.624C633.248 522.624 634.024 522.864 634.664 523.344C635.304 523.824 635.736 524.544 635.96 525.504H639.56C639.464 524.528 639.2 523.664 638.768 522.912C638.336 522.16 637.784 521.528 637.112 521.016C636.456 520.504 635.712 520.12 634.88 519.864C634.064 519.592 633.216 519.456 632.336 519.456C631.024 519.456 629.84 519.688 628.784 520.152C627.744 520.616 626.864 521.256 626.144 522.072C625.424 522.888 624.872 523.848 624.488 524.952C624.104 526.04 623.912 527.224 623.912 528.504C623.912 529.752 624.104 530.92 624.488 532.008C624.872 533.08 625.424 534.016 626.144 534.816C626.864 535.616 627.744 536.248 628.784 536.712C629.84 537.16 631.024 537.384 632.336 537.384C633.168 537.384 633.992 537.216 634.808 536.88C635.624 536.528 636.368 535.92 637.04 535.056ZM645.761 522.672V519.864H642.353V522.672H645.761ZM642.353 524.592V537H645.761V524.592H642.353ZM652.514 524.592V520.872H649.106V524.592H647.042V526.872H649.106V534.192C649.106 534.816 649.21 535.32 649.418 535.704C649.626 536.088 649.906 536.384 650.258 536.592C650.626 536.8 651.042 536.936 651.506 537C651.986 537.08 652.49 537.12 653.018 537.12C653.354 537.12 653.698 537.112 654.05 537.096C654.402 537.08 654.722 537.048 655.01 537V534.36C654.85 534.392 654.682 534.416 654.506 534.432C654.33 534.448 654.146 534.456 653.954 534.456C653.378 534.456 652.994 534.36 652.802 534.168C652.61 533.976 652.514 533.592 652.514 533.016V526.872H655.01V524.592H652.514ZM656.742 519.864V537H660.51V529.608H667.446V537H671.214V519.864H667.446V526.44H660.51V519.864H656.742ZM685.561 537V524.592H682.153V531.096C682.153 532.36 681.945 533.272 681.529 533.832C681.113 534.376 680.441 534.648 679.513 534.648C678.697 534.648 678.129 534.4 677.809 533.904C677.489 533.392 677.329 532.624 677.329 531.6V524.592H673.921V532.224C673.921 532.992 673.985 533.696 674.113 534.336C674.257 534.96 674.497 535.496 674.833 535.944C675.169 536.376 675.625 536.712 676.201 536.952C676.793 537.192 677.545 537.312 678.457 537.312C679.177 537.312 679.881 537.152 680.569 536.832C681.257 536.512 681.817 535.992 682.249 535.272H682.321V537H685.561ZM696.994 530.808C696.994 531.32 696.938 531.816 696.826 532.296C696.714 532.776 696.538 533.2 696.298 533.568C696.058 533.936 695.754 534.232 695.386 534.456C695.034 534.664 694.602 534.768 694.09 534.768C693.594 534.768 693.162 534.664 692.794 534.456C692.426 534.232 692.122 533.936 691.882 533.568C691.642 533.2 691.466 532.776 691.354 532.296C691.242 531.816 691.186 531.32 691.186 530.808C691.186 530.28 691.242 529.776 691.354 529.296C691.466 528.816 691.642 528.392 691.882 528.024C692.122 527.656 692.426 527.368 692.794 527.16C693.162 526.936 693.594 526.824 694.09 526.824C694.602 526.824 695.034 526.936 695.386 527.16C695.754 527.368 696.058 527.656 696.298 528.024C696.538 528.392 696.714 528.816 696.826 529.296C696.938 529.776 696.994 530.28 696.994 530.808ZM687.898 519.864V537H691.138V535.416H691.186C691.554 536.104 692.098 536.592 692.818 536.88C693.538 537.168 694.354 537.312 695.266 537.312C695.89 537.312 696.506 537.184 697.114 536.928C697.722 536.672 698.266 536.28 698.746 535.752C699.242 535.224 699.642 534.552 699.946 533.736C700.25 532.904 700.402 531.92 700.402 530.784C700.402 529.648 700.25 528.672 699.946 527.856C699.642 527.024 699.242 526.344 698.746 525.816C698.266 525.288 697.722 524.896 697.114 524.64C696.506 524.384 695.89 524.256 695.266 524.256C694.498 524.256 693.754 524.408 693.034 524.712C692.33 525 691.77 525.464 691.354 526.104H691.306V519.864H687.898Z"/><g filter="url(#filter2_d)"><rect width="136.743" height="176.012" fill="url(#paint5_linear)" rx="22" transform="matrix(0.965926 -0.258819 0 1 419 314.392)"/></g><path fill="#121212" d="M449.835 396.095V415.138L470.323 409.649C473.983 408.668 476.945 407.171 479.209 405.158C481.51 403.096 482.661 400.249 482.661 396.616C482.661 392.593 481.152 390.341 478.133 389.861C475.53 389.66 472.21 390.1 468.172 391.182L449.835 396.095ZM449.835 429.435V452.463L470.323 446.973C473.983 445.992 476.832 444.721 478.869 443.159C482.567 440.294 484.416 436.205 484.416 430.892C484.416 426.4 482.623 423.794 479.039 423.075C477.039 422.673 474.228 422.938 470.606 423.87L449.835 429.435ZM473.719 374.696C483.944 372.112 491.188 373.237 495.452 378.072C498.018 381.056 499.301 385.107 499.301 390.224C499.301 395.497 498.018 400.079 495.452 403.97C494.018 406.151 491.905 408.358 489.113 410.59C493.377 411.049 496.584 412.729 498.735 415.629C500.923 418.52 502.017 422.445 502.017 427.406C502.017 432.523 500.772 437.447 498.282 442.177C496.697 445.296 494.716 448.093 492.339 450.566C489.66 453.393 486.491 455.688 482.831 457.449C479.209 459.201 475.266 460.648 471.002 461.791L433.195 471.921V385.554L473.719 374.696ZM510.378 440.9C510.378 446.95 515.265 450.921 521.215 449.326C527.165 447.732 532.159 441.114 532.159 435.064C532.159 428.904 527.165 425.182 521.215 426.776C515.265 428.371 510.378 434.74 510.378 440.9Z"/><path fill="#fff" d="M424.424 527.066V523.058H427.952C428.288 523.058 428.608 523.09 428.912 523.154C429.232 523.202 429.512 523.298 429.752 523.442C429.992 523.586 430.184 523.786 430.328 524.042C430.472 524.298 430.544 524.626 430.544 525.026C430.544 525.746 430.328 526.266 429.896 526.586C429.464 526.906 428.912 527.066 428.24 527.066H424.424ZM420.656 520.13V537.266H428.96C429.728 537.266 430.472 537.17 431.192 536.978C431.928 536.786 432.576 536.49 433.136 536.09C433.712 535.69 434.168 535.178 434.504 534.554C434.84 533.914 435.008 533.162 435.008 532.298C435.008 531.226 434.744 530.314 434.216 529.562C433.704 528.794 432.92 528.258 431.864 527.954C432.632 527.586 433.208 527.114 433.592 526.538C433.992 525.962 434.192 525.242 434.192 524.378C434.192 523.578 434.056 522.906 433.784 522.362C433.528 521.818 433.16 521.386 432.68 521.066C432.2 520.73 431.624 520.49 430.952 520.346C430.28 520.202 429.536 520.13 428.72 520.13H420.656ZM424.424 534.338V529.634H428.528C429.344 529.634 430 529.826 430.496 530.21C430.992 530.578 431.24 531.202 431.24 532.082C431.24 532.53 431.16 532.898 431 533.186C430.856 533.474 430.656 533.706 430.4 533.882C430.144 534.042 429.848 534.162 429.512 534.242C429.176 534.306 428.824 534.338 428.456 534.338H424.424ZM436.8 528.674C436.848 527.874 437.048 527.21 437.4 526.682C437.752 526.154 438.2 525.73 438.744 525.41C439.288 525.09 439.896 524.866 440.568 524.738C441.256 524.594 441.944 524.522 442.632 524.522C443.256 524.522 443.888 524.57 444.528 524.666C445.168 524.746 445.752 524.914 446.28 525.17C446.808 525.426 447.24 525.786 447.576 526.25C447.912 526.698 448.08 527.298 448.08 528.05V534.506C448.08 535.066 448.112 535.602 448.176 536.114C448.24 536.626 448.352 537.01 448.512 537.266H445.056C444.992 537.074 444.936 536.882 444.888 536.69C444.856 536.482 444.832 536.274 444.816 536.066C444.272 536.626 443.632 537.018 442.896 537.242C442.16 537.466 441.408 537.578 440.64 537.578C440.048 537.578 439.496 537.506 438.984 537.362C438.472 537.218 438.024 536.994 437.64 536.69C437.256 536.386 436.952 536.002 436.728 535.538C436.52 535.074 436.416 534.522 436.416 533.882C436.416 533.178 436.536 532.602 436.776 532.154C437.032 531.69 437.352 531.322 437.736 531.05C438.136 530.778 438.584 530.578 439.08 530.45C439.592 530.306 440.104 530.194 440.616 530.114C441.128 530.034 441.632 529.97 442.128 529.922C442.624 529.874 443.064 529.802 443.448 529.706C443.832 529.61 444.136 529.474 444.36 529.298C444.584 529.106 444.688 528.834 444.672 528.482C444.672 528.114 444.608 527.826 444.48 527.618C444.368 527.394 444.208 527.226 444 527.114C443.808 526.986 443.576 526.906 443.304 526.874C443.048 526.826 442.768 526.802 442.464 526.802C441.792 526.802 441.264 526.946 440.88 527.234C440.496 527.522 440.272 528.002 440.208 528.674H436.8ZM444.672 531.194C444.528 531.322 444.344 531.426 444.12 531.506C443.912 531.57 443.68 531.626 443.424 531.674C443.184 531.722 442.928 531.762 442.656 531.794C442.384 531.826 442.112 531.866 441.84 531.914C441.584 531.962 441.328 532.026 441.072 532.106C440.832 532.186 440.616 532.298 440.424 532.442C440.248 532.57 440.104 532.738 439.992 532.946C439.88 533.154 439.824 533.418 439.824 533.738C439.824 534.042 439.88 534.298 439.992 534.506C440.104 534.714 440.256 534.882 440.448 535.01C440.64 535.122 440.864 535.202 441.12 535.25C441.376 535.298 441.64 535.322 441.912 535.322C442.584 535.322 443.104 535.21 443.472 534.986C443.84 534.762 444.112 534.498 444.288 534.194C444.464 533.874 444.568 533.554 444.6 533.234C444.648 532.914 444.672 532.658 444.672 532.466V531.194ZM458.924 529.226H462.26C462.212 528.426 462.02 527.738 461.684 527.162C461.348 526.57 460.908 526.082 460.364 525.698C459.836 525.298 459.228 525.002 458.54 524.81C457.868 524.618 457.164 524.522 456.428 524.522C455.42 524.522 454.524 524.69 453.74 525.026C452.956 525.362 452.292 525.834 451.748 526.442C451.204 527.034 450.788 527.746 450.5 528.578C450.228 529.394 450.092 530.282 450.092 531.242C450.092 532.17 450.244 533.026 450.548 533.81C450.852 534.578 451.276 535.242 451.82 535.802C452.364 536.362 453.02 536.802 453.788 537.122C454.572 537.426 455.428 537.578 456.356 537.578C458.004 537.578 459.356 537.146 460.412 536.282C461.468 535.418 462.108 534.162 462.332 532.514H459.044C458.932 533.282 458.652 533.898 458.204 534.362C457.772 534.81 457.148 535.034 456.332 535.034C455.804 535.034 455.356 534.914 454.988 534.674C454.62 534.434 454.324 534.13 454.1 533.762C453.892 533.378 453.74 532.954 453.644 532.49C453.548 532.026 453.5 531.57 453.5 531.122C453.5 530.658 453.548 530.194 453.644 529.73C453.74 529.25 453.9 528.818 454.124 528.434C454.364 528.034 454.668 527.714 455.036 527.474C455.404 527.218 455.86 527.09 456.404 527.09C457.86 527.09 458.7 527.802 458.924 529.226ZM464.319 520.13V537.266H467.727V532.994L469.047 531.722L472.455 537.266H476.583L471.375 529.418L476.055 524.858H472.023L467.727 529.322V520.13H464.319ZM480.178 533.234H476.938C476.97 534.066 477.154 534.762 477.49 535.322C477.842 535.866 478.282 536.306 478.81 536.642C479.354 536.978 479.97 537.218 480.658 537.362C481.346 537.506 482.05 537.578 482.77 537.578C483.474 537.578 484.162 537.506 484.834 537.362C485.522 537.234 486.13 537.002 486.658 536.666C487.186 536.33 487.61 535.89 487.93 535.346C488.266 534.786 488.434 534.098 488.434 533.282C488.434 532.706 488.322 532.226 488.098 531.842C487.874 531.442 487.578 531.114 487.21 530.858C486.842 530.586 486.418 530.37 485.938 530.21C485.474 530.05 484.994 529.914 484.498 529.802C484.018 529.69 483.546 529.586 483.082 529.49C482.618 529.394 482.202 529.29 481.834 529.178C481.482 529.05 481.194 528.89 480.97 528.698C480.746 528.506 480.634 528.258 480.634 527.954C480.634 527.698 480.698 527.498 480.826 527.354C480.954 527.194 481.106 527.074 481.282 526.994C481.474 526.914 481.682 526.866 481.906 526.85C482.13 526.818 482.338 526.802 482.53 526.802C483.138 526.802 483.666 526.922 484.114 527.162C484.562 527.386 484.81 527.826 484.858 528.482H488.098C488.034 527.714 487.834 527.082 487.498 526.586C487.178 526.074 486.77 525.666 486.274 525.362C485.778 525.058 485.21 524.842 484.57 524.714C483.946 524.586 483.298 524.522 482.626 524.522C481.954 524.522 481.298 524.586 480.658 524.714C480.018 524.826 479.442 525.034 478.93 525.338C478.418 525.626 478.002 526.026 477.682 526.538C477.378 527.05 477.226 527.706 477.226 528.506C477.226 529.05 477.338 529.514 477.562 529.898C477.786 530.266 478.082 530.578 478.45 530.834C478.818 531.074 479.234 531.274 479.698 531.434C480.178 531.578 480.666 531.706 481.162 531.818C482.378 532.074 483.322 532.33 483.994 532.586C484.682 532.842 485.026 533.226 485.026 533.738C485.026 534.042 484.954 534.298 484.81 534.506C484.666 534.698 484.482 534.858 484.258 534.986C484.05 535.098 483.81 535.186 483.538 535.25C483.282 535.298 483.034 535.322 482.794 535.322C482.458 535.322 482.13 535.282 481.81 535.202C481.506 535.122 481.234 535.002 480.994 534.842C480.754 534.666 480.554 534.45 480.394 534.194C480.25 533.922 480.178 533.602 480.178 533.234ZM494.499 524.858V521.138H491.091V524.858H489.027V527.138H491.091V534.458C491.091 535.082 491.195 535.586 491.403 535.97C491.611 536.354 491.891 536.65 492.243 536.858C492.611 537.066 493.027 537.202 493.491 537.266C493.971 537.346 494.475 537.386 495.003 537.386C495.339 537.386 495.683 537.378 496.035 537.362C496.387 537.346 496.707 537.314 496.995 537.266V534.626C496.835 534.658 496.667 534.682 496.491 534.698C496.315 534.714 496.131 534.722 495.939 534.722C495.363 534.722 494.979 534.626 494.787 534.434C494.595 534.242 494.499 533.858 494.499 533.282V527.138H496.995V524.858H494.499ZM498.222 528.674C498.27 527.874 498.47 527.21 498.822 526.682C499.174 526.154 499.622 525.73 500.166 525.41C500.71 525.09 501.318 524.866 501.99 524.738C502.678 524.594 503.366 524.522 504.054 524.522C504.678 524.522 505.31 524.57 505.95 524.666C506.59 524.746 507.174 524.914 507.702 525.17C508.23 525.426 508.662 525.786 508.998 526.25C509.334 526.698 509.502 527.298 509.502 528.05V534.506C509.502 535.066 509.534 535.602 509.598 536.114C509.662 536.626 509.774 537.01 509.934 537.266H506.478C506.414 537.074 506.358 536.882 506.31 536.69C506.278 536.482 506.254 536.274 506.238 536.066C505.694 536.626 505.054 537.018 504.318 537.242C503.582 537.466 502.83 537.578 502.062 537.578C501.47 537.578 500.918 537.506 500.406 537.362C499.894 537.218 499.446 536.994 499.062 536.69C498.678 536.386 498.374 536.002 498.15 535.538C497.942 535.074 497.838 534.522 497.838 533.882C497.838 533.178 497.958 532.602 498.198 532.154C498.454 531.69 498.774 531.322 499.158 531.05C499.558 530.778 500.006 530.578 500.502 530.45C501.014 530.306 501.526 530.194 502.038 530.114C502.55 530.034 503.054 529.97 503.55 529.922C504.046 529.874 504.486 529.802 504.87 529.706C505.254 529.61 505.558 529.474 505.782 529.298C506.006 529.106 506.11 528.834 506.094 528.482C506.094 528.114 506.03 527.826 505.902 527.618C505.79 527.394 505.63 527.226 505.422 527.114C505.23 526.986 504.998 526.906 504.726 526.874C504.47 526.826 504.19 526.802 503.886 526.802C503.214 526.802 502.686 526.946 502.302 527.234C501.918 527.522 501.694 528.002 501.63 528.674H498.222ZM506.094 531.194C505.95 531.322 505.766 531.426 505.542 531.506C505.334 531.57 505.102 531.626 504.846 531.674C504.606 531.722 504.35 531.762 504.078 531.794C503.806 531.826 503.534 531.866 503.262 531.914C503.006 531.962 502.75 532.026 502.494 532.106C502.254 532.186 502.038 532.298 501.846 532.442C501.67 532.57 501.526 532.738 501.414 532.946C501.302 533.154 501.246 533.418 501.246 533.738C501.246 534.042 501.302 534.298 501.414 534.506C501.526 534.714 501.678 534.882 501.87 535.01C502.062 535.122 502.286 535.202 502.542 535.25C502.798 535.298 503.062 535.322 503.334 535.322C504.006 535.322 504.526 535.21 504.894 534.986C505.262 534.762 505.534 534.498 505.71 534.194C505.886 533.874 505.99 533.554 506.022 533.234C506.07 532.914 506.094 532.658 506.094 532.466V531.194ZM517.682 534.338C517.154 534.338 516.714 534.226 516.362 534.002C516.01 533.778 515.722 533.49 515.498 533.138C515.29 532.786 515.138 532.394 515.042 531.962C514.962 531.514 514.922 531.066 514.922 530.618C514.922 530.154 514.97 529.714 515.066 529.298C515.178 528.866 515.346 528.49 515.57 528.17C515.81 527.834 516.098 527.57 516.434 527.378C516.786 527.186 517.202 527.09 517.682 527.09C518.242 527.09 518.706 527.194 519.074 527.402C519.442 527.61 519.738 527.89 519.962 528.242C520.186 528.594 520.346 529.002 520.442 529.466C520.538 529.914 520.586 530.394 520.586 530.906C520.586 531.354 520.522 531.786 520.394 532.202C520.282 532.602 520.106 532.962 519.866 533.282C519.626 533.602 519.322 533.858 518.954 534.05C518.586 534.242 518.162 534.338 517.682 534.338ZM523.826 536.474V524.858H520.586V526.514H520.538C520.122 525.794 519.602 525.282 518.978 524.978C518.37 524.674 517.658 524.522 516.842 524.522C515.978 524.522 515.21 524.69 514.538 525.026C513.882 525.362 513.33 525.818 512.882 526.394C512.434 526.954 512.09 527.61 511.85 528.362C511.626 529.098 511.514 529.866 511.514 530.666C511.514 531.514 511.61 532.322 511.802 533.09C512.01 533.842 512.33 534.506 512.762 535.082C513.194 535.642 513.746 536.09 514.418 536.426C515.09 536.746 515.89 536.906 516.818 536.906C517.57 536.906 518.282 536.754 518.954 536.45C519.642 536.13 520.17 535.642 520.538 534.986H520.586V536.618C520.602 537.498 520.386 538.226 519.938 538.802C519.506 539.378 518.81 539.666 517.85 539.666C517.242 539.666 516.706 539.538 516.242 539.282C515.778 539.042 515.466 538.602 515.306 537.962H511.922C511.97 538.666 512.162 539.266 512.498 539.762C512.85 540.274 513.282 540.69 513.794 541.01C514.322 541.33 514.898 541.562 515.522 541.706C516.162 541.866 516.786 541.946 517.394 541.946C518.818 541.946 519.954 541.754 520.802 541.37C521.65 540.986 522.298 540.514 522.746 539.954C523.194 539.41 523.482 538.818 523.61 538.178C523.754 537.538 523.826 536.97 523.826 536.474ZM534.671 529.73H529.127C529.143 529.49 529.191 529.218 529.271 528.914C529.367 528.61 529.519 528.322 529.727 528.05C529.951 527.778 530.239 527.554 530.591 527.378C530.959 527.186 531.415 527.09 531.959 527.09C532.791 527.09 533.407 527.314 533.807 527.762C534.223 528.21 534.511 528.866 534.671 529.73ZM529.127 531.89H538.079C538.143 530.93 538.063 530.01 537.839 529.13C537.615 528.25 537.247 527.466 536.735 526.778C536.239 526.09 535.599 525.546 534.815 525.146C534.031 524.73 533.111 524.522 532.055 524.522C531.111 524.522 530.247 524.69 529.463 525.026C528.695 525.362 528.031 525.826 527.471 526.418C526.911 526.994 526.479 527.682 526.175 528.482C525.871 529.282 525.719 530.146 525.719 531.074C525.719 532.034 525.863 532.914 526.151 533.714C526.455 534.514 526.879 535.202 527.423 535.778C527.967 536.354 528.631 536.802 529.415 537.122C530.199 537.426 531.079 537.578 532.055 537.578C533.463 537.578 534.663 537.258 535.655 536.618C536.647 535.978 537.383 534.914 537.863 533.426H534.863C534.751 533.81 534.447 534.178 533.951 534.53C533.455 534.866 532.863 535.034 532.175 535.034C531.215 535.034 530.479 534.786 529.967 534.29C529.455 533.794 529.175 532.994 529.127 531.89Z"/><path fill="#9BF0E1" d="M539.683 535.25C539.683 536.45 540.667 537.434 541.867 537.434C543.091 537.434 544.075 536.45 544.075 535.25C544.075 534.05 543.091 533.066 541.867 533.066C540.667 533.066 539.683 534.05 539.683 535.25Z"/><defs><filter id="filter0_d" width="148.903" height="215.048" x="822" y="280.571" color-interpolation-filters="sRGB" filterUnits="userSpaceOnUse"><feFlood flood-opacity="0" result="BackgroundImageFix"/><feColorMatrix in="SourceAlpha" type="matrix" values="0 0 0 0 0 0 0 0 0 0 0 0 0 0 0 0 0 0 127 0"/><feOffset dx="3" dy="3"/><feGaussianBlur stdDeviation="4"/><feColorMatrix type="matrix" values="0 0 0 0 0 0 0 0 0 0 0 0 0 0 0 0 0 0 0.25 0"/><feBlend in2="BackgroundImageFix" mode="normal" result="effect1_dropShadow"/><feBlend in="SourceGraphic" in2="effect1_dropShadow" mode="normal" result="shape"/></filter><filter id="filter1_d" width="148.083" height="217.477" x="618.001" y="278.964" color-interpolation-filters="sRGB" filterUnits="userSpaceOnUse"><feFlood flood-opacity="0" result="BackgroundImageFix"/><feColorMatrix in="SourceAlpha" type="matrix" values="0 0 0 0 0 0 0 0 0 0 0 0 0 0 0 0 0 0 127 0"/><feOffset dx="3" dy="3"/><feGaussianBlur stdDeviation="4"/><feColorMatrix type="matrix" values="0 0 0 0 0 0 0 0 0 0 0 0 0 0 0 0 0 0 0.25 0"/><feBlend in2="BackgroundImageFix" mode="normal" result="effect1_dropShadow"/><feBlend in="SourceGraphic" in2="effect1_dropShadow" mode="normal" result="shape"/></filter><filter id="filter2_d" width="148.083" height="217.477" x="414" y="278.964" color-interpolation-filters="sRGB" filterUnits="userSpaceOnUse"><feFlood flood-opacity="0" result="BackgroundImageFix"/><feColorMatrix in="SourceAlpha" type="matrix" values="0 0 0 0 0 0 0 0 0 0 0 0 0 0 0 0 0 0 127 0"/><feOffset dx="3" dy="3"/><feGaussianBlur stdDeviation="4"/><feColorMatrix type="matrix" values="0 0 0 0 0 0 0 0 0 0 0 0 0 0 0 0 0 0 0.25 0"/><feBlend in2="BackgroundImageFix" mode="normal" result="effect1_dropShadow"/><feBlend in="SourceGraphic" in2="effect1_dropShadow" mode="normal" result="shape"/></filter><linearGradient id="paint0_linear" x1="-71.5" x2="655.63" y1="823.794" y2="374.327" gradientUnits="userSpaceOnUse"><stop offset=".041" stop-color="#9BF0E1"/><stop offset="1" stop-color="#9BF0E1" stop-opacity=".11"/></linearGradient><linearGradient id="paint1_linear" x1="550.82" x2="816.885" y1="753.516" y2="464.452" gradientUnits="userSpaceOnUse"><stop offset=".041" stop-color="#9BF0E1"/><stop offset="1" stop-color="#9BF0E1" stop-opacity=".13"/></linearGradient><linearGradient id="paint2_linear" x1="99.865" x2="389.403" y1="350.339" y2="145.055" gradientUnits="userSpaceOnUse"><stop offset=".041" stop-color="#9BF0E1"/><stop offset="1" stop-color="#9BF0E1" stop-opacity=".1"/></linearGradient><linearGradient id="paint3_linear" x1="68.371" x2="68.371" y1="0" y2="176.012" gradientUnits="userSpaceOnUse"><stop stop-color="#757575"/><stop offset="1" stop-color="#282828"/></linearGradient><linearGradient id="paint4_linear" x1="68.371" x2="68.371" y1="0" y2="176.012" gradientUnits="userSpaceOnUse"><stop stop-color="#509BF5"/><stop offset="1" stop-color="#1975E2"/></linearGradient><linearGradient id="paint5_linear" x1="68.371" x2="68.371" y1="0" y2="176.012" gradientUnits="userSpaceOnUse"><stop stop-color="#9BF0E1"/><stop offset="1" stop-color="#36BAA2"/></linearGradient></defs></svg>