<svg xmlns="http://www.w3.org/2000/svg" width="682.667" height="682.667" version="1.0" viewBox="0 0 512 512"><path d="M49.2 51c-.4.3-.8 88.2-.7 195.3v194.8l85-.2c89.8-.1 94.5-.3 111.8-4.9 50.5-13.4 82.3-53.1 82.9-103.7.2-13.6-.9-21.2-4.4-32.3-4-12.5-8.9-21.8-16.3-31-3.5-4.3-12.6-12.8-16.9-15.7-2.2-1.5-4.3-3-4.6-3.3-1.2-1.3-13.1-7-18.8-9.1l-6.4-2.2 6-2.8c17.1-7.7 31.7-22.4 40.3-40.4 6.4-13.6 9.2-26.6 9.1-42.5-.5-42.4-24.5-77-64.2-92.3-7.9-3-10.5-3.9-15.5-5-1.1-.3-3.8-1-6-1.5-2.2-.6-6-1.3-8.5-1.7-2.5-.3-5.8-.9-7.5-1.2-3.6-.8-164.3-1.1-165.3-.3zm149.7 74.3c23.6 6.8 35.2 25.4 30.5 48.6-2.6 12.4-11 22.4-23.2 27.7-9.2 4-15.1 4.6-43.9 4.9l-28.3.3-.1-2.7c-.1-3.6-.1-76 0-79l.1-2.3 29.8.5c22.6.4 31 .9 35.1 2zm-8.2 153.8c9.8.3 17.4 1.9 24.7 5.2 16.9 7.8 25.7 21.2 25.8 39.5 0 11.6-3.6 22.1-10 29.3-6.4 7.2-19.2 13.5-31.4 15.5-2.3.3-18.1.7-35 .8l-30.8.2-.1-2.6c-.6-21 .1-87.4.9-87.9.9-.5 36.6-.6 55.9 0zm225.3 54c-27.5 2.4-49.9 26.3-50.3 53.6-.1 11.5 2.1 21.2 6.6 29.2 21 36.9 69.7 40.2 95 6.5 7.7-10.3 11-19.9 11.1-32.9 0-5-.6-11.3-1.3-14-1.6-5.8-6.2-15.5-9.1-19.3-3.3-4.3-12.2-13.2-13.2-13.2-.5 0-2.6-1.1-4.6-2.5-8.5-5.6-21.9-8.5-34.2-7.4z"/></svg>