<svg xmlns="http://www.w3.org/2000/svg" viewBox="0 0 24 24"><path d="m3.45 18.16-.864-.5 9.61-16.64.863.496Zm0 0"/><path d="M2.387 16.332h19.218v.996H2.387Zm0 0"/><path d="m12.383 22.441-9.613-5.55.496-.864 9.613 5.551ZM20.73 7.977l-9.613-5.551.5-.864 9.613 5.551Zm0 0"/><path d="m3.27 7.973-.5-.864 9.613-5.55.5.863Zm0 0"/><path d="m20.555 18.16-9.61-16.644.864-.496 9.609 16.64ZM3.148 6.45h.997v11.1h-.997Zm0 0"/><path d="M19.855 6.45h.997v11.1h-.997Zm0 0"/><path d="m12.21 22.02-.433-.754 8.36-4.825.433.75Zm0 0"/><path d="M22.172 17.875a2.099 2.099 0 0 1-2.863.766 2.095 2.095 0 1 1 2.093-3.63 2.09 2.09 0 0 1 .77 2.864M5.453 8.219a2.095 2.095 0 1 1-3.63-2.092 2.095 2.095 0 0 1 3.63 2.092m-3.625 9.656a2.103 2.103 0 0 1 .77-2.863 2.1 2.1 0 0 1 2.863.77 2.096 2.096 0 0 1-3.633 2.093m16.719-9.656a2.095 2.095 0 1 1 3.63-2.092 2.095 2.095 0 0 1-3.63 2.092M12 23.746a2.094 2.094 0 1 1 0-4.187 2.094 2.094 0 0 1 0 4.187m0-19.305a2.094 2.094 0 1 1 0-4.187 2.094 2.094 0 0 1 0 4.187"/></svg>