<svg xmlns="http://www.w3.org/2000/svg" viewBox="18.24 21.46 64 64" width="64" height="64"><path d="M81.837 53.85c.585-.585.487-1.7 0-2.307l-3.087-3.087-13.8-13.386c-.585-.585-1.495-.585-2.2 0-.585.585-.812 1.7 0 2.307l14.5 14.198c.585.585.585 1.7 0 2.307L62.44 68.568c-.585.585-.585 1.7 0 2.307.585.585 1.7.487 2.2 0l13.8-13.68zm-63.194 0c-.585-.585-.487-1.7 0-2.307l3.087-3.087 13.8-13.386c.585-.585 1.495-.585 2.2 0 .585.585.812 1.7 0 2.307l-14.2 14.2c-.585.585-.585 1.7 0 2.307l14.5 14.686c.585.585.585 1.7 0 2.307-.585.585-1.7.487-2.2 0L21.73 57.4z" fill="#3999c6"/><path d="M52.823 43.875L65.82 23.96H46.325L35.83 53.56l12.8.097-10.007 29.307L66.24 43.878z" fill="#fcd116"/><path d="M66.242 43.875h-13.42L65.82 23.96H55.617L44.83 48.554l12.8.097-19.007 34.3z" opacity=".3" fill="#ff8c00"/></svg>