<svg id="Layer_1" data-name="Layer 1" xmlns="http://www.w3.org/2000/svg" width="250" height="250" viewBox="0 0 250 250"><defs><style>.cls-1{fill:none;stroke:#7df3e1;stroke-linejoin:round;stroke-width:2.5px;}</style></defs><polyline class="cls-1" points="79.08 24.38 79.08 218.83 79.08 245.06"/><polyline class="cls-1" points="63.67 235.75 63.67 209.52 63.67 24.38"/><path class="cls-1" d="M189.83,220h0l0,0Z"/><path class="cls-1" d="M145.5,88.07c-16.61-12.31-5.42-21.25-22-33.56s-27.8-3.37-44.4-15.68v116.3c16.6,12.31,27.79,3.37,44.4,15.68s5.41,21.25,22,33.56,27.76,3.38,44.33,15.63l0-116.27C173.28,91.43,162.09,100.37,145.5,88.07Z"/><path class="cls-1" d="M137.72,124.67V108a23.2,23.2,0,0,0-16.43,6.8l11.82,11.82A6.5,6.5,0,0,1,137.72,124.67Z"/><path class="cls-1" d="M144.24,131.19H161a23.15,23.15,0,0,0-6.81-16.43l-11.82,11.82A6.5,6.5,0,0,1,144.24,131.19Z"/><path class="cls-1" d="M133.11,126.58l-11.82-11.82a23.18,23.18,0,0,0-6.8,16.43H131.2A6.5,6.5,0,0,1,133.11,126.58Z"/><path class="cls-1" d="M142.33,126.58l11.82-11.82a23.16,23.16,0,0,0-16.43-6.8v16.71A6.5,6.5,0,0,1,142.33,126.58Z"/><path class="cls-1" d="M131.2,131.19H114.49a23.16,23.16,0,0,0,6.8,16.43l11.82-11.82A6.5,6.5,0,0,1,131.2,131.19Z"/><path class="cls-1" d="M137.72,137.71v16.72a23.13,23.13,0,0,0,16.43-6.81L142.33,135.8A6.5,6.5,0,0,1,137.72,137.71Z"/><path class="cls-1" d="M161,131.19H144.24a6.5,6.5,0,0,1-1.91,4.61l11.82,11.82A23.13,23.13,0,0,0,161,131.19Z"/><path class="cls-1" d="M133.11,135.8l-11.82,11.82a23.17,23.17,0,0,0,16.43,6.81V137.71A6.5,6.5,0,0,1,133.11,135.8Z"/><path class="cls-1" d="M82.63,16.19a11.26,11.26,0,1,0-19,8.19h0a11.23,11.23,0,0,0,15.41,0h0A11.21,11.21,0,0,0,82.63,16.19Z"/><line class="cls-1" x1="154.15" y1="147.62" x2="161.15" y2="154.62"/><line class="cls-1" x1="160.96" y1="131.19" x2="170.85" y2="131.19"/><line class="cls-1" x1="154.15" y1="114.76" x2="161.15" y2="107.77"/><line class="cls-1" x1="137.72" y1="107.96" x2="137.72" y2="98.06"/><line class="cls-1" x1="121.29" y1="114.76" x2="114.3" y2="107.77"/><line class="cls-1" x1="114.49" y1="131.19" x2="104.6" y2="131.19"/><line class="cls-1" x1="121.29" y1="147.62" x2="114.3" y2="154.62"/><line class="cls-1" x1="137.72" y1="154.43" x2="137.72" y2="164.32"/></svg>