<svg xmlns="http://www.w3.org/2000/svg" id="Layer_1" width="250" height="250" data-name="Layer 1" viewBox="0 0 250 250"><defs><style>.cls-1{fill:none;stroke:#7df3e1;stroke-linejoin:round;stroke-width:2.5px}</style></defs><path d="M79.08 24.38v220.68m-15.41-9.31V24.38M189.83 220ZM145.5 88.07c-16.61-12.31-5.42-21.25-22-33.56s-27.8-3.37-44.4-15.68v116.3c16.6 12.31 27.79 3.37 44.4 15.68s5.41 21.25 22 33.56 27.76 3.38 44.33 15.63V103.73c-16.55-12.3-27.74-3.36-44.33-15.66Z" class="cls-1"/><path d="M137.72 124.67V108a23.2 23.2 0 0 0-16.43 6.8l11.82 11.82a6.5 6.5 0 0 1 4.61-1.95Zm6.52 6.52H161a23.15 23.15 0 0 0-6.81-16.43l-11.82 11.82a6.5 6.5 0 0 1 1.87 4.61Z" class="cls-1"/><path d="m133.11 126.58-11.82-11.82a23.18 23.18 0 0 0-6.8 16.43h16.71a6.5 6.5 0 0 1 1.91-4.61Zm9.22 0 11.82-11.82a23.16 23.16 0 0 0-16.43-6.8v16.71a6.5 6.5 0 0 1 4.61 1.91Zm-11.13 4.61h-16.71a23.16 23.16 0 0 0 6.8 16.43l11.82-11.82a6.5 6.5 0 0 1-1.91-4.61Zm6.52 6.52v16.72a23.13 23.13 0 0 0 16.43-6.81l-11.82-11.82a6.5 6.5 0 0 1-4.61 1.91Z" class="cls-1"/><path d="M161 131.19h-16.76a6.5 6.5 0 0 1-1.91 4.61l11.82 11.82a23.13 23.13 0 0 0 6.85-16.43Zm-27.89 4.61-11.82 11.82a23.17 23.17 0 0 0 16.43 6.81v-16.72a6.5 6.5 0 0 1-4.61-1.91ZM82.63 16.19a11.26 11.26 0 1 0-19 8.19 11.23 11.23 0 0 0 15.41 0 11.21 11.21 0 0 0 3.59-8.19Zm71.52 131.43 7 7m-.19-23.43h9.89m-16.7-16.43 7-6.99m-23.43.19v-9.9m-16.43 16.7-6.99-6.99m.19 23.42h-9.89m16.69 16.43-6.99 7m23.42-.19v9.89" class="cls-1"/></svg>