<svg id="Layer_1" data-name="Layer 1" xmlns="http://www.w3.org/2000/svg" width="250" height="250" viewBox="0 0 250 250"><defs><style>.cls-1{fill:none;stroke:#7df3e1;stroke-linejoin:round;stroke-width:2.5px;}</style></defs><polygon class="cls-1" points="210.2 178.75 210.2 96.75 186.09 44.02 136.67 12.26 136.67 134.08 210.2 178.75"/><polygon class="cls-1" points="113.33 237.75 113.33 118.51 39.8 71.25 39.8 193.07 113.33 237.75"/><polyline class="cls-1" points="69.73 136.22 58.56 147.39 68.59 167.84"/><polyline class="cls-1" points="82.96 176.15 93.08 166.03 82.67 143.81"/><line class="cls-1" x1="159.63" y1="127.73" x2="122.15" y2="165.96"/><polyline class="cls-1" points="136.74 165.96 122.15 165.96 122.15 151.37"/><line class="cls-1" x1="122.15" y1="115.07" x2="159.51" y2="77.07"/><polyline class="cls-1" points="144.92 77.07 159.51 77.07 159.51 91.66"/><polygon class="cls-1" points="186.03 81.26 210.13 96.75 186.03 44.1 186.03 81.26"/></svg>