<svg xmlns="http://www.w3.org/2000/svg" id="Layer_1" width="250" height="250" data-name="Layer 1" viewBox="0 0 250 250"><defs><style>.cls-1,.cls-2,.cls-3{fill:none;stroke:#7df3e1;stroke-width:2.5px}.cls-1{stroke-linecap:round}.cls-1,.cls-3{stroke-linejoin:round}.cls-2{stroke-miterlimit:10}</style></defs><path d="M22.08,87.32c-1.64-3.26-2-6.12-1-8.45C24.64,70.6,45,70.7,73.39,77.6" class="cls-1"/><circle cx="31.13" cy="100.9" r="15.94" class="cls-2"/><path d="M88,136.33c-17.15-8.82-32-17.87-43.33-26.3" class="cls-1"/><path d="M198.45,131.52c25,16.22,39.43,31.24,35.81,39.61-4.72,10.91-38.57,7.26-81.64-7.33" class="cls-1"/><path d="M91.39,129.7C49,85.89,23.62,45.42,33.42,35.14c6.72-7,28.38,1.71,56.08,20.9" class="cls-1"/><path d="M193,153c23.35,29.29,36,54.36,28.87,61.87-8.5,8.92-40.94-7.48-79.25-38.28" class="cls-1"/><path d="M128.76,182.48c20.74,32.14,40.49,51.49,50,46.81" class="cls-3"/><path d="M76.52,20.71C64.08,26.81,73.27,71.5,96.9,123.56" class="cls-3"/><circle cx="111.23" cy="46.18" r="23.7" class="cls-2"/><path d="M133.76,53.58a71,71,0,1,1-39.92,8.47" class="cls-3"/><path d="M128.76,182.48c20.74,32.14,40.49,51.49,50,46.81,8.24-4,7-25-1.67-53.87" class="cls-3"/><path d="M95.51,28.62c-7.92-7.07-14.56-10.08-19-7.91C64.08,26.81,73.27,71.5,96.9,123.56" class="cls-3"/><circle cx="120.99" cy="148.62" r="34.89" class="cls-2"/></svg>