<svg xmlns="http://www.w3.org/2000/svg" id="Layer_1" data-name="Layer 1" viewBox="0 0 250 250"><defs><style>.cls-1{fill:none;stroke:#7df3e1;stroke-linejoin:round;stroke-width:1.25px}</style></defs><polyline points="79.08 24.38 79.08 218.83 79.08 245.06" class="cls-1"/><polyline points="63.67 235.75 63.67 209.52 63.67 24.38" class="cls-1"/><path d="M189.83,220h0l0,0Z" class="cls-1"/><path d="M145.5,88.07c-16.61-12.31-5.42-21.25-22-33.56s-27.8-3.37-44.4-15.68v116.3c16.6,12.31,27.79,3.37,44.4,15.68s5.41,21.25,22,33.56,27.76,3.38,44.33,15.63l0-116.27C173.28,91.43,162.09,100.37,145.5,88.07Zm-7.78,66.36v0a23.17,23.17,0,0,1-16.43-6.81l-7,7,7-7a23.16,23.16,0,0,1-6.8-16.43h0a23.18,23.18,0,0,1,6.8-16.43l-7-7,7,7a23.2,23.2,0,0,1,16.43-6.8v0a23.16,23.16,0,0,1,16.43,6.8l7-7-7,7A23.15,23.15,0,0,1,161,131.19h0a23.13,23.13,0,0,1-6.81,16.43l7,7-7-7A23.13,23.13,0,0,1,137.72,154.43Z" class="cls-1"/><path d="M137.72,124.67V108a23.2,23.2,0,0,0-16.43,6.8l11.82,11.82A6.5,6.5,0,0,1,137.72,124.67Z" class="cls-1"/><path d="M144.24,131.19H161a23.15,23.15,0,0,0-6.81-16.43l-11.82,11.82A6.5,6.5,0,0,1,144.24,131.19Z" class="cls-1"/><path d="M133.11,126.58l-11.82-11.82a23.18,23.18,0,0,0-6.8,16.43H131.2A6.5,6.5,0,0,1,133.11,126.58Z" class="cls-1"/><path d="M142.33,126.58l11.82-11.82a23.16,23.16,0,0,0-16.43-6.8v16.71A6.5,6.5,0,0,1,142.33,126.58Z" class="cls-1"/><path d="M131.2,131.19H114.49a23.16,23.16,0,0,0,6.8,16.43l11.82-11.82A6.5,6.5,0,0,1,131.2,131.19Z" class="cls-1"/><path d="M137.72,137.71v16.72a23.13,23.13,0,0,0,16.43-6.81L142.33,135.8A6.5,6.5,0,0,1,137.72,137.71Z" class="cls-1"/><path d="M161,131.19H144.24a6.5,6.5,0,0,1-1.91,4.61l11.82,11.82A23.13,23.13,0,0,0,161,131.19Z" class="cls-1"/><path d="M133.11,135.8l-11.82,11.82a23.17,23.17,0,0,0,16.43,6.81V137.71A6.5,6.5,0,0,1,133.11,135.8Z" class="cls-1"/><path d="M82.63,16.19a11.26,11.26,0,1,0-19,8.19h0a11.23,11.23,0,0,0,15.41,0h0A11.21,11.21,0,0,0,82.63,16.19Z" class="cls-1"/></svg>