<svg xmlns="http://www.w3.org/2000/svg" id="Layer_1" width="250" height="250" data-name="Layer 1" viewBox="0 0 250 250"><defs><style>.cls-1{fill:none;stroke:#7df3e1;stroke-linejoin:round;stroke-width:2.5px}</style></defs><path d="M157.82,203.89a5.28,5.28,0,0,1-.67,3.09c-3.75,6.21-21.45,2.39-39.54-8.53C101.87,189,91,177.23,90.93,170.25c-7.27-.67-12.6.66-14.77,4.26-5.58,9.25,11.76,29.94,38.74,46.21s53.36,22,58.94,12.72C177.61,227.18,170.9,215.7,157.82,203.89Z" class="cls-1"/><path d="M157.82,203.89c-.3-5.42-6.78-13.52-16.86-21.24,0,0,0,.09-.05.13C139,185.93,130,184,120.77,178.43c-6.92-4.17-12-9.2-13.27-12.78-7.89-2-13.88-1.51-15.88,1.81a5.24,5.24,0,0,0-.69,2.79" class="cls-1"/><path d="M90.93,170.25c.09,7,10.94,18.71,26.68,28.2,18.09,10.92,35.79,14.74,39.54,8.53a5.28,5.28,0,0,0,.67-3.09" class="cls-1"/><path d="M141,182.65c1.69-3.22-4.19-10.17-13.28-15.66s-18.23-7.5-20.14-4.34a3.49,3.49,0,0,0,0,3" class="cls-1"/><path d="M107.5,165.65c1.29,3.58,6.35,8.61,13.27,12.78,9.22,5.56,18.23,7.5,20.14,4.35,0,0,0-.09.05-.13" class="cls-1"/><path d="M117.79,126a6.09,6.09,0,0,0,0,2.58l6.36,27,7.2-21.89a9.86,9.86,0,0,0,.45-4.26" class="cls-1"/><path d="M154.88,109V75.86a82.39,82.39,0,0,0-28-61.9l-2.08-1.83A45.42,45.42,0,0,0,94.7,54.89V94h0c-.64,9.87,5.75,21.3,17.08,28.72a44.56,44.56,0,0,0,6,3.28,6.16,6.16,0,0,1,9.26-4.09h0a10.13,10.13,0,0,1,4.8,7.57c8.51.37,16.05-2.61,20.12-8.83a18.2,18.2,0,0,0,2.88-8.6h0v-.38A20,20,0,0,0,154.88,109Z" class="cls-1"/><path d="M131.85,129.49a10.13,10.13,0,0,0-4.8-7.57h0a6.16,6.16,0,0,0-9.26,4.09" class="cls-1"/><path d="M173.76,96.66V86.55h0c.19-3.07-1.79-6.62-5.32-8.93-4.67-3.06-10.27-2.77-12.5.64a5.58,5.58,0,0,0-.89,2.68h0V81a5.89,5.89,0,0,0,0,.84v3.26h0v21.36h0v10.11h0c-.2,3.08,1.79,6.63,5.31,8.94,4.67,3.06,10.27,2.77,12.5-.64a5.71,5.71,0,0,0,.9-2.68h0v-.12c0-.27,0-.55,0-.83V118h0V96.66Z" class="cls-1"/><path d="M94.66,59.93a5.75,5.75,0,0,0,0-.83V59h0a5.63,5.63,0,0,0-.9-2.67c-2.23-3.41-7.83-3.7-12.5-.65-3.52,2.31-5.51,5.87-5.31,8.94h0v1.19s0,.07,0,.1V93.64s0,.07,0,.1v1.19h0c-.2,3.08,1.79,6.63,5.31,8.94,4.67,3.06,10.27,2.77,12.5-.64a5.71,5.71,0,0,0,.9-2.68h0v-.12a5.75,5.75,0,0,0,0-.83V95.9h0V59.94Z" class="cls-1"/><ellipse cx="122.77" cy="62.49" class="cls-1" rx="10.06" ry="11.36"/></svg>