<svg xmlns="http://www.w3.org/2000/svg" id="Layer_1" width="250" height="250" data-name="Layer 1" viewBox="0 0 250 250"><defs><style>.cls-1{fill:none;stroke:#7df3e1;stroke-linejoin:round;stroke-width:2.5px}</style></defs><polygon points="210.2 178.75 210.2 96.75 186.09 44.02 136.67 12.26 136.67 134.08 210.2 178.75" class="cls-1"/><polygon points="113.33 237.75 113.33 118.51 39.8 71.25 39.8 193.07 113.33 237.75" class="cls-1"/><polyline points="69.73 136.22 58.56 147.39 68.59 167.84" class="cls-1"/><polyline points="82.96 176.15 93.08 166.03 82.67 143.81" class="cls-1"/><line x1="159.63" x2="122.15" y1="127.73" y2="165.96" class="cls-1"/><polyline points="136.74 165.96 122.15 165.96 122.15 151.37" class="cls-1"/><line x1="122.15" x2="159.51" y1="115.07" y2="77.07" class="cls-1"/><polyline points="144.92 77.07 159.51 77.07 159.51 91.66" class="cls-1"/><polygon points="186.03 81.26 210.13 96.75 186.03 44.1 186.03 81.26" class="cls-1"/></svg>