<svg xmlns="http://www.w3.org/2000/svg" viewBox="-6.46 -2.18 64 64" width="64" height="64"><path d="M28.37 59.637c-7.345-.32-15.808 0-24.207-1.214-1.5-.224-2.746-.734-3.768-1.82C-1.33 54.75-2.67 52.643-3.5 50.28-5.385 45.043-6.63 39.678-6.44 34.1c.064-1.5-.064-3.257 1.5-4.12 1.597-.862 3.066.096 4.44.958.32.192.64.383.926.607 3.896 3.385 8.335 3.768 13.157 2.46 2.363-.64 4.822-.766 7.28-.224.862.192 1.597.064 2.108-.703.5-.798.128-1.565-.35-2.204-.255-.383-.67-.703-1.054-.926-7.888-5.078-8.622-17.916-4.44-24.207C21.535-.912 30.317-1.998 36 3.6c1.022 1 2.012 2.044 2.97 3.13 1.022 1.118 2.172 1.214 3.48.575 1.15-.575 2.204-1.277 3.162-2.14.575-.543 1.182-1.086 1.788-1.565.447-.35.958-.926 1.533-.575.48.287.447 1.022.5 1.597.16 2.62-.958 4.982-1.66 7.4-.447 1.5-.128 2.172 1.405 2.395 1 .128 1.98.383 2.938.67.575.16 1.3.255 1.47 1.054s-.415 1.277-.958 1.693l-4.247 3.353c-2.3 1.884-3.417 4.44-3.96 7.25-.287 1.5.287 2.714 1.597 3.545 1.214.766 2.427 1.5 3.673 2.235 7.4 4.343 8.75 11.752 7.345 18.46-.798 3.928-3.896 6.195-7.888 6.42-6.6.32-13.157.607-20.8.543z" fill="#010101"/></svg>