<svg xmlns="http://www.w3.org/2000/svg" role="img" viewBox="-3.69 -2.94 438.62 83.87"><style>svg {enable-background:new 0 0 432 78.1}</style><style>.st0{fill:#6d6e71}</style><g id="XMLID_1_"><path id="XMLID_633_" d="M105 35c3.4 0 6.2-1.3 8.4-4l4.4 4.6c-3.5 4-7.7 6-12.5 6s-8.7-1.5-11.8-4.5c-3.1-3-4.6-6.8-4.6-11.4 0-4.6 1.6-8.5 4.7-11.5 3.2-3.1 7-4.6 11.6-4.6 5.1 0 9.4 1.9 12.8 5.8l-4.3 4.9c-2.2-2.7-4.9-4.1-8.2-4.1-2.6 0-4.8.9-6.7 2.6-1.9 1.7-2.8 4-2.8 6.9s.9 5.2 2.6 7c1.8 1.4 3.9 2.3 6.4 2.3z"/><path id="XMLID_631_" d="M123.3 41.1V10h6.9v24.9h13.2v6.2h-20.1z"/><path id="XMLID_628_" d="M173.9 36.8c-3.1 3.1-7 4.6-11.6 4.6s-8.5-1.5-11.6-4.6c-3.1-3.1-4.7-6.9-4.7-11.4 0-4.6 1.6-8.4 4.7-11.4 3.1-3.1 7-4.6 11.6-4.6s8.5 1.5 11.6 4.6c3.1 3.1 4.7 6.9 4.7 11.4s-1.6 8.3-4.7 11.4zm-2.4-11.4c0-2.8-.9-5.1-2.7-7.1-1.8-2-4-2.9-6.6-2.9-2.6 0-4.8 1-6.6 2.9-1.8 2-2.7 4.3-2.7 7.1s.9 5.1 2.7 7.1c1.8 1.9 4 2.9 6.6 2.9 2.6 0 4.8-1 6.6-2.9 1.8-2 2.7-4.3 2.7-7.1z"/><path id="XMLID_626_" d="M192.7 33.1c1.2 1.4 2.7 2.2 4.7 2.2s3.5-.7 4.6-2.2c1.1-1.4 1.7-3.4 1.7-5.9V10h6.9v17.4c0 4.5-1.2 8-3.7 10.4-2.5 2.4-5.7 3.6-9.6 3.6-3.9 0-7.1-1.2-9.6-3.6-2.5-2.4-3.8-5.9-3.8-10.4V10h6.9v17.2c.1 2.5.7 4.4 1.9 5.9z"/><path id="XMLID_623_" d="M241.6 14.1c3 2.7 4.4 6.5 4.4 11.3s-1.4 8.7-4.3 11.5c-2.9 2.8-7.3 4.2-13.2 4.2h-10.6V10h11c5.4 0 9.7 1.4 12.7 4.1zm-5.1 18.5c1.7-1.6 2.6-3.9 2.6-7s-.9-5.4-2.6-7c-1.7-1.6-4.3-2.5-7.8-2.5h-3.9V35h4.4c3.1 0 5.6-.8 7.3-2.4z"/><path id="XMLID_621_" d="M285.5 10h6.9v31.1h-6.9l-14.8-19.5v19.5h-6.9V10h6.5l15.2 20V10z"/><path id="XMLID_618_" d="M322.2 41.1l-2.9-6.7h-13l-2.9 6.7H296L309.5 10h6.7l13.4 31.1h-7.4zm-9.4-21.8l-3.9 9h7.8l-3.9-9z"/><path id="XMLID_616_" d="M344.1 16v25.1h-6.9V16h-8.8v-6h24.5v6h-8.8z"/><path id="XMLID_614_" d="M358 10h6.9v31.1H358V10z"/><path id="XMLID_612_" d="M384 29.8l7.9-19.8h7.5l-12.5 31.1H381L368.6 10h7.5l7.9 19.8z"/><path id="XMLID_610_" d="M425.5 10v6.2H410v6.4h14v5.9h-13.9V35h16v6.1h-22.9V10h22.3z"/><path id="XMLID_608_" d="M97.1 67.6c1.9 0 3.5-.8 4.7-2.3l2.5 2.6c-2 2.2-4.3 3.3-7 3.3s-4.9-.8-6.6-2.5C88.9 67 88 64.8 88 62.2s.9-4.7 2.7-6.5 3.9-2.6 6.5-2.6c2.9 0 5.2 1.1 7.2 3.3l-2.4 2.7c-1.2-1.5-2.8-2.3-4.6-2.3-1.5 0-2.7.5-3.8 1.4-1 1-1.6 2.2-1.6 3.9s.5 2.9 1.5 3.9c1 1.1 2.2 1.6 3.6 1.6z"/><path id="XMLID_605_" d="M121.6 68.6c-1.8 1.7-3.9 2.6-6.5 2.6s-4.7-.9-6.5-2.6c-1.8-1.7-2.6-3.9-2.6-6.4 0-2.6.9-4.7 2.6-6.4 1.8-1.7 3.9-2.6 6.5-2.6s4.7.9 6.5 2.6c1.8 1.7 2.6 3.9 2.6 6.4 0 2.5-.8 4.7-2.6 6.4zm-1.3-6.4c0-1.6-.5-2.9-1.5-4s-2.2-1.6-3.7-1.6-2.7.5-3.7 1.6-1.5 2.4-1.5 4 .5 2.9 1.5 4 2.2 1.6 3.7 1.6 2.7-.5 3.7-1.6 1.5-2.4 1.5-4z"/><path id="XMLID_603_" d="M143.1 60l-4.7 9.5h-2.3l-4.7-9.5v11h-3.9V53.6h5.3l4.5 9.6 4.5-9.6h5.2V71h-3.9V60z"/><path id="XMLID_600_" d="M163.3 55.1c1.2 1 1.8 2.6 1.8 4.8 0 2.2-.6 3.7-1.9 4.7-1.3 1-3.2 1.5-5.7 1.5h-2.3V71h-3.9V53.6h6.2c2.6 0 4.6.5 5.8 1.5zm-2.8 6.9c.5-.5.7-1.3.7-2.3 0-1-.3-1.7-.9-2.1-.6-.4-1.5-.6-2.8-.6h-2.2v5.9h2.6c1.2-.1 2.1-.4 2.6-.9z"/><path id="XMLID_598_" d="M172.8 66.5c.6.8 1.5 1.2 2.6 1.2s2-.4 2.6-1.2c.6-.8 1-1.9 1-3.3v-9.6h3.9v9.7c0 2.5-.7 4.5-2.1 5.8-1.4 1.4-3.2 2-5.4 2s-4-.7-5.4-2c-1.4-1.4-2.1-3.3-2.1-5.8v-9.7h3.9v9.6c0 1.4.3 2.5 1 3.3z"/><path id="XMLID_596_" d="M194.3 57v14h-3.9V57h-4.9v-3.4h13.8V57h-5z"/><path id="XMLID_594_" d="M202 53.6h3.9V71H202V53.6z"/><path id="XMLID_592_" d="M222.4 53.6h3.9V71h-3.9l-8.3-10.9V71h-3.9V53.6h3.6l8.5 11.2V53.6z"/><path id="XMLID_590_" d="M241.9 62.1h3.9v6.2c-1.7 1.9-4.1 2.9-7.2 2.9-2.6 0-4.7-.8-6.4-2.5-1.7-1.7-2.6-3.8-2.6-6.4 0-2.6.9-4.7 2.7-6.5 1.8-1.7 3.9-2.6 6.4-2.6 2.5 0 4.7.8 6.5 2.5l-2 2.9c-.8-.7-1.5-1.2-2.2-1.4-.7-.3-1.4-.4-2.1-.4-1.5 0-2.7.5-3.7 1.5s-1.5 2.3-1.5 4c0 1.6.5 3 1.5 3.9 1 1 2.1 1.5 3.5 1.5 1.3 0 2.5-.3 3.4-.8v-4.8z"/><path id="XMLID_588_" d="M267.8 53.6V57h-8.1v3.8h7.7v3.4h-7.7V71h-3.9V53.6h12z"/><path id="XMLID_585_" d="M285.8 68.6c-1.8 1.7-3.9 2.6-6.5 2.6s-4.7-.9-6.5-2.6c-1.8-1.7-2.6-3.9-2.6-6.4 0-2.6.9-4.7 2.6-6.4 1.8-1.7 3.9-2.6 6.5-2.6s4.7.9 6.5 2.6c1.8 1.7 2.6 3.9 2.6 6.4 0 2.5-.9 4.7-2.6 6.4zm-1.4-6.4c0-1.6-.5-2.9-1.5-4s-2.2-1.6-3.7-1.6-2.7.5-3.7 1.6-1.5 2.4-1.5 4 .5 2.9 1.5 4 2.2 1.6 3.7 1.6 2.7-.5 3.7-1.6 1.5-2.4 1.5-4z"/><path id="XMLID_583_" d="M296.3 66.5c.6.8 1.5 1.2 2.6 1.2s2-.4 2.6-1.2c.6-.8 1-1.9 1-3.3v-9.6h3.9v9.7c0 2.5-.7 4.5-2.1 5.8-1.4 1.4-3.2 2-5.4 2s-4-.7-5.4-2c-1.4-1.4-2.1-3.3-2.1-5.8v-9.7h3.9v9.6c0 1.4.4 2.5 1 3.3z"/><path id="XMLID_581_" d="M322.6 53.6h3.9V71h-3.9l-8.3-10.9V71h-3.9V53.6h3.6l8.5 11.2V53.6z"/><path id="XMLID_578_" d="M344.1 55.9c1.7 1.5 2.5 3.6 2.5 6.3 0 2.7-.8 4.9-2.4 6.4-1.6 1.6-4.1 2.4-7.4 2.4h-6V53.6h6.2c3 0 5.4.7 7.1 2.3zm-2.9 10.3c1-.9 1.4-2.2 1.4-3.9 0-1.7-.5-3-1.4-4-1-.9-2.4-1.4-4.4-1.4h-2.2v10.6h2.5c1.8.1 3.2-.4 4.1-1.3z"/><path id="XMLID_575_" d="M361.8 71l-1.6-3.8h-7.3l-1.6 3.8h-4.1l7.5-17.4h3.8L366 71h-4.2zm-5.2-12.2l-2.2 5.1h4.4l-2.2-5.1z"/><path id="XMLID_573_" d="M374.1 57v14h-3.9V57h-4.9v-3.4H379V57h-4.9z"/><path id="XMLID_571_" d="M381.9 53.6h3.9V71h-3.9V53.6z"/><path id="XMLID_568_" d="M404.7 68.6c-1.8 1.7-3.9 2.6-6.5 2.6s-4.7-.9-6.5-2.6c-1.8-1.7-2.6-3.9-2.6-6.4 0-2.6.9-4.7 2.6-6.4 1.8-1.7 3.9-2.6 6.5-2.6s4.7.9 6.5 2.6c1.8 1.7 2.6 3.9 2.6 6.4 0 2.5-.8 4.7-2.6 6.4zm-1.3-6.4c0-1.6-.5-2.9-1.5-4s-2.2-1.6-3.7-1.6-2.7.5-3.7 1.6-1.5 2.4-1.5 4 .5 2.9 1.5 4 2.2 1.6 3.7 1.6 2.7-.5 3.7-1.6 1.5-2.4 1.5-4z"/><path id="XMLID_566_" d="M422.8 53.6h3.9V71h-3.9l-8.3-10.9V71h-3.9V53.6h3.6l8.5 11.2V53.6z"/></g><g id="XMLID_197_"><g id="XMLID_392_"><path id="XMLID_397_" d="M14.4 50.4H4.8v22.3h22.3v-9.6H14.4z"/><path id="XMLID_395_" d="M62.2 50.4v12.7H49.5v9.6h22.3V50.4h-9.7z"/><path id="XMLID_394_" d="M4.8 28.1h9.7l-.1-.1V15.3h12.7v.1-9.7H4.8z"/><path id="XMLID_393_" d="M49.5 5.7v9.6h12.7v12.8h9.6V5.7z"/></g><g id="XMLID_200_"><path id="XMLID_391_" d="M48.3 28.1L35.5 15.3h14V5.7H27.1v9.7l12.7 12.7z" class="st0"/><path id="XMLID_390_" d="M36.8 50.4h-8.5l10.6 10.5 2.2 2.2h-14v9.6h22.4v-9.6l-6.4-6.4z" class="st0"/><path id="XMLID_389_" d="M62.2 28.1V42L60 39.8 49.5 29.2v8.5l6.3 6.3 6.3 6.4h9.7V28.1z" class="st0"/><path id="XMLID_388_" d="M27.1 40.7L14.5 28.1H4.8v22.3h9.6v-14l12.7 12.8z" class="st0"/></g></g></svg>