<svg xmlns="http://www.w3.org/2000/svg" viewBox="0 0 35 35" color="white" class="css-om3no"><title>codacy-white</title><path class="fill-color" d="M3485.5,2553a12.28,12.28,0,0,1,5.7-7.44l-2.62-4.55a17.54,17.54,0,0,0-8.15,10.62Z" transform="translate(-3479.84 -2538.68)"></path><path class="fill-color" d="M3494.16,2544.35a12.29,12.29,0,0,1,3.16-.41v-5.25a17.51,17.51,0,0,0-4.52.59Z" transform="translate(-3479.84 -2538.68)"></path><path class="fill-color" d="M3500.51,2544.35a12.27,12.27,0,0,1,7.42,5.71l4.55-2.63a17.53,17.53,0,0,0-10.6-8.15Z" transform="translate(-3479.84 -2538.68)"></path><path class="fill-color" d="M3479.84,2556.18a17.54,17.54,0,0,0,.59,4.52l5.07-1.36a12.21,12.21,0,0,1-.41-3.17h-5.25Z" transform="translate(-3479.84 -2538.68)"></path><path class="fill-color" d="M3482.18,2564.94a17.55,17.55,0,0,0,2.77,3.62l3.71-3.71a12.46,12.46,0,0,1-1.95-2.53Z" transform="translate(-3479.84 -2538.68)"></path><path class="fill-color" d="M3488.58,2571.34a17.37,17.37,0,0,0,8.73,2.34v-5.25a12.17,12.17,0,0,1-6.11-1.64Z" transform="translate(-3479.84 -2538.68)"></path><path class="fill-color" d="M3507.92,2562.32a12.27,12.27,0,0,1-7.43,5.69l1.36,5.07a17.53,17.53,0,0,0,10.61-8.14Z" transform="translate(-3479.84 -2538.68)"></path><path class="fill-color" d="M3514.22,2560.89a17.56,17.56,0,0,0,0-9.08l-5.08,1.36a12.26,12.26,0,0,1,0,6.36Z" transform="translate(-3479.84 -2538.68)"></path></svg>