<svg xmlns="http://www.w3.org/2000/svg" xml:space="preserve" id="Layer_1" x="0" y="0" style="enable-background:new 0 0 151.82 151.82" version="1.1" viewBox="0 0 151.82 151.82"><style>.st0{fill:#003263}</style><path d="M37.48 128.56c1.84 0 3.1 1 3.48 2.7l1.52-.34c-.49-2.28-2.4-3.73-4.98-3.73-2.95 0-5.74 1.97-5.74 6.04s2.77 6.04 5.74 6.04c2.55 0 4.39-1.42 4.98-3.64l-1.54-.32c-.42 1.64-1.62 2.58-3.46 2.58-2.4 0-4.13-1.64-4.13-4.66 0-3.02 1.74-4.67 4.13-4.67zm10.63 1.94c-2.53 0-4.32 1.84-4.32 4.39s1.79 4.39 4.32 4.39c2.51 0 4.34-1.84 4.34-4.39s-1.82-4.39-4.34-4.39zm0 7.49c-1.7 0-2.85-1.28-2.85-3.1s1.15-3.1 2.85-3.1c1.7 0 2.85 1.28 2.85 3.1.01 1.82-1.14 3.1-2.85 3.1zm12.56-6.14c-.54-.79-1.65-1.35-2.78-1.35-2.63 0-4.08 1.89-4.08 4.39s1.45 4.39 4.1 4.39c1.25 0 2.38-.59 2.77-1.37v1.23h1.43v-11.95h-1.43v4.66zm-2.64 6.14c-1.67 0-2.77-1.23-2.77-3.1s1.1-3.1 2.77-3.1 2.77 1.23 2.77 3.1-1.09 3.1-2.77 3.1zm10.03-7.49c-2.56 0-4.12 1.97-4.12 4.39 0 2.41 1.6 4.39 4.15 4.39 1.96 0 3.37-.96 3.8-2.62l-1.35-.32c-.25 1.06-1.15 1.67-2.45 1.67-1.54 0-2.62-1.13-2.72-2.85h6.72c.02-.15.03-.46.03-.66 0-2.2-1.55-4-4.06-4zm-2.6 3.46c.29-1.42 1.27-2.26 2.6-2.26 1.5 0 2.41.96 2.55 2.26h-5.15zm9.85-3.68c0-1.06.91-1.72 2.43-1.72 1.49 0 2.5.81 2.73 2.09l1.4-.54c-.3-1.75-1.97-2.92-4.13-2.92-2.33 0-3.98 1.25-3.98 3.09 0 4.18 6.72 2.53 6.72 5.69 0 1.18-1.05 1.94-2.67 1.94-1.57 0-2.83-1.08-3.07-2.73l-1.45.47c.39 2.16 2.21 3.63 4.49 3.63 2.58 0 4.29-1.32 4.29-3.32-.01-4.74-6.76-2.98-6.76-5.68zm12.3 7.71c-1.67 0-2.75-1.23-2.75-3.1s1.08-3.1 2.75-3.1c1.2 0 2.09.74 2.28 1.77l1.42-.29c-.3-1.69-1.75-2.77-3.73-2.77-2.53 0-4.22 1.75-4.22 4.39s1.69 4.39 4.22 4.39c1.96 0 3.37-1.03 3.75-2.78l-1.4-.29c-.24 1.12-1.12 1.78-2.32 1.78zm9.13-7.49c-2.56 0-4.12 1.97-4.12 4.39 0 2.41 1.6 4.39 4.15 4.39 1.96 0 3.37-.96 3.8-2.62l-1.35-.32c-.25 1.06-1.15 1.67-2.45 1.67-1.54 0-2.62-1.13-2.72-2.85h6.72c.02-.15.03-.46.03-.66.01-2.2-1.54-4-4.06-4zm-2.6 3.46c.29-1.42 1.27-2.26 2.6-2.26 1.5 0 2.41.96 2.55 2.26h-5.15zM107 130.5c-1.3 0-2.33.73-2.92 1.74v-1.6h-1.43v8.5h1.43v-3.73c0-2.24 1.01-3.61 2.6-3.61 1.2 0 1.92.83 1.92 1.97v5.37h1.43v-5.64c.01-1.8-1.26-3-3.03-3zm8.99 0c-2.56 0-4.12 1.97-4.12 4.39 0 2.41 1.6 4.39 4.15 4.39 1.96 0 3.37-.96 3.8-2.62l-1.35-.32c-.25 1.06-1.15 1.67-2.45 1.67-1.54 0-2.62-1.13-2.72-2.85h6.72c.02-.15.03-.46.03-.66.01-2.2-1.54-4-4.06-4zm-2.6 3.46c.29-1.42 1.27-2.26 2.6-2.26 1.5 0 2.41.96 2.55 2.26h-5.15zm9.29-92.85c-6.61-18.18-23.07-28.56-46.76-28.56S35.76 22.92 29.15 41.11c-5.7 1.97-9.93 12.54-9.93 25.68 0 14.59 5.21 26.02 11.86 26.02.15 0 .3-.01.45-.02 2.28 4.52 5.27 7.99 9.01 10.52 9.03 6.11 21.6 6.53 34.84 6.53h1.57c13.08 0 25.42-.51 34.33-6.53 3.74-2.53 6.74-6 9.01-10.52.15.01.3.02.45.02 6.65 0 11.86-11.43 11.86-26.02 0-13.14-4.22-23.72-9.92-25.68zM21.44 66.79c0-11.22 3.1-19.51 6.69-22.53-1.46 5.05-2.22 10.63-2.22 16.71 0 12.49 1.48 22.21 4.57 29.53-4.47-.76-9.04-10.08-9.04-23.71zm97.61 23.38c-.31.69-.63 1.36-.96 2-2.08 3.97-4.75 7.05-8.06 9.29-8.35 5.65-19.8 6.25-33.05 6.25h-1.6c-13.5-.01-25.13-.52-33.59-6.25-3.31-2.24-5.97-5.32-8.06-9.29-.34-.64-.66-1.31-.96-2-3.13-7.07-4.64-16.66-4.64-29.19 0-6.62.95-12.62 2.75-17.95.25-.75.53-1.49.81-2.22 6.6-16.59 22.11-26.03 44.22-26.03s37.62 9.44 44.22 26.03c.29.73.56 1.46.81 2.22 1.8 5.33 2.75 11.33 2.75 17.95 0 12.53-1.51 22.11-4.64 29.19zm2.29.34c3.09-7.32 4.57-17.04 4.57-29.53 0-6.08-.76-11.66-2.22-16.71 3.59 3.02 6.69 11.31 6.69 22.53 0 13.62-4.57 22.94-9.04 23.71z" class="st0"/><path d="M75.91 28.64c-29.98 0-43.35 11.92-43.35 38.65 0 26 14.18 38.64 43.35 38.64s43.35-12.64 43.35-38.64c0-26.73-13.37-38.65-43.35-38.65zm0 75.06c-28.06 0-41.13-11.57-41.13-36.42 0-16.96 4.67-36.42 41.13-36.42s41.13 19.46 41.13 36.42c0 24.85-13.07 36.42-41.13 36.42z" class="st0"/></svg>