<?xml version="1.0" encoding="utf-8"?>
<!-- Generator: Adobe Illustrator 25.4.1, SVG Export Plug-In . SVG Version: 6.00 Build 0)  -->
<svg version="1.1" id="Layer_1" xmlns="http://www.w3.org/2000/svg" xmlns:xlink="http://www.w3.org/1999/xlink" x="0px" y="0px"
	 viewBox="0 0 151.82 151.82" style="enable-background:new 0 0 151.82 151.82;" xml:space="preserve">
<style type="text/css">
	.st0{fill:#003263;}
</style>
<g>
	<path class="st0" d="M37.48,128.56c1.84,0,3.1,1,3.48,2.7l1.52-0.34c-0.49-2.28-2.4-3.73-4.98-3.73c-2.95,0-5.74,1.97-5.74,6.04
		c0,4.07,2.77,6.04,5.74,6.04c2.55,0,4.39-1.42,4.98-3.64l-1.54-0.32c-0.42,1.64-1.62,2.58-3.46,2.58c-2.4,0-4.13-1.64-4.13-4.66
		C33.35,130.21,35.09,128.56,37.48,128.56z"/>
	<path class="st0" d="M48.11,130.5c-2.53,0-4.32,1.84-4.32,4.39c0,2.55,1.79,4.39,4.32,4.39c2.51,0,4.34-1.84,4.34-4.39
		C52.45,132.34,50.63,130.5,48.11,130.5z M48.11,137.99c-1.7,0-2.85-1.28-2.85-3.1c0-1.82,1.15-3.1,2.85-3.1
		c1.7,0,2.85,1.28,2.85,3.1C50.97,136.71,49.82,137.99,48.11,137.99z"/>
	<path class="st0" d="M60.67,131.85c-0.54-0.79-1.65-1.35-2.78-1.35c-2.63,0-4.08,1.89-4.08,4.39c0,2.5,1.45,4.39,4.1,4.39
		c1.25,0,2.38-0.59,2.77-1.37v1.23h1.43v-11.95h-1.43V131.85z M58.03,137.99c-1.67,0-2.77-1.23-2.77-3.1c0-1.87,1.1-3.1,2.77-3.1
		c1.67,0,2.77,1.23,2.77,3.1C60.8,136.76,59.71,137.99,58.03,137.99z"/>
	<path class="st0" d="M68.06,130.5c-2.56,0-4.12,1.97-4.12,4.39c0,2.41,1.6,4.39,4.15,4.39c1.96,0,3.37-0.96,3.8-2.62l-1.35-0.32
		c-0.25,1.06-1.15,1.67-2.45,1.67c-1.54,0-2.62-1.13-2.72-2.85h6.72c0.02-0.15,0.03-0.46,0.03-0.66
		C72.12,132.3,70.57,130.5,68.06,130.5z M65.46,133.96c0.29-1.42,1.27-2.26,2.6-2.26c1.5,0,2.41,0.96,2.55,2.26H65.46z"/>
	<path class="st0" d="M75.31,130.28c0-1.06,0.91-1.72,2.43-1.72c1.49,0,2.5,0.81,2.73,2.09l1.4-0.54c-0.3-1.75-1.97-2.92-4.13-2.92
		c-2.33,0-3.98,1.25-3.98,3.09c0,4.18,6.72,2.53,6.72,5.69c0,1.18-1.05,1.94-2.67,1.94c-1.57,0-2.83-1.08-3.07-2.73l-1.45,0.47
		c0.39,2.16,2.21,3.63,4.49,3.63c2.58,0,4.29-1.32,4.29-3.32C82.06,131.22,75.31,132.98,75.31,130.28z"/>
	<path class="st0" d="M87.61,137.99c-1.67,0-2.75-1.23-2.75-3.1c0-1.87,1.08-3.1,2.75-3.1c1.2,0,2.09,0.74,2.28,1.77l1.42-0.29
		c-0.3-1.69-1.75-2.77-3.73-2.77c-2.53,0-4.22,1.75-4.22,4.39s1.69,4.39,4.22,4.39c1.96,0,3.37-1.03,3.75-2.78l-1.4-0.29
		C89.69,137.33,88.81,137.99,87.61,137.99z"/>
	<path class="st0" d="M96.74,130.5c-2.56,0-4.12,1.97-4.12,4.39c0,2.41,1.6,4.39,4.15,4.39c1.96,0,3.37-0.96,3.8-2.62l-1.35-0.32
		c-0.25,1.06-1.15,1.67-2.45,1.67c-1.54,0-2.62-1.13-2.72-2.85h6.72c0.02-0.15,0.03-0.46,0.03-0.66
		C100.81,132.3,99.26,130.5,96.74,130.5z M94.14,133.96c0.29-1.42,1.27-2.26,2.6-2.26c1.5,0,2.41,0.96,2.55,2.26H94.14z"/>
	<path class="st0" d="M107,130.5c-1.3,0-2.33,0.73-2.92,1.74v-1.6h-1.43v8.5h1.43v-3.73c0-2.24,1.01-3.61,2.6-3.61
		c1.2,0,1.92,0.83,1.92,1.97v5.37h1.43v-5.64C110.04,131.7,108.77,130.5,107,130.5z"/>
	<path class="st0" d="M115.99,130.5c-2.56,0-4.12,1.97-4.12,4.39c0,2.41,1.6,4.39,4.15,4.39c1.96,0,3.37-0.96,3.8-2.62l-1.35-0.32
		c-0.25,1.06-1.15,1.67-2.45,1.67c-1.54,0-2.62-1.13-2.72-2.85h6.72c0.02-0.15,0.03-0.46,0.03-0.66
		C120.06,132.3,118.51,130.5,115.99,130.5z M113.39,133.96c0.29-1.42,1.27-2.26,2.6-2.26c1.5,0,2.41,0.96,2.55,2.26H113.39z"/>
	<path class="st0" d="M122.68,41.11c-6.61-18.18-23.07-28.56-46.76-28.56S35.76,22.92,29.15,41.11c-5.7,1.97-9.93,12.54-9.93,25.68
		c0,14.59,5.21,26.02,11.86,26.02c0.15,0,0.3-0.01,0.45-0.02c2.28,4.52,5.27,7.99,9.01,10.52c9.03,6.11,21.6,6.53,34.84,6.53h1.06
		c0.17,0,0.34,0,0.51,0c13.08,0,25.42-0.51,34.33-6.53c3.74-2.53,6.74-6,9.01-10.52c0.15,0.01,0.3,0.02,0.45,0.02
		c6.65,0,11.86-11.43,11.86-26.02C132.6,53.65,128.38,43.07,122.68,41.11z M21.44,66.79c0-11.22,3.1-19.51,6.69-22.53
		c-1.46,5.05-2.22,10.63-2.22,16.71c0,12.49,1.48,22.21,4.57,29.53C26.01,89.74,21.44,80.42,21.44,66.79z M119.05,90.17
		c-0.31,0.69-0.63,1.36-0.96,2c-2.08,3.97-4.75,7.05-8.06,9.29c-8.35,5.65-19.8,6.25-33.05,6.25c-0.18,0-0.36,0-0.54,0h-0.53h-0.53
		c-13.5-0.01-25.13-0.52-33.59-6.25c-3.31-2.24-5.97-5.32-8.06-9.29c-0.34-0.64-0.66-1.31-0.96-2c-3.13-7.07-4.64-16.66-4.64-29.19
		c0-6.62,0.95-12.62,2.75-17.95c0.25-0.75,0.53-1.49,0.81-2.22c6.6-16.59,22.11-26.03,44.22-26.03s37.62,9.44,44.22,26.03
		c0.29,0.73,0.56,1.46,0.81,2.22c1.8,5.33,2.75,11.33,2.75,17.95C123.69,73.51,122.18,83.09,119.05,90.17z M121.34,90.51
		c3.09-7.32,4.57-17.04,4.57-29.53c0-6.08-0.76-11.66-2.22-16.71c3.59,3.02,6.69,11.31,6.69,22.53
		C130.38,80.42,125.81,89.74,121.34,90.51z"/>
	<path class="st0" d="M75.91,28.64c-29.98,0-43.35,11.92-43.35,38.65c0,26,14.18,38.64,43.35,38.64s43.35-12.64,43.35-38.64
		C119.26,40.56,105.89,28.64,75.91,28.64z M75.91,103.7c-28.06,0-41.13-11.57-41.13-36.42c0-16.96,4.67-36.42,41.13-36.42
		s41.13,19.46,41.13,36.42C117.04,92.13,103.97,103.7,75.91,103.7z"/>
</g>
</svg>
