<svg xmlns="http://www.w3.org/2000/svg" width="1203" height="1128" fill="none" viewBox="0 0 1203 1128"><circle r="18.901" fill="#9BF0E1" transform="matrix(0 1 1 0 218.021 745.539)"/><path fill="url(#a)" d="M0 0h260.413v37.802H0z" transform="matrix(0 1 1 0 199.119 743.439)"/><circle r="18.901" fill="#9BF0E1" transform="matrix(0 1 1 0 314.626 678.336)"/><path fill="url(#b)" d="M0 0h327.617v37.802H0z" transform="matrix(0 1 1 0 295.724 676.236)"/><ellipse fill="#9BF0E1" rx="22.329" ry="18.901" transform="matrix(0 1 1 0 990.866 222.336)"/><path fill="url(#c)" d="M0 0h779.047v37.802H0z" transform="matrix(0 1 1 0 971.96 224.814)"/><circle r="18.901" fill="#9BF0E1" transform="matrix(0 1 1 0 411.231 594.331)"/><path fill="url(#d)" d="M0 0h411.621v37.802H0z" transform="matrix(0 1 1 0 392.329 592.231)"/><path fill="url(#e)" fill-rule="evenodd" d="m203.419 912.067-8.497 28.269 724.754 183.574 282.654-940.336-49.6-12.564c-39.18 140.397-125.32 288.523-254.391 420.598-209.69 214.571-477.518 330.316-694.92 320.459Z" clip-rule="evenodd"/><path fill="url(#f)" fill-rule="evenodd" d="M8.497 916.158 0 944.426 724.755 1128l282.655-940.336-49.601-12.563c-39.182 140.396-125.319 288.523-254.39 420.598C493.729 810.27 225.899 926.015 8.497 916.158Z" clip-rule="evenodd"/><circle r="18.901" fill="#F037A5" transform="matrix(0 1 1 0 507.837 480.944)"/><path fill="url(#g)" d="M0 0h525.027v37.802H0z" transform="matrix(0 1 1 0 488.935 478.844)"/><circle r="18.901" fill="#9BF0E1" transform="matrix(0 1 1 0 604.439 539.728)"/><path fill="url(#h)" d="M0 0h466.224v37.802H0z" transform="matrix(0 1 1 0 585.539 537.63)"/><circle r="18.901" fill="#9BF0E1" transform="matrix(0 1 1 0 701.049 594.331)"/><path fill="url(#i)" d="M0 0h407.421v37.802H0z" transform="matrix(0 1 1 0 682.147 596.431)"/><circle r="18.901" fill="#9BF0E1" transform="matrix(0 1 1 0 797.652 510.345)"/><path fill="url(#j)" d="M0 0h495.625v37.802H0z" transform="matrix(0 1 1 0 778.75 508.246)"/><ellipse fill="#9BF0E1" rx="21.418" ry="18.901" transform="matrix(0 1 1 0 894.254 349.422)"/><path fill="url(#k)" d="M0 0h652.065v37.802H0z" transform="matrix(0 1 1 0 875.354 351.801)"/><defs><linearGradient id="a" x1="32.553" x2="232.692" y1="19.48" y2="19.131" gradientUnits="userSpaceOnUse"><stop stop-color="#9BF0E1"/><stop offset="1" stop-color="#9BF0E1" stop-opacity="0"/></linearGradient><linearGradient id="b" x1="40.953" x2="292.742" y1="19.48" y2="18.928" gradientUnits="userSpaceOnUse"><stop stop-color="#9BF0E1"/><stop offset="1" stop-color="#9BF0E1" stop-opacity="0"/></linearGradient><linearGradient id="c" x1="97.384" x2="696.103" y1="19.48" y2="16.359" gradientUnits="userSpaceOnUse"><stop stop-color="#9BF0E1"/><stop offset="1" stop-color="#9BF0E1" stop-opacity="0"/></linearGradient><linearGradient id="d" x1="51.454" x2="367.803" y1="19.48" y2="18.608" gradientUnits="userSpaceOnUse"><stop stop-color="#9BF0E1"/><stop offset="1" stop-color="#9BF0E1" stop-opacity="0"/></linearGradient><linearGradient id="g" x1="65.63" x2="469.134" y1="19.48" y2="18.062" gradientUnits="userSpaceOnUse"><stop stop-color="#F037A5"/><stop offset="1" stop-color="#F037A5" stop-opacity="0"/></linearGradient><linearGradient id="h" x1="58.28" x2="416.592" y1="19.48" y2="18.362" gradientUnits="userSpaceOnUse"><stop stop-color="#9BF0E1"/><stop offset="1" stop-color="#9BF0E1" stop-opacity="0"/></linearGradient><linearGradient id="i" x1="50.929" x2="364.05" y1="19.48" y2="18.626" gradientUnits="userSpaceOnUse"><stop stop-color="#9BF0E1"/><stop offset="1" stop-color="#9BF0E1" stop-opacity="0"/></linearGradient><linearGradient id="j" x1="61.955" x2="442.863" y1="19.48" y2="18.216" gradientUnits="userSpaceOnUse"><stop stop-color="#9BF0E1"/><stop offset="1" stop-color="#9BF0E1" stop-opacity="0"/></linearGradient><linearGradient id="k" x1="81.511" x2="582.645" y1="19.48" y2="17.293" gradientUnits="userSpaceOnUse"><stop stop-color="#9BF0E1"/><stop offset="1" stop-color="#9BF0E1" stop-opacity="0"/></linearGradient><radialGradient id="e" cx="0" cy="0" r="1" gradientTransform="rotate(69.563 -56.995 675.225) scale(444.189 541.718)" gradientUnits="userSpaceOnUse"><stop stop-color="#757575"/><stop offset="1" stop-color="#757575" stop-opacity="0"/></radialGradient><radialGradient id="f" cx="0" cy="0" r="1" gradientTransform="rotate(69.563 -157.4 536.945) scale(444.189 541.718)" gradientUnits="userSpaceOnUse"><stop stop-color="#757575"/><stop offset="1" stop-color="#757575" stop-opacity="0"/></radialGradient></defs></svg>