<?xml version="1.0" encoding="UTF-8"?>
<svg xmlns="http://www.w3.org/2000/svg" version="1.1" viewBox="0 0 480.6 480">
    <defs>
        <style>
            .cls-1 {
            fill: #fff;
            }

            .cls-2 {
            fill: none;
            }

            .cls-2, .cls-3 {
            stroke: #000;
            stroke-miterlimit: 10;
            stroke-width: .4px;
            }

            .cls-4 {
            fill: #ff8901;
            }

            .cls-5 {
            fill: #f27221;
            }

            .cls-6 {
            fill: #dbdbdb;
            }
        </style>
    </defs>
    <g>
        <g id="Layer_1">
            <rect class="cls-4" x=".6" width="480" height="480" rx="52.2" ry="52.2"/>
            <g>
                <path class="cls-2" d="M240.7,109.4"/>
                <path class="cls-2" d="M240.7,316.5"/>
                <g>
                    <path class="cls-5" d="M169.9,265.8"/>
                    <line class="cls-5" x1="143.8" y1="248.4" x2="143.8" y2="248.4"/>
                </g>
                <path class="cls-5" d="M291.9,145.8c-35-13-68.6-13.9-103.6-.9-28.3,10.5-57,40-54.5,74.7,1.4,20.2,13.8,35.7,33.2,41.6,16.8,5.1,34.3,3.4,51.2,1.8,4.8-.5,11.2-2,16-2.3,10.5-.7,23.2.4,33.5,1.4,8.1.8,13,2.6,21.4,2.6s4.7,0,7.1-.2c18.3-1.1,48.2-8.8,50.7-45.1,2.4-34.8-26.7-63-55-73.5ZM344.1,219.4c-2.2,31.6-27.4,39.8-48.2,41.1-10.4.7-21.1-.4-31.3-1.4-8.1-.8-16.5-1.6-24.8-1.6s-4.8,0-7.2.2c-4.9.3-9.9.8-14.7,1.3-16.5,1.6-33.6,3.3-49.7-1.6-17.8-5.4-30.5-19.2-31.8-37.6-2.3-32.7,27.1-58.8,54-68.8,34-12.7,67.1-12.7,101.2,0,26.9,10,54.9,35.7,52.6,68.4Z"/>
                <path class="cls-1" d="M289.7,154.4c-33-12.3-65-12.3-98,0-26.1,9.7-54.5,35-52.3,66.8,1.2,17.9,13.6,31.3,30.8,36.5,15.6,4.7,32.1,3.1,48.1,1.6,4.7-.5,9.5-.9,14.3-1.2,2.3-.1,4.7-.2,7-.2,8.1,0,16.2.8,24.1,1.5,9.9,1,20.2,2,30.3,1.3,20.1-1.3,44.5-9.2,46.6-39.9,2.2-31.7-24.9-56.6-50.9-66.3Z"/>
                <path class="cls-3" d="M224.9,170.1c-1.6,1.2-3.9,3.3-5.6,6.6-5.1,9.9,1.1,20.2,1.4,20.6,6.6,10.6,19.6,10.7,20.3,10.7.8,0,15.1-.2,21-10.9,4.6-8.2-.1-18.8-.7-20.5-.7-2.1-1.8-5-7-8.5-5.6-3.9-11.6-3.6-14.4-3.4-7.5.4-12.8,3.8-15.1,5.5"/>
                <path class="cls-1" d="M243.3,172.2c-.5.4-1.3,1.2-1.9,2.5-1.7,3.7.4,7.5.5,7.7,2.3,3.9,6.7,4,7,4,.3,0,5.2,0,7.2-4,1.6-3,0-7-.3-7.6-.3-.8-.6-1.9-2.4-3.2-1.9-1.4-4-1.3-4.9-1.3-2.6.1-4.4,1.4-5.2,2.1"/>
                <path class="cls-6" d="M291.9,153.7c-11.6-4.3-23.2-7.1-34.7-8.4,1.8.2-1.7-.8,0,0,5.5,2.6,11.5,4.1,17,6.7,10.5,5,21.9,8.9,30.4,16.9,8.4,7.8,15.8,16.9,19.9,28.3,3.2,8.9,6.2,18.7,4.5,28.4-1.4,8-4.2,15.1-9.7,21-4,4.2-8.9,8.3-14.8,9.4-6.3,1.2-4.1.8-10.8,1.3-3.1.2-13.2.7-17.2,1.2-3,.4-8.2.9-11,.6,10.1,1.2,20.4,2.4,30.6,1.8,20.1-1.3,44.5-10.1,46.7-40.8,2.2-31.7-24.9-56.6-50.9-66.3Z"/>
                <path d="M291.1,150.8c-33.9-12.6-66.8-12.6-100.7,0-27.4,10.2-55.8,36.5-53.5,70.3,1.4,19.6,13.4,34.6,32.2,40.3,16.3,4.9,33.2,3.3,49.6,1.7,4.7-.5,10.8-1.9,15.5-2.2,10.1-.6,22.4.4,32.4,1.4,7.9.8,12.6,2.5,20.7,2.5s4.6,0,6.9-.2c17.7-1.1,46.7-8.5,49.1-43.8,2.3-33.7-24.9-59.7-52.3-70ZM340.7,220.8c-2.1,30.7-26.5,38.6-46.6,39.9-10.1.6-20.4-.4-30.3-1.3-7.9-.8-15.9-1.5-24.1-1.5s-4.7,0-7,.2c-4.7.3-9.6.8-14.3,1.2-16,1.6-32.6,3.2-48.1-1.6-17.2-5.2-29.6-18.6-30.8-36.5-2.2-31.7,26.3-57,52.3-66.8,33-12.3,65-12.3,98,0,26.1,9.7,53.1,34.6,50.9,66.3Z"/>
            </g>
        </g>
    </g>
</svg>
