<svg xmlns="http://www.w3.org/2000/svg" width="1250" height="905" fill="none" viewBox="0 0 1250 905"><path fill="#5CCEBA" fill-rule="evenodd" d="M307.719 137.629C360.639 129.993 409.138 100.256 461.726 109.919C519.501 120.535 572.304 150.174 611.941 193.529C655.366 241.025 683.612 299.731 693.416 363.335C704.645 436.176 718.777 521.603 671.188 577.881C623.775 633.952 534.361 613.905 463.941 634.711C395.308 654.99 333.739 715.484 264.317 698.097C193.974 680.48 143.282 614.076 114.978 547.313C89.6924 487.672 121.096 422.569 120.044 357.799C118.95 290.402 64.977 212.154 108.704 160.856C153.117 108.753 239.957 147.406 307.719 137.629Z" clip-rule="evenodd"/><path fill="#8DE8D8" fill-rule="evenodd" d="M532.888 444.14C569.167 378.41 671.09 395.959 733.106 353.644C792.734 312.959 811.191 208.755 883.283 205.061C954.563 201.409 990.904 290.731 1044.66 337.679C1092.6 379.539 1163.07 403.702 1180.74 464.836C1198.33 525.677 1154.78 584.44 1133.22 643.987C1112.35 701.6 1105.15 768.374 1057.05 806.337C1008.11 844.971 939.696 857.743 878.677 844.889C822.644 833.085 796.544 770 747.137 741.052C688.087 706.453 603.848 715.894 563.8 660.395C520.122 599.864 496.818 509.491 532.888 444.14Z" clip-rule="evenodd"/><mask id="mask0" width="762" height="750" x="0" y="0" mask-type="alpha" maskUnits="userSpaceOnUse"><path fill="#5CCEBA" fill-rule="evenodd" d="M307.719 137.629C360.639 129.993 409.138 100.256 461.726 109.919C519.501 120.535 572.304 150.174 611.941 193.529C655.366 241.025 683.612 299.731 693.416 363.335C704.645 436.176 718.777 521.603 671.188 577.881C623.775 633.952 534.361 613.905 463.941 634.711C395.308 654.99 333.739 715.484 264.317 698.097C193.974 680.48 143.282 614.076 114.978 547.313C89.6924 487.672 121.096 422.569 120.044 357.799C118.95 290.402 64.977 212.154 108.704 160.856C153.117 108.753 239.957 147.406 307.719 137.629Z" clip-rule="evenodd"/></mask><g mask="url(#mask0)"><path fill="#191847" fill-rule="evenodd" d="M333.69 204.001C342.109 225.968 355.357 276.922 347.793 285.801L295.333 290.845C295.319 290.753 295.305 290.661 295.291 290.569C275.64 290.286 258.933 275.255 257.008 255.238L253.454 218.275C251.388 196.795 267.126 177.708 288.606 175.643L292.224 175.295C311.489 173.443 328.829 185.912 333.69 204.001Z" clip-rule="evenodd"/><path fill="#F1CEAD" fill-rule="evenodd" d="M276.721 246.433C267.453 237.537 260.669 226.195 260.331 212.788C259.358 174.157 314.058 177.416 326.403 195.774C338.747 214.132 342.225 263.374 329.01 268.138C323.74 270.038 311.906 267.763 299.519 261.892L311.829 312.741L268.414 316.916L276.721 246.433Z" clip-rule="evenodd"/><path fill="#191847" fill-rule="evenodd" d="M287.834 238.823C291.882 259.927 293.42 284.324 288.013 290.67L235.554 295.715C227.791 245.662 257.914 262.437 253.357 215.046C254.954 213.171 256.456 211.323 257.962 209.709L257.77 208.321C265.082 189.015 275.72 178.691 289.685 177.348C310.632 175.334 318.173 184.359 324.592 192.02C321.758 206.741 305.626 210.435 291.968 220.755C290.124 219.542 287.863 218.926 285.487 219.154C279.992 219.683 275.962 224.526 276.486 229.972C277.009 235.418 281.888 239.405 287.383 238.876C287.535 238.862 287.685 238.844 287.834 238.823Z" clip-rule="evenodd"/><path fill="#D9D9D9" fill-rule="evenodd" d="M169.475 629.144C210.466 648.324 246.559 660.527 277.754 665.752C308.95 670.976 339.471 666.605 369.317 652.637C329.3 633.294 295.678 621.343 268.451 616.783C241.224 612.223 208.232 616.343 169.475 629.144Z" clip-rule="evenodd"/><path fill="#F1CEAD" fill-rule="evenodd" d="M312.082 689.252C311.771 688.561 311.534 687.827 311.379 687.049C308.168 670.946 243.466 492.196 239.296 460.798L342.939 478.156C346.109 502.028 353.631 649.764 353.287 678.931C359.713 726.105 364.084 876.132 366.062 886.806C368.143 898.035 344.616 905.429 341.017 891.451C335.292 869.208 322.981 808.255 319.086 771.644C315.435 737.322 312.931 706.574 312.082 689.252Z" clip-rule="evenodd"/><path fill="#F1CEAD" fill-rule="evenodd" d="M223.949 694.993C180.088 698.54 22.9352 691.914 11.8677 693.149C0.482609 694.42 -5.30899 670.51 8.93324 667.927C31.595 663.815 93.4654 655.908 130.388 654.637C160.086 653.614 187.091 653.244 205.154 653.404C211.909 603.919 224.883 484.62 233.624 459.848L325.328 475.207C316.947 498.961 250.837 671.457 241.114 688.204C237.91 694.227 231.066 695.98 223.949 694.993Z" clip-rule="evenodd"/><path fill="#E4E4E4" fill-rule="evenodd" d="M10.7937 661.966C5.34913 659.979 1.27968 658.998 -1.41466 659.021C-4.69162 659.049 -9.46882 659.636 -15.7463 660.782C-15.7136 664.583 -15.4199 698.748 -14.8653 763.276C-6.03711 765.864 -1.29663 764.285 -0.643861 758.541C0.00891073 752.796 0.601875 748.024 1.13503 744.223L21.9629 696.403C22.3637 695.482 21.9427 694.412 21.0225 694.011C21.0068 694.004 20.9909 693.997 20.975 693.991L13.5206 690.993C10.9964 685.702 9.71998 681.395 9.69143 678.074C9.66823 675.376 10.726 671.64 12.8648 666.866L12.8648 666.866C13.6856 665.034 12.866 662.884 11.0341 662.063C10.9552 662.028 10.875 661.995 10.7937 661.966Z" clip-rule="evenodd"/><path fill="#fff" fill-rule="evenodd" d="M233.919 459.898C276.259 455.149 314.495 461.552 348.627 479.109C351.624 538.231 378.319 565.969 369.038 654.289C303.048 674.245 236.425 609.965 168.768 628.873C157.735 584.728 199.422 489.847 233.919 459.898Z" clip-rule="evenodd"/><path fill="#F1CEAD" fill-rule="evenodd" d="M349.305 357.826L412.085 322.908C422.467 310.424 432.719 300.709 442.84 293.764C445.94 292.445 451.373 291.616 446.363 300.645C441.353 309.674 436.491 319.395 439.107 322.14C441.722 324.886 448.152 320.964 451.283 325.536C453.371 328.585 442.371 333.523 418.285 340.352L372.812 382.503L349.305 357.826ZM448.342 385.981L475.918 370.598C479.679 355.844 484.262 348.398 489.668 348.26C493.805 346.301 486.732 364.963 494.592 363.282C502.451 361.602 521.546 347.214 524.882 350.073C529.818 354.303 525.563 367.459 520.472 374.028C510.958 386.307 503.03 390.546 483.392 396.177C473.125 399.121 462.047 404.94 450.157 413.635L448.342 385.981Z" clip-rule="evenodd"/><rect width="201" height="16" fill="#EFEFEF" rx="5" transform="matrix(0.971545 0.236854 -0.125176 0.992135 386.024 200)"/><mask id="mask1" width="212" height="181" x="369" y="201" mask-type="alpha" maskUnits="userSpaceOnUse"><rect width="201" height="136" fill="#EFEFEF" rx="5" transform="matrix(0.971545 0.236854 -0.125176 0.992135 386.024 200)"/></mask><g mask="url(#mask1)"><rect width="201" height="125" fill="#F7F7F7" transform="matrix(0.971545 0.236854 -0.125176 0.992135 384.647 210.913)"/><rect width="7" height="133" fill="#181818" transform="matrix(0.971545 0.236854 -0.125176 0.992135 384.647 210.913)"/><rect width="194" height="17" fill="#9BF0E1" transform="matrix(0.971545 0.236854 -0.125176 0.992135 391.448 212.571)"/><rect width="184" height="57" fill="#fff" transform="matrix(0.971545 0.236854 -0.125176 0.992135 393.678 234.591)"/><rect width="50" height="49" fill="#fff" transform="matrix(0.971545 0.236854 -0.125176 0.992135 386.042 295.11)"/><rect width="50" height="49" fill="#fff" transform="matrix(0.971545 0.236854 -0.125176 0.992135 438.505 307.901)"/><rect width="76" height="49" fill="#fff" transform="matrix(0.971545 0.236854 -0.125176 0.992135 490.969 320.691)"/></g><path fill="#F1CEAD" fill-rule="evenodd" d="M349.55 357.563L412.33 322.645C422.712 310.16 432.964 300.445 443.086 293.5C446.185 292.181 451.618 291.352 446.608 300.381C441.598 309.41 436.736 319.131 439.352 321.877C441.967 324.623 448.397 320.7 451.529 325.273C453.616 328.321 442.617 333.26 418.53 340.088L373.057 382.239L349.55 357.563ZM469 375.5L476.163 370.334C479.924 355.581 484.507 348.135 489.913 347.996C494.05 346.037 486.14 367.181 494 365.5C500.5 368 497.164 371.641 500.5 374.5C505.435 378.73 520.717 368 520.717 373.765C511.203 386.043 503.275 390.282 483.637 395.913C473.37 398.857 490.389 388.305 478.5 397L469 375.5Z" clip-rule="evenodd"/><path fill="#DC3297" fill-rule="evenodd" d="M318.524 350.432C340.615 350.009 370.036 345.113 401.3 324.987L413.881 352.276C392.382 373.875 362.045 391.731 335.38 391.215C314.366 390.808 303.412 365.614 318.524 350.432Z" clip-rule="evenodd"/><path fill="#F037A5" fill-rule="evenodd" d="M348.648 394.108C372.152 399.727 411.425 392.525 466.465 372.502C480.402 400.575 486.905 420.619 485.975 432.633C438.826 457.657 398.327 468.982 364.891 469.994C366.123 489.731 363.87 508.54 355.903 525.778C339.526 561.215 241.571 529.369 208.785 536.084C187.647 469.799 227.18 442.447 226.847 399.921C226.482 353.35 263.445 281.343 268.974 281.296L319.395 280.863C322.483 316.405 336.823 355.483 348.648 394.108Z" clip-rule="evenodd"/><ellipse fill="#C4C4C4" rx="1.334" ry="1.5" transform="matrix(0.971545 0.236854 -0.125176 0.992135 390.089 206.616)"/><ellipse fill="#C4C4C4" rx="1.334" ry="1.5" transform="matrix(0.971545 0.236854 -0.125176 0.992135 394.409 207.668)"/><ellipse fill="#C4C4C4" rx="1.334" ry="1.5" transform="matrix(0.971545 0.236854 -0.125176 0.992135 398.729 208.722)"/></g><mask id="mask2" width="805" height="787" x="445" y="118" mask-type="alpha" maskUnits="userSpaceOnUse"><path fill="#8DE8D8" fill-rule="evenodd" d="M532.888 444.14C569.167 378.41 671.09 395.959 733.106 353.644C792.734 312.959 811.191 208.755 883.283 205.061C954.563 201.409 990.904 290.731 1044.66 337.679C1092.6 379.539 1163.07 403.702 1180.74 464.836C1198.33 525.677 1154.78 584.44 1133.22 643.987C1112.35 701.6 1105.15 768.374 1057.05 806.337C1008.11 844.971 939.696 857.743 878.677 844.889C822.644 833.085 796.544 770 747.137 741.052C688.087 706.453 603.848 715.894 563.8 660.395C520.122 599.864 496.818 509.491 532.888 444.14Z" clip-rule="evenodd"/></mask><g mask="url(#mask2)"><rect width="198" height="19" fill="#EFEFEF" rx="5" transform="matrix(0.92881 -0.370557 0.237516 0.971384 603 499.37)"/><mask id="mask3" width="215" height="203" x="604" y="427" mask-type="alpha" maskUnits="userSpaceOnUse"><rect width="198" height="136" fill="#EFEFEF" rx="5" transform="matrix(0.92881 -0.370557 0.237516 0.971384 603 499.37)"/></mask><g mask="url(#mask3)"><rect width="198" height="124" fill="#F7F7F7" transform="matrix(0.92881 -0.370557 0.237516 0.971384 605.851 511.026)"/><rect width="7" height="133" fill="#181818" transform="matrix(0.92881 -0.370557 0.237516 0.971384 605.851 511.026)"/><rect width="219" height="17" fill="#F037A5" transform="matrix(0.92881 -0.370557 0.237516 0.971384 612.352 508.433)"/><rect width="125" height="57" fill="#fff" transform="matrix(0.92881 -0.370557 0.237516 0.971384 674.234 507.199)"/><rect width="126" height="49" fill="#fff" transform="matrix(0.92881 -0.370557 0.237516 0.971384 636.71 587.205)"/><rect width="51" height="49" fill="#fff" transform="matrix(0.92881 -0.370557 0.237516 0.971384 757.455 539.032)"/><rect width="51" height="57" fill="#fff" transform="matrix(0.92881 -0.370557 0.237516 0.971384 623.15 527.58)"/></g><ellipse fill="#C4C4C4" rx="1.314" ry="1.5" transform="matrix(0.92881 -0.370557 0.237516 0.971384 609.02 503.899)"/><ellipse fill="#C4C4C4" rx="1.314" ry="1.5" transform="matrix(0.92881 -0.370557 0.237516 0.971384 613.088 502.276)"/><ellipse fill="#C4C4C4" rx="1.314" ry="1.5" transform="matrix(0.92881 -0.370557 0.237516 0.971384 617.157 500.652)"/><path fill="#B28B67" fill-rule="evenodd" d="M929.014 414.174C937.352 404.387 942.996 392.392 942.053 378.952C939.336 340.228 885.43 348.747 874.944 368.292C864.458 387.836 865.704 437.413 879.256 440.906C884.661 442.299 896.174 438.887 907.892 431.824L900.537 483.858H943.965L929.014 414.174Z" clip-rule="evenodd"/><path fill="#191847" fill-rule="evenodd" d="M855.704 341.196C856.604 338.034 859.023 335.328 862.282 334.525C863.073 334.33 863.889 334.251 864.703 334.284C864.995 334.296 865.076 334.38 865.213 334.176C865.314 334.025 865.316 333.655 865.358 333.477C865.487 332.925 865.649 332.379 865.849 331.847C866.531 330.033 867.678 328.428 869.059 327.076C871.644 324.546 875.136 322.8 878.765 322.484C880.75 322.311 882.722 322.634 884.599 323.28C885.571 323.614 886.513 324.031 887.431 324.491C887.708 324.63 888.604 325.308 888.882 325.264C889.188 325.216 889.804 324.455 890.053 324.264C893.132 321.902 896.933 320.973 900.768 321.001C905.096 321.033 909.264 321.249 912.874 323.888C913.638 324.447 914.366 325.058 915.059 325.702C915.424 326.041 915.777 326.393 916.114 326.759C916.318 326.98 916.516 327.207 916.707 327.439C917.03 327.833 916.978 327.962 917.431 327.687C919.168 326.632 921.181 326.138 923.209 326.387C924.413 326.535 925.585 326.897 926.697 327.373C927.076 327.534 927.953 328.181 928.356 328.187C928.757 328.193 929.621 327.594 930.034 327.442C932.261 326.619 934.663 326.417 937.005 326.797C939.42 327.189 941.793 328.153 943.84 329.484C944.824 330.125 945.683 330.835 946.373 331.787C946.671 332.199 946.94 332.634 947.277 333.015C947.475 333.238 947.866 333.467 947.972 333.75C947.909 333.581 950.614 332.538 950.869 332.471C952.229 332.116 953.614 332.188 954.946 332.626C957.45 333.451 959.604 335.299 961.374 337.193C962.283 338.167 963.078 339.242 963.754 340.389C964.077 340.938 964.373 341.502 964.644 342.079C964.775 342.358 964.862 342.708 965.035 342.96C965.258 343.284 965.408 343.29 965.811 343.431C967.861 344.149 969.729 345.365 971.152 347.007C972.591 348.668 973.525 350.714 973.916 352.869C973.939 352.996 973.953 353.522 974.027 353.59C974.129 353.685 974.541 353.643 974.697 353.662C975.237 353.725 975.773 353.819 976.302 353.944C977.277 354.175 978.226 354.515 979.124 354.959C982.623 356.69 985.126 359.937 986.351 363.589C987.636 367.423 987.613 371.814 986.077 375.576C985.829 376.184 985.534 376.774 985.187 377.332C984.974 377.674 984.906 377.675 985.044 378.034C985.198 378.434 985.479 378.822 985.662 379.213C986.259 380.488 986.677 381.84 986.94 383.221C987.373 385.486 987.587 387.866 987.161 390.148C986.963 391.208 986.617 392.244 986.091 393.188C985.822 393.669 985.508 394.126 985.153 394.548C984.969 394.767 984.773 394.977 984.569 395.177C984.452 395.292 984.298 395.392 984.199 395.52C983.956 395.832 983.905 395.576 984.03 396.034C984.205 396.674 984.602 397.306 984.845 397.93C985.096 398.572 985.322 399.224 985.529 399.881C985.949 401.213 986.303 402.569 986.525 403.948C986.951 406.595 986.876 409.417 985.624 411.847C985.088 412.886 984.32 413.798 983.388 414.507C982.932 414.854 982.438 415.153 981.92 415.399C981.654 415.525 981.314 415.58 981.193 415.837C981.062 416.114 981.256 416.664 981.3 416.973C981.685 419.666 981.878 422.494 981.078 425.133C980.341 427.564 978.717 429.71 976.609 431.131C972.521 433.887 967.009 433.732 962.713 431.525C961.593 430.95 960.545 430.236 959.611 429.393C957.231 432.597 952.333 432.496 948.855 431.583C944.522 430.445 941.044 427.432 939.041 423.473C936.302 426.808 930.552 425.726 928.653 422.108C928.188 421.223 927.912 420.247 927.776 419.259C927.705 418.74 927.75 418.216 927.697 417.701C927.628 417.045 927.19 416.407 926.938 415.772C926.447 414.536 926.142 413.259 926.129 411.926C926.122 411.23 926.21 410.552 926.276 409.861C926.336 409.24 926.164 408.661 926.066 408.047C927.177 408.23 928.531 407.931 929.578 407.608C930.606 407.292 931.568 406.459 932.293 405.699C933.977 403.932 935.006 401.617 935.71 399.312C937.254 394.254 936.621 388.186 931.533 385.41C929.163 384.117 922.063 384.121 919.24 384.76C916.272 385.432 912.908 391.981 912.742 392.597C912.64 392.978 912.691 393.449 912.341 393.703C911.572 394.261 910.304 393.293 909.736 392.814C908.757 391.989 908.059 390.892 907.454 389.779C906.136 387.355 905.074 384.755 904.324 382.101C903.745 380.055 903.375 377.945 902.619 375.951C901.866 373.967 900.68 372.194 898.836 371.07C896.83 369.847 894.53 369.203 892.327 368.435C890.144 367.673 887.999 366.743 886.306 365.127C885.934 364.771 885.573 364.394 885.273 363.976C885.037 363.645 884.803 363.013 884.443 362.804C883.883 362.478 883.066 363.325 882.581 363.633C880.192 365.15 878.199 367.267 876.591 369.579C874.992 371.878 873.68 374.091 872.614 376.658C871.823 378.563 871.33 381.001 869.939 382.562C869.318 383.259 864.703 383.68 863.208 383.072C861.713 382.464 860.038 380.884 859.536 379.894C859.022 378.881 858.899 377.768 859.119 376.658C859.248 376.006 859.512 375.396 859.656 374.755C859.777 374.217 859.888 373.708 860.15 373.214C860.646 372.28 861.495 371.608 862.518 371.327C861.453 370.345 860.571 369.17 859.96 367.857C859.326 366.493 858.788 364.834 858.635 363.337C858.511 362.12 858.703 360.86 859.369 359.815C860.067 358.719 861.304 358.004 862.375 357.32C860.739 356.04 859.34 354.484 858.189 352.762C855.952 349.412 854.568 345.189 855.704 341.196Z" clip-rule="evenodd"/><path fill="#2965AF" fill-rule="evenodd" d="M958.42 634.087L871.416 864.305L810.432 1033.99H775.66L859.487 634.087L958.42 634.087Z" clip-rule="evenodd"/><path fill="#2E77D0" fill-rule="evenodd" d="M979.924 634.087C980.869 713.08 980.186 819.43 982.389 824.354C983.858 827.637 1029.55 865.039 1119.47 936.559L1101.54 967.036C994.793 898.195 938.688 859.188 933.231 850.017C925.044 836.259 883.915 709.658 862.517 634.087H979.924Z" clip-rule="evenodd"/><path fill="#997659" fill-rule="evenodd" d="M802.808 562.247L731.364 552.502C717.072 544.552 703.924 539.171 691.92 536.357C688.542 536.258 683.169 537.486 691.174 544.16C699.179 550.834 707.302 558.216 705.876 561.778C704.449 565.34 697.004 564.014 695.771 569.492C694.949 573.145 707.031 573.738 732.019 571.273L789.99 594.256L802.808 562.247ZM1027.24 578.784L987.618 578.933C1031.07 676.707 1053.72 727.901 1055.58 732.512C1059.77 742.889 1050.91 758.693 1047.12 767.185C1059.46 772.707 1058.15 752.257 1073.71 759.499C1087.92 766.11 1098.73 778.088 1115.15 767.958C1117.17 766.713 1119.38 762.024 1114.04 758.36C1100.72 749.23 1081.54 733.253 1078.94 727.993C1075.41 720.822 1058.17 671.085 1027.24 578.784Z" clip-rule="evenodd"/><path fill="#D9D9D9" fill-rule="evenodd" d="M918.709 453.115L887.685 455.182C880.044 524.307 838.426 567.97 745.246 553.188L732.867 642.206C819.958 653.462 896.337 618.594 911.99 524.19C916.042 499.752 919.242 474.319 918.709 453.115Z" clip-rule="evenodd"/><path fill="#fff" fill-rule="evenodd" d="M934.014 444.096L887.009 454.862C887.009 535.709 861.255 587.291 848.046 646.732H974.995C976.783 667.272 977.881 688.383 978.453 710.065H1073.51C1051.97 595.458 1006.5 506.792 937.118 444.067H934.039L934.014 444.096Z" clip-rule="evenodd"/><path fill="#D9D9D9" fill-rule="evenodd" d="M954.964 531.393C958.236 581.772 956.312 620.218 949.192 646.732H974.993C971.451 606.043 965.2 567.597 954.964 531.393L954.964 531.393Z" clip-rule="evenodd"/></g></svg>