<svg xmlns="http://www.w3.org/2000/svg" width="1250" height="905" fill="none" viewBox="0 0 1250 905"><path fill="#5CCEBA" fill-rule="evenodd" d="M307.719 137.629c52.92-7.636 101.419-37.373 154.007-27.71 57.775 10.616 110.578 40.255 150.215 83.61 43.425 47.496 71.671 106.202 81.475 169.806 11.229 72.841 25.361 158.268-22.228 214.546-47.413 56.071-136.827 36.024-207.247 56.83-68.633 20.279-130.202 80.773-199.624 63.386-70.343-17.617-121.035-84.021-149.339-150.784-25.286-59.641 6.118-124.744 5.066-189.514-1.094-67.397-55.067-145.645-11.34-196.943 44.413-52.103 131.253-13.45 199.015-23.227Z" clip-rule="evenodd"/><path fill="#8DE8D8" fill-rule="evenodd" d="M532.888 444.14c36.279-65.73 138.202-48.181 200.218-90.496 59.628-40.685 78.085-144.889 150.177-148.583 71.28-3.652 107.621 85.67 161.377 132.618 47.94 41.86 118.41 66.023 136.08 127.157 17.59 60.841-25.96 119.604-47.52 179.151-20.87 57.613-28.07 124.387-76.17 162.35-48.94 38.634-117.354 51.406-178.373 38.552-56.033-11.804-82.133-74.889-131.54-103.837-59.05-34.599-143.289-25.158-183.337-80.657-43.678-60.531-66.982-150.904-30.912-216.255Z" clip-rule="evenodd"/><mask id="a" width="762" height="750" x="0" y="0" mask-type="alpha" maskUnits="userSpaceOnUse"><path fill="#5CCEBA" fill-rule="evenodd" d="M307.719 137.629c52.92-7.636 101.419-37.373 154.007-27.71 57.775 10.616 110.578 40.255 150.215 83.61 43.425 47.496 71.671 106.202 81.475 169.806 11.229 72.841 25.361 158.268-22.228 214.546-47.413 56.071-136.827 36.024-207.247 56.83-68.633 20.279-130.202 80.773-199.624 63.386-70.343-17.617-121.035-84.021-149.339-150.784-25.286-59.641 6.118-124.744 5.066-189.514-1.094-67.397-55.067-145.645-11.34-196.943 44.413-52.103 131.253-13.45 199.015-23.227Z" clip-rule="evenodd"/></mask><g mask="url(#a)"><path fill="#191847" fill-rule="evenodd" d="M333.69 204.001c8.419 21.967 21.667 72.921 14.103 81.8l-52.46 5.044-.042-.276c-19.651-.283-36.358-15.314-38.283-35.331l-3.554-36.963c-2.066-21.48 13.672-40.567 35.152-42.632l3.618-.348c19.265-1.852 36.605 10.617 41.466 28.706Z" clip-rule="evenodd"/><path fill="#F1CEAD" fill-rule="evenodd" d="M276.721 246.433c-9.268-8.896-16.052-20.238-16.39-33.645-.973-38.631 53.727-35.372 66.072-17.014 12.344 18.358 15.822 67.6 2.607 72.364-5.27 1.9-17.104-.375-29.491-6.246l12.31 50.849-43.415 4.175 8.307-70.483Z" clip-rule="evenodd"/><path fill="#191847" fill-rule="evenodd" d="M287.834 238.823c4.048 21.104 5.586 45.501.179 51.847l-52.459 5.045c-7.763-50.053 22.36-33.278 17.803-80.669 1.597-1.875 3.099-3.723 4.605-5.337l-.192-1.388c7.312-19.306 17.95-29.63 31.915-30.973 20.947-2.014 28.488 7.011 34.907 14.672-2.834 14.721-18.966 18.415-32.624 28.735a10.014 10.014 0 0 0-6.481-1.601c-5.495.529-9.525 5.372-9.001 10.818.523 5.446 5.402 9.433 10.897 8.904.152-.014.302-.032.451-.053Z" clip-rule="evenodd"/><path fill="#D9D9D9" fill-rule="evenodd" d="M169.475 629.144c40.991 19.18 77.084 31.383 108.279 36.608 31.196 5.224 61.717.853 91.563-13.115-40.017-19.343-73.639-31.294-100.866-35.854-27.227-4.56-60.219-.44-98.976 12.361Z" clip-rule="evenodd"/><path fill="#F1CEAD" fill-rule="evenodd" d="M312.082 689.252a10.213 10.213 0 0 1-.703-2.203c-3.211-16.103-67.913-194.853-72.083-226.251l103.643 17.358c3.17 23.872 10.692 171.608 10.348 200.775 6.426 47.174 10.797 197.201 12.775 207.875 2.081 11.229-21.446 18.623-25.045 4.645-5.725-22.243-18.036-83.196-21.931-119.807-3.651-34.322-6.155-65.07-7.004-82.392Z" clip-rule="evenodd"/><path fill="#F1CEAD" fill-rule="evenodd" d="M223.949 694.993c-43.861 3.547-201.014-3.079-212.081-1.844C.483 694.42-5.31 670.51 8.933 667.927c22.662-4.112 84.532-12.019 121.455-13.29 29.698-1.023 56.703-1.393 74.766-1.233 6.755-49.485 19.729-168.784 28.47-193.556l91.704 15.359c-8.381 23.754-74.491 196.25-84.214 212.997-3.204 6.023-10.048 7.776-17.165 6.789Z" clip-rule="evenodd"/><path fill="#E4E4E4" fill-rule="evenodd" d="M10.794 661.966c-5.445-1.987-9.514-2.968-12.209-2.945-3.277.028-8.054.615-14.331 1.761l.88 102.494c8.829 2.588 13.57 1.009 14.222-4.735.653-5.745 1.246-10.517 1.779-14.318l20.828-47.82a1.817 1.817 0 0 0-.988-2.412l-7.454-2.998c-2.525-5.291-3.801-9.598-3.83-12.919-.023-2.698 1.035-6.434 3.174-11.208a3.635 3.635 0 0 0-2.071-4.9Z" clip-rule="evenodd"/><path fill="#fff" fill-rule="evenodd" d="M233.919 459.898c42.34-4.749 80.576 1.654 114.708 19.211 2.997 59.122 29.692 86.86 20.411 175.18-65.99 19.956-132.613-44.324-200.27-25.416-11.033-44.145 30.654-139.026 65.151-168.975Z" clip-rule="evenodd"/><path fill="#F1CEAD" fill-rule="evenodd" d="m349.305 357.826 62.78-34.918c10.382-12.484 20.634-22.199 30.755-29.144 3.1-1.319 8.533-2.148 3.523 6.881s-9.872 18.75-7.256 21.495c2.615 2.746 9.045-1.176 12.176 3.396 2.088 3.049-8.912 7.987-32.998 14.816l-45.473 42.151-23.507-24.677Zm99.037 28.155 27.576-15.383c3.761-14.754 8.344-22.2 13.75-22.338 4.137-1.959-2.936 16.703 4.924 15.022 7.859-1.68 26.954-16.068 30.29-13.209 4.936 4.23.681 17.386-4.41 23.955-9.514 12.279-17.442 16.518-37.08 22.149-10.267 2.944-21.345 8.763-33.235 17.458l-1.815-27.654Z" clip-rule="evenodd"/><rect width="201" height="16" fill="#EFEFEF" rx="5" transform="matrix(.97154 .23685 -.12518 .99213 386.024 200)"/><mask id="b" width="212" height="181" x="369" y="201" mask-type="alpha" maskUnits="userSpaceOnUse"><rect width="201" height="136" fill="#EFEFEF" rx="5" transform="matrix(.97154 .23685 -.12518 .99213 386.024 200)"/></mask><g mask="url(#b)"><path fill="#F7F7F7" d="m384.647 210.913 195.28 47.608-15.646 124.017L369 334.93z"/><path fill="#181818" d="m384.647 210.913 6.8 1.658L374.8 344.525l-6.8-1.658z"/><path fill="#9BF0E1" d="m391.448 212.571 188.48 45.95-2.128 16.866-188.48-45.95z"/><path fill="#fff" d="m393.678 234.591 178.764 43.581-7.135 56.552-178.764-43.581zm-7.636 60.519 48.577 11.843-6.133 48.614-48.578-11.842zm52.463 12.791 48.577 11.843-6.133 48.614-48.578-11.842zm52.464 12.79 73.837 18-6.133 48.616-73.838-18.001z"/></g><path fill="#F1CEAD" fill-rule="evenodd" d="m349.55 357.563 62.78-34.918c10.382-12.485 20.634-22.2 30.756-29.145 3.099-1.319 8.532-2.148 3.522 6.881s-9.872 18.75-7.256 21.496c2.615 2.746 9.045-1.177 12.177 3.396 2.087 3.048-8.912 7.987-32.999 14.815l-45.473 42.151-23.507-24.676ZM469 375.5l7.163-5.166c3.761-14.753 8.344-22.199 13.75-22.338 4.137-1.959-3.773 19.185 4.087 17.504 6.5 2.5 3.164 6.141 6.5 9 4.935 4.23 20.217-6.5 20.217-.735-9.514 12.278-17.442 16.517-37.08 22.148-10.267 2.944 6.752-7.608-5.137 1.087l-9.5-21.5Z" clip-rule="evenodd"/><path fill="#DC3297" fill-rule="evenodd" d="M318.524 350.432c22.091-.423 51.512-5.319 82.776-25.445l12.581 27.289c-21.499 21.599-51.836 39.455-78.501 38.939-21.014-.407-31.968-25.601-16.856-40.783Z" clip-rule="evenodd"/><path fill="#F037A5" fill-rule="evenodd" d="M348.648 394.108c23.504 5.619 62.777-1.583 117.817-21.606 13.937 28.073 20.44 48.117 19.51 60.131-47.149 25.024-87.648 36.349-121.084 37.361 1.232 19.737-1.021 38.546-8.988 55.784-16.377 35.437-114.332 3.591-147.118 10.306-21.138-66.285 18.395-93.637 18.062-136.163-.365-46.571 36.598-118.578 42.127-118.625l50.421-.433c3.088 35.542 17.428 74.62 29.253 113.245Z" clip-rule="evenodd"/><ellipse fill="#C4C4C4" rx="1.334" ry="1.5" transform="matrix(.97154 .23685 -.12518 .99213 390.089 206.616)"/><ellipse fill="#C4C4C4" rx="1.334" ry="1.5" transform="matrix(.97154 .23685 -.12518 .99213 394.409 207.668)"/><ellipse fill="#C4C4C4" rx="1.334" ry="1.5" transform="matrix(.97154 .23685 -.12518 .99213 398.729 208.722)"/></g><mask id="c" width="805" height="787" x="445" y="118" mask-type="alpha" maskUnits="userSpaceOnUse"><path fill="#8DE8D8" fill-rule="evenodd" d="M532.888 444.14c36.279-65.73 138.202-48.181 200.218-90.496 59.628-40.685 78.085-144.889 150.177-148.583 71.28-3.652 107.621 85.67 161.377 132.618 47.94 41.86 118.41 66.023 136.08 127.157 17.59 60.841-25.96 119.604-47.52 179.151-20.87 57.613-28.07 124.387-76.17 162.35-48.94 38.634-117.354 51.406-178.373 38.552-56.033-11.804-82.133-74.889-131.54-103.837-59.05-34.599-143.289-25.158-183.337-80.657-43.678-60.531-66.982-150.904-30.912-216.255Z" clip-rule="evenodd"/></mask><g mask="url(#c)"><rect width="198" height="19" fill="#EFEFEF" rx="5" transform="matrix(.92881 -.37056 .23752 .97138 603 499.37)"/><mask id="d" width="215" height="203" x="604" y="427" mask-type="alpha" maskUnits="userSpaceOnUse"><rect width="198" height="136" fill="#EFEFEF" rx="5" transform="matrix(.92881 -.37056 .23752 .97138 603 499.37)"/></mask><g mask="url(#d)"><path fill="#F7F7F7" d="m605.851 511.026 183.904-73.37 29.452 120.451-183.904 73.37z"/><path fill="#181818" d="m605.851 511.026 6.502-2.594 31.59 129.194-6.502 2.594z"/><path fill="#F037A5" d="m612.352 508.433 203.41-81.152 4.037 16.514-203.41 81.152z"/><path fill="#fff" d="m674.234 507.199 116.101-46.32 13.539 55.37-116.102 46.319zm-37.524 80.006 117.03-46.69 11.638 47.598-117.03 46.69zm120.745-48.173 47.37-18.898 11.638 47.597-47.37 18.899zM623.15 527.58l47.37-18.898 13.538 55.368-47.37 18.899z"/></g><ellipse fill="#C4C4C4" rx="1.314" ry="1.5" transform="matrix(.92881 -.37056 .23752 .97138 609.02 503.899)"/><ellipse fill="#C4C4C4" rx="1.314" ry="1.5" transform="matrix(.92881 -.37056 .23752 .97138 613.088 502.276)"/><ellipse fill="#C4C4C4" rx="1.314" ry="1.5" transform="matrix(.92881 -.37056 .23752 .97138 617.157 500.652)"/><path fill="#B28B67" fill-rule="evenodd" d="M929.014 414.174c8.338-9.787 13.982-21.782 13.039-35.222-2.717-38.724-56.623-30.205-67.109-10.66-10.486 19.544-9.24 69.121 4.312 72.614 5.405 1.393 16.918-2.019 28.636-9.082l-7.355 52.034h43.428l-14.951-69.684Z" clip-rule="evenodd"/><path fill="#191847" fill-rule="evenodd" d="M855.704 341.196c.9-3.162 3.319-5.868 6.578-6.671a8.653 8.653 0 0 1 2.421-.241c.292.012.373.096.51-.108.101-.151.103-.521.145-.699.129-.552.291-1.098.491-1.63.682-1.814 1.829-3.419 3.21-4.771 2.585-2.53 6.077-4.276 9.706-4.592 1.985-.173 3.957.15 5.834.796.972.334 1.914.751 2.832 1.211.277.139 1.173.817 1.451.773.306-.048.922-.809 1.171-1 3.079-2.362 6.88-3.291 10.715-3.263 4.328.032 8.496.248 12.106 2.887.764.559 1.492 1.17 2.185 1.814.365.339.718.691 1.055 1.057.204.221.402.448.593.68.323.394.271.523.724.248 1.737-1.055 3.75-1.549 5.778-1.3 1.204.148 2.376.51 3.488.986.379.161 1.256.808 1.659.814.401.006 1.265-.593 1.678-.745 2.227-.823 4.629-1.025 6.971-.645 2.415.392 4.788 1.356 6.835 2.687.984.641 1.843 1.351 2.533 2.303.298.412.567.847.904 1.228.198.223.589.452.695.735-.063-.169 2.642-1.212 2.897-1.279 1.36-.355 2.745-.283 4.077.155 2.504.825 4.658 2.673 6.428 4.567a18.293 18.293 0 0 1 2.38 3.196c.323.549.619 1.113.89 1.69.131.279.218.629.391.881.223.324.373.33.776.471 2.05.718 3.918 1.934 5.341 3.576 1.439 1.661 2.373 3.707 2.764 5.862.023.127.037.653.111.721.102.095.514.053.67.072.54.063 1.076.157 1.605.282a13.28 13.28 0 0 1 2.822 1.015c3.499 1.731 6.002 4.978 7.227 8.63 1.285 3.834 1.262 8.225-.274 11.987a11.669 11.669 0 0 1-.89 1.756c-.213.342-.281.343-.143.702.154.4.435.788.618 1.179a16.9 16.9 0 0 1 1.278 4.008c.433 2.265.647 4.645.221 6.927-.198 1.06-.544 2.096-1.07 3.04a8.743 8.743 0 0 1-1.522 1.989c-.117.115-.271.215-.37.343-.243.312-.294.056-.169.514.175.64.572 1.272.815 1.896.251.642.477 1.294.684 1.951.42 1.332.774 2.688.996 4.067.426 2.647.351 5.469-.901 7.899a7.905 7.905 0 0 1-2.236 2.66c-.456.347-.95.646-1.468.892-.266.126-.606.181-.727.438-.131.277.063.827.107 1.136.385 2.693.578 5.521-.222 8.16-.737 2.431-2.361 4.577-4.469 5.998-4.088 2.756-9.6 2.601-13.896.394a14.538 14.538 0 0 1-3.102-2.132c-2.38 3.204-7.278 3.103-10.756 2.19-4.333-1.138-7.811-4.151-9.814-8.11-2.739 3.335-8.489 2.253-10.388-1.365-.465-.885-.741-1.861-.877-2.849-.071-.519-.026-1.043-.079-1.558-.069-.656-.507-1.294-.759-1.929-.491-1.236-.796-2.513-.809-3.846-.007-.696.081-1.374.147-2.065.06-.621-.112-1.2-.21-1.814 1.111.183 2.465-.116 3.512-.439 1.028-.316 1.99-1.149 2.715-1.909 1.684-1.767 2.713-4.082 3.417-6.387 1.544-5.058.911-11.126-4.177-13.902-2.37-1.293-9.47-1.289-12.293-.65-2.968.672-6.332 7.221-6.498 7.837-.102.381-.051.852-.401 1.106-.769.558-2.037-.41-2.605-.889-.979-.825-1.677-1.922-2.282-3.035a37.51 37.51 0 0 1-3.13-7.678c-.579-2.046-.949-4.156-1.705-6.15-.753-1.984-1.939-3.757-3.783-4.881-2.006-1.223-4.306-1.867-6.509-2.635-2.183-.762-4.328-1.692-6.021-3.308a8.41 8.41 0 0 1-1.033-1.151c-.236-.331-.47-.963-.83-1.172-.56-.326-1.377.521-1.862.829-2.389 1.517-4.382 3.634-5.99 5.946-1.599 2.299-2.911 4.512-3.977 7.079-.791 1.905-1.284 4.343-2.675 5.904-.621.697-5.236 1.118-6.731.51-1.495-.608-3.17-2.188-3.672-3.178-.514-1.013-.637-2.126-.417-3.236.129-.652.393-1.262.537-1.903.121-.538.232-1.047.494-1.541a3.8 3.8 0 0 1 2.368-1.887 11.131 11.131 0 0 1-2.558-3.47c-.634-1.364-1.172-3.023-1.325-4.52-.124-1.217.068-2.477.734-3.522.698-1.096 1.935-1.811 3.006-2.495-1.636-1.28-3.035-2.836-4.186-4.558-2.237-3.35-3.621-7.573-2.485-11.566Z" clip-rule="evenodd"/><path fill="#2965AF" fill-rule="evenodd" d="m958.42 634.087-87.004 230.218-60.984 169.685H775.66l83.827-399.903h98.933Z" clip-rule="evenodd"/><path fill="#2E77D0" fill-rule="evenodd" d="M979.924 634.087c.945 78.993.262 185.343 2.465 190.267 1.469 3.283 47.161 40.685 137.081 112.205l-17.93 30.477c-106.747-68.841-162.852-107.848-168.309-117.019-8.187-13.758-49.316-140.359-70.714-215.93h117.407Z" clip-rule="evenodd"/><path fill="#997659" fill-rule="evenodd" d="m802.808 562.247-71.444-9.745c-14.292-7.95-27.44-13.331-39.444-16.145-3.378-.099-8.751 1.129-.746 7.803 8.005 6.674 16.128 14.056 14.702 17.618-1.427 3.562-8.872 2.236-10.105 7.714-.822 3.653 11.26 4.246 36.248 1.781l57.971 22.983 12.818-32.009Zm224.432 16.537-39.622.149c43.452 97.774 66.102 148.968 67.962 153.579 4.19 10.377-4.67 26.181-8.46 34.673 12.34 5.522 11.03-14.928 26.59-7.686 14.21 6.611 25.02 18.589 41.44 8.459 2.02-1.245 4.23-5.934-1.11-9.598-13.32-9.13-32.5-25.107-35.1-30.367-3.53-7.171-20.77-56.908-51.7-149.209Z" clip-rule="evenodd"/><path fill="#D9D9D9" fill-rule="evenodd" d="m918.709 453.115-31.024 2.067c-7.641 69.125-49.259 112.788-142.439 98.006l-12.379 89.018c87.091 11.256 163.47-23.612 179.123-118.016 4.052-24.438 7.252-49.871 6.719-71.075Z" clip-rule="evenodd"/><path fill="#fff" fill-rule="evenodd" d="m934.014 444.096-47.005 10.766c0 80.847-25.754 132.429-38.963 191.87h126.949c1.788 20.54 2.886 41.651 3.458 63.333h95.057c-21.54-114.607-67.01-203.273-136.392-265.998h-3.079l-.025.029Z" clip-rule="evenodd"/><path fill="#D9D9D9" fill-rule="evenodd" d="M954.964 531.393c3.272 50.379 1.348 88.825-5.772 115.339h25.801c-3.542-40.689-9.793-79.135-20.029-115.339Z" clip-rule="evenodd"/></g></svg>