<svg xmlns="http://www.w3.org/2000/svg" width="718" height="535" fill="none" viewBox="0 0 718 535"><path fill="url(#a)" fill-rule="evenodd" d="M183.853 4.467c34.066 8.025 51.139 44.316 80.553 63.289 32.192 20.764 87.991 15.85 99.03 52.544 11.106 36.915-40.127 63.197-53.31 99.422-12.415 34.115 3.139 76.904-20.792 104.198-25.403 28.972-67.002 37.987-105.481 39.817-39.862 1.897-80.474-6.332-113.029-29.424-32.785-23.256-55.283-58.696-65.88-97.482-10.26-37.556-3.091-76.388 8.2-113.647C24.65 85.212 37.485 44.622 70.052 21.974 102.356-.492 145.558-4.554 183.853 4.467Z" clip-rule="evenodd"/><mask id="b" width="366" height="365" x="0" y="0" mask-type="alpha" maskUnits="userSpaceOnUse"><path fill="#36BAA2" fill-rule="evenodd" d="M183.949 4.473c34.084 8.034 51.165 44.369 80.595 63.364 32.208 20.789 88.036 15.87 99.081 52.607 11.112 36.96-40.147 63.273-53.337 99.541-12.422 34.157 3.14 76.997-20.804 104.324-25.416 29.007-67.036 38.033-105.535 39.865-39.883 1.899-80.516-6.339-113.088-29.459-32.802-23.284-55.312-58.767-65.914-97.599-10.266-37.602-3.093-76.48 8.203-113.784C24.663 85.314 37.505 44.675 70.09 22 102.41-.492 145.634-4.56 183.949 4.473Z" clip-rule="evenodd"/></mask><g fill-rule="evenodd" clip-rule="evenodd" mask="url(#b)"><path fill="#E6BA92" d="M178.373 117.387c5.244-6.159 8.793-13.708 8.2-22.165-1.709-24.37-35.611-19.009-42.206-6.71-6.595 12.3-5.811 43.499 2.712 45.697 3.399.877 10.64-1.27 18.009-5.715l-4.625 32.745h27.312l-9.402-43.852Z"/><path fill="#EEE" d="M150.522 80.402c.626-.373 1.935-1.161 2.598-1.447.157-.069 1.255-.853 1.285-.843.832.28 3.24 1.318 3.447 2.213.032.068.064.132.094.188.342.62.655 1.257.954 1.9.655 1.415 1.221 2.892 1.762 4.358 1.052 2.855 1.967 5.777 2.808 8.705.856 2.98 1.583 5.996 2.396 8.99 1.17 4.307 2.668 8.508 3.831 12.813.742 2.749 1.155 5.53.96 8.36l-.006.102-.004.042c-.033.435-.081.871-.144 1.308-.055.374-.11.75-.169 1.125-1.062-2.119-1.872-4.453-2.733-6.669a24.31 24.31 0 0 1-.242-.654 88.796 88.796 0 0 0-.847-1.34c-1.803-2.802-3.614-5.594-5.343-8.448-3.111-5.131-6.192-10.371-9.88-15.083-1.089-1.392-2.203-2.762-3.279-4.165a69.305 69.305 0 0 1-1.784-2.436c-.412-.59-2.205-2.65-1.556-3.887.333-.633 4.229-4.162 5.852-5.132Z"/><path fill="#F037A5" d="M152.922 79.058c-.608.205-.312-1.062.277-1.508 2.73-2.065 13.167-2.814 22.25-.928 6.084 1.264 13.161 4.41 18.021 8.454 4.381 3.645 7.394 9.49 8.945 15.136 1.628 5.929 1.875 12.11.968 18.189-.2 1.336-.628 2.609-.867 3.916-.268 1.472-.406 2.889-.885 4.321-.294.877-.792 1.736-1.043 2.618-.285 1.006-.111 1.937.097 2.96.34 1.668.761 3.333 1.359 4.926.899 2.392 1.989 4.633 2.673 7.115.91 3.303 4.715 14.052 1.934 16.982h-52.939c1.333-3.639 5.334-7.921 6.144-11.816.477-2.294.704-7.305.754-7.487 1.193-8.229 3.523-12.159 4.982-13.585 1.458-1.426 3.402-1.864 3.502-3.101.414-5.117-1.62-10.019-3.111-14.794-1.776-5.691-3.079-11.523-4.911-17.194-.811-2.512-4.991-15.266-8.15-14.204Z"/><path fill="#000" fill-opacity=".2" d="M171.483 84.944c1.997 6.338 2.426 9.722 1.997 18.382h.979c1.83-8.173.201-15.866-1.745-18.382h-1.231Zm26.783 16.357c-3.72 9.033-5.417 14.367-15.805 21.676l.802.562c10.313-5.849 13.316-12.825 15.785-21.861l-.782-.377Zm-15.285-9.192c-1.69 12.821-2.184 20.144-10.986 34.168l.937.287c9.059-12.211 10.495-22.177 10.923-34.384l-.874-.07Zm9.723 38.084-.801-.975c-10.934 3.427-9.716 10.502-23.487 17.666l1.151.698c12.058-4.979 14.877-15.659 23.137-17.389Z"/><path fill="#9E9E9E" d="M237.14 303.58h-87.918l-11.52 141.201h130.874L237.14 303.58Z"/><path fill="#BDBDBD" d="M294.768 326.76h-60.28l-36.079 141.135h166.439l-70.08-141.135Z"/><path fill="#E6BA92" d="M48.989 279.388c-9.374-5.632-25.1 1.604-25.09 9.659.032 24.101 22.013 137.687 23.161 144.867 1.148 7.18 13.442 9.077 14.158.024 1.14-14.406 3.255-64.275 1.138-87.357a1206.902 1206.902 0 0 0-2.742-26.698c11.534 20.842 29.372 50.683 53.515 89.522l13.106-5.991c-10.292-33.93-18.731-57.883-25.318-71.86-11.278-23.933-21.852-44.427-26.303-51.646-7-11.356-19.186-7.394-25.625-.52Z"/><path fill="#2075DC" d="M125.298 384.572 80.314 277.944c-10.777-17.346-40.99 3.529-37.316 13.59 8.344 22.84 50.776 96.783 53.262 103.588l29.038-10.55Z"/><path fill="#388AED" d="M20.746 297.24c0 30.253 14.358 100.82 14.367 107.481l30.893.024c-4.522-62.967-6.125-94.789-4.81-95.467 1.972-1.018 80.858 7.881 104.517 7.881 34.117 0 48.23-21.527 49.375-61.406h-67.583c-13.761 1.473-85.538 15.959-112.194 20.939-11.412 2.132-14.565 12.214-14.565 20.548Z"/><path fill="#E6BA92" d="m90.481 241.474-32.238 31.469c-9.38 4.003-17.066 8.424-23.057 13.262-1.347 1.626-2.814 4.742 3.525 3.347 6.34-1.394 13.07-2.575 14.261-.512 1.192 2.062-2.319 5.223-.117 7.923 1.468 1.8 6.405-3.925 14.81-17.174l33.524-19.777-10.708-18.538Zm157.644-28.48-24.92.093c18.98 61.53 29.055 93.746 30.226 96.648 2.633 6.53-2.939 16.475-5.322 21.82 7.761 3.475 6.934-9.395 16.725-4.837 8.936 4.16 15.735 11.698 26.06 5.323 1.269-.783 2.66-3.734-.701-6.04-8.373-5.745-20.44-15.8-22.07-19.11-2.224-4.513-8.889-35.812-19.998-93.897Z"/><path fill="#EEE" d="m172.19 142.259-9.841-1.689c-15.502 54.831-95.151 92.207-100.04 112.704-1.794 7.517 3.613 11.317.82 13.607l12.791 9.369c2.166-2.529 6.788 2.097 16.441-1.139 9.653-3.235 79.829-67.927 79.829-132.852Z"/><path fill="#F8F8F8" d="M155.636 149.548c1.135 72.593-40.804 91.111-31.462 120.232 7.714 24.048 81.551 49.9 94.328 26.327 5.172-9.542 7.519-21.082 7.785-33.629 3.266 9.639 5.848 17.937 7.748 24.895 3.278 12.002 15.984 13.91 15.984 18.533l16.74-4.623c-1.136-6.282 6.756-9.341 4.64-23.374-9.481-62.877-34.954-108.455-76.419-136.733l-.429-6.139a4.554 4.554 0 0 0-4.859-4.226l-30.652 2.145a4.553 4.553 0 0 0-4.223 4.861l.819 11.731Z"/></g><path fill="url(#c)" fill-rule="evenodd" d="M602.402 128.799c33.731 23.199 38.745 71.433 41.869 112.242 2.713 35.45-7.086 70.479-25.558 100.848-16.241 26.701-47.54 37.018-70.918 57.758-29.576 26.238-45.223 71.628-83.95 79.632-40.7 8.412-84.709-10.416-115.434-38.422-29.946-27.297-36.491-69.831-46.419-109.109-9.796-38.757-26.025-79.633-10.605-116.502 15.294-36.566 53.739-57.123 89.959-73.227 31.931-14.198 66.697-9.854 101.586-11.941 40.751-2.437 85.826-24.418 119.47-1.279Z" clip-rule="evenodd"/><mask id="d" width="518" height="527" x="200" y="8" mask-type="alpha" maskUnits="userSpaceOnUse"><path fill="#9BF0E1" fill-rule="evenodd" d="M602.402 128.799c33.731 23.199 38.745 71.433 41.869 112.242 2.713 35.45-7.086 70.479-25.558 100.848-16.241 26.701-47.54 37.018-70.918 57.758-29.576 26.238-45.223 71.628-83.95 79.632-40.7 8.412-84.709-10.416-115.434-38.422-29.946-27.297-36.491-69.831-46.419-109.109-9.796-38.757-26.025-79.633-10.605-116.502 15.294-36.566 53.739-57.123 89.959-73.227 31.931-14.198 66.697-9.854 101.586-11.941 40.751-2.437 85.826-24.418 119.47-1.279Z" clip-rule="evenodd"/></mask><g fill-rule="evenodd" clip-rule="evenodd" mask="url(#d)"><path fill="#915B3C" d="M474.435 216.571c-4.518-6.123-7.354-13.438-6.243-21.334 3.2-22.751 34.661-15.493 40.044-3.52 5.382 11.972 2.603 41.192-5.539 42.694-3.246.599-9.9-1.891-16.524-6.546l2.195 31.026-25.629-1.795 11.696-40.525Z"/><path fill="#000" d="M457.554 186.844c-.77-.879-1.14-2.082-1.453-3.221-.325-1.184-.637-2.379-.823-3.601-.37-2.44-.182-5.204 1.662-6.95 1.478-1.4 3.587-1.927 5.5-1.94a9.858 9.858 0 0 1 3.752.745c1.178.481 2.162 1.344 3.296 1.917.226-2.587.858-5.265 2.326-7.384 1.412-2.039 3.51-3.092 5.826-3.247 2.378-.16 4.664.554 6.693 1.843a18.25 18.25 0 0 1 1.486 1.032c.399.313.811.685 1.295.834.539.168.832-.13 1.216-.505.451-.44.95-.82 1.474-1.152 2.314-1.465 5.249-1.928 7.732-.779 1.144.529 2.234 1.369 2.958 2.471.645.982 1.049 2.498 1.984 3.216.397.305.717-.04 1.115-.283.597-.366 1.171-.776 1.775-1.131.848-.498 1.753-.851 2.707-1.003 1.396-.222 3.289-.014 3.556 1.813.1.687-.064 1.402-.159 2.08-.131.93-.264 1.861-.411 2.789a20.43 20.43 0 0 1-.419 2.072c-.097.366-.369 1.042-.236 1.425.167.479 1.103.279 1.494.322.772.087 1.54.277 2.233.658.537.296 1.094.714 1.284 1.366.116.401.05.8-.046 1.198-.115.477-.04.739-.013 1.23 1.076-.439 4.76-1.325 5.083.571.107.632-.285 1.309-.584 1.815-.525.886-1.186 1.683-1.859 2.441-1.403 1.58-3.039 2.913-4.777 4.029 1.875.997 2.203 3.572.422 4.967-.787.617-1.792.696-2.723.588-.34-.04-.823-.206-1.096-.165-.147.022-.311.134-.512.133-1.324-.002-2.789-.423-4.056-.806-2.258-.682-4.354-1.921-6.012-3.702-.426-.457-.785-.728-1.398-.764-.537-.032-1.074.078-1.611.054-1.421-.063-2.652-.847-3.937-1.401-.205 1.775-.849 3.701-1.689 5.252-.685 1.265-1.938 1.368-3.164 1.398-3.922.094-7.803-.589-11.704-.857 3.716 1.118 7.594 1.743 11.266 3.01 1.66.573.289 1.623-.49 2.363-1.282 1.219-2.28 2.771-3.013 4.428-1.679-2.539-4.833-4.355-7.778-3.817-3.253.594-5.805 4.761-3.979 8.013 1.061 1.888 3.155 2.734 4.883 3.635-1.491 1.349-1.977 3.462-2.94 5.204-.475.859-1.125 1.822-2.07 2.066-.349.091-.75.073-1.039.332-.358.322-.465.702-.912.969-1.784 1.064-4.435.787-5.835-.863-1.266-1.492-.757-3.677.481-5.014-1.76-.883-4.995-2.086-4.077-4.862-3.91-.536-13.003-7.578-7.405-11.867-2.779-1.839-5.158-6.023-3.054-9.418 1.621-2.614 5.034-3.594 7.775-3.547Z"/><path fill="#784931" d="m441.704 350.42 79.535 133.049 59.629 112.482h12.843L493.803 350.42h-52.099Z"/><path fill="#9E9E9E" d="m564.307 577.939 24.769-7.497c-10.852-32.461-24.152-68.182-39.901-107.165-15.749-38.982-32.663-76.601-50.741-112.857h-69.955c20.099 45.862 41.408 87.533 63.924 125.014 22.517 37.481 46.485 71.65 71.904 102.505Z"/><path fill="#915B3C" d="M436.477 350.42c-7.506 46.754-21.985 106.488-23.351 108.332-.911 1.229-33.704 12.224-98.378 32.985l2.774 11.333c77.125-11.135 117.762-19.773 121.914-25.916 6.227-9.214 37.321-82.005 49.364-126.734h-52.323Z"/><path fill="#BDBDBD" d="m337.482 481.941 4.887 18.252c57.684 5.062 93.029 1.404 106.034-10.974 13.004-12.378 27.826-58.644 44.464-138.799h-66.706c-10.542 65.636-16.435 99.832-17.681 102.587-1.245 2.755-24.911 12.4-70.998 28.934Z"/><path fill="#E4E4E4" d="M317.919 487.017c-3.357-.625-5.817-.799-7.38-.523-1.901.336-4.62 1.142-8.156 2.42l10.48 59.487c5.381.644 7.981-.735 7.802-4.137a337.494 337.494 0 0 1-.359-8.495l7.451-29.824a1.071 1.071 0 0 0-.779-1.299l-.03-.007-4.622-1.016c-1.981-2.83-3.142-5.208-3.481-7.136-.276-1.566-.025-3.841.754-6.824a2.143 2.143 0 0 0-1.68-2.646Z"/><path fill="#915B3C" d="m537.234 339.877 29.274 30.634c8.687 4.072 15.766 8.479 21.24 13.223 1.213 1.572 2.49 4.549-3.423 3.03-5.913-1.519-12.201-2.851-13.389-.952-1.187 1.9 2.01 4.986-.149 7.45-1.438 1.643-5.892-3.899-13.359-16.627l-30.865-19.689 10.671-17.069ZM386.88 302.733l17.973 6.639c-29.082 38.969-44.606 59.547-46.574 61.735-4.426 4.922-2.697 15.503-2.309 20.993-7.977.572-3.109-10.533-13.228-9.658-9.236.799-17.667 5.272-24.744-3.685-.87-1.101-1.151-4.156 2.56-5.112 9.248-2.381 23.145-7.381 25.65-9.78 3.415-3.273 16.973-23.65 40.672-61.132Z"/><path fill="#388AED" d="M544.599 343.934c4.382.452 8.962 2 13.708 4.592a4.82 4.82 0 0 1-1.531 8.987c.841.875 1.692 1.747 2.552 2.618l-11.535 15.828c-32.562-24.108-63.751-43.456-73.862-75.553-3.394-10.772 4.247-43.981 5.905-56.26l12.09-2.636c9.991 35.276 25.769 70.211 52.673 102.424Z"/><path fill="#EEE" d="M420.266 350.518c32.501 9.493 58.589 14.097 78.262 13.814 2.437-.036 4.125-10.222 3.521-13.193-9.41-46.253-15.035-79.889-9.743-109.928-3.412 1.081-8.924.361-16.534-2.161-26.447 27.25-42.353 61.065-55.506 111.468Z"/><path fill="#388AED" d="M413.207 354.552a4.817 4.817 0 0 1-.669-4.536l1.098-3.019a4.817 4.817 0 0 1 4.796-3.164 81.996 81.996 0 0 0 1.741-4.554c4.45-12.804 3.09-26.368 5.496-39.029-19.501 11.478-39.11 33.779-58.826 66.903l-18.879-9.376a362.118 362.118 0 0 1 3.835-7.95c-2.068-1.712-3.699-8.172-1.59-8.833a23.588 23.588 0 0 1 6.724-1.072c27.947-51.79 64.889-86.753 110.827-104.889l3.667.648 8.322 1.469c-11.757 46.079 19.041 156.646-13.228 240.736-32.524 1.468-73.367-28.169-119.915-18.466 7.795-34.782 47.465-70.257 66.601-104.869v.001Z"/><path fill="#000" fill-opacity=".1" d="m471.929 236.848-8.387 15.774 8.744 14.477-11.636 8.111 16.723 45.249-22.075-46.109 11.474-8.224-7.77-12.802 12.927-16.476Z"/><path fill="#000" fill-opacity=".4" d="M467.555 335.041a4.283 4.283 0 0 1 1.486-8.437 4.284 4.284 0 0 1-1.486 8.437Zm.998 25.189a4.284 4.284 0 0 1 1.486-8.437 4.285 4.285 0 0 1 3.475 4.963 4.282 4.282 0 0 1-4.961 3.474Zm-3.219 24.445a4.284 4.284 0 0 1 1.486-8.438 4.284 4.284 0 0 1-1.486 8.438Z"/></g><defs><linearGradient id="a" x1="182.5" x2="182.5" y1="0" y2="364" gradientUnits="userSpaceOnUse"><stop stop-color="#36BAA2"/><stop offset="1" stop-color="#61D1BD"/></linearGradient><linearGradient id="c" x1="306.5" x2="558" y1="124" y2="414" gradientUnits="userSpaceOnUse"><stop offset=".24" stop-color="#9BF0E1" stop-opacity=".99"/><stop offset="1" stop-color="#68D5C1"/></linearGradient></defs></svg>