<svg xmlns="http://www.w3.org/2000/svg" width="718" height="535" fill="none" viewBox="0 0 718 535"><path fill="url(#paint0_linear)" fill-rule="evenodd" d="M183.853 4.46715C217.919 12.4918 234.992 48.7831 264.406 67.7556C296.598 88.5197 352.397 83.6067 363.436 120.3C374.542 157.215 323.309 183.497 310.126 219.722C297.711 253.837 313.265 296.626 289.334 323.92C263.931 352.892 222.332 361.907 183.853 363.737C143.991 365.634 103.379 357.405 70.8245 334.313C38.0388 311.057 15.5405 275.617 4.94428 236.831C-5.31615 199.275 1.85304 160.443 13.1436 123.184C24.6504 85.2115 37.4854 44.6216 70.0522 21.9736C102.356 -0.491766 145.558 -4.55364 183.853 4.46715Z" clip-rule="evenodd"/><mask id="mask0" width="366" height="365" x="0" y="0" mask-type="alpha" maskUnits="userSpaceOnUse"><path fill="#36BAA2" fill-rule="evenodd" d="M183.949 4.47252C218.033 12.5068 235.114 48.8417 264.544 67.837C296.752 88.626 352.58 83.7071 363.625 120.444C374.737 157.404 323.478 183.717 310.288 219.985C297.866 254.142 313.428 296.982 289.484 324.309C264.068 353.316 222.448 362.342 183.949 364.174C144.066 366.073 103.433 357.835 70.8614 334.715C38.0587 311.431 15.5486 275.948 4.94686 237.116C-5.31892 199.514 1.854 160.636 13.1505 123.332C24.6632 85.3138 37.505 44.6752 70.0887 22C102.41 -0.492356 145.634 -4.55911 183.949 4.47252Z" clip-rule="evenodd"/></mask><g mask="url(#mask0)"><path fill="#E6BA92" fill-rule="evenodd" d="M178.373 117.387C183.617 111.228 187.166 103.679 186.573 95.2217C184.864 70.8524 150.962 76.2133 144.367 88.5129C137.772 100.812 138.556 132.011 147.079 134.209C150.478 135.086 157.719 132.939 165.088 128.494L160.463 161.239H187.775L178.373 117.387Z" clip-rule="evenodd"/><path fill="#EEE" fill-rule="evenodd" d="M150.522 80.4024C151.148 80.0288 152.457 79.2407 153.12 78.9551C153.277 78.8864 154.375 78.1021 154.405 78.1119C155.237 78.3928 157.645 79.4296 157.852 80.3254C157.884 80.3933 157.916 80.457 157.946 80.5127C158.288 81.1335 158.601 81.7698 158.9 82.4139C159.555 83.8276 160.121 85.3052 160.662 86.7712C161.714 89.6262 162.629 92.5477 163.47 95.4759C164.326 98.4568 165.053 101.472 165.866 104.466C167.036 108.773 168.534 112.974 169.697 117.279C170.439 120.028 170.852 122.809 170.657 125.639C170.655 125.673 170.654 125.706 170.651 125.741C170.65 125.755 170.648 125.769 170.647 125.783C170.614 126.218 170.566 126.654 170.503 127.091C170.448 127.465 170.393 127.841 170.334 128.216C169.272 126.097 168.462 123.763 167.601 121.547C167.517 121.331 167.437 121.112 167.359 120.893C167.081 120.444 166.798 119.997 166.512 119.553C164.709 116.751 162.898 113.959 161.169 111.105C158.058 105.974 154.977 100.734 151.289 96.0217C150.2 94.6302 149.086 93.26 148.01 91.8571C147.399 91.0588 146.803 90.2471 146.226 89.421C145.814 88.8302 144.021 86.7712 144.67 85.534C145.003 84.901 148.899 81.3718 150.522 80.4024Z" clip-rule="evenodd"/><path fill="#F037A5" fill-rule="evenodd" d="M152.922 79.0583C152.314 79.2628 152.61 77.9961 153.199 77.5503C155.929 75.4851 166.366 74.7356 175.449 76.6222C181.533 77.8861 188.61 81.0317 193.47 85.0756C197.851 88.7213 200.864 94.5654 202.415 100.212C204.043 106.141 204.29 112.322 203.383 118.401C203.183 119.737 202.755 121.01 202.516 122.317C202.248 123.789 202.11 125.206 201.631 126.638C201.337 127.515 200.839 128.374 200.588 129.256C200.303 130.262 200.477 131.193 200.685 132.216C201.025 133.884 201.446 135.549 202.044 137.142C202.943 139.534 204.033 141.775 204.717 144.257C205.627 147.56 209.432 158.309 206.651 161.239H153.712C155.045 157.6 159.046 153.318 159.856 149.423C160.333 147.129 160.56 142.118 160.61 141.936C161.803 133.707 164.133 129.777 165.592 128.351C167.05 126.925 168.994 126.487 169.094 125.25C169.508 120.133 167.474 115.231 165.983 110.456C164.207 104.765 162.904 98.9333 161.072 93.2617C160.261 90.7502 156.081 77.9961 152.922 79.0583Z" clip-rule="evenodd"/><path fill="#000" fill-opacity=".2" fill-rule="evenodd" d="M171.483 84.9443C173.48 91.2824 173.909 94.6657 173.48 103.326H174.459C176.289 95.1532 174.66 87.4597 172.714 84.9443H171.483ZM198.266 101.301C194.546 110.334 192.849 115.668 182.461 122.977L183.263 123.539C193.576 117.69 196.579 110.714 199.048 101.678L198.266 101.301ZM182.981 92.1095C181.291 104.93 180.797 112.253 171.995 126.277L172.932 126.564C181.991 114.353 183.427 104.387 183.855 92.18L182.981 92.1095ZM192.704 130.193L191.903 129.218C180.969 132.645 182.187 139.72 168.416 146.884L169.567 147.582C181.625 142.603 184.444 131.923 192.704 130.193Z" clip-rule="evenodd"/><path fill="#9E9E9E" fill-rule="evenodd" d="M237.14 303.58H149.222L137.702 444.781H268.576L237.14 303.58Z" clip-rule="evenodd"/><path fill="#BDBDBD" fill-rule="evenodd" d="M294.768 326.76H234.488L198.409 467.895H364.848L294.768 326.76Z" clip-rule="evenodd"/><path fill="#E6BA92" fill-rule="evenodd" d="M48.9889 279.388C39.6151 273.756 23.8882 280.992 23.899 289.047C23.9313 313.148 45.9124 426.734 47.06 433.914C48.2077 441.094 60.502 442.991 61.2179 433.938C62.3571 419.532 64.4735 369.663 62.3559 346.581C61.4818 337.053 60.5405 327.979 59.6138 319.883C71.148 340.725 88.9863 370.566 113.129 409.405L126.235 403.414C115.943 369.484 107.504 345.531 100.917 331.554C89.6395 307.621 79.0648 287.127 74.6143 279.908C67.6136 268.552 55.4277 272.514 48.9889 279.388Z" clip-rule="evenodd"/><path fill="#2075DC" fill-rule="evenodd" d="M125.298 384.572L80.3138 277.944C69.5374 260.598 39.3233 281.473 42.9982 291.534C51.3416 314.374 93.7741 388.317 96.2598 395.122L125.298 384.572Z" clip-rule="evenodd"/><path fill="#388AED" fill-rule="evenodd" d="M20.746 297.24C20.746 327.493 35.1043 398.06 35.1134 404.721L66.006 404.745C61.4843 341.778 59.8809 309.956 61.1959 309.278C63.1684 308.26 142.054 317.159 165.713 317.159C199.83 317.159 213.943 295.632 215.088 255.753H147.505C133.744 257.226 61.9673 271.712 35.3109 276.692C23.8988 278.824 20.746 288.906 20.746 297.24Z" clip-rule="evenodd"/><path fill="#E6BA92" fill-rule="evenodd" d="M90.4813 241.474L58.2432 272.943C48.8631 276.946 41.1774 281.367 35.1862 286.205C33.8389 287.831 32.3721 290.947 38.7112 289.552C45.0504 288.158 51.7809 286.977 52.9723 289.04C54.1637 291.102 50.6531 294.263 52.855 296.963C54.3229 298.763 59.2597 293.038 67.6654 279.789L101.189 260.012L90.4813 241.474ZM248.125 212.994L223.205 213.087C242.185 274.617 252.26 306.833 253.431 309.735C256.064 316.265 250.492 326.21 248.109 331.555C255.87 335.03 255.043 322.16 264.834 326.718C273.77 330.878 280.569 338.416 290.894 332.041C292.163 331.258 293.554 328.307 290.193 326.001C281.82 320.256 269.753 310.201 268.123 306.891C265.899 302.378 259.234 271.079 248.125 212.994Z" clip-rule="evenodd"/><path fill="#EEE" fill-rule="evenodd" d="M172.19 142.259L162.349 140.57C146.847 195.401 67.1979 232.777 62.3083 253.274C60.5151 260.791 65.9218 264.591 63.129 266.881L75.92 276.25C78.086 273.721 82.7083 278.347 92.3612 275.111C102.014 271.876 172.19 207.184 172.19 142.259Z" clip-rule="evenodd"/><path fill="#F8F8F8" fill-rule="evenodd" d="M155.636 149.548C156.771 222.141 114.832 240.659 124.174 269.78C131.888 293.828 205.725 319.68 218.502 296.107C223.674 286.565 226.021 275.025 226.287 262.478C229.553 272.117 232.135 280.415 234.035 287.373C237.313 299.375 250.019 301.283 250.019 305.906L266.759 301.283C265.623 295.001 273.515 291.942 271.399 277.909C261.918 215.032 236.445 169.454 194.98 141.176L194.551 135.037C194.375 132.528 192.2 130.636 189.692 130.811L159.04 132.956C156.532 133.131 154.641 135.308 154.817 137.817L155.636 149.548Z" clip-rule="evenodd"/></g><path fill="url(#paint1_linear)" fill-rule="evenodd" d="M602.402 128.799C636.133 151.998 641.147 200.232 644.271 241.041C646.984 276.491 637.185 311.52 618.713 341.889C602.472 368.59 571.173 378.907 547.795 399.647C518.219 425.885 502.572 471.275 463.845 479.279C423.145 487.691 379.136 468.863 348.411 440.857C318.465 413.56 311.92 371.026 301.992 331.748C292.196 292.991 275.967 252.115 291.387 215.246C306.681 178.68 345.126 158.123 381.346 142.019C413.277 127.821 448.043 132.165 482.932 130.078C523.683 127.641 568.758 105.66 602.402 128.799Z" clip-rule="evenodd"/><mask id="mask1" width="518" height="527" x="200" y="8" mask-type="alpha" maskUnits="userSpaceOnUse"><path fill="#9BF0E1" fill-rule="evenodd" d="M602.402 128.799C636.133 151.998 641.147 200.232 644.271 241.041C646.984 276.491 637.185 311.52 618.713 341.889C602.472 368.59 571.173 378.907 547.795 399.647C518.219 425.885 502.572 471.275 463.845 479.279C423.145 487.691 379.136 468.863 348.411 440.857C318.465 413.56 311.92 371.026 301.992 331.748C292.196 292.991 275.967 252.115 291.387 215.246C306.681 178.68 345.126 158.123 381.346 142.019C413.277 127.821 448.043 132.165 482.932 130.078C523.683 127.641 568.758 105.66 602.402 128.799Z" clip-rule="evenodd"/></mask><g mask="url(#mask1)"><path fill="#915B3C" fill-rule="evenodd" d="M474.435 216.571C469.917 210.448 467.081 203.133 468.192 195.237C471.392 172.486 502.853 179.744 508.236 191.717C513.618 203.689 510.839 232.909 502.697 234.411C499.451 235.01 492.797 232.52 486.173 227.865L488.368 258.891L462.739 257.096L474.435 216.571Z" clip-rule="evenodd"/><path fill="#000" fill-rule="evenodd" d="M457.554 186.844C456.784 185.965 456.414 184.762 456.101 183.623C455.776 182.439 455.464 181.244 455.278 180.022C454.908 177.582 455.096 174.818 456.94 173.072C458.418 171.672 460.527 171.145 462.44 171.132C463.715 171.124 465.004 171.393 466.192 171.877C467.37 172.358 468.354 173.221 469.488 173.794C469.714 171.207 470.346 168.529 471.814 166.41C473.226 164.371 475.324 163.318 477.64 163.163C480.018 163.003 482.304 163.717 484.333 165.006C484.84 165.328 485.342 165.664 485.819 166.038C486.218 166.351 486.63 166.723 487.114 166.872C487.653 167.04 487.946 166.742 488.33 166.367C488.781 165.927 489.28 165.547 489.804 165.215C492.118 163.75 495.053 163.287 497.536 164.436C498.68 164.965 499.77 165.805 500.494 166.907C501.139 167.889 501.543 169.405 502.478 170.123C502.875 170.428 503.195 170.083 503.593 169.84C504.19 169.474 504.764 169.064 505.368 168.709C506.216 168.211 507.121 167.858 508.075 167.706C509.471 167.484 511.364 167.692 511.631 169.519C511.731 170.206 511.567 170.921 511.472 171.599C511.341 172.529 511.208 173.46 511.061 174.388C510.95 175.093 510.824 175.772 510.642 176.46C510.545 176.826 510.273 177.502 510.406 177.885C510.573 178.364 511.509 178.164 511.9 178.207C512.672 178.294 513.44 178.484 514.133 178.865C514.67 179.161 515.227 179.579 515.417 180.231C515.533 180.632 515.467 181.031 515.371 181.429C515.256 181.906 515.331 182.168 515.358 182.659C516.434 182.22 520.118 181.334 520.441 183.23C520.548 183.862 520.156 184.539 519.857 185.045C519.332 185.931 518.671 186.728 517.998 187.486C516.595 189.066 514.959 190.399 513.221 191.515C515.096 192.512 515.424 195.087 513.643 196.482C512.856 197.099 511.851 197.178 510.92 197.07C510.58 197.03 510.097 196.864 509.824 196.905C509.677 196.927 509.513 197.039 509.312 197.038C507.988 197.036 506.523 196.615 505.256 196.232C502.998 195.55 500.902 194.311 499.244 192.53C498.818 192.073 498.459 191.802 497.846 191.766C497.309 191.734 496.772 191.844 496.235 191.82C494.814 191.757 493.583 190.973 492.298 190.419C492.093 192.194 491.449 194.12 490.609 195.671C489.924 196.936 488.671 197.039 487.445 197.069C483.523 197.163 479.642 196.48 475.741 196.212C479.457 197.33 483.335 197.955 487.007 199.222C488.667 199.795 487.296 200.845 486.517 201.585C485.235 202.804 484.237 204.356 483.504 206.013C481.825 203.474 478.671 201.658 475.726 202.196C472.473 202.79 469.921 206.957 471.747 210.209C472.808 212.097 474.902 212.943 476.63 213.844C475.139 215.193 474.653 217.306 473.69 219.048C473.215 219.907 472.565 220.87 471.62 221.114C471.271 221.205 470.87 221.187 470.581 221.446C470.223 221.768 470.116 222.148 469.669 222.415C467.885 223.479 465.234 223.202 463.834 221.552C462.568 220.06 463.077 217.875 464.315 216.538C462.555 215.655 459.32 214.452 460.238 211.676C456.328 211.14 447.235 204.098 452.833 199.809C450.054 197.97 447.675 193.786 449.779 190.391C451.4 187.777 454.813 186.797 457.554 186.844Z" clip-rule="evenodd"/><path fill="#784931" fill-rule="evenodd" d="M441.704 350.42L521.239 483.469L580.868 595.951H593.711L493.803 350.42L441.704 350.42Z" clip-rule="evenodd"/><path fill="#9E9E9E" fill-rule="evenodd" d="M564.307 577.939L589.076 570.442C578.224 537.981 564.924 502.26 549.175 463.277C533.426 424.295 516.512 386.676 498.434 350.42H428.479C448.578 396.282 469.887 437.953 492.403 475.434C514.92 512.915 538.888 547.084 564.307 577.939Z" clip-rule="evenodd"/><path fill="#915B3C" fill-rule="evenodd" d="M436.477 350.42C428.971 397.174 414.492 456.908 413.126 458.752C412.215 459.981 379.422 470.976 314.748 491.737L317.522 503.07C394.647 491.935 435.284 483.297 439.436 477.154C445.663 467.94 476.757 395.149 488.8 350.42H436.477Z" clip-rule="evenodd"/><path fill="#BDBDBD" fill-rule="evenodd" d="M337.482 481.941L342.369 500.193C400.053 505.255 435.398 501.597 448.403 489.219C461.407 476.841 476.229 430.575 492.867 350.42H426.161C415.619 416.056 409.726 450.252 408.48 453.007C407.235 455.762 383.569 465.407 337.482 481.941Z" clip-rule="evenodd"/><path fill="#E4E4E4" fill-rule="evenodd" d="M317.919 487.017C314.562 486.392 312.102 486.218 310.539 486.494C308.638 486.83 305.919 487.636 302.383 488.914C302.772 491.12 306.265 510.949 312.863 548.401C318.244 549.045 320.844 547.666 320.665 544.264C320.486 540.861 320.366 538.03 320.306 535.769L327.757 505.945C327.9 505.371 327.552 504.789 326.978 504.646C326.968 504.644 326.958 504.641 326.948 504.639L322.326 503.623C320.345 500.793 319.184 498.415 318.845 496.487C318.569 494.921 318.82 492.646 319.599 489.663L319.599 489.663C319.897 488.519 319.212 487.349 318.068 487.05C318.018 487.037 317.969 487.026 317.919 487.017Z" clip-rule="evenodd"/><path fill="#915B3C" fill-rule="evenodd" d="M537.234 339.877L566.508 370.511C575.195 374.583 582.274 378.99 587.748 383.734C588.961 385.306 590.238 388.283 584.325 386.764C578.412 385.245 572.124 383.913 570.936 385.812C569.749 387.712 572.946 390.798 570.787 393.262C569.349 394.905 564.895 389.363 557.428 376.635L526.563 356.946L537.234 339.877ZM386.88 302.733L404.853 309.372C375.771 348.341 360.247 368.919 358.279 371.107C353.853 376.029 355.582 386.61 355.97 392.1C347.993 392.672 352.861 381.567 342.742 382.442C333.506 383.241 325.075 387.714 317.998 378.757C317.128 377.656 316.847 374.601 320.558 373.645C329.806 371.264 343.703 366.264 346.208 363.865C349.623 360.592 363.181 340.215 386.88 302.733Z" clip-rule="evenodd"/><path fill="#388AED" fill-rule="evenodd" d="M544.599 343.934C548.981 344.386 553.561 345.934 558.307 348.526C560.642 349.801 561.503 352.728 560.228 355.065C559.488 356.422 558.191 357.281 556.776 357.513C557.617 358.388 558.468 359.26 559.328 360.131L547.793 375.959C515.231 351.851 484.042 332.503 473.931 300.406C470.537 289.634 478.178 256.425 479.836 244.146L491.926 241.51C501.917 276.786 517.695 311.721 544.599 343.934Z" clip-rule="evenodd"/><path fill="#EEE" fill-rule="evenodd" d="M420.266 350.518C452.767 360.011 478.855 364.615 498.528 364.332C500.965 364.296 502.653 354.11 502.049 351.139C492.639 304.886 487.014 271.25 492.306 241.211C488.894 242.292 483.382 241.572 475.772 239.05C449.325 266.3 433.419 300.115 420.266 350.518Z" clip-rule="evenodd"/><path fill="#388AED" fill-rule="evenodd" d="M413.207 354.552C412.268 353.293 411.961 351.602 412.538 350.016L413.636 346.997C414.38 344.951 416.365 343.716 418.432 343.833C419.064 342.313 419.646 340.795 420.173 339.279C424.623 326.475 423.263 312.911 425.669 300.25C406.168 311.728 386.559 334.029 366.843 367.153L347.964 357.777C349.221 355.088 350.5 352.438 351.799 349.827C349.731 348.115 348.1 341.655 350.209 340.994C352.387 340.312 354.63 339.957 356.933 339.922C384.88 288.132 421.822 253.169 467.76 235.033L471.427 235.681L479.749 237.15C467.992 283.229 498.79 393.796 466.521 477.886C433.997 479.354 393.154 449.717 346.606 459.42C354.401 424.638 394.071 389.163 413.207 354.551L413.207 354.552Z" clip-rule="evenodd"/><path fill="#000" fill-opacity=".1" fill-rule="evenodd" d="M471.929 236.848L463.542 252.622L472.286 267.099L460.65 275.21L477.373 320.459L455.298 274.35L466.772 266.126L459.002 253.324L471.929 236.848Z" clip-rule="evenodd"/><path fill="#000" fill-opacity=".4" fill-rule="evenodd" d="M467.555 335.041C465.225 334.63 463.67 332.408 464.081 330.078C464.491 327.748 466.712 326.193 469.041 326.604C471.37 327.015 472.926 329.237 472.515 331.567C472.105 333.897 469.884 335.453 467.555 335.041ZM468.553 360.23C466.224 359.819 464.668 357.597 465.079 355.267C465.489 352.937 467.71 351.382 470.039 351.793C472.369 352.204 473.924 354.426 473.514 356.756C473.103 359.086 470.882 360.641 468.553 360.23ZM465.334 384.675C463.005 384.264 461.449 382.042 461.86 379.712C462.27 377.382 464.491 375.826 466.82 376.237C469.149 376.648 470.705 378.87 470.294 381.2C469.884 383.53 467.663 385.086 465.334 384.675Z" clip-rule="evenodd"/></g><defs><linearGradient id="paint0_linear" x1="182.5" x2="182.5" y1="0" y2="364" gradientUnits="userSpaceOnUse"><stop stop-color="#36BAA2"/><stop offset="1" stop-color="#61D1BD"/></linearGradient><linearGradient id="paint1_linear" x1="306.5" x2="558" y1="124" y2="414" gradientUnits="userSpaceOnUse"><stop offset=".24" stop-color="#9BF0E1" stop-opacity=".99"/><stop offset="1" stop-color="#68D5C1"/></linearGradient></defs></svg>