<svg width="56" height="56" viewBox="0 0 56 56" fill="none" xmlns="http://www.w3.org/2000/svg">
<path d="M28 44C36.8366 44 44 36.8366 44 28C44 19.1634 36.8366 12 28 12C19.1634 12 12 19.1634 12 28C12 36.8366 19.1634 44 28 44Z" fill="#279FEA"/>
<path d="M32.3734 26.5333L28.3268 24.1667L24.2734 26.5333V31.24L28.3268 33.5733L32.3734 31.24V26.5333Z" fill="white"/>
<path d="M20.8733 28.0001L18.9466 26.3001V34.3335L24.8199 37.6735V35.4068L20.8733 33.0801V28.0001Z" fill="white"/>
<path d="M35.7931 28V33.1667L31.9265 35.4067V37.8734L37.7065 34.3067V26.1934L35.7931 28Z" fill="white"/>
<path d="M28.3131 20.2667L33.4331 23.2267L34.8331 21.78L28.3131 18L21.7598 21.8133L23.1598 23.2667L28.3131 20.2667Z" fill="white"/>
</svg>
