<svg width="56" height="56" viewBox="0 0 56 56" fill="none" xmlns="http://www.w3.org/2000/svg">
<g clip-path="url(#clip0_2416_25714)">
<path d="M28 44C36.8366 44 44 36.8366 44 28C44 19.1634 36.8366 12 28 12C19.1634 12 12 19.1634 12 28C12 36.8366 19.1634 44 28 44Z" fill="#279FEA"/>
<path d="M28.8665 36.7066V33.6666H27.1332V36.7066L25.4865 35.7866L23.7132 36.8066L27.9999 39.2732L32.3865 36.7466L30.6665 35.7532L28.8665 36.7066Z" fill="white"/>
<path d="M19.9866 24.3733L22.4932 25.8267L23.3599 24.28L20.7399 22.86L22.1866 22.0333V20.0667L18.2266 22.3667L18.2332 27.1067L19.9866 26.1133V24.3733Z" fill="white"/>
<path d="M33.3867 25.8266L35.9867 24.3466L35.9801 26.1133L37.7734 27.1199V22.3533L33.6201 19.9799L33.5534 21.9133L35.2334 22.9066L32.5801 24.1599L33.3867 25.8266Z" fill="white"/>
<path d="M37.7599 29.0868L35.9999 28.0801V28.1868V31.4134L28.8333 27.3734V19.2201L31.9333 20.9801V19.0334L27.9999 16.7068L23.8999 19.0468V21.0468L26.9933 19.2601V27.3734L19.9999 31.6334V28.0401L18.2399 29.0468V33.6401L21.9333 35.7001L23.7333 34.6668L20.7999 33.0534L27.9999 28.8734L35.1133 33.0068L32.2599 34.6534L34.1133 35.7401L37.7399 33.6534L37.7599 29.0868Z" fill="white"/>
</g>
<defs>
<clipPath id="clip0_2416_25714">
<rect width="32" height="32" fill="white" transform="translate(12 12)"/>
</clipPath>
</defs>
</svg>
