<svg xmlns="http://www.w3.org/2000/svg" xml:space="preserve" width="370" height="344" viewBox="0 0 370 344"><path fill="#FFF" d="M241.9 282.2h-10.6c-3 0-5.1.6-6.3 1.8-1.3 1.2-1.9 3.3-1.9 6.2v36.6h-6.4v-37.1c0-2.8.5-5.9 2-8.2 2.7-4.3 7.9-5.1 11.7-5.1h11.5v5.8zm-40.8 39c-3 0-5.1-.6-6.3-1.8-1.3-1.2-1.9-3.2-1.9-6.1v-31h13.3v-5.7h-13.3v-15.1h-6.4v52.2c0 2.8.5 5.9 2 8.2 2.7 4.3 7.9 5.1 11.7 5.1h11.5v-5.7h-10.6zm-166-59.8v15.1H21.8c-8.1 0-13 2.4-16 5.3-4.7 4.5-4.7 11-4.7 11.7v16.2c0 .7 0 7.2 4.7 11.7 3 2.9 7.9 5.3 16 5.3h5.9c3.8 0 9-.8 11.7-5.1 1.5-2.3 2-5.4 2-8.2v-52.2h-6.3zm-1.9 57.9c-1.3 1.2-3.3 1.8-6.3 1.8h-5.7c-5.2 0-8.5-1.5-10.5-3.5-2.4-2.3-3.2-5.3-3.2-7.7v-16.6c0-2.4.8-5.4 3.2-7.7 2-2 5.3-3.5 10.5-3.5h13.9v31c0 3-.7 5-1.9 6.2zm266.1-33.6c2-2 5.3-3.5 10.5-3.5h15.3v-5.7h-14.6c-8.1 0-13 2.4-16 5.3-4.7 4.5-4.7 11-4.7 11.7v16.2c0 .7 0 7.2 4.7 11.7 3 2.9 7.9 5.3 16 5.3h14.6V321h-15.3c-5.2 0-8.5-1.5-10.5-3.5-2.4-2.3-3.2-5.3-3.2-7.7v-16.6c.1-2.2.9-5.2 3.2-7.5zM180 293.6c0-.7 0-7.2-4.7-11.7-3-2.9-7.9-5.3-16-5.3h-14.1v5.7H160c5.2 0 8.5 1.5 10.5 3.5 2.4 2.3 3.2 5.3 3.2 7.7v4.8h-20.2c-3.8 0-9 .8-11.7 5.1-1.5 2.3-2 5.4-2 8.2v2c0 2.8.5 5.9 2 8.2 2.7 4.3 7.9 5.1 11.7 5.1h12.8c3.8 0 9-.8 11.7-5.1 1.5-2.3 2-5.4 2-8.2v-20zm-8.3 25.7c-1.3 1.2-3.3 1.8-6.3 1.8h-11.1c-3 0-5.1-.6-6.3-1.8-1.3-1.2-1.9-3.2-1.9-6.1v-1.4c0-2.9.6-4.9 1.9-6.1 1.3-1.2 3.3-1.8 6.3-1.8h19.4v9.3c-.1 2.9-.7 4.9-2 6.1zm113.1-25.7c0-.7 0-7.2-4.7-11.7-3-2.9-7.9-5.3-16-5.3H250v5.7h14.7c5.2 0 8.5 1.5 10.5 3.5 2.4 2.3 3.2 5.3 3.2 7.7v4.8h-20.2c-3.8 0-9 .8-11.7 5.1-1.5 2.3-2 5.4-2 8.2v2c0 2.8.5 5.9 2 8.2 2.7 4.3 7.9 5.1 11.7 5.1H271c3.8 0 9-.8 11.7-5.1 1.5-2.3 2-5.4 2-8.2.1 0 .1-16.7.1-20zm-8.3 25.7c-1.3 1.2-3.3 1.8-6.3 1.8H259c-3 0-5.1-.6-6.3-1.8-1.3-1.2-1.9-3.2-1.9-6.1v-1.4c0-2.9.6-4.9 1.9-6.1 1.3-1.2 3.3-1.8 6.3-1.8h19.4v9.3c0 2.9-.6 4.9-1.9 6.1zM91.8 276.5h-6.6l-16.1 41.8-16-41.8h-6.6l19.3 50.4L60 342h6.6zm42.8 17.1c0-.7 0-7.2-4.6-11.7-2.9-2.9-7.6-5.2-15.2-5.3h-.7c-7.6.1-12.3 2.5-15.2 5.3-4.6 4.5-4.6 11-4.6 11.7v33.3h6.3v-33.5c0-2.4.8-5.4 3.1-7.7 2-1.9 5.7-3.4 10.7-3.4 5 .1 8.8 1.5 10.7 3.4 2.3 2.3 3.1 5.3 3.1 7.7v33.5h6.3c.1-2.6.1-32.5.1-33.3zm229.7-11.7c-2.9-2.9-7.6-5.2-15.2-5.3h-.7c-7.6.1-12.3 2.5-15.2 5.3-4.6 4.5-4.6 11-4.6 11.7v16.2c0 .7 0 7.2 4.6 11.7 2.9 2.9 7.6 5.2 15.2 5.3h14.9v-5.7h-14.6c-5-.1-8.8-1.5-10.7-3.4-2.3-2.3-3.1-5.3-3.1-7.7v-6h34v-10.5c0-.6 0-7.1-4.6-11.6zm-29.4 16.4v-5c0-2.4.8-5.4 3.1-7.7 2-1.9 5.7-3.4 10.7-3.4 5 .1 8.8 1.5 10.7 3.4 2.3 2.3 3.1 5.3 3.1 7.7v5h-27.6z"/><path fill="#1496FF" d="M151 19.8c-2.7 14.5-6.2 35.9-8 57.6-3.2 38.4-1.2 64-1.2 64l-53.9 51.3s-4.2-28.8-6.3-61.2c-1.3-20-1.7-37.7-1.8-48.4 0-.6.3-1.2.3-1.8 0-.7.9-7.9 7.9-14.5 7.7-7.3 63.8-51.3 63-47z"/><path fill="#1284EA" d="M151 19.8c-2.7 14.5-6.2 35.9-8 57.6 0 0-59.7-7.1-63.2 7.3 0-.7 1-9.5 8-16.2 7.7-7.4 64-53 63.2-48.7z"/><path fill="#B4DC00" d="M79.8 81.3v3.3c.6-2.6 1.6-4.5 3.8-7.2 4.4-5.6 11.6-7.1 14.5-7.5 14.6-1.9 36.2-4.3 57.9-4.9 38.5-1.2 63.9 2 63.9 2l53.9-51.3s-28.3-5.4-60.6-9.2c-21.1-2.5-39.7-3.8-50.1-4.4-.7 0-8.2-1-15.2 5.7-7.7 7.3-46.3 43.9-61.8 58.7-6.8 6.6-6.3 14.1-6.3 14.8z"/><path fill="#6F2DA8" d="M271.9 146.8c-14.6 2-36.1 4.4-57.9 5.1-38.5 1.3-64-1.9-64-1.9l-54 51.3s28.6 5.6 60.8 9.3c19.7 2.3 37.3 3.5 47.9 4.1.7 0 2-.6 2.7-.6.7 0 8.2-1.3 15.2-8 7.8-7.3 53.6-59.8 49.3-59.3z"/><path fill="#591F91" d="M271.9 146.8c-14.6 2-36.1 4.4-57.9 5.1 0 0 4.2 60-10.4 62.7.7 0 10.6-.5 17.6-7.1 7.7-7.3 55-61.2 50.7-60.7z"/><path fill="#73BE28" d="M206.9 214.9c-1-.1-2.1-.1-3.3-.2 2.7-.5 4.5-1.4 7.4-3.4 5.8-4.2 7.7-11.2 8.2-14.1 2.6-14.5 6-35.9 7.8-57.6 3.1-38.4 1.1-63.9 1.1-63.9L282 24.4s4 28.5 6.2 60.9c1.4 21.2 1.8 39.8 1.9 50.2 0 .7.6 8.2-6.4 14.9-7.7 7.3-46.2 44.1-61.7 58.9-6.9 6.5-14.4 5.6-15.1 5.6z"/></svg>