<?xml version="1.0" encoding="utf-8"?>
<!-- Generator: Adobe Illustrator 19.2.0, SVG Export Plug-In . SVG Version: 6.00 Build 0)  -->
<svg version="1.1" xmlns="http://www.w3.org/2000/svg" xmlns:xlink="http://www.w3.org/1999/xlink" x="0px" y="0px" width="370px"
	 height="344px" viewBox="0 0 370 344" enable-background="new 0 0 370 344" xml:space="preserve">
<g id="Background">
</g>
<g id="Vertical">
</g>
<g id="Horizontal">
</g>
<g id="Dynatrace_Color">
</g>
<g id="Variants">
	<g>
		<g>
			<g>
				<path fill="#FFFFFF" d="M241.9,282.2h-10.6c-3,0-5.1,0.6-6.3,1.8c-1.3,1.2-1.9,3.3-1.9,6.2l0,36.6h-6.4l0-37.1
					c0-2.8,0.5-5.9,2-8.2c2.7-4.3,7.9-5.1,11.7-5.1h11.5V282.2z"/>
			</g>
			<g>
				<path fill="#FFFFFF" d="M201.1,321.2c-3,0-5.1-0.6-6.3-1.8c-1.3-1.2-1.9-3.2-1.9-6.1v-31h13.3v-5.7h-13.3v-15.1h-6.4v52.2
					c0,2.8,0.5,5.9,2,8.2c2.7,4.3,7.9,5.1,11.7,5.1h11.5v-5.7H201.1z"/>
			</g>
			<path fill="#FFFFFF" d="M35.1,261.4v15.1l-13.3,0c-8.1,0-13,2.4-16,5.3c-4.7,4.5-4.7,11-4.7,11.7c0,0.8,0,15.4,0,16.2
				c0,0.7,0,7.2,4.7,11.7c3,2.9,7.9,5.3,16,5.3h5.9c3.8,0,9-0.8,11.7-5.1c1.5-2.3,2-5.4,2-8.2v-52.2H35.1z M33.2,319.3
				c-1.3,1.2-3.3,1.8-6.3,1.8h-5.7c-5.2,0-8.5-1.5-10.5-3.5c-2.4-2.3-3.2-5.3-3.2-7.7v-16.6c0-2.4,0.8-5.4,3.2-7.7
				c2-2,5.3-3.5,10.5-3.5l13.9,0l0,31C35.1,316.1,34.4,318.1,33.2,319.3z"/>
			<path fill="#FFFFFF" d="M299.3,285.7c2-2,5.3-3.5,10.5-3.5h15.3v-5.7h-14.6c-8.1,0-13,2.4-16,5.3c-4.7,4.5-4.7,11-4.7,11.7
				c0,0.4,0,15.8,0,16.2c0,0.7,0,7.2,4.7,11.7c3,2.9,7.9,5.3,16,5.3h14.6v-5.7h-15.3c-5.2,0-8.5-1.5-10.5-3.5
				c-2.4-2.3-3.2-5.3-3.2-7.7v-16.6C296.2,291,297,288,299.3,285.7z"/>
			<path fill="#FFFFFF" d="M180,293.6c0-0.7,0-7.2-4.7-11.7c-3-2.9-7.9-5.3-16-5.3h-14.1v5.7H160c5.2,0,8.5,1.5,10.5,3.5
				c2.4,2.3,3.2,5.3,3.2,7.7v4.8h-20.2c-3.8,0-9,0.8-11.7,5.1c-1.5,2.3-2,5.4-2,8.2v2c0,2.8,0.5,5.9,2,8.2c2.7,4.3,7.9,5.1,11.7,5.1
				h12.8c3.8,0,9-0.8,11.7-5.1c1.5-2.3,2-5.4,2-8.2C180,313.6,180,296.9,180,293.6z M171.7,319.3c-1.3,1.2-3.3,1.8-6.3,1.8h-11.1
				c-3,0-5.1-0.6-6.3-1.8c-1.3-1.2-1.9-3.2-1.9-6.1v-1.4c0-2.9,0.6-4.9,1.9-6.1c1.3-1.2,3.3-1.8,6.3-1.8h19.4l0,9.3
				C173.6,316.1,173,318.1,171.7,319.3z"/>
			<path fill="#FFFFFF" d="M284.8,293.6c0-0.7,0-7.2-4.7-11.7c-3-2.9-7.9-5.3-16-5.3H250v5.7h14.7c5.2,0,8.5,1.5,10.5,3.5
				c2.4,2.3,3.2,5.3,3.2,7.7v4.8h-20.2c-3.8,0-9,0.8-11.7,5.1c-1.5,2.3-2,5.4-2,8.2v2c0,2.8,0.5,5.9,2,8.2c2.7,4.3,7.9,5.1,11.7,5.1
				H271c3.8,0,9-0.8,11.7-5.1c1.5-2.3,2-5.4,2-8.2C284.8,313.6,284.8,296.9,284.8,293.6z M276.5,319.3c-1.3,1.2-3.3,1.8-6.3,1.8H259
				c-3,0-5.1-0.6-6.3-1.8c-1.3-1.2-1.9-3.2-1.9-6.1v-1.4c0-2.9,0.6-4.9,1.9-6.1c1.3-1.2,3.3-1.8,6.3-1.8h19.4l0,9.3
				C278.4,316.1,277.8,318.1,276.5,319.3z"/>
			<polygon fill="#FFFFFF" points="91.8,276.5 85.2,276.5 69.1,318.3 53.1,276.5 46.5,276.5 65.8,326.9 60,342 66.6,342 			"/>
			<path fill="#FFFFFF" d="M134.6,293.6c0-0.7,0-7.2-4.6-11.7c-2.9-2.9-7.6-5.2-15.2-5.3h-0.7c-7.6,0.1-12.3,2.5-15.2,5.3
				c-4.6,4.5-4.6,11-4.6,11.7c0,0.8,0,30.7,0,33.3h6.3l0-33.5c0-2.4,0.8-5.4,3.1-7.7c2-1.9,5.7-3.4,10.7-3.4c5,0.1,8.8,1.5,10.7,3.4
				c2.3,2.3,3.1,5.3,3.1,7.7l0,33.5h6.3C134.6,324.3,134.6,294.4,134.6,293.6z"/>
			<path fill="#FFFFFF" d="M364.3,281.9c-2.9-2.9-7.6-5.2-15.2-5.3h-0.7c-7.6,0.1-12.3,2.5-15.2,5.3c-4.6,4.5-4.6,11-4.6,11.7v16.2
				c0,0.7,0,7.2,4.6,11.7c2.9,2.9,7.6,5.2,15.2,5.3h14.9v-5.7l-14.6,0c-5-0.1-8.8-1.5-10.7-3.4c-2.3-2.3-3.1-5.3-3.1-7.7v-6h34
				v-10.5C368.9,292.9,368.9,286.4,364.3,281.9z M334.9,298.3v-5c0-2.4,0.8-5.4,3.1-7.7c2-1.9,5.7-3.4,10.7-3.4
				c5,0.1,8.8,1.5,10.7,3.4c2.3,2.3,3.1,5.3,3.1,7.7l0,5H334.9z"/>
		</g>
		<g>
			<path fill="#1496FF" d="M151,19.8c-2.7,14.5-6.2,35.9-8,57.6c-3.2,38.4-1.2,64-1.2,64l-53.9,51.3c0,0-4.2-28.8-6.3-61.2
				c-1.3-20-1.7-37.7-1.8-48.4c0-0.6,0.3-1.2,0.3-1.8c0-0.7,0.9-7.9,7.9-14.5C95.7,59.5,151.8,15.5,151,19.8z"/>
			<path fill="#1284EA" d="M151,19.8c-2.7,14.5-6.2,35.9-8,57.6c0,0-59.7-7.1-63.2,7.3c0-0.7,1-9.5,8-16.2
				C95.5,61.1,151.8,15.5,151,19.8z"/>
			<path fill="#B4DC00" d="M79.8,81.3c0,1,0,2.1,0,3.3c0.6-2.6,1.6-4.5,3.8-7.2c4.4-5.6,11.6-7.1,14.5-7.5
				c14.6-1.9,36.2-4.3,57.9-4.9c38.5-1.2,63.9,2,63.9,2l53.9-51.3c0,0-28.3-5.4-60.6-9.2c-21.1-2.5-39.7-3.8-50.1-4.4
				c-0.7,0-8.2-1-15.2,5.7c-7.7,7.3-46.3,43.9-61.8,58.7C79.3,73.1,79.8,80.6,79.8,81.3z"/>
			<path fill="#6F2DA8" d="M271.9,146.8c-14.6,2-36.1,4.4-57.9,5.1c-38.5,1.3-64-1.9-64-1.9L96,201.3c0,0,28.6,5.6,60.8,9.3
				c19.7,2.3,37.3,3.5,47.9,4.1c0.7,0,2-0.6,2.7-0.6c0.7,0,8.2-1.3,15.2-8C230.4,198.8,276.2,146.3,271.9,146.8z"/>
			<path fill="#591F91" d="M271.9,146.8c-14.6,2-36.1,4.4-57.9,5.1c0,0,4.2,60-10.4,62.7c0.7,0,10.6-0.5,17.6-7.1
				C228.9,200.2,276.2,146.3,271.9,146.8z"/>
			<path fill="#73BE28" d="M206.9,214.9c-1-0.1-2.1-0.1-3.3-0.2c2.7-0.5,4.5-1.4,7.4-3.4c5.8-4.2,7.7-11.2,8.2-14.1
				c2.6-14.5,6-35.9,7.8-57.6c3.1-38.4,1.1-63.9,1.1-63.9l53.9-51.3c0,0,4,28.5,6.2,60.9c1.4,21.2,1.8,39.8,1.9,50.2
				c0,0.7,0.6,8.2-6.4,14.9c-7.7,7.3-46.2,44.1-61.7,58.9C215.1,215.8,207.6,214.9,206.9,214.9z"/>
		</g>
	</g>
</g>
</svg>
