<svg xmlns="http://www.w3.org/2000/svg" width="500" height="500" viewBox="0 0 500 500"><g fill="none"><path fill="#F79548" d="M217.603 382.92c13.058 13.058 13.058 34.823 0 47.88-18.137 18.137-71.095 29.019-73.271 29.744-1.45 0-2.177 0-2.902-.725-.726-1.451-.726-2.902-.726-4.353.726-2.177 10.882-55.135 29.744-73.271 13.058-13.058 34.097-13.058 47.155.725Z"/><path fill="#FCBB76" d="M216.878 385.097c6.53 6.53 6.53 17.41 0 23.94-9.43 9.43-35.547 14.51-36.273 14.51-.726 0-1.45 0-1.45-.726-.727-.726-.727-.726-.727-1.451 0-1.45 5.804-27.567 14.51-36.273 6.528-6.53 17.41-6.53 23.94 0Z"/><path fill="#E8E8E8" stroke="#DDD" stroke-width="2" d="M136.033 64.351a8.325 8.325 0 0 0-2.446 5.906c0 2.04.743 4.08 2.229 5.68l.217.225 19.386 19.385 29.604 211.8a8.348 8.348 0 0 0 10.184 6.974 8.345 8.345 0 0 0 3.749-1.99l.244-.235 86.384-86.383 20.377 20.377-86.37 86.37a8.348 8.348 0 0 0 .828 12.538 8.346 8.346 0 0 0 4.016 1.653l.345.037 67.498 5.805a8.354 8.354 0 0 0 6.4-2.203l.222-.213 126.19-126.19a8.35 8.35 0 0 0 2.435-6.314l-.02-.307-5.805-67.498a8.344 8.344 0 0 0-5.46-7.13 8.343 8.343 0 0 0-8.516 1.7l-.25.24-89.702 89.701-20.636-20.637 71.805-71.805a8.325 8.325 0 0 0 2.446-5.906 8.325 8.325 0 0 0-2.446-5.905c-23.42-23.42-70.125-50.946-113.566-66.957-24.928-9.19-47.294-14.253-66.478-15.037-23.238-.95-41.044 4.5-52.864 16.32ZM244.09 331.582l162.505-162.505 3.935 45.747-120.693 120.693-45.747-3.935Zm-69.066-216.429 98.75 98.75-74.529 74.527-24.22-173.277Zm-20.467-44.09c18.408-10.612 52.236-8.1 95.042 7.678 37.905 13.971 78.117 36.863 101.428 57.387l-65.702 65.703Z"/></g></svg>