<svg xmlns="http://www.w3.org/2000/svg" xmlns:xlink="http://www.w3.org/1999/xlink" width="500" height="500" version="1.1" viewBox="0 0 500 500"><title>Export</title><g id="Page-1" fill="none" fill-rule="evenodd" stroke="none" stroke-width="1"><g id="ship" fill-rule="nonzero" transform="translate(249.680798, 211.000000) scale(-1, 1) translate(-249.680798, -211.000000) translate(35.680798, -39.000000)"><g id="Flamez" transform="translate(279.925187, 455.280081) rotate(-90.000000) translate(-279.925187, -455.280081) translate(235.660848, 411.639183)"><path id="Path" fill="#F79548" d="M77.6240648,9.79348504 C64.5660848,-3.26449501 42.8017456,-3.26449501 29.7437656,9.79348504 C11.6072319,27.9300187 0.725685786,80.8882481 8.85963511e-15,83.064682 C8.85963511e-15,84.5154302 8.85963511e-15,85.241116 0.725685786,85.9668017 C2.17643392,86.6924875 3.62780549,86.6924875 5.07855362,86.6924875 C7.25498753,85.9668017 60.213217,75.810318 78.3497506,56.9487219 C91.4077307,43.8901185 91.4077307,22.8514651 77.6240648,9.79348504 Z"/><path id="Path" fill="#FCBB76" d="M75.4476309,10.5185474 C68.9183292,3.98924564 58.036783,3.98924564 51.5074813,10.5185474 C42.0766833,19.9493454 36.9981297,46.0659289 36.9981297,46.7916147 C36.9981297,47.5173005 36.9981297,48.2423628 37.7238155,48.2423628 C38.4495012,48.9680486 38.4495012,48.9680486 39.1745636,48.9680486 C40.6253117,48.9680486 66.7418953,43.1644327 75.4476309,34.458697 C81.9769327,27.9300187 81.9769327,17.0478491 75.4476309,10.5185474 Z"/></g><path id="Shape" fill="#E8E8E8" stroke="#DDD" stroke-width="2" d="M216.186409,55.2394015 C218.49257,55.2394015 220.58047,56.1742348 222.091833,57.6855981 C223.534498,59.128263 224.451854,61.0962436 224.532269,63.2779325 L224.53803,63.5910224 L224.53803,91.005836 L353.369587,261.704121 C354.323776,262.968115 354.87911,264.447677 355.019478,265.965658 C355.159883,267.484039 354.88511,269.040862 354.179061,270.458806 C353.472845,271.876805 352.395871,273.033852 351.099552,273.836436 C349.895645,274.581806 348.502551,275.021453 347.041547,275.080457 L346.703242,275.087282 L224.53803,275.087282 L224.53803,303.904613 L346.684539,303.904613 C348.308638,303.904613 349.858968,304.375354 351.174692,305.21426 C352.490519,306.053232 353.571696,307.260417 354.25731,308.732969 C354.942424,310.205367 355.16974,311.809443 354.964363,313.356104 C354.77365,314.792333 354.20983,316.179047 353.29311,317.364769 L353.075304,317.634761 L309.451382,369.468132 C307.930114,371.274871 305.719044,372.349921 303.368443,372.436371 L303.061097,372.44202 L124.602244,372.44202 C122.240117,372.44202 119.994057,371.442358 118.41433,369.699238 L118.212103,369.467679 L74.5886595,317.634759 C73.5428392,316.392134 72.9047814,314.903039 72.6994228,313.356514 C72.494029,311.809724 72.7214803,310.205497 73.4066556,308.732969 C74.0917295,307.260659 75.1726391,306.053772 76.4882065,305.214939 C77.7099169,304.435952 79.1339993,303.974371 80.6313862,303.912406 L80.9781796,303.905237 L207.834788,303.905237 L207.834788,274.720698 L106.28616,274.720698 C103.979999,274.720698 101.892098,273.785865 100.380735,272.274502 C98.8693719,270.763138 97.9345387,268.675238 97.9345387,266.369077 C97.9345387,233.249109 111.496611,180.759139 130.891816,138.720038 C142.0216,114.595575 154.255888,95.1994886 167.266567,81.0803824 C183.02715,63.976526 199.471354,55.2394015 216.186409,55.2394015 Z M328.739655,320.607855 L98.9224399,320.607855 L128.488453,355.738155 L299.173642,355.738155 L328.739655,320.607855 Z M224.53803,118.732589 L224.53803,258.384663 L329.936488,258.384663 L224.53803,118.732589 Z M207.834165,73.0839035 C187.31365,78.5957312 165.169959,104.292863 146.058313,145.71761 C129.135086,182.399574 116.887708,227.020442 114.917014,258.016833 L114.917014,258.016833 L207.834165,258.016833 Z" transform="translate(213.840829, 213.840711) rotate(45.000000) translate(-213.840829, -213.840711)"/></g></g></svg>