<svg xmlns="http://www.w3.org/2000/svg" width="522" height="704" fill="none" viewBox="0 0 522 704"><g filter="url(#a)"><path fill="#F7FF1A" d="M311.25 0h-249C28.013 0 .311 30.95.311 68.778L0 619.005c0 37.828 27.701 68.778 61.939 68.778H435.75c34.237 0 62.25-30.95 62.25-68.778v-412.67L311.25 0Zm-31.125 206.335V51.584l140.062 154.751H280.125Z"/></g><g filter="url(#b)"><path fill="#000" fill-rule="evenodd" d="M280.027 69.055h-224c-30.8 0-55.72 27.842-55.72 61.872l-.28 494.984c0 34.03 24.92 61.873 55.72 61.873h336.28c30.8 0 56-27.843 56-61.873V254.673l-168-185.618Zm-28 185.618V115.459l126 139.214h-126ZM132.909 567.758c-10.035 0-18.17 8.135-18.17 18.17 0 10.034 8.135 18.169 18.17 18.169 10.034 0 18.169-8.135 18.169-18.169 0-10.035-8.135-18.17-18.169-18.17Zm-.023-191.458c-10.024-.012-18.147-8.142-18.147-18.169 0-10.035 8.135-18.17 18.17-18.17 10.034 0 18.169 8.135 18.169 18.17 0 10.027-8.123 18.157-18.147 18.169h-.045Zm-15.977 29.395c-19.863-6.679-34.17-25.451-34.17-47.564 0-27.708 22.462-50.17 50.17-50.17 27.707 0 50.169 22.462 50.169 50.17 0 22.113-14.307 40.885-34.169 47.564v132.668c19.862 6.679 34.169 25.451 34.169 47.565 0 27.707-22.462 50.169-50.169 50.169-27.708 0-50.17-22.462-50.17-50.169 0-22.114 14.307-40.886 34.17-47.565V405.695Zm141.212-104.437c6.248 6.248 6.248 16.379 0 22.627l-18.246 18.246h32.559a58.712 58.712 0 0 1 58.712 58.712v137.52c19.862 6.679 34.169 25.451 34.169 47.565 0 27.707-22.461 50.169-50.169 50.169s-50.17-22.462-50.17-50.169c0-22.114 14.307-40.886 34.17-47.565v-137.52a26.71 26.71 0 0 0-26.712-26.712h-32.559l18.246 18.246c6.248 6.248 6.248 16.379 0 22.627-6.249 6.248-16.379 6.248-22.628 0l-45.559-45.559c-6.249-6.249-6.249-16.379 0-22.628l45.559-45.559c6.249-6.249 16.379-6.249 22.628 0Zm57.025 266.5c-10.035 0-18.17 8.135-18.17 18.17 0 10.034 8.135 18.169 18.17 18.169 10.035 0 18.169-8.135 18.169-18.169 0-10.035-8.134-18.17-18.169-18.17Z" clip-rule="evenodd"/></g><defs><filter id="a" width="522" height="703.783" x="0" y="0" color-interpolation-filters="sRGB" filterUnits="userSpaceOnUse"><feFlood flood-opacity="0" result="BackgroundImageFix"/><feColorMatrix in="SourceAlpha" result="hardAlpha" values="0 0 0 0 0 0 0 0 0 0 0 0 0 0 0 0 0 0 127 0"/><feOffset dx="16" dy="8"/><feGaussianBlur stdDeviation="4"/><feComposite in2="hardAlpha" operator="out"/><feColorMatrix values="0 0 0 0 0.968627 0 0 0 0 1 0 0 0 0 0.101961 0 0 0 0.2 0"/><feBlend in2="BackgroundImageFix" result="effect1_dropShadow_421_4547"/><feBlend in="SourceGraphic" in2="effect1_dropShadow_421_4547" result="shape"/></filter><filter id="b" width="472" height="634.729" x=".027" y="69.055" color-interpolation-filters="sRGB" filterUnits="userSpaceOnUse"><feFlood flood-opacity="0" result="BackgroundImageFix"/><feColorMatrix in="SourceAlpha" result="hardAlpha" values="0 0 0 0 0 0 0 0 0 0 0 0 0 0 0 0 0 0 127 0"/><feOffset dx="16" dy="8"/><feGaussianBlur stdDeviation="4"/><feComposite in2="hardAlpha" operator="out"/><feColorMatrix values="0 0 0 0 0 0 0 0 0 0 0 0 0 0 0 0 0 0 0.2 0"/><feBlend in2="BackgroundImageFix" result="effect1_dropShadow_421_4547"/><feBlend in="SourceGraphic" in2="effect1_dropShadow_421_4547" result="shape"/></filter></defs></svg>