<svg xmlns="http://www.w3.org/2000/svg" width="823" height="551" fill="none" viewBox="0 0 823 551"><g filter="url(#a)"><rect width="650.047" height="422.966" x="103.392" y=".741" fill="#616161" rx="5"/></g><g filter="url(#b)"><path fill="url(#c)" d="M5.049 655.496c-1.44 3.303.981 6.997 4.584 6.997h843.405c3.611 0 6.031-3.71 4.576-7.015L757.125 427.242a5 5 0 0 0-4.576-2.985H109.081a4.998 4.998 0 0 0-4.584 3.003L5.049 655.496Z"/></g><path fill="#404040" d="M85.422 533.765c-1.343 3.289 1.077 6.889 4.629 6.889h678.06c3.551 0 5.971-3.599 4.63-6.888l-32.301-79.202a5 5 0 0 0-4.63-3.112H122.382a5 5 0 0 0-4.629 3.11l-32.331 79.203Z"/><defs><filter id="a" width="668.047" height="435.966" x="97.392" y=".741" color-interpolation-filters="sRGB" filterUnits="userSpaceOnUse"><feFlood flood-opacity="0" result="BackgroundImageFix"/><feColorMatrix in="SourceAlpha" values="0 0 0 0 0 0 0 0 0 0 0 0 0 0 0 0 0 0 127 0"/><feOffset dx="3" dy="4"/><feGaussianBlur stdDeviation="4.5"/><feColorMatrix values="0 0 0 0 0 0 0 0 0 0 0 0 0 0 0 0 0 0 0.25 0"/><feBlend in2="BackgroundImageFix" result="effect1_dropShadow"/><feBlend in="SourceGraphic" in2="effect1_dropShadow" result="shape"/><feColorMatrix in="SourceAlpha" result="hardAlpha" values="0 0 0 0 0 0 0 0 0 0 0 0 0 0 0 0 0 0 127 0"/><feOffset dy="3"/><feGaussianBlur stdDeviation="5"/><feComposite in2="hardAlpha" k2="-1" k3="1" operator="arithmetic"/><feColorMatrix values="0 0 0 0 0.156863 0 0 0 0 0.156863 0 0 0 0 0.156863 0 0 0 0.2 0"/><feBlend in2="shape" result="effect2_innerShadow"/></filter><filter id="b" width="861.416" height="254.236" x=".627" y="416.257" color-interpolation-filters="sRGB" filterUnits="userSpaceOnUse"><feFlood flood-opacity="0" result="BackgroundImageFix"/><feColorMatrix in="SourceAlpha" values="0 0 0 0 0 0 0 0 0 0 0 0 0 0 0 0 0 0 127 0"/><feOffset dy="4"/><feGaussianBlur stdDeviation="2"/><feColorMatrix values="0 0 0 0 0 0 0 0 0 0 0 0 0 0 0 0 0 0 0.25 0"/><feBlend in2="BackgroundImageFix" result="effect1_dropShadow"/><feBlend in="SourceGraphic" in2="effect1_dropShadow" result="shape"/><feColorMatrix in="SourceAlpha" result="hardAlpha" values="0 0 0 0 0 0 0 0 0 0 0 0 0 0 0 0 0 0 127 0"/><feOffset dy="-8"/><feGaussianBlur stdDeviation="5"/><feComposite in2="hardAlpha" k2="-1" k3="1" operator="arithmetic"/><feColorMatrix values="0 0 0 0 0.156863 0 0 0 0 0.156863 0 0 0 0 0.156863 0 0 0 0.37 0"/><feBlend in2="shape" result="effect2_innerShadow"/></filter><linearGradient id="c" x1="413.416" x2="413.416" y1="662.493" y2="406.74" gradientUnits="userSpaceOnUse"><stop stop-color="#9E9E9E"/><stop offset="1" stop-color="#404040"/></linearGradient></defs></svg>