<svg xmlns="http://www.w3.org/2000/svg" width="823" height="551" fill="none" viewBox="0 0 823 551"><g filter="url(#filter0_di)"><rect width="650.047" height="422.966" x="103.392" y=".741" fill="#616161" rx="5"/></g><g filter="url(#filter1_di)"><path fill="url(#paint0_linear)" d="M5.04888 655.496C3.60983 658.799 6.0301 662.493 9.63264 662.493H853.038C856.649 662.493 859.069 658.783 857.614 655.478L757.125 427.242C756.326 425.428 754.531 424.257 752.549 424.257H109.081C107.091 424.257 105.291 425.436 104.497 427.26L5.04888 655.496Z"/></g><path fill="#404040" d="M85.4218 533.765C84.0792 537.054 86.4986 540.654 90.051 540.654H768.111C771.662 540.654 774.082 537.055 772.741 533.766L740.44 454.564C739.672 452.682 737.842 451.452 735.81 451.452H122.382C120.351 451.452 118.521 452.681 117.753 454.562L85.4218 533.765Z"/><defs><filter id="filter0_di" width="668.047" height="435.966" x="97.392" y=".741" color-interpolation-filters="sRGB" filterUnits="userSpaceOnUse"><feFlood flood-opacity="0" result="BackgroundImageFix"/><feColorMatrix in="SourceAlpha" type="matrix" values="0 0 0 0 0 0 0 0 0 0 0 0 0 0 0 0 0 0 127 0"/><feOffset dx="3" dy="4"/><feGaussianBlur stdDeviation="4.5"/><feColorMatrix type="matrix" values="0 0 0 0 0 0 0 0 0 0 0 0 0 0 0 0 0 0 0.25 0"/><feBlend in2="BackgroundImageFix" mode="normal" result="effect1_dropShadow"/><feBlend in="SourceGraphic" in2="effect1_dropShadow" mode="normal" result="shape"/><feColorMatrix in="SourceAlpha" result="hardAlpha" type="matrix" values="0 0 0 0 0 0 0 0 0 0 0 0 0 0 0 0 0 0 127 0"/><feOffset dy="3"/><feGaussianBlur stdDeviation="5"/><feComposite in2="hardAlpha" k2="-1" k3="1" operator="arithmetic"/><feColorMatrix type="matrix" values="0 0 0 0 0.156863 0 0 0 0 0.156863 0 0 0 0 0.156863 0 0 0 0.2 0"/><feBlend in2="shape" mode="normal" result="effect2_innerShadow"/></filter><filter id="filter1_di" width="861.416" height="254.236" x=".627" y="416.257" color-interpolation-filters="sRGB" filterUnits="userSpaceOnUse"><feFlood flood-opacity="0" result="BackgroundImageFix"/><feColorMatrix in="SourceAlpha" type="matrix" values="0 0 0 0 0 0 0 0 0 0 0 0 0 0 0 0 0 0 127 0"/><feOffset dy="4"/><feGaussianBlur stdDeviation="2"/><feColorMatrix type="matrix" values="0 0 0 0 0 0 0 0 0 0 0 0 0 0 0 0 0 0 0.25 0"/><feBlend in2="BackgroundImageFix" mode="normal" result="effect1_dropShadow"/><feBlend in="SourceGraphic" in2="effect1_dropShadow" mode="normal" result="shape"/><feColorMatrix in="SourceAlpha" result="hardAlpha" type="matrix" values="0 0 0 0 0 0 0 0 0 0 0 0 0 0 0 0 0 0 127 0"/><feOffset dy="-8"/><feGaussianBlur stdDeviation="5"/><feComposite in2="hardAlpha" k2="-1" k3="1" operator="arithmetic"/><feColorMatrix type="matrix" values="0 0 0 0 0.156863 0 0 0 0 0.156863 0 0 0 0 0.156863 0 0 0 0.37 0"/><feBlend in2="shape" mode="normal" result="effect2_innerShadow"/></filter><linearGradient id="paint0_linear" x1="413.416" x2="413.416" y1="662.493" y2="406.74" gradientUnits="userSpaceOnUse"><stop stop-color="#9E9E9E"/><stop offset="1" stop-color="#404040"/></linearGradient></defs></svg>