<svg xmlns="http://www.w3.org/2000/svg" width="299" height="37" fill="none" viewBox="0 0 299 37"><path fill="#fff" d="M109.841 26.2v-2.672h2.352a3.1 3.1 0 0 1 .64.064c.213.032.4.096.56.192.16.096.288.23.384.4.096.17.144.39.144.656 0 .48-.144.827-.432 1.04-.288.213-.656.32-1.104.32h-2.544Zm-2.512-4.624V33h5.536a5.75 5.75 0 0 0 1.488-.192 3.893 3.893 0 0 0 1.296-.592c.384-.267.688-.608.912-1.024.224-.427.336-.928.336-1.504 0-.715-.176-1.323-.528-1.824-.341-.512-.864-.87-1.568-1.072.512-.245.896-.56 1.152-.944.267-.384.4-.864.4-1.44 0-.533-.091-.981-.272-1.344a2.081 2.081 0 0 0-.736-.864 3.128 3.128 0 0 0-1.152-.48 7.115 7.115 0 0 0-1.488-.144h-5.376Zm2.512 9.472v-3.136h2.736c.544 0 .981.128 1.312.384.331.245.496.661.496 1.248 0 .299-.053.544-.16.736a1.205 1.205 0 0 1-.4.464 1.97 1.97 0 0 1-.592.24 3.757 3.757 0 0 1-.704.064h-2.688Zm8.417-3.776c.032-.533.166-.976.4-1.328a2.73 2.73 0 0 1 .896-.848 3.771 3.771 0 0 1 1.216-.448 6.707 6.707 0 0 1 1.376-.144c.416 0 .838.032 1.264.096a3.71 3.71 0 0 1 1.168.336c.352.17.64.41.864.72.224.299.336.699.336 1.2v4.304c0 .373.022.73.064 1.072.043.341.118.597.224.768h-2.304a5.557 5.557 0 0 1-.112-.384 5.886 5.886 0 0 1-.048-.416 2.955 2.955 0 0 1-1.28.784c-.49.15-.992.224-1.504.224a4.07 4.07 0 0 1-1.104-.144 2.53 2.53 0 0 1-.896-.448 2.17 2.17 0 0 1-.608-.768c-.138-.31-.208-.677-.208-1.104 0-.47.08-.853.24-1.152.171-.31.384-.555.64-.736.267-.181.566-.315.896-.4a8.98 8.98 0 0 1 1.024-.224c.342-.053.678-.096 1.008-.128.331-.032.624-.08.88-.144.256-.064.459-.155.608-.272.15-.128.219-.31.208-.544 0-.245-.042-.437-.128-.576a.747.747 0 0 0-.32-.336 1.04 1.04 0 0 0-.464-.16 3.036 3.036 0 0 0-.56-.048c-.448 0-.8.096-1.056.288-.256.192-.405.512-.448.96h-2.272Zm5.248 1.68a1.101 1.101 0 0 1-.368.208 6.406 6.406 0 0 1-.976.192 9.654 9.654 0 0 0-.544.08 4.55 4.55 0 0 0-.512.128 1.51 1.51 0 0 0-.432.224.992.992 0 0 0-.288.336 1.115 1.115 0 0 0-.112.528c0 .203.038.373.112.512.075.139.176.25.304.336.128.075.278.128.448.16.171.032.347.048.528.048.448 0 .795-.075 1.04-.224.246-.15.427-.325.544-.528.118-.213.187-.427.208-.64.032-.213.048-.384.048-.512v-.848Zm9.668-1.312h2.224c-.032-.533-.16-.992-.384-1.376a2.972 2.972 0 0 0-.88-.976 3.585 3.585 0 0 0-1.216-.592 5.099 5.099 0 0 0-1.408-.192c-.672 0-1.269.112-1.792.336a3.724 3.724 0 0 0-1.328.944 4.02 4.02 0 0 0-.832 1.424 5.594 5.594 0 0 0-.272 1.776c0 .619.101 1.19.304 1.712.203.512.485.955.848 1.328.363.373.8.667 1.312.88a4.695 4.695 0 0 0 1.712.304c1.099 0 2-.288 2.704-.864.704-.576 1.131-1.413 1.28-2.512h-2.192c-.075.512-.261.923-.56 1.232-.288.299-.704.448-1.248.448-.352 0-.651-.08-.896-.24a1.895 1.895 0 0 1-.592-.608 3.069 3.069 0 0 1-.304-.848 4.493 4.493 0 0 1 0-1.84c.064-.32.171-.608.32-.864.16-.267.363-.48.608-.64.245-.17.549-.256.912-.256.971 0 1.531.475 1.68 1.424Zm3.763-6.064V33h2.272v-2.848l.88-.848L142.361 33h2.752l-3.472-5.232 3.12-3.04h-2.688l-2.864 2.976v-6.128h-2.272Zm10.74 8.736h-2.16c.021.555.144 1.019.368 1.392.235.363.528.656.88.88.363.224.773.384 1.232.48a6.857 6.857 0 0 0 2.784 0 3.39 3.39 0 0 0 1.216-.464 2.57 2.57 0 0 0 .848-.88c.224-.373.336-.832.336-1.376 0-.384-.075-.704-.224-.96a1.945 1.945 0 0 0-.592-.656 3.02 3.02 0 0 0-.848-.432 9.028 9.028 0 0 0-.96-.272c-.32-.075-.635-.144-.944-.208a9.444 9.444 0 0 1-.832-.208 1.838 1.838 0 0 1-.576-.32.624.624 0 0 1-.224-.496c0-.17.043-.304.128-.4a.821.821 0 0 1 .304-.24 1.34 1.34 0 0 1 .416-.096c.149-.021.288-.032.416-.032.405 0 .757.08 1.056.24.299.15.464.443.496.88h2.16c-.043-.512-.176-.933-.4-1.264a2.48 2.48 0 0 0-.816-.816 3.447 3.447 0 0 0-1.136-.432 6.679 6.679 0 0 0-2.608 0 3.369 3.369 0 0 0-1.152.416 2.298 2.298 0 0 0-.832.8c-.203.341-.304.779-.304 1.312 0 .363.075.672.224.928.149.245.347.453.592.624.245.16.523.293.832.4.32.096.645.181.976.256.811.17 1.44.341 1.888.512.459.17.688.427.688.768a.878.878 0 0 1-.144.512 1.195 1.195 0 0 1-.368.32 1.963 1.963 0 0 1-.48.176 2.693 2.693 0 0 1-1.152-.032 1.791 1.791 0 0 1-.544-.24 1.551 1.551 0 0 1-.4-.432 1.35 1.35 0 0 1-.144-.64Zm9.714-5.584v-2.48h-2.272v2.48h-1.376v1.52h1.376v4.88c0 .416.069.752.208 1.008.138.256.325.453.56.592.245.139.522.23.832.272.32.053.656.08 1.008.08.224 0 .453-.005.688-.016.234-.01.448-.032.64-.064v-1.76a3.226 3.226 0 0 1-.336.048c-.118.01-.24.016-.368.016-.384 0-.64-.064-.768-.192s-.192-.384-.192-.768v-4.096h1.664v-1.52h-1.664Zm2.649 2.544c.032-.533.165-.976.4-1.328a2.71 2.71 0 0 1 .896-.848 3.762 3.762 0 0 1 1.216-.448 6.693 6.693 0 0 1 1.376-.144c.416 0 .837.032 1.264.096.426.053.816.165 1.168.336.352.17.64.41.864.72.224.299.336.699.336 1.2v4.304c0 .373.021.73.064 1.072.042.341.117.597.224.768h-2.304a5.052 5.052 0 0 1-.112-.384 4.906 4.906 0 0 1-.048-.416c-.363.373-.79.635-1.28.784a5.14 5.14 0 0 1-1.504.224 4.06 4.06 0 0 1-1.104-.144 2.522 2.522 0 0 1-.896-.448 2.16 2.16 0 0 1-.608-.768c-.139-.31-.208-.677-.208-1.104 0-.47.08-.853.24-1.152.17-.31.384-.555.64-.736.266-.181.565-.315.896-.4.341-.096.682-.17 1.024-.224.341-.053.677-.096 1.008-.128.33-.032.624-.08.88-.144a1.62 1.62 0 0 0 .608-.272c.149-.128.218-.31.208-.544 0-.245-.043-.437-.128-.576a.757.757 0 0 0-.32-.336 1.045 1.045 0 0 0-.464-.16 3.052 3.052 0 0 0-.56-.048c-.448 0-.8.096-1.056.288-.256.192-.406.512-.448.96h-2.272Zm5.248 1.68a1.111 1.111 0 0 1-.368.208 6.478 6.478 0 0 1-.976.192 9.393 9.393 0 0 0-.544.08 4.445 4.445 0 0 0-.512.128 1.51 1.51 0 0 0-.432.224.97.97 0 0 0-.288.336 1.103 1.103 0 0 0-.112.528c0 .203.037.373.112.512a.92.92 0 0 0 .304.336c.128.075.277.128.448.16.17.032.346.048.528.048.448 0 .794-.075 1.04-.224a1.53 1.53 0 0 0 .544-.528c.117-.213.186-.427.208-.64.032-.213.048-.384.048-.512v-.848Zm7.891 2.096c-.352 0-.645-.075-.88-.224a1.869 1.869 0 0 1-.576-.576 2.686 2.686 0 0 1-.304-.784 5.12 5.12 0 0 1-.08-.896c0-.31.032-.603.096-.88a2.32 2.32 0 0 1 .336-.752c.16-.224.352-.4.576-.528.235-.128.512-.192.832-.192.374 0 .683.07.928.208.246.139.443.325.592.56.15.235.256.507.32.816.064.299.096.619.096.96a2.9 2.9 0 0 1-.128.864 2.145 2.145 0 0 1-.352.72c-.16.213-.362.384-.608.512a1.806 1.806 0 0 1-.848.192Zm4.096 1.424v-7.744h-2.16v1.104h-.032c-.277-.48-.624-.821-1.04-1.024-.405-.203-.88-.304-1.424-.304-.576 0-1.088.112-1.536.336a3.275 3.275 0 0 0-1.104.912c-.298.373-.528.81-.688 1.312a5.258 5.258 0 0 0-.224 1.536c0 .565.064 1.104.192 1.616.139.501.352.944.64 1.328.288.373.656.672 1.104.896.448.213.982.32 1.6.32.502 0 .976-.101 1.424-.304a2.283 2.283 0 0 0 1.056-.976h.032v1.088c.011.587-.133 1.072-.432 1.456-.288.384-.752.576-1.392.576-.405 0-.762-.085-1.072-.256-.309-.16-.517-.453-.624-.88h-2.256c.032.47.16.87.384 1.2.235.341.523.619.864.832.352.213.736.368 1.152.464.427.107.843.16 1.248.16.95 0 1.707-.128 2.272-.384.566-.256.998-.57 1.296-.944.299-.363.491-.757.576-1.184.096-.427.144-.805.144-1.136Zm7.397-4.496h-3.696a2.99 2.99 0 0 1 .096-.544c.064-.203.166-.395.304-.576.15-.181.342-.33.576-.448.246-.128.55-.192.912-.192.555 0 .966.15 1.232.448.278.299.47.736.576 1.312Zm-3.696 1.44h5.968a5.81 5.81 0 0 0-.16-1.84 4.407 4.407 0 0 0-.736-1.568 3.518 3.518 0 0 0-1.28-1.088c-.522-.277-1.136-.416-1.84-.416-.629 0-1.205.112-1.728.336a4.037 4.037 0 0 0-1.328.928 3.98 3.98 0 0 0-.864 1.376 4.839 4.839 0 0 0-.304 1.728c0 .64.096 1.227.288 1.76.203.533.486.992.848 1.376a3.75 3.75 0 0 0 1.328.896c.523.203 1.11.304 1.76.304.939 0 1.739-.213 2.4-.64.662-.427 1.152-1.136 1.472-2.128h-2c-.074.256-.277.501-.608.736-.33.224-.725.336-1.184.336-.64 0-1.13-.165-1.472-.496-.341-.33-.528-.864-.56-1.6Z"/><path fill="#9BF0E1" d="M188.18 31.656a1.465 1.465 0 0 0 2.928 0 1.465 1.465 0 0 0-2.928 0Z"/><path stroke="#9BF0E1" d="M0 1h299"/></svg>