<svg xmlns="http://www.w3.org/2000/svg" width="1100" height="1100" fill="none" viewBox="0 0 1100 1100"><path fill="#121212" d="M0 0h1100v1100H0z"/><g clip-path="url(#a)"><path fill="url(#b)" d="M701.273 717.773c-40.848 39.135-96.315 60.684-156.225 60.684-46.538 0-92.767-13.122-133.73-37.981L198 611.046v51.482l226.554 137.499c38.061 23.068 79.947 34.241 120.501 34.241 51.992 0 101.804-18.36 138.56-53.583 26.866-25.748 41.708-56.613 41.056-86.568v-3.727a181.847 181.847 0 0 1-23.398 27.383Zm0-81.316c-40.848 39.128-96.315 60.684-156.225 60.684-46.538 0-92.767-13.128-133.73-37.981L198 529.73v51.475l226.554 137.492c38.061 23.076 79.947 34.284 120.501 34.284 51.992 0 101.804-18.36 138.56-53.583 26.866-25.748 41.708-56.613 41.056-86.561v-3.805a180.713 180.713 0 0 1-23.398 27.425Zm0 162.674c-40.848 39.128-96.315 60.684-156.225 60.684-46.538 0-92.767-13.128-133.73-37.981L198 692.368v51.483l226.554 137.492c38.061 23.075 79.947 34.248 120.501 34.248 51.992 0 101.804-18.368 138.56-53.59 26.866-25.741 41.708-56.613 41.056-86.554v-3.741a181.946 181.946 0 0 1-23.398 27.397v.028Zm0 81.323c-40.848 39.128-96.315 60.684-156.225 60.684-46.538 0-92.767-13.128-133.73-37.981L198 773.691v51.483l226.554 137.492c38.061 23.075 79.947 34.247 120.501 34.247 51.992 0 101.804-18.36 138.56-53.589 26.866-25.741 41.708-56.614 41.056-86.554v-3.734a181.901 181.901 0 0 1-23.398 27.39v.028Zm178.805-357.317c-1.433 1.433-2.716 2.938-4.213 4.364a202.89 202.89 0 0 1-46.423 32.707 199.556 199.556 0 0 1-79.145 21.234h-.107v55.631h.079c38.948-2.493 77.367-17.385 107.945-46.666 1.67-1.606 3.139-3.254 4.723-4.873a171.563 171.563 0 0 0 16.575-19.593 132.527 132.527 0 0 0 13.107-22.481 101.22 101.22 0 0 0 9.008-34.304c.194-2.58.43-5.16.402-7.733v-4.572c-1.555 2.236-3.053 4.486-4.737 6.708a203.583 203.583 0 0 1-17.214 19.578Zm.072-81.237c-1.433 1.433-2.809 2.867-4.3 4.3a207.01 207.01 0 0 1-46.38 32.721 197.845 197.845 0 0 1-54.75 18.181 205.57 205.57 0 0 1-29.547 3.26c1.061 3.369 1.885 6.787 2.609 10.227a111.072 111.072 0 0 1 2.379 25.039v20.137h.115a175.874 175.874 0 0 0 52.872-11.574 169.028 169.028 0 0 0 55.045-35.114c1.669-1.606 3.138-3.247 4.722-4.873a170.437 170.437 0 0 0 16.597-19.564 131.912 131.912 0 0 0 13.107-22.474 101.18 101.18 0 0 0 9.008-34.297c.194-2.58.43-5.16.402-7.74v-4.3c-1.498 2.15-3.075 4.3-4.701 6.45A204.475 204.475 0 0 1 880.15 441.9Zm-.072 162.56c-1.433 1.433-2.723 2.931-4.213 4.364-33.761 32.363-77.991 51.267-125.568 53.941h-.064v55.631h.043c38.884-2.494 77.338-17.364 107.917-46.666 15.651-14.992 27.067-30.815 34.398-46.918a101.256 101.256 0 0 0 9.008-34.298c.193-2.587.43-5.167.401-7.739v-4.58c-1.555 2.243-3.053 4.494-4.737 6.708a202.646 202.646 0 0 1-17.185 19.557ZM750.297 744.087v55.632c38.92-2.494 77.339-17.357 107.917-46.667 29.145-27.948 44.108-58.641 43.779-88.955v-4.586a198.402 198.402 0 0 1-26.128 30.643c-33.768 32.349-77.991 51.26-125.568 53.933Zm77.116-510.482L612.21 103 361.341 343.378 198 499.882l226.554 137.492c38.061 23.076 79.947 34.248 120.501 34.248 51.992 0 101.804-18.36 138.56-53.582 39.974-38.304 53.238-87.887 28.572-129.072a101.934 101.934 0 0 0-14.182-18.503 186.327 186.327 0 0 0 40.239 4.464h.308a177.43 177.43 0 0 0 64.618-12.082 168.912 168.912 0 0 0 55.044-35.115c1.663-1.583 3.239-3.189 4.801-4.794a170.865 170.865 0 0 0 16.54-19.564 131.914 131.914 0 0 0 13.079-22.459 101.438 101.438 0 0 0 9.094-34.183c3.095-40.454-20.783-80.678-74.315-113.127ZM620.308 574.168c-40.281 38.612-105.122 44.302-157.873 12.312l-156.762-95.147 140.696-134.855 159.392 96.766c57.466 34.828 54.299 82.857 14.569 120.924h-.022Zm172.349-187.219c-38.555 36.957-100.901 47.699-153.695 15.701l-147.381-89.47 134.367-128.857 144.716 87.851c54.112 32.807 61.142 77.274 22.015 114.775h-.022Z"/></g><defs><linearGradient id="b" x1="479.075" x2="634.555" y1="988.729" y2="106.941" gradientUnits="userSpaceOnUse"><stop offset=".07" stop-color="#36BAA2"/><stop offset=".34" stop-color="#61DDC8"/><stop offset=".53" stop-color="#7DF3E1"/></linearGradient><clipPath id="a"><path fill="#fff" d="M198 103h704v893.913H198z"/></clipPath></defs></svg>