<svg xmlns="http://www.w3.org/2000/svg" xml:space="preserve" style="enable-background:new 0 0 140 140" viewBox="0 0 140 140"><path d="M19.1 102.1c9.4-6 20.3-16.3 16.2-28.5-2.3-6.6-5.4-12.3-5.8-19.4-.4-6.1.5-12.2 2.6-17.9C40.5 13.8 65.4 3.2 87.9 10c20.8 6.3 35.2 30.5 26.6 51.6-5 12.2-7.2 21.6 3.9 31 3 2.6 10.3 6.4 10.3 11 0 6-11.7-1.3-13-2.3 1.5 2.6 16.2 18 6.8 19.1-8.6 1-16.3-11.1-21.5-16.2-8.7-8.7-7.2 10.6-7.2 14.5-.1 6.3-4.5 19-12.5 10.7-6.6-6.8-4.1-17.8-8.7-25.4-5-8.3-13.3 8.3-15.4 11.4-2.3 3.4-14 19.9-18.6 11.1-3.8-7.1 2.2-18.3 5.2-24.8-1.1 2.3-8.7 5.8-10.9 6.9-5 2.5-10.1 4.1-15.8 3.7-11.7-.8-2.7-7 2-10.2z" style="fill:#0d80d8"/></svg>