<svg xmlns="http://www.w3.org/2000/svg" width="925" height="731" fill="none" viewBox="0 0 925 731"><rect width="165" height="165" x="-5" y="5" stroke="url(#paint0_linear)" stroke-dasharray="10 15 20 15 20 15 20 15 20 15" stroke-dashoffset="5" stroke-width="10" transform="matrix(-1 0 0 1 380 0)"/><rect width="165" height="165" x="-5" y="5" stroke="url(#paint1_linear)" stroke-dasharray="10 15 20 15 20 15 20 15 20 15" stroke-dashoffset="5" stroke-width="10" transform="matrix(-1 0 0 1 380 190)"/><rect width="165" height="165" x="-5" y="5" stroke="url(#paint2_linear)" stroke-dasharray="10 15 20 15 20 15 20 15 20 15" stroke-dashoffset="5" stroke-width="10" transform="matrix(-1 0 0 1 190 0)"/><rect width="165" height="165" x="-5" y="5" stroke="url(#paint3_linear)" stroke-dasharray="10 15 20 15 20 15 20 15 20 15" stroke-dashoffset="5" stroke-width="10" transform="matrix(-1 0 0 1 190 190)"/><rect width="165" height="165" x="-5" y="5" stroke="url(#paint4_linear)" stroke-dasharray="10 15 20 15 20 15 20 15 20 15" stroke-dashoffset="5" stroke-width="10" transform="matrix(-1 0 0 1 760 190)"/><rect width="165" height="165" x="-5" y="5" stroke="url(#paint5_linear)" stroke-dasharray="10 15 20 15 20 15 20 15 20 15" stroke-dashoffset="5" stroke-width="10" transform="matrix(-1 0 0 1 760 380)"/><rect width="165" height="165" x="-5" y="5" stroke="url(#paint6_linear)" stroke-dasharray="10 15 20 15 20 15 20 15 20 15" stroke-dashoffset="5" stroke-width="10" transform="matrix(-1 0 0 1 950 380)"/><rect width="165" height="165" x="-5" y="5" stroke="url(#paint7_linear)" stroke-dasharray="10 15 20 15 20 15 20 15 20 15" stroke-dashoffset="5" stroke-width="10" transform="matrix(-1 0 0 1 950 570)"/><rect width="165" height="165" x="-5" y="5" stroke="url(#paint8_linear)" stroke-dasharray="10 15 20 15 20 15 20 15 20 15" stroke-dashoffset="5" stroke-width="10" transform="matrix(-1 0 0 1 570 190)"/><rect width="165" height="165" x="-5" y="5" stroke="url(#paint9_linear)" stroke-dasharray="10 15 20 15 20 15 20 15 20 15" stroke-dashoffset="5" stroke-width="10" transform="matrix(-1 0 0 1 570 380)"/><defs><linearGradient id="paint0_linear" x1="7.764" x2="173.317" y1="70.121" y2="73.441" gradientUnits="userSpaceOnUse"><stop stop-color="#9BF0E1"/><stop offset="1" stop-color="#9BF0E1" stop-opacity=".5"/></linearGradient><linearGradient id="paint1_linear" x1="7.764" x2="173.317" y1="70.121" y2="73.441" gradientUnits="userSpaceOnUse"><stop stop-color="#9BF0E1"/><stop offset="1" stop-color="#9BF0E1" stop-opacity=".5"/></linearGradient><linearGradient id="paint2_linear" x1="128.937" x2="-14.754" y1="122.522" y2="123.805" gradientUnits="userSpaceOnUse"><stop stop-color="#9BF0E1" stop-opacity="0"/><stop offset="1" stop-color="#9BF0E1" stop-opacity=".5"/></linearGradient><linearGradient id="paint3_linear" x1="0" x2="147.253" y1="86.599" y2="86.262" gradientUnits="userSpaceOnUse"><stop stop-color="#9BF0E1" stop-opacity=".5"/><stop offset="1" stop-color="#9BF0E1" stop-opacity="0"/></linearGradient><linearGradient id="paint4_linear" x1="7.764" x2="173.317" y1="70.121" y2="73.441" gradientUnits="userSpaceOnUse"><stop stop-color="#fff"/><stop offset="1" stop-color="#C3F9EF"/></linearGradient><linearGradient id="paint5_linear" x1="7.764" x2="173.317" y1="70.121" y2="73.441" gradientUnits="userSpaceOnUse"><stop stop-color="#fff"/><stop offset="1" stop-color="#C3F9EF"/></linearGradient><linearGradient id="paint6_linear" x1="86.289" x2="173.317" y1="145.616" y2="73.441" gradientUnits="userSpaceOnUse"><stop stop-color="#C3F9EF" stop-opacity=".41"/><stop offset="1" stop-color="#fff"/></linearGradient><linearGradient id="paint7_linear" x1="125.5" x2="196" y1="73.231" y2="-14.269" gradientUnits="userSpaceOnUse"><stop stop-color="#C3F9EF" stop-opacity="0"/><stop offset="1" stop-color="#fff"/></linearGradient><linearGradient id="paint8_linear" x1="128.937" x2="-14.754" y1="122.522" y2="123.805" gradientUnits="userSpaceOnUse"><stop stop-color="#9BF0E1"/><stop offset="1" stop-color="#C3F9EF"/></linearGradient><linearGradient id="paint9_linear" x1="0" x2="147.253" y1="86.599" y2="86.262" gradientUnits="userSpaceOnUse"><stop stop-color="#C3F9EF"/><stop offset="1" stop-color="#9BF0E1"/></linearGradient></defs></svg>