<svg xmlns="http://www.w3.org/2000/svg" width="925" height="731" fill="none" viewBox="0 0 925 731"><path stroke="url(#a)" stroke-dasharray="10 15 20 15 20 15 20 15 20 15" stroke-dashoffset="5" stroke-width="10" d="M-5 5h165v165H-5z" transform="matrix(-1 0 0 1 380 0)"/><path stroke="url(#b)" stroke-dasharray="10 15 20 15 20 15 20 15 20 15" stroke-dashoffset="5" stroke-width="10" d="M-5 5h165v165H-5z" transform="matrix(-1 0 0 1 380 190)"/><path stroke="url(#c)" stroke-dasharray="10 15 20 15 20 15 20 15 20 15" stroke-dashoffset="5" stroke-width="10" d="M-5 5h165v165H-5z" transform="matrix(-1 0 0 1 190 0)"/><path stroke="url(#d)" stroke-dasharray="10 15 20 15 20 15 20 15 20 15" stroke-dashoffset="5" stroke-width="10" d="M-5 5h165v165H-5z" transform="matrix(-1 0 0 1 190 190)"/><path stroke="url(#e)" stroke-dasharray="10 15 20 15 20 15 20 15 20 15" stroke-dashoffset="5" stroke-width="10" d="M-5 5h165v165H-5z" transform="matrix(-1 0 0 1 760 190)"/><path stroke="url(#f)" stroke-dasharray="10 15 20 15 20 15 20 15 20 15" stroke-dashoffset="5" stroke-width="10" d="M-5 5h165v165H-5z" transform="matrix(-1 0 0 1 760 380)"/><path stroke="url(#g)" stroke-dasharray="10 15 20 15 20 15 20 15 20 15" stroke-dashoffset="5" stroke-width="10" d="M-5 5h165v165H-5z" transform="matrix(-1 0 0 1 950 380)"/><path stroke="url(#h)" stroke-dasharray="10 15 20 15 20 15 20 15 20 15" stroke-dashoffset="5" stroke-width="10" d="M-5 5h165v165H-5z" transform="matrix(-1 0 0 1 950 570)"/><path stroke="url(#i)" stroke-dasharray="10 15 20 15 20 15 20 15 20 15" stroke-dashoffset="5" stroke-width="10" d="M-5 5h165v165H-5z" transform="matrix(-1 0 0 1 570 190)"/><path stroke="url(#j)" stroke-dasharray="10 15 20 15 20 15 20 15 20 15" stroke-dashoffset="5" stroke-width="10" d="M-5 5h165v165H-5z" transform="matrix(-1 0 0 1 570 380)"/><defs><linearGradient id="a" x1="7.764" x2="173.317" y1="70.121" y2="73.441" gradientUnits="userSpaceOnUse"><stop stop-color="#9BF0E1"/><stop offset="1" stop-color="#9BF0E1" stop-opacity=".5"/></linearGradient><linearGradient id="b" x1="7.764" x2="173.317" y1="70.121" y2="73.441" gradientUnits="userSpaceOnUse"><stop stop-color="#9BF0E1"/><stop offset="1" stop-color="#9BF0E1" stop-opacity=".5"/></linearGradient><linearGradient id="c" x1="128.937" x2="-14.754" y1="122.522" y2="123.805" gradientUnits="userSpaceOnUse"><stop stop-color="#9BF0E1" stop-opacity="0"/><stop offset="1" stop-color="#9BF0E1" stop-opacity=".5"/></linearGradient><linearGradient id="d" x1="0" x2="147.253" y1="86.599" y2="86.262" gradientUnits="userSpaceOnUse"><stop stop-color="#9BF0E1" stop-opacity=".5"/><stop offset="1" stop-color="#9BF0E1" stop-opacity="0"/></linearGradient><linearGradient id="e" x1="7.764" x2="173.317" y1="70.121" y2="73.441" gradientUnits="userSpaceOnUse"><stop stop-color="#fff"/><stop offset="1" stop-color="#C3F9EF"/></linearGradient><linearGradient id="f" x1="7.764" x2="173.317" y1="70.121" y2="73.441" gradientUnits="userSpaceOnUse"><stop stop-color="#fff"/><stop offset="1" stop-color="#C3F9EF"/></linearGradient><linearGradient id="g" x1="86.289" x2="173.317" y1="145.616" y2="73.441" gradientUnits="userSpaceOnUse"><stop stop-color="#C3F9EF" stop-opacity=".41"/><stop offset="1" stop-color="#fff"/></linearGradient><linearGradient id="h" x1="125.5" x2="196" y1="73.231" y2="-14.269" gradientUnits="userSpaceOnUse"><stop stop-color="#C3F9EF" stop-opacity="0"/><stop offset="1" stop-color="#fff"/></linearGradient><linearGradient id="i" x1="128.937" x2="-14.754" y1="122.522" y2="123.805" gradientUnits="userSpaceOnUse"><stop stop-color="#9BF0E1"/><stop offset="1" stop-color="#C3F9EF"/></linearGradient><linearGradient id="j" x1="0" x2="147.253" y1="86.599" y2="86.262" gradientUnits="userSpaceOnUse"><stop stop-color="#C3F9EF"/><stop offset="1" stop-color="#9BF0E1"/></linearGradient></defs></svg>