<svg xmlns="http://www.w3.org/2000/svg" width="448" height="269" fill="none" viewBox="0 0 448 269"><rect width="324" height="218" x="43" y="28" fill="url(#a)" rx="4"/><rect width="159" height="52" x="289" y="217" fill="url(#b)" rx="4"/><rect width="146" height="51" fill="url(#c)" rx="4"/><g filter="url(#d)"><rect width="78.242" height="100.711" fill="url(#e)" rx="10" transform="matrix(-.97192 .23532 0 1 399.328 56.127)"/></g><rect width="51.695" height="3.21" fill="#C4C4C4" rx="1.605" transform="matrix(-.96245 .27144 0 1 390.386 88.206)"/><rect width="41.729" height="3.21" fill="#9AEEDF" rx="1.605" transform="matrix(-.96245 .27144 0 1 374.208 100.86)"/><rect width="48.55" height="3.611" fill="#C4C4C4" rx="1.806" transform="matrix(-.96245 .27144 0 1 387.525 81.326)"/><rect width="25.278" height="3.21" fill="#9BF0E1" rx="1.605" transform="matrix(-.96245 .27144 0 1 358.759 81.995)"/><rect width="32.5" height="3.21" fill="#F037A5" rx="1.605" transform="matrix(-.96245 .27144 0 1 365.436 72.72)"/><rect width="26.681" height="3.21" fill="#F037A5" rx="1.605" transform="matrix(-.96245 .27144 0 1 359.904 112.661)"/><path fill="#fff" d="M324.388 192.15v11.424h2.512V192.15h-2.512Zm6.981 9.312v-7.2h1.792c.618 0 1.136.091 1.552.272.426.171.768.421 1.024.752s.437.731.544 1.2c.117.459.176.976.176 1.552 0 .629-.08 1.163-.24 1.6-.16.437-.374.795-.64 1.072a2.362 2.362 0 0 1-.912.576 3.24 3.24 0 0 1-1.056.176h-2.24Zm-2.512-9.312v11.424h4.928c.874 0 1.632-.144 2.272-.432a4.536 4.536 0 0 0 1.616-1.216c.437-.512.762-1.12.976-1.824.213-.704.32-1.472.32-2.304 0-.949-.134-1.776-.4-2.48-.256-.704-.619-1.291-1.088-1.76a4.388 4.388 0 0 0-1.648-1.056 5.811 5.811 0 0 0-2.048-.352h-4.928Zm11.609 0v11.424h8.672v-2.112h-6.16v-2.8h5.536v-1.952h-5.536v-2.448h6.032v-2.112h-8.544Z"/><g filter="url(#f)"><rect width="78.242" height="100.711" fill="url(#g)" rx="10" transform="matrix(-.96593 .25882 0 1 282.134 54.982)"/></g><path fill="#388AED" d="m273.475 111.699-7.252 1.943v7.508l7.252-1.943zm-9.229 12.037-7.252 1.943v7.508l7.252-1.943zm0-9.63-7.252 1.943v7.508l7.252-1.943z"/><path fill="#88BEFF" d="m255.018 126.143-7.252 1.943v7.508l7.252-1.943zm0-9.629-7.252 1.943v7.508l7.252-1.943zm9.228 16.852-7.252 1.943v7.508l7.252-1.943z"/><path fill="#388AED" d="m264.246 142.995-7.252 1.943v7.508l7.252-1.943z"/><path fill="#88BEFF" d="m273.475 140.588-7.252 1.943v7.508l7.252-1.943z"/><path fill="#388AED" d="m273.475 130.958-7.252 1.943v7.508l7.252-1.943zm0-9.629-7.252 1.943v7.508l7.252-1.943zm-9.229-26.482-7.252 1.943v7.508l7.252-1.943zm0 9.629-7.252 1.943v7.508l7.252-1.943zm9.229-2.407-7.252 1.943v7.508l7.252-1.943z"/><path fill="#88BEFF" d="m273.475 92.038-7.252 1.943v7.508l7.252-1.943z"/><path fill="#388AED" d="m255.018 106.884-7.252 1.943v7.508l7.252-1.943zm-18.457 24.074-7.252 1.943v7.508l7.252-1.943z"/><path fill="#88BEFF" d="m236.561 150.218-7.252 1.943v7.508l7.252-1.943zm0-9.63-7.252 1.943v7.508l7.252-1.943z"/><path fill="#388AED" d="m227.333 152.625-7.252 1.943v7.508l7.252-1.943zm0-9.63-7.252 1.943v7.508l7.252-1.943zm18.457 4.815-7.252 1.943v7.508l7.252-1.943zm9.228-2.407-7.252 1.943v7.508l7.252-1.943zm0-9.63-7.252 1.943v7.508l7.252-1.943zm-9.228-7.222-7.252 1.943v7.508l7.252-1.943zm0-9.63-7.252 1.943v7.508l7.252-1.943zm0 19.26-7.252 1.943v7.508l7.252-1.943z"/><path fill="#fff" d="m215.918 202.278.256 1.296h1.6v-6.176h-4.8v1.872h2.528c-.075.8-.342 1.413-.8 1.84-.448.416-1.088.624-1.92.624-.566 0-1.046-.107-1.44-.32a2.812 2.812 0 0 1-.96-.88 3.908 3.908 0 0 1-.544-1.216 6.53 6.53 0 0 1 0-2.864c.117-.469.298-.885.544-1.248.245-.373.565-.667.96-.88.394-.224.874-.336 1.44-.336.608 0 1.125.16 1.552.48.426.32.714.8.864 1.44h2.4c-.064-.651-.24-1.227-.528-1.728a4.2 4.2 0 0 0-1.104-1.264 4.613 4.613 0 0 0-1.488-.768 5.34 5.34 0 0 0-1.696-.272c-.875 0-1.664.155-2.368.464a5.056 5.056 0 0 0-1.76 1.28 5.693 5.693 0 0 0-1.104 1.92 7.068 7.068 0 0 0-.384 2.368c0 .832.128 1.611.384 2.336a5.569 5.569 0 0 0 1.104 1.872c.48.533 1.066.955 1.76 1.264.704.299 1.493.448 2.368.448.554 0 1.104-.112 1.648-.336.544-.235 1.04-.64 1.488-1.216Zm5.73-8.256v-1.872h-2.272v1.872h2.272Zm-2.272 1.28v8.272h2.272v-8.272h-2.272Zm6.691 0v-2.48h-2.272v2.48h-1.376v1.52h1.376v4.88c0 .416.07.752.208 1.008.139.256.326.453.56.592.246.139.523.229.832.272.32.053.656.08 1.008.08.224 0 .454-.005.688-.016a5.47 5.47 0 0 0 .64-.064v-1.76a3.312 3.312 0 0 1-.336.048c-.117.011-.24.016-.368.016-.384 0-.64-.064-.768-.192s-.192-.384-.192-.768v-4.096h1.664v-1.52h-1.664Zm2.735-3.152v11.424h2.512v-4.928h4.624v4.928h2.512V192.15h-2.512v4.384h-4.624v-4.384h-2.512Zm19.13 11.424v-8.272h-2.272v4.336c0 .843-.139 1.451-.416 1.824-.278.363-.726.544-1.344.544-.544 0-.923-.165-1.136-.496-.214-.341-.32-.853-.32-1.536v-4.672h-2.272v5.088c0 .512.042.981.128 1.408.096.416.256.773.48 1.072.224.288.528.512.912.672.394.16.896.24 1.504.24.48 0 .949-.107 1.408-.32.458-.213.832-.56 1.12-1.04h.048v1.152h2.16Zm7.538-4.128c0 .341-.037.672-.112.992-.075.32-.192.603-.352.848-.16.245-.363.443-.608.592-.235.139-.523.208-.864.208-.331 0-.619-.069-.864-.208a1.898 1.898 0 0 1-.608-.592 2.638 2.638 0 0 1-.352-.848 4.335 4.335 0 0 1-.112-.992c0-.352.037-.688.112-1.008.075-.32.192-.603.352-.848.16-.245.363-.437.608-.576a1.63 1.63 0 0 1 .864-.224c.341 0 .629.075.864.224.245.139.448.331.608.576.16.245.277.528.352.848.075.32.112.656.112 1.008Zm-6.064-7.296v11.424h2.16v-1.056h.032c.245.459.608.784 1.088.976.48.192 1.024.288 1.632.288.416 0 .827-.085 1.232-.256a3.086 3.086 0 0 0 1.088-.784c.331-.352.597-.8.8-1.344.203-.555.304-1.211.304-1.968 0-.757-.101-1.408-.304-1.952-.203-.555-.469-1.008-.8-1.36a3.086 3.086 0 0 0-1.088-.784 3.142 3.142 0 0 0-1.232-.256c-.512 0-1.008.101-1.488.304a2.38 2.38 0 0 0-1.12.928h-.032v-4.16h-2.272Z"/><g filter="url(#h)"><rect width="78.242" height="100.711" fill="url(#i)" rx="10" transform="matrix(.96593 -.25882 0 1 89.833 75.233)"/></g><path fill="#121212" d="M108.022 131.301v-11.69l9.94-2.663a12.948 12.948 0 0 1 2.704-.444c.902-.102 1.69-.033 2.367.205.676.239 1.217.678 1.622 1.316.406.638.609 1.54.609 2.707 0 2.1-.609 3.779-1.826 5.039-1.217 1.259-2.772 2.143-4.665 2.65l-10.751 2.88Zm-10.615-17.385v49.98l23.394-6.269a28.581 28.581 0 0 0 6.289-2.525c2.073-1.115 3.899-2.468 5.476-4.057a18.43 18.43 0 0 0 3.854-5.513c.947-2.12 1.42-4.44 1.42-6.96 0-3.127-.743-5.588-2.231-7.382-1.442-1.854-3.651-2.825-6.626-2.915 2.163-1.653 3.786-3.464 4.868-5.434 1.127-1.982 1.69-4.233 1.69-6.753 0-2.334-.383-4.191-1.149-5.572-.721-1.394-1.758-2.376-3.11-2.947-1.353-.618-2.975-.883-4.869-.795-1.893.087-3.989.438-6.288 1.054l-22.718 6.088Zm10.615 38.595v-13.72l11.562-3.098c2.299-.616 4.147-.551 5.545.195 1.397.699 2.096 2.331 2.096 4.898 0 1.307-.226 2.441-.676 3.401a7.649 7.649 0 0 1-1.691 2.483 11.404 11.404 0 0 1-2.502 1.721c-.946.44-1.938.799-2.975 1.077l-11.359 3.043Zm33.032-6.42c0 3.575 2.888 5.921 6.404 4.979 3.516-.942 6.467-4.853 6.467-8.428 0-3.64-2.951-5.839-6.467-4.897-3.516.942-6.404 4.706-6.404 8.346Z"/><path fill="#fff" d="M93.616 197.2v-2.672h2.352c.224 0 .437.021.64.064.213.032.4.096.56.192.16.096.288.229.384.4.096.171.144.389.144.656 0 .48-.144.827-.432 1.04-.288.213-.656.32-1.104.32h-2.544Zm-2.512-4.624V204h5.536a5.75 5.75 0 0 0 1.488-.192c.49-.128.923-.325 1.296-.592.384-.267.688-.608.912-1.024.224-.427.336-.928.336-1.504 0-.715-.176-1.323-.528-1.824-.341-.512-.864-.869-1.568-1.072.512-.245.896-.56 1.152-.944.267-.384.4-.864.4-1.44 0-.533-.091-.981-.272-1.344a2.075 2.075 0 0 0-.736-.864 3.128 3.128 0 0 0-1.152-.48 7.115 7.115 0 0 0-1.488-.144h-5.376Zm2.512 9.472v-3.136h2.736c.544 0 .981.128 1.312.384.33.245.496.661.496 1.248 0 .299-.053.544-.16.736a1.21 1.21 0 0 1-.4.464c-.17.107-.368.187-.592.24a3.73 3.73 0 0 1-.704.064h-2.688Zm8.168-3.776c.032-.533.165-.976.4-1.328a2.71 2.71 0 0 1 .896-.848 3.762 3.762 0 0 1 1.216-.448 6.693 6.693 0 0 1 1.376-.144c.416 0 .837.032 1.264.096.426.053.816.165 1.168.336s.64.411.864.72c.224.299.336.699.336 1.2v4.304c0 .373.021.731.064 1.072.042.341.117.597.224.768h-2.304a5.052 5.052 0 0 1-.112-.384 4.906 4.906 0 0 1-.048-.416c-.363.373-.79.635-1.28.784a5.15 5.15 0 0 1-1.504.224 4.06 4.06 0 0 1-1.104-.144 2.517 2.517 0 0 1-.896-.448 2.164 2.164 0 0 1-.608-.768c-.139-.309-.208-.677-.208-1.104 0-.469.08-.853.24-1.152.17-.309.384-.555.64-.736.266-.181.565-.315.896-.4a8.682 8.682 0 0 1 1.024-.224c.341-.053.677-.096 1.008-.128.33-.032.624-.08.88-.144a1.62 1.62 0 0 0 .608-.272c.149-.128.218-.309.208-.544 0-.245-.043-.437-.128-.576a.76.76 0 0 0-.32-.336 1.045 1.045 0 0 0-.464-.16 3.052 3.052 0 0 0-.56-.048c-.448 0-.8.096-1.056.288-.256.192-.406.512-.448.96h-2.272Zm5.248 1.68a1.111 1.111 0 0 1-.368.208 6.342 6.342 0 0 1-.976.192 9.14 9.14 0 0 0-.544.08 4.507 4.507 0 0 0-.512.128c-.16.053-.304.128-.432.224a.965.965 0 0 0-.288.336 1.105 1.105 0 0 0-.112.528c0 .203.037.373.112.512a.912.912 0 0 0 .304.336c.128.075.277.128.448.16.17.032.346.048.528.048.448 0 .794-.075 1.04-.224.245-.149.426-.325.544-.528.117-.213.186-.427.208-.64.032-.213.048-.384.048-.512v-.848Zm9.417-1.312h2.224c-.032-.533-.16-.992-.384-1.376a2.97 2.97 0 0 0-.88-.976 3.58 3.58 0 0 0-1.216-.592 5.099 5.099 0 0 0-1.408-.192c-.672 0-1.269.112-1.792.336a3.728 3.728 0 0 0-1.328.944c-.363.395-.64.869-.832 1.424a5.594 5.594 0 0 0-.272 1.776c0 .619.101 1.189.304 1.712.203.512.485.955.848 1.328.363.373.8.667 1.312.88a4.69 4.69 0 0 0 1.712.304c1.099 0 2-.288 2.704-.864.704-.576 1.131-1.413 1.28-2.512h-2.192c-.075.512-.261.923-.56 1.232-.288.299-.704.448-1.248.448-.352 0-.651-.08-.896-.24a1.898 1.898 0 0 1-.592-.608 3.072 3.072 0 0 1-.304-.848 4.489 4.489 0 0 1 0-1.84c.064-.32.171-.608.32-.864.16-.267.363-.48.608-.64.245-.171.549-.256.912-.256.971 0 1.531.475 1.68 1.424Zm3.514-6.064V204h2.272v-2.848l.88-.848 2.272 3.696h2.752l-3.472-5.232 3.12-3.04h-2.688l-2.864 2.976v-6.128h-2.272Zm10.489 8.736h-2.16c.021.555.144 1.019.368 1.392.235.363.528.656.88.88.363.224.773.384 1.232.48a6.857 6.857 0 0 0 2.784 0 3.39 3.39 0 0 0 1.216-.464 2.57 2.57 0 0 0 .848-.88c.224-.373.336-.832.336-1.376 0-.384-.075-.704-.224-.96a1.945 1.945 0 0 0-.592-.656 3.036 3.036 0 0 0-.848-.432 9.028 9.028 0 0 0-.96-.272c-.32-.075-.635-.144-.944-.208a9.34 9.34 0 0 1-.832-.208 1.832 1.832 0 0 1-.576-.32.624.624 0 0 1-.224-.496c0-.171.043-.304.128-.4a.815.815 0 0 1 .304-.24 1.34 1.34 0 0 1 .416-.096c.149-.021.288-.032.416-.032.405 0 .757.08 1.056.24.299.149.464.443.496.88h2.16c-.043-.512-.176-.933-.4-1.264a2.486 2.486 0 0 0-.816-.816 3.434 3.434 0 0 0-1.136-.432 6.702 6.702 0 0 0-2.608 0 3.369 3.369 0 0 0-1.152.416 2.3 2.3 0 0 0-.832.8c-.203.341-.304.779-.304 1.312 0 .363.075.672.224.928.149.245.347.453.592.624.245.16.523.293.832.4.32.096.645.181.976.256.811.171 1.44.341 1.888.512.459.171.688.427.688.768a.878.878 0 0 1-.144.512 1.191 1.191 0 0 1-.368.32 1.963 1.963 0 0 1-.48.176 2.693 2.693 0 0 1-1.152-.032 1.777 1.777 0 0 1-.544-.24 1.543 1.543 0 0 1-.4-.432 1.35 1.35 0 0 1-.144-.64Zm9.464-5.584v-2.48h-2.272v2.48h-1.376v1.52h1.376v4.88c0 .416.069.752.208 1.008.139.256.325.453.56.592.245.139.523.229.832.272.32.053.656.08 1.008.08.224 0 .453-.005.688-.016a5.47 5.47 0 0 0 .64-.064v-1.76a3.395 3.395 0 0 1-.704.064c-.384 0-.64-.064-.768-.192s-.192-.384-.192-.768v-4.096h1.664v-1.52h-1.664Zm2.399 2.544c.032-.533.165-.976.4-1.328a2.72 2.72 0 0 1 .896-.848 3.771 3.771 0 0 1 1.216-.448 6.7 6.7 0 0 1 1.376-.144c.416 0 .837.032 1.264.096.427.053.816.165 1.168.336s.64.411.864.72c.224.299.336.699.336 1.2v4.304c0 .373.021.731.064 1.072.043.341.117.597.224.768h-2.304a5.052 5.052 0 0 1-.112-.384 5.886 5.886 0 0 1-.048-.416 2.96 2.96 0 0 1-1.28.784 5.15 5.15 0 0 1-1.504.224 4.06 4.06 0 0 1-1.104-.144 2.526 2.526 0 0 1-.896-.448 2.164 2.164 0 0 1-.608-.768c-.139-.309-.208-.677-.208-1.104 0-.469.08-.853.24-1.152.171-.309.384-.555.64-.736.267-.181.565-.315.896-.4a8.726 8.726 0 0 1 1.024-.224c.341-.053.677-.096 1.008-.128.331-.032.624-.08.88-.144.256-.064.459-.155.608-.272.149-.128.219-.309.208-.544 0-.245-.043-.437-.128-.576a.755.755 0 0 0-.32-.336 1.045 1.045 0 0 0-.464-.16 3.044 3.044 0 0 0-.56-.048c-.448 0-.8.096-1.056.288-.256.192-.405.512-.448.96h-2.272Zm5.248 1.68a1.111 1.111 0 0 1-.368.208 6.342 6.342 0 0 1-.976.192 9.262 9.262 0 0 0-.544.08 4.56 4.56 0 0 0-.512.128c-.16.053-.304.128-.432.224a.986.986 0 0 0-.288.336 1.105 1.105 0 0 0-.112.528c0 .203.037.373.112.512a.92.92 0 0 0 .304.336c.128.075.277.128.448.16.171.032.347.048.528.048.448 0 .795-.075 1.04-.224.245-.149.427-.325.544-.528.117-.213.187-.427.208-.64.032-.213.048-.384.048-.512v-.848Zm7.641 2.096c-.352 0-.645-.075-.88-.224a1.863 1.863 0 0 1-.576-.576 2.689 2.689 0 0 1-.304-.784 5.12 5.12 0 0 1-.08-.896c0-.309.032-.603.096-.88a2.32 2.32 0 0 1 .336-.752c.16-.224.352-.4.576-.528.235-.128.512-.192.832-.192.374 0 .683.069.928.208.246.139.443.325.592.56.15.235.256.507.32.816.064.299.096.619.096.96 0 .299-.042.587-.128.864a2.139 2.139 0 0 1-.352.72c-.16.213-.362.384-.608.512a1.806 1.806 0 0 1-.848.192Zm4.096 1.424v-7.744h-2.16v1.104h-.032c-.277-.48-.624-.821-1.04-1.024-.405-.203-.88-.304-1.424-.304-.576 0-1.088.112-1.536.336a3.275 3.275 0 0 0-1.104.912 4.059 4.059 0 0 0-.688 1.312 5.26 5.26 0 0 0-.224 1.536c0 .565.064 1.104.192 1.616.139.501.352.944.64 1.328.288.373.656.672 1.104.896.448.213.982.32 1.6.32.502 0 .976-.101 1.424-.304a2.283 2.283 0 0 0 1.056-.976h.032v1.088c.011.587-.133 1.072-.432 1.456-.288.384-.752.576-1.392.576-.405 0-.762-.085-1.072-.256-.309-.16-.517-.453-.624-.88h-2.256c.032.469.16.869.384 1.2.235.341.523.619.864.832.352.213.736.368 1.152.464.427.107.843.16 1.248.16.95 0 1.707-.128 2.272-.384.566-.256.998-.571 1.296-.944.299-.363.491-.757.576-1.184.096-.427.144-.805.144-1.136Zm7.148-4.496h-3.696c.01-.16.042-.341.096-.544a1.86 1.86 0 0 1 .304-.576c.149-.181.341-.331.576-.448.245-.128.549-.192.912-.192.554 0 .965.149 1.232.448.277.299.469.736.576 1.312Zm-3.696 1.44h5.968a5.87 5.87 0 0 0-.16-1.84 4.442 4.442 0 0 0-.736-1.568 3.535 3.535 0 0 0-1.28-1.088c-.523-.277-1.136-.416-1.84-.416-.63 0-1.206.112-1.728.336a4.022 4.022 0 0 0-1.328.928 3.954 3.954 0 0 0-.864 1.376 4.815 4.815 0 0 0-.304 1.728c0 .64.096 1.227.288 1.76.202.533.485.992.848 1.376.362.384.805.683 1.328.896.522.203 1.109.304 1.76.304.938 0 1.738-.213 2.4-.64.661-.427 1.152-1.136 1.472-2.128h-2c-.075.256-.278.501-.608.736-.331.224-.726.336-1.184.336-.64 0-1.131-.165-1.472-.496-.342-.331-.528-.864-.56-1.6Z"/><path fill="#9BF0E1" d="M169.705 202.656a1.465 1.465 0 0 0 2.928 0 1.465 1.465 0 0 0-2.928 0Z"/><defs><linearGradient id="a" x1="-163.007" x2="230.46" y1="363.973" y2="113.577" gradientUnits="userSpaceOnUse"><stop offset=".041" stop-color="#9BF0E1"/><stop offset="1" stop-color="#9BF0E1" stop-opacity=".11"/></linearGradient><linearGradient id="b" x1="187.904" x2="287.857" y1="297.14" y2="166.276" gradientUnits="userSpaceOnUse"><stop offset=".041" stop-color="#9BF0E1"/><stop offset="1" stop-color="#9BF0E1" stop-opacity=".13"/></linearGradient><linearGradient id="c" x1="-92.83" x2="6.712" y1="78.599" y2="-43.417" gradientUnits="userSpaceOnUse"><stop offset=".041" stop-color="#9BF0E1"/><stop offset="1" stop-color="#9BF0E1" stop-opacity=".1"/></linearGradient><linearGradient id="e" x1="39.121" x2="39.121" y1="0" y2="100.711" gradientUnits="userSpaceOnUse"><stop stop-color="#757575"/><stop offset="1" stop-color="#282828"/></linearGradient><linearGradient id="g" x1="39.121" x2="39.121" y1="0" y2="100.711" gradientUnits="userSpaceOnUse"><stop stop-color="#509BF5"/><stop offset="1" stop-color="#1975E2"/></linearGradient><linearGradient id="i" x1="39.121" x2="39.121" y1="0" y2="100.711" gradientUnits="userSpaceOnUse"><stop stop-color="#9BF0E1"/><stop offset="1" stop-color="#4DC1AB"/></linearGradient><filter id="d" width="92.045" height="130.967" x="318.283" y="53.205" color-interpolation-filters="sRGB" filterUnits="userSpaceOnUse"><feFlood flood-opacity="0" result="BackgroundImageFix"/><feColorMatrix in="SourceAlpha" values="0 0 0 0 0 0 0 0 0 0 0 0 0 0 0 0 0 0 127 0"/><feOffset dx="3" dy="3"/><feGaussianBlur stdDeviation="4"/><feColorMatrix values="0 0 0 0 0 0 0 0 0 0 0 0 0 0 0 0 0 0 0.25 0"/><feBlend in2="BackgroundImageFix" result="effect1_dropShadow"/><feBlend in="SourceGraphic" in2="effect1_dropShadow" result="shape"/></filter><filter id="f" width="91.576" height="132.449" x="201.559" y="52.239" color-interpolation-filters="sRGB" filterUnits="userSpaceOnUse"><feFlood flood-opacity="0" result="BackgroundImageFix"/><feColorMatrix in="SourceAlpha" values="0 0 0 0 0 0 0 0 0 0 0 0 0 0 0 0 0 0 127 0"/><feOffset dx="3" dy="3"/><feGaussianBlur stdDeviation="4"/><feColorMatrix values="0 0 0 0 0 0 0 0 0 0 0 0 0 0 0 0 0 0 0.25 0"/><feBlend in2="BackgroundImageFix" result="effect1_dropShadow"/><feBlend in="SourceGraphic" in2="effect1_dropShadow" result="shape"/></filter><filter id="h" width="91.576" height="132.449" x="84.833" y="52.239" color-interpolation-filters="sRGB" filterUnits="userSpaceOnUse"><feFlood flood-opacity="0" result="BackgroundImageFix"/><feColorMatrix in="SourceAlpha" values="0 0 0 0 0 0 0 0 0 0 0 0 0 0 0 0 0 0 127 0"/><feOffset dx="3" dy="3"/><feGaussianBlur stdDeviation="4"/><feColorMatrix values="0 0 0 0 0 0 0 0 0 0 0 0 0 0 0 0 0 0 0.25 0"/><feBlend in2="BackgroundImageFix" result="effect1_dropShadow"/><feBlend in="SourceGraphic" in2="effect1_dropShadow" result="shape"/></filter></defs></svg>