<svg xmlns="http://www.w3.org/2000/svg" width="845" height="568" fill="none" viewBox="0 0 845 568"><rect width="589" height="408" x="41" y="82" fill="url(#paint0_linear)" rx="4"/><rect width="340" height="134" x="505" y="434" fill="url(#paint1_linear)" rx="4"/><rect width="255" height="154" fill="url(#paint2_linear)" rx="4"/><g filter="url(#filter0_d)"><rect width="136.743" height="176.012" fill="url(#paint3_linear)" rx="22" transform="matrix(-0.971919 0.235317 0 1 697.902 168)"/></g><rect width="90.346" height="5.61" fill="#C4C4C4" rx="2.805" transform="matrix(-0.962455 0.27144 0 1 682.275 224.065)"/><rect width="72.929" height="5.61" fill="#9AEEDF" rx="2.805" transform="matrix(-0.962455 0.27144 0 1 654.002 246.181)"/><rect width="84.85" height="6.311" fill="#C4C4C4" rx="3.156" transform="matrix(-0.962455 0.27144 0 1 677.275 212.04)"/><rect width="44.178" height="5.61" fill="#9BF0E1" rx="2.805" transform="matrix(-0.962455 0.27144 0 1 627.002 213.21)"/><rect width="56.801" height="5.61" fill="#F037A5" rx="2.805" transform="matrix(-0.962455 0.27144 0 1 638.67 197)"/><rect width="46.63" height="5.61" fill="#F037A5" rx="2.805" transform="matrix(-0.962455 0.27144 0 1 629.002 266.804)"/><path fill="#fff" d="M566.657 406.864V424H570.425V406.864H566.657ZM577.253 420.832V410.032H579.941C580.869 410.032 581.645 410.168 582.269 410.44C582.909 410.696 583.421 411.072 583.805 411.568C584.189 412.064 584.461 412.664 584.621 413.368C584.797 414.056 584.885 414.832 584.885 415.696C584.885 416.64 584.765 417.44 584.525 418.096C584.285 418.752 583.965 419.288 583.565 419.704C583.165 420.104 582.709 420.392 582.197 420.568C581.685 420.744 581.157 420.832 580.613 420.832H577.253ZM573.485 406.864V424H580.877C582.189 424 583.325 423.784 584.285 423.352C585.261 422.904 586.069 422.296 586.709 421.528C587.365 420.76 587.853 419.848 588.173 418.792C588.493 417.736 588.653 416.584 588.653 415.336C588.653 413.912 588.453 412.672 588.053 411.616C587.669 410.56 587.125 409.68 586.421 408.976C585.733 408.272 584.909 407.744 583.949 407.392C583.005 407.04 581.981 406.864 580.877 406.864H573.485ZM591.024 406.864V424H604.032V420.832H594.792V416.632H603.096V413.704H594.792V410.032H603.84V406.864H591.024Z"/><g filter="url(#filter1_d)"><rect width="136.743" height="176.012" fill="url(#paint4_linear)" rx="22" transform="matrix(-0.965926 0.258819 0 1 493.084 166)"/></g><rect width="13.122" height="13.122" fill="#388AED" transform="matrix(-0.965926 0.258819 0 1 477.951 265.123)"/><rect width="13.122" height="13.122" fill="#388AED" transform="matrix(-0.965926 0.258819 0 1 461.822 286.16)"/><rect width="13.122" height="13.122" fill="#388AED" transform="matrix(-0.965926 0.258819 0 1 461.822 269.33)"/><rect width="13.122" height="13.122" fill="#88BEFF" transform="matrix(-0.965926 0.258819 0 1 445.694 290.367)"/><rect width="13.122" height="13.122" fill="#88BEFF" transform="matrix(-0.965926 0.258819 0 1 445.694 273.538)"/><rect width="13.122" height="13.122" fill="#88BEFF" transform="matrix(-0.965926 0.258819 0 1 461.822 302.99)"/><rect width="13.122" height="13.122" fill="#388AED" transform="matrix(-0.965926 0.258819 0 1 461.822 319.82)"/><rect width="13.122" height="13.122" fill="#88BEFF" transform="matrix(-0.965926 0.258819 0 1 477.951 315.612)"/><rect width="13.122" height="13.122" fill="#388AED" transform="matrix(-0.965926 0.258819 0 1 477.951 298.782)"/><rect width="13.122" height="13.122" fill="#388AED" transform="matrix(-0.965926 0.258819 0 1 477.951 281.953)"/><rect width="13.122" height="13.122" fill="#388AED" transform="matrix(-0.965926 0.258819 0 1 461.822 235.671)"/><rect width="13.122" height="13.122" fill="#388AED" transform="matrix(-0.965926 0.258819 0 1 461.822 252.5)"/><rect width="13.122" height="13.122" fill="#388AED" transform="matrix(-0.965926 0.258819 0 1 477.951 248.293)"/><rect width="13.122" height="13.122" fill="#88BEFF" transform="matrix(-0.965926 0.258819 0 1 477.951 230.762)"/><rect width="13.122" height="13.122" fill="#388AED" transform="matrix(-0.965926 0.258819 0 1 445.694 256.708)"/><rect width="13.122" height="13.122" fill="#388AED" transform="matrix(-0.965926 0.258819 0 1 413.437 298.782)"/><rect width="13.122" height="13.122" fill="#88BEFF" transform="matrix(-0.965926 0.258819 0 1 413.437 332.442)"/><rect width="13.122" height="13.122" fill="#88BEFF" transform="matrix(-0.965926 0.258819 0 1 413.437 315.612)"/><rect width="13.122" height="13.122" fill="#388AED" transform="matrix(-0.965926 0.258819 0 1 397.309 336.649)"/><rect width="13.122" height="13.122" fill="#388AED" transform="matrix(-0.965926 0.258819 0 1 397.309 319.82)"/><rect width="13.122" height="13.122" fill="#388AED" transform="matrix(-0.965926 0.258819 0 1 429.565 328.235)"/><rect width="13.122" height="13.122" fill="#388AED" transform="matrix(-0.965926 0.258819 0 1 445.694 324.027)"/><rect width="13.122" height="13.122" fill="#388AED" transform="matrix(-0.965926 0.258819 0 1 445.694 307.198)"/><rect width="13.122" height="13.122" fill="#388AED" transform="matrix(-0.965926 0.258819 0 1 429.565 294.575)"/><rect width="13.122" height="13.122" fill="#388AED" transform="matrix(-0.965926 0.258819 0 1 429.565 277.745)"/><rect width="13.122" height="13.122" fill="#388AED" transform="matrix(-0.965926 0.258819 0 1 429.565 311.405)"/><path fill="#fff" d="M375.04 422.056L375.424 424H377.824V414.736H370.624V417.544H374.416C374.304 418.744 373.904 419.664 373.216 420.304C372.544 420.928 371.584 421.24 370.336 421.24C369.488 421.24 368.768 421.08 368.176 420.76C367.584 420.424 367.104 419.984 366.736 419.44C366.368 418.896 366.096 418.288 365.92 417.616C365.76 416.928 365.68 416.224 365.68 415.504C365.68 414.752 365.76 414.024 365.92 413.32C366.096 412.616 366.368 411.992 366.736 411.448C367.104 410.888 367.584 410.448 368.176 410.128C368.768 409.792 369.488 409.624 370.336 409.624C371.248 409.624 372.024 409.864 372.664 410.344C373.304 410.824 373.736 411.544 373.96 412.504H377.56C377.464 411.528 377.2 410.664 376.768 409.912C376.336 409.16 375.784 408.528 375.112 408.016C374.456 407.504 373.712 407.12 372.88 406.864C372.064 406.592 371.216 406.456 370.336 406.456C369.024 406.456 367.84 406.688 366.784 407.152C365.744 407.616 364.864 408.256 364.144 409.072C363.424 409.888 362.872 410.848 362.488 411.952C362.104 413.04 361.912 414.224 361.912 415.504C361.912 416.752 362.104 417.92 362.488 419.008C362.872 420.08 363.424 421.016 364.144 421.816C364.864 422.616 365.744 423.248 366.784 423.712C367.84 424.16 369.024 424.384 370.336 424.384C371.168 424.384 371.992 424.216 372.808 423.88C373.624 423.528 374.368 422.92 375.04 422.056ZM383.761 409.672V406.864H380.353V409.672H383.761ZM380.353 411.592V424H383.761V411.592H380.353ZM390.514 411.592V407.872H387.106V411.592H385.042V413.872H387.106V421.192C387.106 421.816 387.21 422.32 387.418 422.704C387.626 423.088 387.906 423.384 388.258 423.592C388.626 423.8 389.042 423.936 389.506 424C389.986 424.08 390.49 424.12 391.018 424.12C391.354 424.12 391.698 424.112 392.05 424.096C392.402 424.08 392.722 424.048 393.01 424V421.36C392.85 421.392 392.682 421.416 392.506 421.432C392.33 421.448 392.146 421.456 391.954 421.456C391.378 421.456 390.994 421.36 390.802 421.168C390.61 420.976 390.514 420.592 390.514 420.016V413.872H393.01V411.592H390.514ZM394.742 406.864V424H398.51V416.608H405.446V424H409.214V406.864H405.446V413.44H398.51V406.864H394.742ZM423.561 424V411.592H420.153V418.096C420.153 419.36 419.945 420.272 419.529 420.832C419.113 421.376 418.441 421.648 417.513 421.648C416.697 421.648 416.129 421.4 415.809 420.904C415.489 420.392 415.329 419.624 415.329 418.6V411.592H411.921V419.224C411.921 419.992 411.985 420.696 412.113 421.336C412.257 421.96 412.497 422.496 412.833 422.944C413.169 423.376 413.625 423.712 414.201 423.952C414.793 424.192 415.545 424.312 416.457 424.312C417.177 424.312 417.881 424.152 418.569 423.832C419.257 423.512 419.817 422.992 420.249 422.272H420.321V424H423.561ZM434.994 417.808C434.994 418.32 434.938 418.816 434.826 419.296C434.714 419.776 434.538 420.2 434.298 420.568C434.058 420.936 433.754 421.232 433.386 421.456C433.034 421.664 432.602 421.768 432.09 421.768C431.594 421.768 431.162 421.664 430.794 421.456C430.426 421.232 430.122 420.936 429.882 420.568C429.642 420.2 429.466 419.776 429.354 419.296C429.242 418.816 429.186 418.32 429.186 417.808C429.186 417.28 429.242 416.776 429.354 416.296C429.466 415.816 429.642 415.392 429.882 415.024C430.122 414.656 430.426 414.368 430.794 414.16C431.162 413.936 431.594 413.824 432.09 413.824C432.602 413.824 433.034 413.936 433.386 414.16C433.754 414.368 434.058 414.656 434.298 415.024C434.538 415.392 434.714 415.816 434.826 416.296C434.938 416.776 434.994 417.28 434.994 417.808ZM425.898 406.864V424H429.138V422.416H429.186C429.554 423.104 430.098 423.592 430.818 423.88C431.538 424.168 432.354 424.312 433.266 424.312C433.89 424.312 434.506 424.184 435.114 423.928C435.722 423.672 436.266 423.28 436.746 422.752C437.242 422.224 437.642 421.552 437.946 420.736C438.25 419.904 438.402 418.92 438.402 417.784C438.402 416.648 438.25 415.672 437.946 414.856C437.642 414.024 437.242 413.344 436.746 412.816C436.266 412.288 435.722 411.896 435.114 411.64C434.506 411.384 433.89 411.256 433.266 411.256C432.498 411.256 431.754 411.408 431.034 411.712C430.33 412 429.77 412.464 429.354 413.104H429.306V406.864H425.898Z"/><g filter="url(#filter2_d)"><rect width="136.743" height="176.012" fill="url(#paint5_linear)" rx="22" transform="matrix(0.965926 -0.258819 0 1 157 201.392)"/></g><g clip-path="url(#clip0)"><path fill="#121212" d="M250.81 280.177C252.099 279.385 253.302 278.461 254.397 277.418C254.607 277.213 254.81 277.011 255.01 276.806C255.776 276.027 256.483 275.193 257.125 274.31C257.78 273.413 258.344 272.453 258.811 271.445C259.451 270.07 259.844 268.593 259.971 267.082C260.368 261.923 257.304 256.794 250.471 252.657L222.956 236L190.882 266.656L170 286.615L198.963 304.15C203.602 306.982 208.93 308.492 214.368 308.516C221.014 308.516 227.383 306.175 232.082 301.681C237.192 296.796 238.888 290.475 235.736 285.221C235.223 284.368 234.615 283.576 233.922 282.861C235.614 283.238 237.342 283.43 239.075 283.433H239.115C241.943 283.438 244.747 282.916 247.383 281.893C248.574 281.423 249.721 280.849 250.81 280.177V280.177ZM223.993 296.089C218.84 301.013 210.551 301.737 203.804 297.658L183.764 285.524L201.753 268.327L222.132 280.666C229.474 285.106 229.071 291.233 223.993 296.089ZM226.375 274.215L207.532 262.804L224.71 246.376L243.211 257.576C250.129 261.758 251.028 267.42 246.025 272.209C243.431 274.66 240.097 276.186 236.542 276.548C232.988 276.911 229.413 276.091 226.375 274.215V274.215ZM234.338 324.763C229.119 329.751 222.025 332.502 214.368 332.502C208.333 332.478 202.42 330.803 197.273 327.66L170 311.163V317.726L198.963 335.261C203.602 338.094 208.929 339.605 214.368 339.63C221.014 339.63 227.383 337.286 232.082 332.795C235.517 329.512 237.416 325.577 237.331 321.757V321.281C236.451 322.541 235.449 323.711 234.338 324.774V324.763ZM234.338 314.387C229.119 319.376 222.025 322.124 214.368 322.124C208.333 322.099 202.421 320.426 197.273 317.285L170 300.79V307.356L198.963 324.891C203.602 327.723 208.929 329.234 214.368 329.259C221.014 329.259 227.383 326.915 232.082 322.425C235.517 319.142 237.416 315.207 237.331 311.384V310.91C236.451 312.17 235.449 313.34 234.338 314.403V314.387ZM234.338 304.012C229.119 309.003 222.025 311.751 214.368 311.751C208.333 311.726 202.421 310.053 197.273 306.911L170 290.419V296.985L198.963 314.52C203.602 317.352 208.93 318.862 214.368 318.886C221.014 318.886 227.383 316.545 232.082 312.054C235.517 308.768 237.416 304.836 237.331 301.013V300.529C236.454 301.793 235.451 302.966 234.338 304.03V304.012ZM256.661 310.86C252.308 314.996 246.611 317.438 240.606 317.739V324.859C245.768 324.573 250.66 322.463 254.405 318.907C258.138 315.348 260.043 311.429 260.005 307.563V306.981C259.026 308.39 257.905 309.696 256.661 310.878V310.86ZM234.338 335.125C229.119 340.116 222.025 342.865 214.368 342.865C208.333 342.841 202.42 341.166 197.273 338.023L170 321.533V328.099L198.963 345.632C203.602 348.464 208.929 349.975 214.368 350C221.014 350 227.383 347.659 232.082 343.165C235.517 339.882 237.416 335.948 237.331 332.127V331.651C236.453 332.912 235.45 334.082 234.338 335.144V335.125ZM257.21 279.219C257.029 279.402 256.85 279.586 256.664 279.767C255.775 280.602 254.827 281.371 253.826 282.068C252.842 282.765 251.808 283.387 250.732 283.931C248.526 285.041 246.168 285.822 243.734 286.248C242.487 286.479 241.225 286.618 239.958 286.665C240.091 287.094 240.198 287.53 240.291 287.969C240.513 289.018 240.615 290.089 240.595 291.162V293.732H240.608C242.925 293.59 245.205 293.092 247.369 292.255C249.985 291.234 252.375 289.714 254.407 287.78C254.621 287.575 254.807 287.365 255.01 287.158C255.777 286.38 256.483 285.546 257.125 284.662C257.779 283.767 258.344 282.81 258.811 281.805C259.45 280.425 259.84 278.943 259.963 277.428C259.987 277.101 260.016 276.771 260.013 276.444V275.907C259.821 276.18 259.621 276.454 259.413 276.729C258.733 277.605 257.998 278.437 257.21 279.219V279.219ZM257.21 299.949C257.026 300.135 256.861 300.324 256.677 300.508C252.323 304.644 246.626 307.085 240.622 307.388V307.388V314.483C245.784 314.197 250.676 312.088 254.421 308.532C256.253 306.834 257.743 304.802 258.811 302.546C259.449 301.167 259.839 299.686 259.963 298.172C259.987 297.842 260.016 297.515 260.013 297.185V296.602C259.816 296.887 259.624 297.174 259.408 297.456C258.731 298.334 257.996 299.167 257.21 299.949V299.949ZM257.21 289.573C257.026 289.76 256.861 289.948 256.677 290.132C255.79 290.968 254.842 291.737 253.842 292.433C252.856 293.13 251.819 293.752 250.74 294.296C247.592 295.888 244.146 296.811 240.622 297.004V297.004V304.107C245.784 303.821 250.675 301.711 254.421 298.156C254.634 297.951 254.821 297.741 255.023 297.533C255.79 296.755 256.497 295.921 257.138 295.038C257.788 294.14 258.348 293.182 258.811 292.175C259.449 290.796 259.839 289.316 259.963 287.801C259.987 287.472 260.016 287.142 260.013 286.814V286.229C259.816 286.517 259.624 286.804 259.408 287.086C258.731 287.964 257.996 288.796 257.21 289.579V289.573Z"/></g><path fill="#fff" d="M162.424 416.066V412.058H165.952C166.288 412.058 166.608 412.09 166.912 412.154C167.232 412.202 167.512 412.298 167.752 412.442C167.992 412.586 168.184 412.786 168.328 413.042C168.472 413.298 168.544 413.626 168.544 414.026C168.544 414.746 168.328 415.266 167.896 415.586C167.464 415.906 166.912 416.066 166.24 416.066H162.424ZM158.656 409.13V426.266H166.96C167.728 426.266 168.472 426.17 169.192 425.978C169.928 425.786 170.576 425.49 171.136 425.09C171.712 424.69 172.168 424.178 172.504 423.554C172.84 422.914 173.008 422.162 173.008 421.298C173.008 420.226 172.744 419.314 172.216 418.562C171.704 417.794 170.92 417.258 169.864 416.954C170.632 416.586 171.208 416.114 171.592 415.538C171.992 414.962 172.192 414.242 172.192 413.378C172.192 412.578 172.056 411.906 171.784 411.362C171.528 410.818 171.16 410.386 170.68 410.066C170.2 409.73 169.624 409.49 168.952 409.346C168.28 409.202 167.536 409.13 166.72 409.13H158.656ZM162.424 423.338V418.634H166.528C167.344 418.634 168 418.826 168.496 419.21C168.992 419.578 169.24 420.202 169.24 421.082C169.24 421.53 169.16 421.898 169 422.186C168.856 422.474 168.656 422.706 168.4 422.882C168.144 423.042 167.848 423.162 167.512 423.242C167.176 423.306 166.824 423.338 166.456 423.338H162.424ZM174.8 417.674C174.848 416.874 175.048 416.21 175.4 415.682C175.752 415.154 176.2 414.73 176.744 414.41C177.288 414.09 177.896 413.866 178.568 413.738C179.256 413.594 179.944 413.522 180.632 413.522C181.256 413.522 181.888 413.57 182.528 413.666C183.168 413.746 183.752 413.914 184.28 414.17C184.808 414.426 185.24 414.786 185.576 415.25C185.912 415.698 186.08 416.298 186.08 417.05V423.506C186.08 424.066 186.112 424.602 186.176 425.114C186.24 425.626 186.352 426.01 186.512 426.266H183.056C182.992 426.074 182.936 425.882 182.888 425.69C182.856 425.482 182.832 425.274 182.816 425.066C182.272 425.626 181.632 426.018 180.896 426.242C180.16 426.466 179.408 426.578 178.64 426.578C178.048 426.578 177.496 426.506 176.984 426.362C176.472 426.218 176.024 425.994 175.64 425.69C175.256 425.386 174.952 425.002 174.728 424.538C174.52 424.074 174.416 423.522 174.416 422.882C174.416 422.178 174.536 421.602 174.776 421.154C175.032 420.69 175.352 420.322 175.736 420.05C176.136 419.778 176.584 419.578 177.08 419.45C177.592 419.306 178.104 419.194 178.616 419.114C179.128 419.034 179.632 418.97 180.128 418.922C180.624 418.874 181.064 418.802 181.448 418.706C181.832 418.61 182.136 418.474 182.36 418.298C182.584 418.106 182.688 417.834 182.672 417.482C182.672 417.114 182.608 416.826 182.48 416.618C182.368 416.394 182.208 416.226 182 416.114C181.808 415.986 181.576 415.906 181.304 415.874C181.048 415.826 180.768 415.802 180.464 415.802C179.792 415.802 179.264 415.946 178.88 416.234C178.496 416.522 178.272 417.002 178.208 417.674H174.8ZM182.672 420.194C182.528 420.322 182.344 420.426 182.12 420.506C181.912 420.57 181.68 420.626 181.424 420.674C181.184 420.722 180.928 420.762 180.656 420.794C180.384 420.826 180.112 420.866 179.84 420.914C179.584 420.962 179.328 421.026 179.072 421.106C178.832 421.186 178.616 421.298 178.424 421.442C178.248 421.57 178.104 421.738 177.992 421.946C177.88 422.154 177.824 422.418 177.824 422.738C177.824 423.042 177.88 423.298 177.992 423.506C178.104 423.714 178.256 423.882 178.448 424.01C178.64 424.122 178.864 424.202 179.12 424.25C179.376 424.298 179.64 424.322 179.912 424.322C180.584 424.322 181.104 424.21 181.472 423.986C181.84 423.762 182.112 423.498 182.288 423.194C182.464 422.874 182.568 422.554 182.6 422.234C182.648 421.914 182.672 421.658 182.672 421.466V420.194ZM196.924 418.226H200.26C200.212 417.426 200.02 416.738 199.684 416.162C199.348 415.57 198.908 415.082 198.364 414.698C197.836 414.298 197.228 414.002 196.54 413.81C195.868 413.618 195.164 413.522 194.428 413.522C193.42 413.522 192.524 413.69 191.74 414.026C190.956 414.362 190.292 414.834 189.748 415.442C189.204 416.034 188.788 416.746 188.5 417.578C188.228 418.394 188.092 419.282 188.092 420.242C188.092 421.17 188.244 422.026 188.548 422.81C188.852 423.578 189.276 424.242 189.82 424.802C190.364 425.362 191.02 425.802 191.788 426.122C192.572 426.426 193.428 426.578 194.356 426.578C196.004 426.578 197.356 426.146 198.412 425.282C199.468 424.418 200.108 423.162 200.332 421.514H197.044C196.932 422.282 196.652 422.898 196.204 423.362C195.772 423.81 195.148 424.034 194.332 424.034C193.804 424.034 193.356 423.914 192.988 423.674C192.62 423.434 192.324 423.13 192.1 422.762C191.892 422.378 191.74 421.954 191.644 421.49C191.548 421.026 191.5 420.57 191.5 420.122C191.5 419.658 191.548 419.194 191.644 418.73C191.74 418.25 191.9 417.818 192.124 417.434C192.364 417.034 192.668 416.714 193.036 416.474C193.404 416.218 193.86 416.09 194.404 416.09C195.86 416.09 196.7 416.802 196.924 418.226ZM202.319 409.13V426.266H205.727V421.994L207.047 420.722L210.455 426.266H214.583L209.375 418.418L214.055 413.858H210.023L205.727 418.322V409.13H202.319ZM218.178 422.234H214.938C214.97 423.066 215.154 423.762 215.49 424.322C215.842 424.866 216.282 425.306 216.81 425.642C217.354 425.978 217.97 426.218 218.658 426.362C219.346 426.506 220.05 426.578 220.77 426.578C221.474 426.578 222.162 426.506 222.834 426.362C223.522 426.234 224.13 426.002 224.658 425.666C225.186 425.33 225.61 424.89 225.93 424.346C226.266 423.786 226.434 423.098 226.434 422.282C226.434 421.706 226.322 421.226 226.098 420.842C225.874 420.442 225.578 420.114 225.21 419.858C224.842 419.586 224.418 419.37 223.938 419.21C223.474 419.05 222.994 418.914 222.498 418.802C222.018 418.69 221.546 418.586 221.082 418.49C220.618 418.394 220.202 418.29 219.834 418.178C219.482 418.05 219.194 417.89 218.97 417.698C218.746 417.506 218.634 417.258 218.634 416.954C218.634 416.698 218.698 416.498 218.826 416.354C218.954 416.194 219.106 416.074 219.282 415.994C219.474 415.914 219.682 415.866 219.906 415.85C220.13 415.818 220.338 415.802 220.53 415.802C221.138 415.802 221.666 415.922 222.114 416.162C222.562 416.386 222.81 416.826 222.858 417.482H226.098C226.034 416.714 225.834 416.082 225.498 415.586C225.178 415.074 224.77 414.666 224.274 414.362C223.778 414.058 223.21 413.842 222.57 413.714C221.946 413.586 221.298 413.522 220.626 413.522C219.954 413.522 219.298 413.586 218.658 413.714C218.018 413.826 217.442 414.034 216.93 414.338C216.418 414.626 216.002 415.026 215.682 415.538C215.378 416.05 215.226 416.706 215.226 417.506C215.226 418.05 215.338 418.514 215.562 418.898C215.786 419.266 216.082 419.578 216.45 419.834C216.818 420.074 217.234 420.274 217.698 420.434C218.178 420.578 218.666 420.706 219.162 420.818C220.378 421.074 221.322 421.33 221.994 421.586C222.682 421.842 223.026 422.226 223.026 422.738C223.026 423.042 222.954 423.298 222.81 423.506C222.666 423.698 222.482 423.858 222.258 423.986C222.05 424.098 221.81 424.186 221.538 424.25C221.282 424.298 221.034 424.322 220.794 424.322C220.458 424.322 220.13 424.282 219.81 424.202C219.506 424.122 219.234 424.002 218.994 423.842C218.754 423.666 218.554 423.45 218.394 423.194C218.25 422.922 218.178 422.602 218.178 422.234ZM232.499 413.858V410.138H229.091V413.858H227.027V416.138H229.091V423.458C229.091 424.082 229.195 424.586 229.403 424.97C229.611 425.354 229.891 425.65 230.243 425.858C230.611 426.066 231.027 426.202 231.491 426.266C231.971 426.346 232.475 426.386 233.003 426.386C233.339 426.386 233.683 426.378 234.035 426.362C234.387 426.346 234.707 426.314 234.995 426.266V423.626C234.835 423.658 234.667 423.682 234.491 423.698C234.315 423.714 234.131 423.722 233.939 423.722C233.363 423.722 232.979 423.626 232.787 423.434C232.595 423.242 232.499 422.858 232.499 422.282V416.138H234.995V413.858H232.499ZM236.222 417.674C236.27 416.874 236.47 416.21 236.822 415.682C237.174 415.154 237.622 414.73 238.166 414.41C238.71 414.09 239.318 413.866 239.99 413.738C240.678 413.594 241.366 413.522 242.054 413.522C242.678 413.522 243.31 413.57 243.95 413.666C244.59 413.746 245.174 413.914 245.702 414.17C246.23 414.426 246.662 414.786 246.998 415.25C247.334 415.698 247.502 416.298 247.502 417.05V423.506C247.502 424.066 247.534 424.602 247.598 425.114C247.662 425.626 247.774 426.01 247.934 426.266H244.478C244.414 426.074 244.358 425.882 244.31 425.69C244.278 425.482 244.254 425.274 244.238 425.066C243.694 425.626 243.054 426.018 242.318 426.242C241.582 426.466 240.83 426.578 240.062 426.578C239.47 426.578 238.918 426.506 238.406 426.362C237.894 426.218 237.446 425.994 237.062 425.69C236.678 425.386 236.374 425.002 236.15 424.538C235.942 424.074 235.838 423.522 235.838 422.882C235.838 422.178 235.958 421.602 236.198 421.154C236.454 420.69 236.774 420.322 237.158 420.05C237.558 419.778 238.006 419.578 238.502 419.45C239.014 419.306 239.526 419.194 240.038 419.114C240.55 419.034 241.054 418.97 241.55 418.922C242.046 418.874 242.486 418.802 242.87 418.706C243.254 418.61 243.558 418.474 243.782 418.298C244.006 418.106 244.11 417.834 244.094 417.482C244.094 417.114 244.03 416.826 243.902 416.618C243.79 416.394 243.63 416.226 243.422 416.114C243.23 415.986 242.998 415.906 242.726 415.874C242.47 415.826 242.19 415.802 241.886 415.802C241.214 415.802 240.686 415.946 240.302 416.234C239.918 416.522 239.694 417.002 239.63 417.674H236.222ZM244.094 420.194C243.95 420.322 243.766 420.426 243.542 420.506C243.334 420.57 243.102 420.626 242.846 420.674C242.606 420.722 242.35 420.762 242.078 420.794C241.806 420.826 241.534 420.866 241.262 420.914C241.006 420.962 240.75 421.026 240.494 421.106C240.254 421.186 240.038 421.298 239.846 421.442C239.67 421.57 239.526 421.738 239.414 421.946C239.302 422.154 239.246 422.418 239.246 422.738C239.246 423.042 239.302 423.298 239.414 423.506C239.526 423.714 239.678 423.882 239.87 424.01C240.062 424.122 240.286 424.202 240.542 424.25C240.798 424.298 241.062 424.322 241.334 424.322C242.006 424.322 242.526 424.21 242.894 423.986C243.262 423.762 243.534 423.498 243.71 423.194C243.886 422.874 243.99 422.554 244.022 422.234C244.07 421.914 244.094 421.658 244.094 421.466V420.194ZM255.682 423.338C255.154 423.338 254.714 423.226 254.362 423.002C254.01 422.778 253.722 422.49 253.498 422.138C253.29 421.786 253.138 421.394 253.042 420.962C252.962 420.514 252.922 420.066 252.922 419.618C252.922 419.154 252.97 418.714 253.066 418.298C253.178 417.866 253.346 417.49 253.57 417.17C253.81 416.834 254.098 416.57 254.434 416.378C254.786 416.186 255.202 416.09 255.682 416.09C256.242 416.09 256.706 416.194 257.074 416.402C257.442 416.61 257.738 416.89 257.962 417.242C258.186 417.594 258.346 418.002 258.442 418.466C258.538 418.914 258.586 419.394 258.586 419.906C258.586 420.354 258.522 420.786 258.394 421.202C258.282 421.602 258.106 421.962 257.866 422.282C257.626 422.602 257.322 422.858 256.954 423.05C256.586 423.242 256.162 423.338 255.682 423.338ZM261.826 425.474V413.858H258.586V415.514H258.538C258.122 414.794 257.602 414.282 256.978 413.978C256.37 413.674 255.658 413.522 254.842 413.522C253.978 413.522 253.21 413.69 252.538 414.026C251.882 414.362 251.33 414.818 250.882 415.394C250.434 415.954 250.09 416.61 249.85 417.362C249.626 418.098 249.514 418.866 249.514 419.666C249.514 420.514 249.61 421.322 249.802 422.09C250.01 422.842 250.33 423.506 250.762 424.082C251.194 424.642 251.746 425.09 252.418 425.426C253.09 425.746 253.89 425.906 254.818 425.906C255.57 425.906 256.282 425.754 256.954 425.45C257.642 425.13 258.17 424.642 258.538 423.986H258.586V425.618C258.602 426.498 258.386 427.226 257.938 427.802C257.506 428.378 256.81 428.666 255.85 428.666C255.242 428.666 254.706 428.538 254.242 428.282C253.778 428.042 253.466 427.602 253.306 426.962H249.922C249.97 427.666 250.162 428.266 250.498 428.762C250.85 429.274 251.282 429.69 251.794 430.01C252.322 430.33 252.898 430.562 253.522 430.706C254.162 430.866 254.786 430.946 255.394 430.946C256.818 430.946 257.954 430.754 258.802 430.37C259.65 429.986 260.298 429.514 260.746 428.954C261.194 428.41 261.482 427.818 261.61 427.178C261.754 426.538 261.826 425.97 261.826 425.474ZM272.671 418.73H267.127C267.143 418.49 267.191 418.218 267.271 417.914C267.367 417.61 267.519 417.322 267.727 417.05C267.951 416.778 268.239 416.554 268.591 416.378C268.959 416.186 269.415 416.09 269.959 416.09C270.791 416.09 271.407 416.314 271.807 416.762C272.223 417.21 272.511 417.866 272.671 418.73ZM267.127 420.89H276.079C276.143 419.93 276.063 419.01 275.839 418.13C275.615 417.25 275.247 416.466 274.735 415.778C274.239 415.09 273.599 414.546 272.815 414.146C272.031 413.73 271.111 413.522 270.055 413.522C269.111 413.522 268.247 413.69 267.463 414.026C266.695 414.362 266.031 414.826 265.471 415.418C264.911 415.994 264.479 416.682 264.175 417.482C263.871 418.282 263.719 419.146 263.719 420.074C263.719 421.034 263.863 421.914 264.151 422.714C264.455 423.514 264.879 424.202 265.423 424.778C265.967 425.354 266.631 425.802 267.415 426.122C268.199 426.426 269.079 426.578 270.055 426.578C271.463 426.578 272.663 426.258 273.655 425.618C274.647 424.978 275.383 423.914 275.863 422.426H272.863C272.751 422.81 272.447 423.178 271.951 423.53C271.455 423.866 270.863 424.034 270.175 424.034C269.215 424.034 268.479 423.786 267.967 423.29C267.455 422.794 267.175 421.994 267.127 420.89Z"/><defs><filter id="filter0_d" width="148.903" height="215.048" x="560" y="167.571" color-interpolation-filters="sRGB" filterUnits="userSpaceOnUse"><feFlood flood-opacity="0" result="BackgroundImageFix"/><feColorMatrix in="SourceAlpha" type="matrix" values="0 0 0 0 0 0 0 0 0 0 0 0 0 0 0 0 0 0 127 0"/><feOffset dx="3" dy="3"/><feGaussianBlur stdDeviation="4"/><feColorMatrix type="matrix" values="0 0 0 0 0 0 0 0 0 0 0 0 0 0 0 0 0 0 0.25 0"/><feBlend in2="BackgroundImageFix" mode="normal" result="effect1_dropShadow"/><feBlend in="SourceGraphic" in2="effect1_dropShadow" mode="normal" result="shape"/></filter><filter id="filter1_d" width="148.083" height="217.477" x="356.001" y="165.964" color-interpolation-filters="sRGB" filterUnits="userSpaceOnUse"><feFlood flood-opacity="0" result="BackgroundImageFix"/><feColorMatrix in="SourceAlpha" type="matrix" values="0 0 0 0 0 0 0 0 0 0 0 0 0 0 0 0 0 0 127 0"/><feOffset dx="3" dy="3"/><feGaussianBlur stdDeviation="4"/><feColorMatrix type="matrix" values="0 0 0 0 0 0 0 0 0 0 0 0 0 0 0 0 0 0 0.25 0"/><feBlend in2="BackgroundImageFix" mode="normal" result="effect1_dropShadow"/><feBlend in="SourceGraphic" in2="effect1_dropShadow" mode="normal" result="shape"/></filter><filter id="filter2_d" width="148.083" height="217.477" x="152" y="165.964" color-interpolation-filters="sRGB" filterUnits="userSpaceOnUse"><feFlood flood-opacity="0" result="BackgroundImageFix"/><feColorMatrix in="SourceAlpha" type="matrix" values="0 0 0 0 0 0 0 0 0 0 0 0 0 0 0 0 0 0 127 0"/><feOffset dx="3" dy="3"/><feGaussianBlur stdDeviation="4"/><feColorMatrix type="matrix" values="0 0 0 0 0 0 0 0 0 0 0 0 0 0 0 0 0 0 0.25 0"/><feBlend in2="BackgroundImageFix" mode="normal" result="effect1_dropShadow"/><feBlend in="SourceGraphic" in2="effect1_dropShadow" mode="normal" result="shape"/></filter><linearGradient id="paint0_linear" x1="-333.5" x2="393.63" y1="710.794" y2="261.327" gradientUnits="userSpaceOnUse"><stop offset=".041" stop-color="#9BF0E1"/><stop offset="1" stop-color="#9BF0E1" stop-opacity=".11"/></linearGradient><linearGradient id="paint1_linear" x1="288.82" x2="554.885" y1="640.516" y2="351.452" gradientUnits="userSpaceOnUse"><stop offset=".041" stop-color="#9BF0E1"/><stop offset="1" stop-color="#9BF0E1" stop-opacity=".13"/></linearGradient><linearGradient id="paint2_linear" x1="-162.135" x2="127.403" y1="237.339" y2="32.055" gradientUnits="userSpaceOnUse"><stop offset=".041" stop-color="#9BF0E1"/><stop offset="1" stop-color="#9BF0E1" stop-opacity=".1"/></linearGradient><linearGradient id="paint3_linear" x1="68.371" x2="68.371" y1="0" y2="176.012" gradientUnits="userSpaceOnUse"><stop stop-color="#757575"/><stop offset="1" stop-color="#282828"/></linearGradient><linearGradient id="paint4_linear" x1="68.371" x2="68.371" y1="0" y2="176.012" gradientUnits="userSpaceOnUse"><stop stop-color="#509BF5"/><stop offset="1" stop-color="#1975E2"/></linearGradient><linearGradient id="paint5_linear" x1="68.371" x2="68.371" y1="0" y2="176.012" gradientUnits="userSpaceOnUse"><stop stop-color="#9BF0E1"/><stop offset="1" stop-color="#36BAA2"/></linearGradient><clipPath id="clip0"><rect width="90" height="114" x="170" y="236" fill="#fff"/></clipPath></defs></svg>