<svg xmlns="http://www.w3.org/2000/svg" width="845" height="568" fill="none" viewBox="0 0 845 568"><rect width="589" height="408" x="41" y="82" fill="url(#a)" rx="4"/><rect width="340" height="134" x="505" y="434" fill="url(#b)" rx="4"/><rect width="255" height="154" fill="url(#c)" rx="4"/><g filter="url(#d)"><rect width="136.743" height="176.012" fill="url(#e)" rx="22" transform="matrix(-.97192 .23532 0 1 697.902 168)"/></g><rect width="90.346" height="5.61" fill="#C4C4C4" rx="2.805" transform="matrix(-.96245 .27144 0 1 682.275 224.065)"/><rect width="72.929" height="5.61" fill="#9AEEDF" rx="2.805" transform="matrix(-.96245 .27144 0 1 654.002 246.181)"/><rect width="84.85" height="6.311" fill="#C4C4C4" rx="3.156" transform="matrix(-.96245 .27144 0 1 677.275 212.04)"/><rect width="44.178" height="5.61" fill="#9BF0E1" rx="2.805" transform="matrix(-.96245 .27144 0 1 627.002 213.21)"/><rect width="56.801" height="5.61" fill="#F037A5" rx="2.805" transform="matrix(-.96245 .27144 0 1 638.67 197)"/><rect width="46.63" height="5.61" fill="#F037A5" rx="2.805" transform="matrix(-.96245 .27144 0 1 629.002 266.804)"/><path fill="#fff" d="M566.657 406.864V424h3.768v-17.136h-3.768Zm10.596 13.968v-10.8h2.688c.928 0 1.704.136 2.328.408.64.256 1.152.632 1.536 1.128.384.496.656 1.096.816 1.8.176.688.264 1.464.264 2.328 0 .944-.12 1.744-.36 2.4-.24.656-.56 1.192-.96 1.608-.4.4-.856.688-1.368.864a4.84 4.84 0 0 1-1.584.264h-3.36Zm-3.768-13.968V424h7.392c1.312 0 2.448-.216 3.408-.648.976-.448 1.784-1.056 2.424-1.824.656-.768 1.144-1.68 1.464-2.736.32-1.056.48-2.208.48-3.456 0-1.424-.2-2.664-.6-3.72-.384-1.056-.928-1.936-1.632-2.64a6.567 6.567 0 0 0-2.472-1.584c-.944-.352-1.968-.528-3.072-.528h-7.392Zm17.539 0V424h13.008v-3.168h-9.24v-4.2h8.304v-2.928h-8.304v-3.672h9.048v-3.168h-12.816Z"/><g filter="url(#f)"><rect width="136.743" height="176.012" fill="url(#g)" rx="22" transform="matrix(-.96593 .25882 0 1 493.084 166)"/></g><path fill="#388AED" d="m477.951 265.123-12.675 3.396v13.122l12.675-3.396zm-16.129 21.037-12.675 3.396v13.122l12.675-3.396zm0-16.83-12.675 3.396v13.122l12.675-3.396z"/><path fill="#88BEFF" d="m445.694 290.367-12.675 3.396v13.122l12.675-3.396zm0-16.829-12.675 3.396v13.122l12.675-3.396zm16.128 29.452-12.675 3.396v13.122l12.675-3.396z"/><path fill="#388AED" d="m461.822 319.82-12.675 3.396v13.122l12.675-3.396z"/><path fill="#88BEFF" d="m477.951 315.612-12.675 3.396v13.122l12.675-3.396z"/><path fill="#388AED" d="m477.951 298.782-12.675 3.396V315.3l12.675-3.396zm0-16.829-12.675 3.396v13.122l12.675-3.396zm-16.129-46.282-12.675 3.396v13.122l12.675-3.396zm0 16.829-12.675 3.396v13.122l12.675-3.396zm16.129-4.207-12.675 3.396v13.122l12.675-3.396z"/><path fill="#88BEFF" d="m477.951 230.762-12.675 3.396v13.122l12.675-3.396z"/><path fill="#388AED" d="m445.694 256.708-12.675 3.396v13.122l12.675-3.396zm-32.257 42.074-12.675 3.396V315.3l12.675-3.396z"/><path fill="#88BEFF" d="m413.437 332.442-12.675 3.396v13.122l12.675-3.396zm0-16.83-12.675 3.396v13.122l12.675-3.396z"/><path fill="#388AED" d="m397.309 336.649-12.675 3.396v13.122l12.675-3.396zm0-16.829-12.675 3.396v13.122l12.675-3.396zm32.256 8.415-12.675 3.396v13.122l12.675-3.396zm16.129-4.208-12.675 3.396v13.122l12.675-3.396zm0-16.829-12.675 3.396v13.122l12.675-3.396zm-16.129-12.623-12.675 3.396v13.122l12.675-3.396zm0-16.83-12.675 3.396v13.122l12.675-3.396zm0 33.66-12.675 3.396v13.122l12.675-3.396z"/><path fill="#fff" d="m375.04 422.056.384 1.944h2.4v-9.264h-7.2v2.808h3.792c-.112 1.2-.512 2.12-1.2 2.76-.672.624-1.632.936-2.88.936-.848 0-1.568-.16-2.16-.48a4.231 4.231 0 0 1-1.44-1.32 5.89 5.89 0 0 1-.816-1.824 9.293 9.293 0 0 1-.24-2.112c0-.752.08-1.48.24-2.184a5.835 5.835 0 0 1 .816-1.872c.368-.56.848-1 1.44-1.32.592-.336 1.312-.504 2.16-.504.912 0 1.688.24 2.328.72.64.48 1.072 1.2 1.296 2.16h3.6c-.096-.976-.36-1.84-.792-2.592a6.301 6.301 0 0 0-1.656-1.896 6.88 6.88 0 0 0-2.232-1.152 7.992 7.992 0 0 0-2.544-.408c-1.312 0-2.496.232-3.552.696a7.599 7.599 0 0 0-2.64 1.92c-.72.816-1.272 1.776-1.656 2.88-.384 1.088-.576 2.272-.576 3.552 0 1.248.192 2.416.576 3.504a8.363 8.363 0 0 0 1.656 2.808c.72.8 1.6 1.432 2.64 1.896 1.056.448 2.24.672 3.552.672.832 0 1.656-.168 2.472-.504.816-.352 1.56-.96 2.232-1.824Zm8.721-12.384v-2.808h-3.408v2.808h3.408Zm-3.408 1.92V424h3.408v-12.408h-3.408Zm10.161 0v-3.72h-3.408v3.72h-2.064v2.28h2.064v7.32c0 .624.104 1.128.312 1.512.208.384.488.68.84.888.368.208.784.344 1.248.408.48.08.984.12 1.512.12.336 0 .68-.008 1.032-.024a8.11 8.11 0 0 0 .96-.096v-2.64c-.16.032-.328.056-.504.072-.176.016-.36.024-.552.024-.576 0-.96-.096-1.152-.288-.192-.192-.288-.576-.288-1.152v-6.144h2.496v-2.28h-2.496Zm4.228-4.728V424h3.768v-7.392h6.936V424h3.768v-17.136h-3.768v6.576h-6.936v-6.576h-3.768ZM423.561 424v-12.408h-3.408v6.504c0 1.264-.208 2.176-.624 2.736-.416.544-1.088.816-2.016.816-.816 0-1.384-.248-1.704-.744-.32-.512-.48-1.28-.48-2.304v-7.008h-3.408v7.632c0 .768.064 1.472.192 2.112.144.624.384 1.16.72 1.608.336.432.792.768 1.368 1.008.592.24 1.344.36 2.256.36.72 0 1.424-.16 2.112-.48.688-.32 1.248-.84 1.68-1.56h.072V424h3.24Zm11.433-6.192c0 .512-.056 1.008-.168 1.488a3.95 3.95 0 0 1-.528 1.272c-.24.368-.544.664-.912.888-.352.208-.784.312-1.296.312-.496 0-.928-.104-1.296-.312a2.842 2.842 0 0 1-.912-.888 3.95 3.95 0 0 1-.528-1.272 6.527 6.527 0 0 1-.168-1.488c0-.528.056-1.032.168-1.512a3.95 3.95 0 0 1 .528-1.272c.24-.368.544-.656.912-.864.368-.224.8-.336 1.296-.336.512 0 .944.112 1.296.336.368.208.672.496.912.864s.416.792.528 1.272c.112.48.168.984.168 1.512Zm-9.096-10.944V424h3.24v-1.584h.048a3.107 3.107 0 0 0 1.632 1.464c.72.288 1.536.432 2.448.432.624 0 1.24-.128 1.848-.384a4.618 4.618 0 0 0 1.632-1.176c.496-.528.896-1.2 1.2-2.016.304-.832.456-1.816.456-2.952s-.152-2.112-.456-2.928c-.304-.832-.704-1.512-1.2-2.04a4.618 4.618 0 0 0-1.632-1.176 4.724 4.724 0 0 0-1.848-.384c-.768 0-1.512.152-2.232.456a3.574 3.574 0 0 0-1.68 1.392h-.048v-6.24h-3.408Z"/><g filter="url(#h)"><rect width="136.743" height="176.012" fill="url(#i)" rx="22" transform="matrix(.96593 -.25882 0 1 157 201.392)"/></g><g clip-path="url(#j)"><path fill="#121212" d="M250.81 280.177a21.578 21.578 0 0 0 3.587-2.759c.21-.205.413-.407.613-.612a22.076 22.076 0 0 0 2.115-2.496 16.913 16.913 0 0 0 1.686-2.865 12.9 12.9 0 0 0 1.16-4.363c.397-5.159-2.667-10.288-9.5-14.425L222.956 236l-32.074 30.656L170 286.615l28.963 17.535a29.82 29.82 0 0 0 15.405 4.366c6.646 0 13.015-2.341 17.714-6.835 5.11-4.885 6.806-11.206 3.654-16.46a13.064 13.064 0 0 0-1.814-2.36c1.692.377 3.42.569 5.153.572h.04a22.741 22.741 0 0 0 8.268-1.54 21.68 21.68 0 0 0 3.427-1.716Zm-26.817 15.912c-5.153 4.924-13.442 5.648-20.189 1.569l-20.04-12.134 17.989-17.197 20.379 12.339c7.342 4.44 6.939 10.567 1.861 15.423Zm2.382-21.874-18.843-11.411 17.178-16.428 18.501 11.2c6.918 4.182 7.817 9.844 2.814 14.633a16.216 16.216 0 0 1-19.65 2.006Zm7.963 50.548c-5.219 4.988-12.313 7.739-19.97 7.739a33.056 33.056 0 0 1-17.095-4.842L170 311.163v6.563l28.963 17.535a29.82 29.82 0 0 0 15.405 4.369c6.646 0 13.015-2.344 17.714-6.835 3.435-3.283 5.334-7.218 5.249-11.038v-.476a23.289 23.289 0 0 1-2.993 3.493v-.011Zm0-10.376c-5.219 4.989-12.313 7.737-19.97 7.737a33.084 33.084 0 0 1-17.095-4.839L170 300.79v6.566l28.963 17.535a29.828 29.828 0 0 0 15.405 4.368c6.646 0 13.015-2.344 17.714-6.834 3.435-3.283 5.334-7.218 5.249-11.041v-.474a23.289 23.289 0 0 1-2.993 3.493v-.016Zm0-10.375c-5.219 4.991-12.313 7.739-19.97 7.739a33.076 33.076 0 0 1-17.095-4.84L170 290.419v6.566l28.963 17.535a29.82 29.82 0 0 0 15.405 4.366c6.646 0 13.015-2.341 17.714-6.832 3.435-3.286 5.334-7.218 5.249-11.041v-.484a22.918 22.918 0 0 1-2.993 3.501v-.018Zm22.323 6.848a25.137 25.137 0 0 1-16.055 6.879v7.12a21.792 21.792 0 0 0 13.799-5.952c3.733-3.559 5.638-7.478 5.6-11.344v-.582a25.256 25.256 0 0 1-3.344 3.897v-.018Zm-22.323 24.265c-5.219 4.991-12.313 7.74-19.97 7.74a33.056 33.056 0 0 1-17.095-4.842L170 321.533v6.566l28.963 17.533A29.828 29.828 0 0 0 214.368 350c6.646 0 13.015-2.341 17.714-6.835 3.435-3.283 5.334-7.217 5.249-11.038v-.476a23.019 23.019 0 0 1-2.993 3.493v-.019Zm22.872-55.906c-.181.183-.36.367-.546.548a25.07 25.07 0 0 1-2.838 2.301 24.387 24.387 0 0 1-3.094 1.863 25.258 25.258 0 0 1-6.998 2.317c-1.247.231-2.509.37-3.776.417.133.429.24.865.333 1.304.222 1.049.324 2.12.304 3.193v2.57h.013a22.566 22.566 0 0 0 6.761-1.477 21.597 21.597 0 0 0 7.038-4.475c.214-.205.4-.415.603-.622a21.8 21.8 0 0 0 2.115-2.496 16.95 16.95 0 0 0 1.686-2.857 12.902 12.902 0 0 0 1.152-4.377c.024-.327.053-.657.05-.984v-.537c-.192.273-.392.547-.6.822a25.76 25.76 0 0 1-2.203 2.49Zm0 20.73c-.184.186-.349.375-.533.559a25.153 25.153 0 0 1-16.055 6.88v7.095a21.79 21.79 0 0 0 13.799-5.951 19.592 19.592 0 0 0 4.39-5.986 12.932 12.932 0 0 0 1.152-4.374c.024-.33.053-.657.05-.987v-.583c-.197.285-.389.572-.605.854a25.378 25.378 0 0 1-2.198 2.493Zm0-10.376c-.184.187-.349.375-.533.559a24.734 24.734 0 0 1-2.835 2.301 24.41 24.41 0 0 1-3.102 1.863 25.515 25.515 0 0 1-10.118 2.708v7.103a21.798 21.798 0 0 0 13.799-5.951c.213-.205.4-.415.602-.623a21.774 21.774 0 0 0 2.115-2.495c.65-.898 1.21-1.856 1.673-2.863a12.926 12.926 0 0 0 1.152-4.374c.024-.329.053-.659.05-.987v-.585c-.197.288-.389.575-.605.857a25.493 25.493 0 0 1-2.198 2.493v-.006Z"/></g><path fill="#fff" d="M162.424 416.066v-4.008h3.528c.336 0 .656.032.96.096.32.048.6.144.84.288s.432.344.576.6c.144.256.216.584.216.984 0 .72-.216 1.24-.648 1.56-.432.32-.984.48-1.656.48h-3.816Zm-3.768-6.936v17.136h8.304c.768 0 1.512-.096 2.232-.288a5.85 5.85 0 0 0 1.944-.888 4.358 4.358 0 0 0 1.368-1.536c.336-.64.504-1.392.504-2.256 0-1.072-.264-1.984-.792-2.736-.512-.768-1.296-1.304-2.352-1.608.768-.368 1.344-.84 1.728-1.416.4-.576.6-1.296.6-2.16 0-.8-.136-1.472-.408-2.016a3.118 3.118 0 0 0-1.104-1.296c-.48-.336-1.056-.576-1.728-.72a10.672 10.672 0 0 0-2.232-.216h-8.064Zm3.768 14.208v-4.704h4.104c.816 0 1.472.192 1.968.576.496.368.744.992.744 1.872 0 .448-.08.816-.24 1.104-.144.288-.344.52-.6.696-.256.16-.552.28-.888.36a5.635 5.635 0 0 1-1.056.096h-4.032Zm12.376-5.664c.048-.8.248-1.464.6-1.992s.8-.952 1.344-1.272a5.652 5.652 0 0 1 1.824-.672 10.05 10.05 0 0 1 2.064-.216c.624 0 1.256.048 1.896.144a5.57 5.57 0 0 1 1.752.504c.528.256.96.616 1.296 1.08.336.448.504 1.048.504 1.8v6.456c0 .56.032 1.096.096 1.608s.176.896.336 1.152h-3.456a7.815 7.815 0 0 1-.168-.576 8.277 8.277 0 0 1-.072-.624 4.441 4.441 0 0 1-1.92 1.176 7.706 7.706 0 0 1-2.256.336 6.095 6.095 0 0 1-1.656-.216 3.792 3.792 0 0 1-1.344-.672 3.243 3.243 0 0 1-.912-1.152c-.208-.464-.312-1.016-.312-1.656 0-.704.12-1.28.36-1.728.256-.464.576-.832.96-1.104.4-.272.848-.472 1.344-.6a13.192 13.192 0 0 1 1.536-.336 26.05 26.05 0 0 1 1.512-.192c.496-.048.936-.12 1.32-.216s.688-.232.912-.408c.224-.192.328-.464.312-.816 0-.368-.064-.656-.192-.864a1.128 1.128 0 0 0-.48-.504 1.565 1.565 0 0 0-.696-.24 4.566 4.566 0 0 0-.84-.072c-.672 0-1.2.144-1.584.432-.384.288-.608.768-.672 1.44H174.8Zm7.872 2.52a1.662 1.662 0 0 1-.552.312c-.208.064-.44.12-.696.168-.24.048-.496.088-.768.12s-.544.072-.816.12a6.734 6.734 0 0 0-.768.192c-.24.08-.456.192-.648.336-.176.128-.32.296-.432.504-.112.208-.168.472-.168.792 0 .304.056.56.168.768.112.208.264.376.456.504.192.112.416.192.672.24.256.048.52.072.792.072.672 0 1.192-.112 1.56-.336.368-.224.64-.488.816-.792.176-.32.28-.64.312-.96a5.45 5.45 0 0 0 .072-.768v-1.272Zm14.252-1.968h3.336c-.048-.8-.24-1.488-.576-2.064a4.464 4.464 0 0 0-1.32-1.464 5.383 5.383 0 0 0-1.824-.888 7.65 7.65 0 0 0-2.112-.288c-1.008 0-1.904.168-2.688.504a5.586 5.586 0 0 0-1.992 1.416c-.544.592-.96 1.304-1.248 2.136a8.378 8.378 0 0 0-.408 2.664c0 .928.152 1.784.456 2.568a5.983 5.983 0 0 0 1.272 1.992c.544.56 1.2 1 1.968 1.32.784.304 1.64.456 2.568.456 1.648 0 3-.432 4.056-1.296 1.056-.864 1.696-2.12 1.92-3.768h-3.288c-.112.768-.392 1.384-.84 1.848-.432.448-1.056.672-1.872.672-.528 0-.976-.12-1.344-.36a2.842 2.842 0 0 1-.888-.912 4.619 4.619 0 0 1-.456-1.272 6.74 6.74 0 0 1 0-2.76c.096-.48.256-.912.48-1.296.24-.4.544-.72.912-.96.368-.256.824-.384 1.368-.384 1.456 0 2.296.712 2.52 2.136Zm5.395-9.096v17.136h3.408v-4.272l1.32-1.272 3.408 5.544h4.128l-5.208-7.848 4.68-4.56h-4.032l-4.296 4.464v-9.192h-3.408Zm15.859 13.104h-3.24c.032.832.216 1.528.552 2.088.352.544.792.984 1.32 1.32.544.336 1.16.576 1.848.72.688.144 1.392.216 2.112.216.704 0 1.392-.072 2.064-.216a5.097 5.097 0 0 0 1.824-.696 3.864 3.864 0 0 0 1.272-1.32c.336-.56.504-1.248.504-2.064 0-.576-.112-1.056-.336-1.44-.224-.4-.52-.728-.888-.984a4.535 4.535 0 0 0-1.272-.648c-.464-.16-.944-.296-1.44-.408-.48-.112-.952-.216-1.416-.312-.464-.096-.88-.2-1.248-.312a2.769 2.769 0 0 1-.864-.48.935.935 0 0 1-.336-.744c0-.256.064-.456.192-.6.128-.16.28-.28.456-.36.192-.08.4-.128.624-.144.224-.032.432-.048.624-.048.608 0 1.136.12 1.584.36.448.224.696.664.744 1.32h3.24c-.064-.768-.264-1.4-.6-1.896a3.729 3.729 0 0 0-1.224-1.224 5.172 5.172 0 0 0-1.704-.648 9.652 9.652 0 0 0-1.944-.192c-.672 0-1.328.064-1.968.192-.64.112-1.216.32-1.728.624a3.447 3.447 0 0 0-1.248 1.2c-.304.512-.456 1.168-.456 1.968 0 .544.112 1.008.336 1.392.224.368.52.68.888.936.368.24.784.44 1.248.6.48.144.968.272 1.464.384 1.216.256 2.16.512 2.832.768.688.256 1.032.64 1.032 1.152 0 .304-.072.56-.216.768a1.788 1.788 0 0 1-.552.48c-.208.112-.448.2-.72.264a4.035 4.035 0 0 1-1.728-.048c-.304-.08-.576-.2-.816-.36a2.32 2.32 0 0 1-.6-.648 2.024 2.024 0 0 1-.216-.96Zm14.321-8.376v-3.72h-3.408v3.72h-2.064v2.28h2.064v7.32c0 .624.104 1.128.312 1.512.208.384.488.68.84.888.368.208.784.344 1.248.408.48.08.984.12 1.512.12.336 0 .68-.008 1.032-.024a8.11 8.11 0 0 0 .96-.096v-2.64c-.16.032-.328.056-.504.072-.176.016-.36.024-.552.024-.576 0-.96-.096-1.152-.288-.192-.192-.288-.576-.288-1.152v-6.144h2.496v-2.28h-2.496Zm3.723 3.816c.048-.8.248-1.464.6-1.992s.8-.952 1.344-1.272a5.652 5.652 0 0 1 1.824-.672 10.05 10.05 0 0 1 2.064-.216c.624 0 1.256.048 1.896.144a5.57 5.57 0 0 1 1.752.504c.528.256.96.616 1.296 1.08.336.448.504 1.048.504 1.8v6.456c0 .56.032 1.096.096 1.608s.176.896.336 1.152h-3.456a7.815 7.815 0 0 1-.168-.576 8.277 8.277 0 0 1-.072-.624 4.441 4.441 0 0 1-1.92 1.176 7.706 7.706 0 0 1-2.256.336 6.095 6.095 0 0 1-1.656-.216 3.792 3.792 0 0 1-1.344-.672 3.243 3.243 0 0 1-.912-1.152c-.208-.464-.312-1.016-.312-1.656 0-.704.12-1.28.36-1.728.256-.464.576-.832.96-1.104.4-.272.848-.472 1.344-.6a13.192 13.192 0 0 1 1.536-.336 26.05 26.05 0 0 1 1.512-.192c.496-.048.936-.12 1.32-.216s.688-.232.912-.408c.224-.192.328-.464.312-.816 0-.368-.064-.656-.192-.864a1.128 1.128 0 0 0-.48-.504 1.565 1.565 0 0 0-.696-.24 4.566 4.566 0 0 0-.84-.072c-.672 0-1.2.144-1.584.432-.384.288-.608.768-.672 1.44h-3.408Zm7.872 2.52a1.662 1.662 0 0 1-.552.312c-.208.064-.44.12-.696.168-.24.048-.496.088-.768.12s-.544.072-.816.12a6.734 6.734 0 0 0-.768.192c-.24.08-.456.192-.648.336-.176.128-.32.296-.432.504-.112.208-.168.472-.168.792 0 .304.056.56.168.768.112.208.264.376.456.504.192.112.416.192.672.24.256.048.52.072.792.072.672 0 1.192-.112 1.56-.336.368-.224.64-.488.816-.792.176-.32.28-.64.312-.96a5.45 5.45 0 0 0 .072-.768v-1.272Zm11.588 3.144c-.528 0-.968-.112-1.32-.336a2.783 2.783 0 0 1-.864-.864 4 4 0 0 1-.456-1.176 7.631 7.631 0 0 1-.12-1.344c0-.464.048-.904.144-1.32.112-.432.28-.808.504-1.128.24-.336.528-.6.864-.792.352-.192.768-.288 1.248-.288.56 0 1.024.104 1.392.312.368.208.664.488.888.84.224.352.384.76.48 1.224.096.448.144.928.144 1.44 0 .448-.064.88-.192 1.296-.112.4-.288.76-.528 1.08a2.66 2.66 0 0 1-.912.768c-.368.192-.792.288-1.272.288Zm6.144 2.136v-11.616h-3.24v1.656h-.048c-.416-.72-.936-1.232-1.56-1.536-.608-.304-1.32-.456-2.136-.456-.864 0-1.632.168-2.304.504a4.903 4.903 0 0 0-1.656 1.368 6.069 6.069 0 0 0-1.032 1.968 7.87 7.87 0 0 0-.336 2.304c0 .848.096 1.656.288 2.424.208.752.528 1.416.96 1.992.432.56.984 1.008 1.656 1.344.672.32 1.472.48 2.4.48.752 0 1.464-.152 2.136-.456a3.43 3.43 0 0 0 1.584-1.464h.048v1.632c.016.88-.2 1.608-.648 2.184-.432.576-1.128.864-2.088.864-.608 0-1.144-.128-1.608-.384-.464-.24-.776-.68-.936-1.32h-3.384c.048.704.24 1.304.576 1.8.352.512.784.928 1.296 1.248.528.32 1.104.552 1.728.696.64.16 1.264.24 1.872.24 1.424 0 2.56-.192 3.408-.576.848-.384 1.496-.856 1.944-1.416a4.003 4.003 0 0 0 .864-1.776c.144-.64.216-1.208.216-1.704Zm10.845-6.744h-5.544a4.4 4.4 0 0 1 .144-.816c.096-.304.248-.592.456-.864.224-.272.512-.496.864-.672.368-.192.824-.288 1.368-.288.832 0 1.448.224 1.848.672.416.448.704 1.104.864 1.968Zm-5.544 2.16h8.952a8.76 8.76 0 0 0-.24-2.76 6.637 6.637 0 0 0-1.104-2.352 5.29 5.29 0 0 0-1.92-1.632c-.784-.416-1.704-.624-2.76-.624-.944 0-1.808.168-2.592.504-.768.336-1.432.8-1.992 1.392a5.955 5.955 0 0 0-1.296 2.064 7.237 7.237 0 0 0-.456 2.592c0 .96.144 1.84.432 2.64.304.8.728 1.488 1.272 2.064a5.62 5.62 0 0 0 1.992 1.344c.784.304 1.664.456 2.64.456 1.408 0 2.608-.32 3.6-.96.992-.64 1.728-1.704 2.208-3.192h-3c-.112.384-.416.752-.912 1.104-.496.336-1.088.504-1.776.504-.96 0-1.696-.248-2.208-.744-.512-.496-.792-1.296-.84-2.4Z"/><defs><linearGradient id="a" x1="-333.5" x2="393.63" y1="710.794" y2="261.327" gradientUnits="userSpaceOnUse"><stop offset=".041" stop-color="#9BF0E1"/><stop offset="1" stop-color="#9BF0E1" stop-opacity=".11"/></linearGradient><linearGradient id="b" x1="288.82" x2="554.885" y1="640.516" y2="351.452" gradientUnits="userSpaceOnUse"><stop offset=".041" stop-color="#9BF0E1"/><stop offset="1" stop-color="#9BF0E1" stop-opacity=".13"/></linearGradient><linearGradient id="c" x1="-162.135" x2="127.403" y1="237.339" y2="32.055" gradientUnits="userSpaceOnUse"><stop offset=".041" stop-color="#9BF0E1"/><stop offset="1" stop-color="#9BF0E1" stop-opacity=".1"/></linearGradient><linearGradient id="e" x1="68.371" x2="68.371" y1="0" y2="176.012" gradientUnits="userSpaceOnUse"><stop stop-color="#757575"/><stop offset="1" stop-color="#282828"/></linearGradient><linearGradient id="g" x1="68.371" x2="68.371" y1="0" y2="176.012" gradientUnits="userSpaceOnUse"><stop stop-color="#509BF5"/><stop offset="1" stop-color="#1975E2"/></linearGradient><linearGradient id="i" x1="68.371" x2="68.371" y1="0" y2="176.012" gradientUnits="userSpaceOnUse"><stop stop-color="#9BF0E1"/><stop offset="1" stop-color="#36BAA2"/></linearGradient><filter id="d" width="148.903" height="215.048" x="560" y="167.571" color-interpolation-filters="sRGB" filterUnits="userSpaceOnUse"><feFlood flood-opacity="0" result="BackgroundImageFix"/><feColorMatrix in="SourceAlpha" values="0 0 0 0 0 0 0 0 0 0 0 0 0 0 0 0 0 0 127 0"/><feOffset dx="3" dy="3"/><feGaussianBlur stdDeviation="4"/><feColorMatrix values="0 0 0 0 0 0 0 0 0 0 0 0 0 0 0 0 0 0 0.25 0"/><feBlend in2="BackgroundImageFix" result="effect1_dropShadow"/><feBlend in="SourceGraphic" in2="effect1_dropShadow" result="shape"/></filter><filter id="f" width="148.083" height="217.477" x="356.001" y="165.964" color-interpolation-filters="sRGB" filterUnits="userSpaceOnUse"><feFlood flood-opacity="0" result="BackgroundImageFix"/><feColorMatrix in="SourceAlpha" values="0 0 0 0 0 0 0 0 0 0 0 0 0 0 0 0 0 0 127 0"/><feOffset dx="3" dy="3"/><feGaussianBlur stdDeviation="4"/><feColorMatrix values="0 0 0 0 0 0 0 0 0 0 0 0 0 0 0 0 0 0 0.25 0"/><feBlend in2="BackgroundImageFix" result="effect1_dropShadow"/><feBlend in="SourceGraphic" in2="effect1_dropShadow" result="shape"/></filter><filter id="h" width="148.083" height="217.477" x="152" y="165.964" color-interpolation-filters="sRGB" filterUnits="userSpaceOnUse"><feFlood flood-opacity="0" result="BackgroundImageFix"/><feColorMatrix in="SourceAlpha" values="0 0 0 0 0 0 0 0 0 0 0 0 0 0 0 0 0 0 127 0"/><feOffset dx="3" dy="3"/><feGaussianBlur stdDeviation="4"/><feColorMatrix values="0 0 0 0 0 0 0 0 0 0 0 0 0 0 0 0 0 0 0.25 0"/><feBlend in2="BackgroundImageFix" result="effect1_dropShadow"/><feBlend in="SourceGraphic" in2="effect1_dropShadow" result="shape"/></filter><clipPath id="j"><path fill="#fff" d="M170 236h90v114h-90z"/></clipPath></defs></svg>