<svg xmlns="http://www.w3.org/2000/svg" width="448" height="269" fill="none" viewBox="0 0 448 269"><rect width="324" height="218" x="43" y="28" fill="url(#paint0_linear)" rx="4"/><rect width="159" height="52" x="289" y="217" fill="url(#paint1_linear)" rx="4"/><rect width="146" height="51" fill="url(#paint2_linear)" rx="4"/><g filter="url(#filter0_d)"><rect width="78.242" height="100.711" fill="url(#paint3_linear)" rx="10" transform="matrix(-0.971919 0.235317 0 1 399.328 56.1267)"/></g><rect width="51.695" height="3.21" fill="#C4C4C4" rx="1.605" transform="matrix(-0.962455 0.27144 0 1 390.386 88.2064)"/><rect width="41.729" height="3.21" fill="#9AEEDF" rx="1.605" transform="matrix(-0.962455 0.27144 0 1 374.208 100.86)"/><rect width="48.55" height="3.611" fill="#C4C4C4" rx="1.806" transform="matrix(-0.962455 0.27144 0 1 387.525 81.3258)"/><rect width="25.278" height="3.21" fill="#9BF0E1" rx="1.605" transform="matrix(-0.962455 0.27144 0 1 358.759 81.9951)"/><rect width="32.5" height="3.21" fill="#F037A5" rx="1.605" transform="matrix(-0.962455 0.27144 0 1 365.436 72.7201)"/><rect width="26.681" height="3.21" fill="#F037A5" rx="1.605" transform="matrix(-0.962455 0.27144 0 1 359.904 112.661)"/><path fill="#fff" d="M324.388 192.15V203.574H326.9V192.15H324.388ZM331.369 201.462V194.262H333.161C333.779 194.262 334.297 194.353 334.713 194.534C335.139 194.705 335.481 194.955 335.737 195.286C335.993 195.617 336.174 196.017 336.281 196.486C336.398 196.945 336.457 197.462 336.457 198.038C336.457 198.667 336.377 199.201 336.217 199.638C336.057 200.075 335.843 200.433 335.577 200.71C335.31 200.977 335.006 201.169 334.665 201.286C334.323 201.403 333.971 201.462 333.609 201.462H331.369ZM328.857 192.15V203.574H333.785C334.659 203.574 335.417 203.43 336.057 203.142C336.707 202.843 337.246 202.438 337.673 201.926C338.11 201.414 338.435 200.806 338.649 200.102C338.862 199.398 338.969 198.63 338.969 197.798C338.969 196.849 338.835 196.022 338.569 195.318C338.313 194.614 337.95 194.027 337.481 193.558C337.022 193.089 336.473 192.737 335.833 192.502C335.203 192.267 334.521 192.15 333.785 192.15H328.857ZM340.466 192.15V203.574H349.138V201.462H342.978V198.662H348.514V196.71H342.978V194.262H349.01V192.15H340.466Z"/><g filter="url(#filter1_d)"><rect width="78.242" height="100.711" fill="url(#paint4_linear)" rx="10" transform="matrix(-0.965926 0.258819 0 1 282.134 54.9824)"/></g><rect width="7.508" height="7.508" fill="#388AED" transform="matrix(-0.965926 0.258819 0 1 273.475 111.699)"/><rect width="7.508" height="7.508" fill="#388AED" transform="matrix(-0.965926 0.258819 0 1 264.246 123.736)"/><rect width="7.508" height="7.508" fill="#388AED" transform="matrix(-0.965926 0.258819 0 1 264.246 114.106)"/><rect width="7.508" height="7.508" fill="#88BEFF" transform="matrix(-0.965926 0.258819 0 1 255.018 126.143)"/><rect width="7.508" height="7.508" fill="#88BEFF" transform="matrix(-0.965926 0.258819 0 1 255.018 116.514)"/><rect width="7.508" height="7.508" fill="#88BEFF" transform="matrix(-0.965926 0.258819 0 1 264.246 133.366)"/><rect width="7.508" height="7.508" fill="#388AED" transform="matrix(-0.965926 0.258819 0 1 264.246 142.995)"/><rect width="7.508" height="7.508" fill="#88BEFF" transform="matrix(-0.965926 0.258819 0 1 273.475 140.588)"/><rect width="7.508" height="7.508" fill="#388AED" transform="matrix(-0.965926 0.258819 0 1 273.475 130.958)"/><rect width="7.508" height="7.508" fill="#388AED" transform="matrix(-0.965926 0.258819 0 1 273.475 121.329)"/><rect width="7.508" height="7.508" fill="#388AED" transform="matrix(-0.965926 0.258819 0 1 264.246 94.8468)"/><rect width="7.508" height="7.508" fill="#388AED" transform="matrix(-0.965926 0.258819 0 1 264.246 104.476)"/><rect width="7.508" height="7.508" fill="#388AED" transform="matrix(-0.965926 0.258819 0 1 273.475 102.069)"/><rect width="7.508" height="7.508" fill="#88BEFF" transform="matrix(-0.965926 0.258819 0 1 273.475 92.038)"/><rect width="7.508" height="7.508" fill="#388AED" transform="matrix(-0.965926 0.258819 0 1 255.018 106.884)"/><rect width="7.508" height="7.508" fill="#388AED" transform="matrix(-0.965926 0.258819 0 1 236.561 130.958)"/><rect width="7.508" height="7.508" fill="#88BEFF" transform="matrix(-0.965926 0.258819 0 1 236.561 150.218)"/><rect width="7.508" height="7.508" fill="#88BEFF" transform="matrix(-0.965926 0.258819 0 1 236.561 140.588)"/><rect width="7.508" height="7.508" fill="#388AED" transform="matrix(-0.965926 0.258819 0 1 227.333 152.625)"/><rect width="7.508" height="7.508" fill="#388AED" transform="matrix(-0.965926 0.258819 0 1 227.333 142.995)"/><rect width="7.508" height="7.508" fill="#388AED" transform="matrix(-0.965926 0.258819 0 1 245.79 147.81)"/><rect width="7.508" height="7.508" fill="#388AED" transform="matrix(-0.965926 0.258819 0 1 255.018 145.403)"/><rect width="7.508" height="7.508" fill="#388AED" transform="matrix(-0.965926 0.258819 0 1 255.018 135.773)"/><rect width="7.508" height="7.508" fill="#388AED" transform="matrix(-0.965926 0.258819 0 1 245.79 128.551)"/><rect width="7.508" height="7.508" fill="#388AED" transform="matrix(-0.965926 0.258819 0 1 245.79 118.921)"/><rect width="7.508" height="7.508" fill="#388AED" transform="matrix(-0.965926 0.258819 0 1 245.79 138.181)"/><path fill="#fff" d="M215.918 202.278L216.174 203.574H217.774V197.398H212.974V199.27H215.502C215.427 200.07 215.16 200.683 214.702 201.11C214.254 201.526 213.614 201.734 212.782 201.734C212.216 201.734 211.736 201.627 211.342 201.414C210.947 201.19 210.627 200.897 210.382 200.534C210.136 200.171 209.955 199.766 209.838 199.318C209.731 198.859 209.678 198.39 209.678 197.91C209.678 197.409 209.731 196.923 209.838 196.454C209.955 195.985 210.136 195.569 210.382 195.206C210.627 194.833 210.947 194.539 211.342 194.326C211.736 194.102 212.216 193.99 212.782 193.99C213.39 193.99 213.907 194.15 214.334 194.47C214.76 194.79 215.048 195.27 215.198 195.91H217.598C217.534 195.259 217.358 194.683 217.07 194.182C216.782 193.681 216.414 193.259 215.966 192.918C215.528 192.577 215.032 192.321 214.478 192.15C213.934 191.969 213.368 191.878 212.782 191.878C211.907 191.878 211.118 192.033 210.414 192.342C209.72 192.651 209.134 193.078 208.654 193.622C208.174 194.166 207.806 194.806 207.55 195.542C207.294 196.267 207.166 197.057 207.166 197.91C207.166 198.742 207.294 199.521 207.55 200.246C207.806 200.961 208.174 201.585 208.654 202.118C209.134 202.651 209.72 203.073 210.414 203.382C211.118 203.681 211.907 203.83 212.782 203.83C213.336 203.83 213.886 203.718 214.43 203.494C214.974 203.259 215.47 202.854 215.918 202.278ZM221.648 194.022V192.15H219.376V194.022H221.648ZM219.376 195.302V203.574H221.648V195.302H219.376ZM226.067 195.302V192.822H223.795V195.302H222.419V196.822H223.795V201.702C223.795 202.118 223.865 202.454 224.003 202.71C224.142 202.966 224.329 203.163 224.563 203.302C224.809 203.441 225.086 203.531 225.395 203.574C225.715 203.627 226.051 203.654 226.403 203.654C226.627 203.654 226.857 203.649 227.091 203.638C227.326 203.627 227.539 203.606 227.731 203.574V201.814C227.625 201.835 227.513 201.851 227.395 201.862C227.278 201.873 227.155 201.878 227.027 201.878C226.643 201.878 226.387 201.814 226.259 201.686C226.131 201.558 226.067 201.302 226.067 200.918V196.822H227.731V195.302H226.067ZM228.802 192.15V203.574H231.314V198.646H235.938V203.574H238.45V192.15H235.938V196.534H231.314V192.15H228.802ZM247.932 203.574V195.302H245.66V199.638C245.66 200.481 245.521 201.089 245.244 201.462C244.966 201.825 244.518 202.006 243.9 202.006C243.356 202.006 242.977 201.841 242.764 201.51C242.55 201.169 242.444 200.657 242.444 199.974V195.302H240.172V200.39C240.172 200.902 240.214 201.371 240.3 201.798C240.396 202.214 240.556 202.571 240.78 202.87C241.004 203.158 241.308 203.382 241.692 203.542C242.086 203.702 242.588 203.782 243.196 203.782C243.676 203.782 244.145 203.675 244.604 203.462C245.062 203.249 245.436 202.902 245.724 202.422H245.772V203.574H247.932ZM255.47 199.446C255.47 199.787 255.433 200.118 255.358 200.438C255.283 200.758 255.166 201.041 255.006 201.286C254.846 201.531 254.643 201.729 254.398 201.878C254.163 202.017 253.875 202.086 253.534 202.086C253.203 202.086 252.915 202.017 252.67 201.878C252.425 201.729 252.222 201.531 252.062 201.286C251.902 201.041 251.785 200.758 251.71 200.438C251.635 200.118 251.598 199.787 251.598 199.446C251.598 199.094 251.635 198.758 251.71 198.438C251.785 198.118 251.902 197.835 252.062 197.59C252.222 197.345 252.425 197.153 252.67 197.014C252.915 196.865 253.203 196.79 253.534 196.79C253.875 196.79 254.163 196.865 254.398 197.014C254.643 197.153 254.846 197.345 255.006 197.59C255.166 197.835 255.283 198.118 255.358 198.438C255.433 198.758 255.47 199.094 255.47 199.446ZM249.406 192.15V203.574H251.566V202.518H251.598C251.843 202.977 252.206 203.302 252.686 203.494C253.166 203.686 253.71 203.782 254.318 203.782C254.734 203.782 255.145 203.697 255.55 203.526C255.955 203.355 256.318 203.094 256.638 202.742C256.969 202.39 257.235 201.942 257.438 201.398C257.641 200.843 257.742 200.187 257.742 199.43C257.742 198.673 257.641 198.022 257.438 197.478C257.235 196.923 256.969 196.47 256.638 196.118C256.318 195.766 255.955 195.505 255.55 195.334C255.145 195.163 254.734 195.078 254.318 195.078C253.806 195.078 253.31 195.179 252.83 195.382C252.361 195.574 251.987 195.883 251.71 196.31H251.678V192.15H249.406Z"/><g filter="url(#filter2_d)"><rect width="78.242" height="100.711" fill="url(#paint5_linear)" rx="10" transform="matrix(0.965926 -0.258819 0 1 89.833 75.2329)"/></g><path fill="#121212" d="M108.022 131.301V119.611L117.962 116.948C118.908 116.695 119.81 116.546 120.666 116.504C121.568 116.402 122.356 116.471 123.033 116.709C123.709 116.948 124.25 117.387 124.655 118.025C125.061 118.663 125.264 119.565 125.264 120.732C125.264 122.832 124.655 124.511 123.438 125.771C122.221 127.03 120.666 127.914 118.773 128.421L108.022 131.301ZM97.4066 113.916V163.896L120.801 157.627C122.965 157.048 125.061 156.206 127.09 155.102C129.163 153.987 130.989 152.634 132.566 151.045C134.189 149.443 135.474 147.606 136.42 145.532C137.367 143.412 137.84 141.092 137.84 138.572C137.84 135.445 137.097 132.984 135.609 131.19C134.167 129.336 131.958 128.365 128.983 128.275C131.146 126.622 132.769 124.811 133.851 122.841C134.978 120.859 135.541 118.608 135.541 116.088C135.541 113.754 135.158 111.897 134.392 110.516C133.671 109.122 132.634 108.14 131.282 107.569C129.929 106.951 128.307 106.686 126.413 106.774C124.52 106.861 122.424 107.212 120.125 107.828L97.4066 113.916ZM108.022 152.511V138.791L119.584 135.693C121.883 135.077 123.731 135.142 125.129 135.888C126.526 136.587 127.225 138.219 127.225 140.786C127.225 142.093 126.999 143.227 126.549 144.187C126.143 145.136 125.579 145.964 124.858 146.67C124.137 147.33 123.303 147.904 122.356 148.391C121.41 148.831 120.418 149.19 119.381 149.468L108.022 152.511ZM141.054 146.091C141.054 149.666 143.942 152.012 147.458 151.07C150.974 150.128 153.925 146.217 153.925 142.642C153.925 139.002 150.974 136.803 147.458 137.745C143.942 138.687 141.054 142.451 141.054 146.091Z"/><path fill="#fff" d="M93.616 197.2V194.528H95.968C96.192 194.528 96.4053 194.549 96.608 194.592C96.8213 194.624 97.008 194.688 97.168 194.784C97.328 194.88 97.456 195.013 97.552 195.184C97.648 195.355 97.696 195.573 97.696 195.84C97.696 196.32 97.552 196.667 97.264 196.88C96.976 197.093 96.608 197.2 96.16 197.2H93.616ZM91.104 192.576V204H96.64C97.152 204 97.648 203.936 98.128 203.808C98.6187 203.68 99.0507 203.483 99.424 203.216C99.808 202.949 100.112 202.608 100.336 202.192C100.56 201.765 100.672 201.264 100.672 200.688C100.672 199.973 100.496 199.365 100.144 198.864C99.8027 198.352 99.28 197.995 98.576 197.792C99.088 197.547 99.472 197.232 99.728 196.848C99.9947 196.464 100.128 195.984 100.128 195.408C100.128 194.875 100.037 194.427 99.856 194.064C99.6853 193.701 99.44 193.413 99.12 193.2C98.8 192.976 98.416 192.816 97.968 192.72C97.52 192.624 97.024 192.576 96.48 192.576H91.104ZM93.616 202.048V198.912H96.352C96.896 198.912 97.3333 199.04 97.664 199.296C97.9947 199.541 98.16 199.957 98.16 200.544C98.16 200.843 98.1067 201.088 98 201.28C97.904 201.472 97.7707 201.627 97.6 201.744C97.4293 201.851 97.232 201.931 97.008 201.984C96.784 202.027 96.5493 202.048 96.304 202.048H93.616ZM101.784 198.272C101.816 197.739 101.949 197.296 102.184 196.944C102.418 196.592 102.717 196.309 103.08 196.096C103.442 195.883 103.848 195.733 104.296 195.648C104.754 195.552 105.213 195.504 105.672 195.504C106.088 195.504 106.509 195.536 106.936 195.6C107.362 195.653 107.752 195.765 108.104 195.936C108.456 196.107 108.744 196.347 108.968 196.656C109.192 196.955 109.304 197.355 109.304 197.856V202.16C109.304 202.533 109.325 202.891 109.368 203.232C109.41 203.573 109.485 203.829 109.592 204H107.288C107.245 203.872 107.208 203.744 107.176 203.616C107.154 203.477 107.138 203.339 107.128 203.2C106.765 203.573 106.338 203.835 105.848 203.984C105.357 204.133 104.856 204.208 104.344 204.208C103.949 204.208 103.581 204.16 103.24 204.064C102.898 203.968 102.6 203.819 102.344 203.616C102.088 203.413 101.885 203.157 101.736 202.848C101.597 202.539 101.528 202.171 101.528 201.744C101.528 201.275 101.608 200.891 101.768 200.592C101.938 200.283 102.152 200.037 102.408 199.856C102.674 199.675 102.973 199.541 103.304 199.456C103.645 199.36 103.986 199.285 104.328 199.232C104.669 199.179 105.005 199.136 105.336 199.104C105.666 199.072 105.96 199.024 106.216 198.96C106.472 198.896 106.674 198.805 106.824 198.688C106.973 198.56 107.042 198.379 107.032 198.144C107.032 197.899 106.989 197.707 106.904 197.568C106.829 197.419 106.722 197.307 106.584 197.232C106.456 197.147 106.301 197.093 106.12 197.072C105.949 197.04 105.762 197.024 105.56 197.024C105.112 197.024 104.76 197.12 104.504 197.312C104.248 197.504 104.098 197.824 104.056 198.272H101.784ZM107.032 199.952C106.936 200.037 106.813 200.107 106.664 200.16C106.525 200.203 106.37 200.24 106.2 200.272C106.04 200.304 105.869 200.331 105.688 200.352C105.506 200.373 105.325 200.4 105.144 200.432C104.973 200.464 104.802 200.507 104.632 200.56C104.472 200.613 104.328 200.688 104.2 200.784C104.082 200.869 103.986 200.981 103.912 201.12C103.837 201.259 103.8 201.435 103.8 201.648C103.8 201.851 103.837 202.021 103.912 202.16C103.986 202.299 104.088 202.411 104.216 202.496C104.344 202.571 104.493 202.624 104.664 202.656C104.834 202.688 105.01 202.704 105.192 202.704C105.64 202.704 105.986 202.629 106.232 202.48C106.477 202.331 106.658 202.155 106.776 201.952C106.893 201.739 106.962 201.525 106.984 201.312C107.016 201.099 107.032 200.928 107.032 200.8V199.952ZM116.449 198.64H118.673C118.641 198.107 118.513 197.648 118.289 197.264C118.065 196.869 117.772 196.544 117.409 196.288C117.057 196.021 116.652 195.824 116.193 195.696C115.745 195.568 115.276 195.504 114.785 195.504C114.113 195.504 113.516 195.616 112.993 195.84C112.47 196.064 112.028 196.379 111.665 196.784C111.302 197.179 111.025 197.653 110.833 198.208C110.652 198.752 110.561 199.344 110.561 199.984C110.561 200.603 110.662 201.173 110.865 201.696C111.068 202.208 111.35 202.651 111.713 203.024C112.076 203.397 112.513 203.691 113.025 203.904C113.548 204.107 114.118 204.208 114.737 204.208C115.836 204.208 116.737 203.92 117.441 203.344C118.145 202.768 118.572 201.931 118.721 200.832H116.529C116.454 201.344 116.268 201.755 115.969 202.064C115.681 202.363 115.265 202.512 114.721 202.512C114.369 202.512 114.07 202.432 113.825 202.272C113.58 202.112 113.382 201.909 113.233 201.664C113.094 201.408 112.993 201.125 112.929 200.816C112.865 200.507 112.833 200.203 112.833 199.904C112.833 199.595 112.865 199.285 112.929 198.976C112.993 198.656 113.1 198.368 113.249 198.112C113.409 197.845 113.612 197.632 113.857 197.472C114.102 197.301 114.406 197.216 114.769 197.216C115.74 197.216 116.3 197.691 116.449 198.64ZM119.963 192.576V204H122.235V201.152L123.115 200.304L125.387 204H128.139L124.667 198.768L127.787 195.728H125.099L122.235 198.704V192.576H119.963ZM130.452 201.312H128.292C128.313 201.867 128.436 202.331 128.66 202.704C128.895 203.067 129.188 203.36 129.54 203.584C129.903 203.808 130.313 203.968 130.772 204.064C131.231 204.16 131.7 204.208 132.18 204.208C132.649 204.208 133.108 204.16 133.556 204.064C134.015 203.979 134.42 203.824 134.772 203.6C135.124 203.376 135.407 203.083 135.62 202.72C135.844 202.347 135.956 201.888 135.956 201.344C135.956 200.96 135.881 200.64 135.732 200.384C135.583 200.117 135.385 199.899 135.14 199.728C134.895 199.547 134.612 199.403 134.292 199.296C133.983 199.189 133.663 199.099 133.332 199.024C133.012 198.949 132.697 198.88 132.388 198.816C132.079 198.752 131.801 198.683 131.556 198.608C131.321 198.523 131.129 198.416 130.98 198.288C130.831 198.16 130.756 197.995 130.756 197.792C130.756 197.621 130.799 197.488 130.884 197.392C130.969 197.285 131.071 197.205 131.188 197.152C131.316 197.099 131.455 197.067 131.604 197.056C131.753 197.035 131.892 197.024 132.02 197.024C132.425 197.024 132.777 197.104 133.076 197.264C133.375 197.413 133.54 197.707 133.572 198.144H135.732C135.689 197.632 135.556 197.211 135.332 196.88C135.119 196.539 134.847 196.267 134.516 196.064C134.185 195.861 133.807 195.717 133.38 195.632C132.964 195.547 132.532 195.504 132.084 195.504C131.636 195.504 131.199 195.547 130.772 195.632C130.345 195.707 129.961 195.845 129.62 196.048C129.279 196.24 129.001 196.507 128.788 196.848C128.585 197.189 128.484 197.627 128.484 198.16C128.484 198.523 128.559 198.832 128.708 199.088C128.857 199.333 129.055 199.541 129.3 199.712C129.545 199.872 129.823 200.005 130.132 200.112C130.452 200.208 130.777 200.293 131.108 200.368C131.919 200.539 132.548 200.709 132.996 200.88C133.455 201.051 133.684 201.307 133.684 201.648C133.684 201.851 133.636 202.021 133.54 202.16C133.444 202.288 133.321 202.395 133.172 202.48C133.033 202.555 132.873 202.613 132.692 202.656C132.521 202.688 132.356 202.704 132.196 202.704C131.972 202.704 131.753 202.677 131.54 202.624C131.337 202.571 131.156 202.491 130.996 202.384C130.836 202.267 130.703 202.123 130.596 201.952C130.5 201.771 130.452 201.557 130.452 201.312ZM139.916 195.728V193.248H137.644V195.728H136.268V197.248H137.644V202.128C137.644 202.544 137.713 202.88 137.852 203.136C137.991 203.392 138.177 203.589 138.412 203.728C138.657 203.867 138.935 203.957 139.244 204C139.564 204.053 139.9 204.08 140.252 204.08C140.476 204.08 140.705 204.075 140.94 204.064C141.175 204.053 141.388 204.032 141.58 204V202.24C141.473 202.261 141.361 202.277 141.244 202.288C141.127 202.299 141.004 202.304 140.876 202.304C140.492 202.304 140.236 202.24 140.108 202.112C139.98 201.984 139.916 201.728 139.916 201.344V197.248H141.58V195.728H139.916ZM142.315 198.272C142.347 197.739 142.48 197.296 142.715 196.944C142.95 196.592 143.248 196.309 143.611 196.096C143.974 195.883 144.379 195.733 144.827 195.648C145.286 195.552 145.744 195.504 146.203 195.504C146.619 195.504 147.04 195.536 147.467 195.6C147.894 195.653 148.283 195.765 148.635 195.936C148.987 196.107 149.275 196.347 149.499 196.656C149.723 196.955 149.835 197.355 149.835 197.856V202.16C149.835 202.533 149.856 202.891 149.899 203.232C149.942 203.573 150.016 203.829 150.123 204H147.819C147.776 203.872 147.739 203.744 147.707 203.616C147.686 203.477 147.67 203.339 147.659 203.2C147.296 203.573 146.87 203.835 146.379 203.984C145.888 204.133 145.387 204.208 144.875 204.208C144.48 204.208 144.112 204.16 143.771 204.064C143.43 203.968 143.131 203.819 142.875 203.616C142.619 203.413 142.416 203.157 142.267 202.848C142.128 202.539 142.059 202.171 142.059 201.744C142.059 201.275 142.139 200.891 142.299 200.592C142.47 200.283 142.683 200.037 142.939 199.856C143.206 199.675 143.504 199.541 143.835 199.456C144.176 199.36 144.518 199.285 144.859 199.232C145.2 199.179 145.536 199.136 145.867 199.104C146.198 199.072 146.491 199.024 146.747 198.96C147.003 198.896 147.206 198.805 147.355 198.688C147.504 198.56 147.574 198.379 147.563 198.144C147.563 197.899 147.52 197.707 147.435 197.568C147.36 197.419 147.254 197.307 147.115 197.232C146.987 197.147 146.832 197.093 146.651 197.072C146.48 197.04 146.294 197.024 146.091 197.024C145.643 197.024 145.291 197.12 145.035 197.312C144.779 197.504 144.63 197.824 144.587 198.272H142.315ZM147.563 199.952C147.467 200.037 147.344 200.107 147.195 200.16C147.056 200.203 146.902 200.24 146.731 200.272C146.571 200.304 146.4 200.331 146.219 200.352C146.038 200.373 145.856 200.4 145.675 200.432C145.504 200.464 145.334 200.507 145.163 200.56C145.003 200.613 144.859 200.688 144.731 200.784C144.614 200.869 144.518 200.981 144.443 201.12C144.368 201.259 144.331 201.435 144.331 201.648C144.331 201.851 144.368 202.021 144.443 202.16C144.518 202.299 144.619 202.411 144.747 202.496C144.875 202.571 145.024 202.624 145.195 202.656C145.366 202.688 145.542 202.704 145.723 202.704C146.171 202.704 146.518 202.629 146.763 202.48C147.008 202.331 147.19 202.155 147.307 201.952C147.424 201.739 147.494 201.525 147.515 201.312C147.547 201.099 147.563 200.928 147.563 200.8V199.952ZM155.204 202.048C154.852 202.048 154.559 201.973 154.324 201.824C154.09 201.675 153.898 201.483 153.748 201.248C153.61 201.013 153.508 200.752 153.444 200.464C153.391 200.165 153.364 199.867 153.364 199.568C153.364 199.259 153.396 198.965 153.46 198.688C153.535 198.4 153.647 198.149 153.796 197.936C153.956 197.712 154.148 197.536 154.372 197.408C154.607 197.28 154.884 197.216 155.204 197.216C155.578 197.216 155.887 197.285 156.132 197.424C156.378 197.563 156.575 197.749 156.724 197.984C156.874 198.219 156.98 198.491 157.044 198.8C157.108 199.099 157.14 199.419 157.14 199.76C157.14 200.059 157.098 200.347 157.012 200.624C156.938 200.891 156.82 201.131 156.66 201.344C156.5 201.557 156.298 201.728 156.052 201.856C155.807 201.984 155.524 202.048 155.204 202.048ZM159.3 203.472V195.728H157.14V196.832H157.108C156.831 196.352 156.484 196.011 156.068 195.808C155.663 195.605 155.188 195.504 154.644 195.504C154.068 195.504 153.556 195.616 153.108 195.84C152.671 196.064 152.303 196.368 152.004 196.752C151.706 197.125 151.476 197.563 151.316 198.064C151.167 198.555 151.092 199.067 151.092 199.6C151.092 200.165 151.156 200.704 151.284 201.216C151.423 201.717 151.636 202.16 151.924 202.544C152.212 202.917 152.58 203.216 153.028 203.44C153.476 203.653 154.01 203.76 154.628 203.76C155.13 203.76 155.604 203.659 156.052 203.456C156.511 203.243 156.863 202.917 157.108 202.48H157.14V203.568C157.151 204.155 157.007 204.64 156.708 205.024C156.42 205.408 155.956 205.6 155.316 205.6C154.911 205.6 154.554 205.515 154.244 205.344C153.935 205.184 153.727 204.891 153.62 204.464H151.364C151.396 204.933 151.524 205.333 151.748 205.664C151.983 206.005 152.271 206.283 152.612 206.496C152.964 206.709 153.348 206.864 153.764 206.96C154.191 207.067 154.607 207.12 155.012 207.12C155.962 207.12 156.719 206.992 157.284 206.736C157.85 206.48 158.282 206.165 158.58 205.792C158.879 205.429 159.071 205.035 159.156 204.608C159.252 204.181 159.3 203.803 159.3 203.472ZM166.448 198.976H162.752C162.762 198.816 162.794 198.635 162.848 198.432C162.912 198.229 163.013 198.037 163.152 197.856C163.301 197.675 163.493 197.525 163.728 197.408C163.973 197.28 164.277 197.216 164.64 197.216C165.194 197.216 165.605 197.365 165.872 197.664C166.149 197.963 166.341 198.4 166.448 198.976ZM162.752 200.416H168.72C168.762 199.776 168.709 199.163 168.56 198.576C168.41 197.989 168.165 197.467 167.824 197.008C167.493 196.549 167.066 196.187 166.544 195.92C166.021 195.643 165.408 195.504 164.704 195.504C164.074 195.504 163.498 195.616 162.976 195.84C162.464 196.064 162.021 196.373 161.648 196.768C161.274 197.152 160.986 197.611 160.784 198.144C160.581 198.677 160.48 199.253 160.48 199.872C160.48 200.512 160.576 201.099 160.768 201.632C160.97 202.165 161.253 202.624 161.616 203.008C161.978 203.392 162.421 203.691 162.944 203.904C163.466 204.107 164.053 204.208 164.704 204.208C165.642 204.208 166.442 203.995 167.104 203.568C167.765 203.141 168.256 202.432 168.576 201.44H166.576C166.501 201.696 166.298 201.941 165.968 202.176C165.637 202.4 165.242 202.512 164.784 202.512C164.144 202.512 163.653 202.347 163.312 202.016C162.97 201.685 162.784 201.152 162.752 200.416Z"/><path fill="#9BF0E1" d="M169.705 202.656C169.705 203.456 170.361 204.112 171.161 204.112C171.977 204.112 172.633 203.456 172.633 202.656C172.633 201.856 171.977 201.2 171.161 201.2C170.361 201.2 169.705 201.856 169.705 202.656Z"/><defs><filter id="filter0_d" width="92.045" height="130.967" x="318.283" y="53.205" color-interpolation-filters="sRGB" filterUnits="userSpaceOnUse"><feFlood flood-opacity="0" result="BackgroundImageFix"/><feColorMatrix in="SourceAlpha" type="matrix" values="0 0 0 0 0 0 0 0 0 0 0 0 0 0 0 0 0 0 127 0"/><feOffset dx="3" dy="3"/><feGaussianBlur stdDeviation="4"/><feColorMatrix type="matrix" values="0 0 0 0 0 0 0 0 0 0 0 0 0 0 0 0 0 0 0.25 0"/><feBlend in2="BackgroundImageFix" mode="normal" result="effect1_dropShadow"/><feBlend in="SourceGraphic" in2="effect1_dropShadow" mode="normal" result="shape"/></filter><filter id="filter1_d" width="91.576" height="132.449" x="201.559" y="52.239" color-interpolation-filters="sRGB" filterUnits="userSpaceOnUse"><feFlood flood-opacity="0" result="BackgroundImageFix"/><feColorMatrix in="SourceAlpha" type="matrix" values="0 0 0 0 0 0 0 0 0 0 0 0 0 0 0 0 0 0 127 0"/><feOffset dx="3" dy="3"/><feGaussianBlur stdDeviation="4"/><feColorMatrix type="matrix" values="0 0 0 0 0 0 0 0 0 0 0 0 0 0 0 0 0 0 0.25 0"/><feBlend in2="BackgroundImageFix" mode="normal" result="effect1_dropShadow"/><feBlend in="SourceGraphic" in2="effect1_dropShadow" mode="normal" result="shape"/></filter><filter id="filter2_d" width="91.576" height="132.449" x="84.833" y="52.239" color-interpolation-filters="sRGB" filterUnits="userSpaceOnUse"><feFlood flood-opacity="0" result="BackgroundImageFix"/><feColorMatrix in="SourceAlpha" type="matrix" values="0 0 0 0 0 0 0 0 0 0 0 0 0 0 0 0 0 0 127 0"/><feOffset dx="3" dy="3"/><feGaussianBlur stdDeviation="4"/><feColorMatrix type="matrix" values="0 0 0 0 0 0 0 0 0 0 0 0 0 0 0 0 0 0 0.25 0"/><feBlend in2="BackgroundImageFix" mode="normal" result="effect1_dropShadow"/><feBlend in="SourceGraphic" in2="effect1_dropShadow" mode="normal" result="shape"/></filter><linearGradient id="paint0_linear" x1="-163.007" x2="230.46" y1="363.973" y2="113.577" gradientUnits="userSpaceOnUse"><stop offset=".041" stop-color="#9BF0E1"/><stop offset="1" stop-color="#9BF0E1" stop-opacity=".11"/></linearGradient><linearGradient id="paint1_linear" x1="187.904" x2="287.857" y1="297.14" y2="166.276" gradientUnits="userSpaceOnUse"><stop offset=".041" stop-color="#9BF0E1"/><stop offset="1" stop-color="#9BF0E1" stop-opacity=".13"/></linearGradient><linearGradient id="paint2_linear" x1="-92.83" x2="6.712" y1="78.599" y2="-43.417" gradientUnits="userSpaceOnUse"><stop offset=".041" stop-color="#9BF0E1"/><stop offset="1" stop-color="#9BF0E1" stop-opacity=".1"/></linearGradient><linearGradient id="paint3_linear" x1="39.121" x2="39.121" y1="0" y2="100.711" gradientUnits="userSpaceOnUse"><stop stop-color="#757575"/><stop offset="1" stop-color="#282828"/></linearGradient><linearGradient id="paint4_linear" x1="39.121" x2="39.121" y1="0" y2="100.711" gradientUnits="userSpaceOnUse"><stop stop-color="#509BF5"/><stop offset="1" stop-color="#1975E2"/></linearGradient><linearGradient id="paint5_linear" x1="39.121" x2="39.121" y1="0" y2="100.711" gradientUnits="userSpaceOnUse"><stop stop-color="#9BF0E1"/><stop offset="1" stop-color="#4DC1AB"/></linearGradient></defs></svg>