<?xml version="1.0" ?><!DOCTYPE svg  PUBLIC '-//W3C//DTD SVG 1.1//EN'  'http://www.w3.org/Graphics/SVG/1.1/DTD/svg11.dtd'><svg enable-background="new 0 0 100 100" height="100px" version="1.1" viewBox="0 0 100 100" width="100px" xml:space="preserve" xmlns="http://www.w3.org/2000/svg" xmlns:xlink="http://www.w3.org/1999/xlink"><g id="Layer_1"><g><g><g enable-background="new    "><g enable-background="new    "><defs><path d="M77.586,28.061v2.772c0,3.559-12.344,6.433-27.578,6.433        c-15.25,0-27.594-2.874-27.594-6.433v-2.772c0,3.559,12.344,6.432,27.594,6.432C65.242,34.492,77.586,31.619,77.586,28.061z" enable-background="new    " id="SVGID_5_"/></defs><clipPath id="SVGID_2_"/><g clip-path="url(#SVGID_2_)" enable-background="new    "><path d="M77.586,28.061v2.772c0,0.084-0.006,0.168-0.02,0.25v-2.771C77.58,28.228,77.586,28.145,77.586,28.061        " fill="#8C3323"/><path d="M77.566,28.312v2.771c-0.018,0.098-0.039,0.193-0.074,0.289v-2.773        C77.527,28.503,77.549,28.407,77.566,28.312" fill="#8C3323"/><path d="M77.492,28.599v2.773c-0.049,0.135-0.113,0.268-0.195,0.4v-2.773        C77.379,28.866,77.443,28.734,77.492,28.599" fill="#8C3323"/><path d="M77.297,28.999v2.773c-1.945,3.111-13.42,5.493-27.289,5.493c-15.25,0-27.594-2.874-27.594-6.433        v-2.772c0,3.559,12.344,6.432,27.594,6.432C63.877,34.492,75.352,32.11,77.297,28.999" fill="#8C3323"/></g></g><g><path d="M50.008,21.628c15.234,0,27.578,2.875,27.578,6.433c0,3.559-12.344,6.432-27.578,6.432       c-15.25,0-27.594-2.873-27.594-6.432C22.414,24.503,34.758,21.628,50.008,21.628z" fill="#E15343"/></g><g><polygon fill="#8C3323" points="77.428,33.006 77.428,35.779 68.387,74.069 67.67,72.257      "/></g><g><polygon fill="#8C3323" points="31.613,71.296 31.613,74.069 22.572,35.779 22.572,33.006      "/></g><g enable-background="new    "><defs><path d="M68.387,71.296v2.773c0,2.387-8.217,4.303-18.379,4.303        s-18.395-1.916-18.395-4.303v-2.773c0,2.389,8.232,4.303,18.395,4.303S68.387,73.685,68.387,71.296z" enable-background="new    " id="SVGID_7_"/></defs><clipPath id="SVGID_4_"/><g clip-path="url(#SVGID_4_)" enable-background="new    "><path d="M68.387,71.296v2.773c0,0.057-0.004,0.112-0.012,0.168v-2.771        C68.383,71.409,68.387,71.353,68.387,71.296" fill="#8C3323"/><path d="M68.375,71.466v2.771c-0.012,0.066-0.027,0.131-0.051,0.196v-2.772        C68.348,71.596,68.363,71.53,68.375,71.466" fill="#8C3323"/><path d="M68.324,71.661v2.772c-0.033,0.091-0.076,0.18-0.131,0.268v-2.772        C68.248,71.839,68.291,71.751,68.324,71.661" fill="#8C3323"/><path d="M68.67,71.007l-0.477,3.694c-1.301,2.084-8.939,3.671-18.186,3.671        c-10.162,0-18.395-1.916-18.395-4.303v-2.773c0,2.389,8.232,4.303,18.395,4.303c9.246,0,16.885-1.585,18.186-3.67" fill="#8C3323"/></g></g><g><path d="M50.008,38.752c14.24,0,25.951-2.515,27.42-5.746l-9.041,38.29c0,2.389-8.217,4.303-18.379,4.303       s-18.395-1.914-18.395-4.303l-9.041-38.29C24.043,36.237,35.77,38.752,50.008,38.752z" fill="#E15343"/></g></g></g><rect clip-rule="evenodd" fill="#FFFFFF" fill-rule="evenodd" height="11.398" width="11.477" x="43.762" y="42.854"/><ellipse clip-rule="evenodd" cx="40.287" cy="63.9" fill="#FFFFFF" fill-rule="evenodd" rx="5.658" ry="5.62"/><polygon clip-rule="evenodd" fill="#FFFFFF" fill-rule="evenodd" points="64.09,69.257 52.748,69.257 58.42,58.784   "/></g></g></svg>