<svg xmlns="http://www.w3.org/2000/svg" xml:space="preserve" width="100" height="100" viewBox="0 0 100 100"><clipPath id="a"/><g fill="#8C3323" clip-path="url(#a)"><path d="M77.586 28.061v2.772c0 .084-.006.168-.02.25v-2.771c.014-.084.02-.167.02-.251m-.02.251v2.771a1.752 1.752 0 0 1-.074.289v-2.773c.035-.096.057-.192.074-.287m-.074.287v2.773a2.136 2.136 0 0 1-.195.4v-2.773c.082-.133.146-.265.195-.4m-.195.4v2.773c-1.945 3.111-13.42 5.493-27.289 5.493-15.25 0-27.594-2.874-27.594-6.433V28.06c0 3.559 12.344 6.432 27.594 6.432 13.869 0 25.344-2.382 27.289-5.493"/></g><path fill="#E15343" d="M50.008 21.628c15.234 0 27.578 2.875 27.578 6.433 0 3.559-12.344 6.432-27.578 6.432-15.25 0-27.594-2.873-27.594-6.432 0-3.558 12.344-6.433 27.594-6.433z"/><path fill="#8C3323" d="M77.428 33.006v2.773l-9.041 38.29-.717-1.812zm-45.815 38.29v2.773l-9.041-38.29v-2.773z"/><clipPath id="b"/><g fill="#8C3323" clip-path="url(#b)"><path d="M68.387 71.296v2.773c0 .057-.004.112-.012.168v-2.771c.008-.057.012-.113.012-.17m-.012.17v2.771a1.154 1.154 0 0 1-.051.196v-2.772c.024-.065.039-.131.051-.195m-.051.195v2.772a1.41 1.41 0 0 1-.131.268v-2.772c.055-.09.098-.178.131-.268"/><path d="m68.67 71.007-.477 3.694c-1.301 2.084-8.939 3.671-18.186 3.671-10.162 0-18.395-1.916-18.395-4.303v-2.773c0 2.389 8.232 4.303 18.395 4.303 9.246 0 16.885-1.585 18.186-3.67"/></g><path fill="#E15343" d="M50.008 38.752c14.24 0 25.951-2.515 27.42-5.746l-9.041 38.29c0 2.389-8.217 4.303-18.379 4.303s-18.395-1.914-18.395-4.303l-9.041-38.29c1.471 3.231 13.198 5.746 27.436 5.746z"/><path fill="#FFF" fill-rule="evenodd" d="M43.762 42.854h11.477v11.398H43.762z" clip-rule="evenodd"/><ellipse cx="40.287" cy="63.9" fill="#FFF" fill-rule="evenodd" clip-rule="evenodd" rx="5.658" ry="5.62"/><path fill="#FFF" fill-rule="evenodd" d="M64.09 69.257H52.748l5.672-10.473z" clip-rule="evenodd"/></svg>