<svg xmlns="http://www.w3.org/2000/svg" xmlns:xlink="http://www.w3.org/1999/xlink" id="Calque_1" x="0" y="0" version="1.1" viewBox="0 0 512 512" xml:space="preserve" style="enable-background:new 0 0 512 512"><style type="text/css">.st0{fill:#549dd0}.st1{clip-path:url(#SVGID_2_);fill:#fff}.st2,.st3{clip-path:url(#SVGID_4_);fill:#fff}.st3{clip-path:url(#SVGID_6_)}</style><rect width="512" height="512" class="st0"/><g><g><defs><rect id="SVGID_1_" width="512" height="512" y="0"/></defs><clipPath id="SVGID_2_"><use xlink:href="#SVGID_1_" style="overflow:visible"/></clipPath><path d="M408.8,448.1h-22.3c0-179.4-148-325.3-329.9-325.3v-22.3C250.8,100.5,408.8,256.4,408.8,448.1" class="st1"/></g><g><defs><rect id="SVGID_3_" width="512" height="512" y="0"/></defs><clipPath id="SVGID_4_"><use xlink:href="#SVGID_3_" style="overflow:visible"/></clipPath><path d="M424.2,328.5C397.4,215.9,306.3,122,192,89.2l5.1-17.8C317.7,106,414,205.2,442.2,324.2L424.2,328.5z" class="st2"/></g><g><defs><rect id="SVGID_5_" width="512" height="512" y="0"/></defs><clipPath id="SVGID_6_"><use xlink:href="#SVGID_5_" style="overflow:visible"/></clipPath><path d="M441.3,222.9c-27.6-60.1-74.5-112.5-132.2-147.5l7.7-12.7c60.2,36.6,109.2,91.3,138,154L441.3,222.9z" class="st3"/></g></g></svg>