<svg xmlns="http://www.w3.org/2000/svg" viewBox="0 0 547.8 547.8"><defs><style>.a{fill:#fff;}.b{fill:#3bd771;}</style></defs><path class="a" d="M96.1,237.85v38.3a21.79,21.79,0,0,1-2.8,11.3,18.29,18.29,0,0,1-8,7.3,27.86,27.86,0,0,1-12.3,2.5c-7.1,0-12.8-1.9-16.9-5.6s-6.2-8.8-6.3-15.2v-38.6H64v38.9c.2,6.4,3.1,9.6,8.9,9.6q4.35,0,6.6-2.4c1.5-1.6,2.3-4.2,2.3-7.8v-38.3Zm49.9,37.2c0,6.8-1.5,12.2-4.6,16.2a14.76,14.76,0,0,1-12.3,6.1,12.76,12.76,0,0,1-9.9-4.4v20.3H105.6V253h12.7l.4,4a12.57,12.57,0,0,1,10.3-4.8c5.4,0,9.5,2,12.5,5.9s4.5,9.4,4.5,16.3v.7Zm-13.6-.9c0-7.7-2.3-11.6-6.8-11.6-3.2,0-5.4,1.2-6.4,3.5v17.1c1.2,2.4,3.4,3.6,6.5,3.6,4.3,0,6.5-3.7,6.7-11.2Zm36.6-32.1v10.8h7.2v9.4H169v19.9a5,5,0,0,0,.9,3.4,5,5,0,0,0,3.5,1,31.14,31.14,0,0,0,3.4-.2v9.7a24.18,24.18,0,0,1-7.6,1.2c-4.7,0-8.1-1.1-10.3-3.3s-3.3-5.5-3.3-10v-21.6H150V253h5.6v-10.9Zm13.6-.4a6.29,6.29,0,0,1,2.1-4.8,8.06,8.06,0,0,1,5.4-1.9,7.59,7.59,0,0,1,5.4,1.9,6,6,0,0,1,2.1,4.8,6.29,6.29,0,0,1-2.1,4.8,8.06,8.06,0,0,1-5.4,1.9,7.59,7.59,0,0,1-5.4-1.9A6.29,6.29,0,0,1,182.6,241.65Zm14.4,54.8H183.4V253H197ZM219.4,253l.4,5.1a15,15,0,0,1,12.4-5.9q8.25,0,11.1,6.6a14.5,14.5,0,0,1,12.8-6.6c8.8,0,13.4,5.3,13.6,16v28.3H256.1V269a9.11,9.11,0,0,0-1.1-4.9c-.8-1-2.1-1.5-4.1-1.5a6.4,6.4,0,0,0-6,3.6v30.3H231.3v-27.4a8.64,8.64,0,0,0-1.1-4.9c-.7-1-2.1-1.5-4.1-1.5a6.6,6.6,0,0,0-6,3.6v30.3H206.5V253Zm81.3,44.3q-10.05,0-16.2-6c-4.1-4-6.2-9.2-6.2-15.6v-1a26,26,0,0,1,2.5-11.8A18.37,18.37,0,0,1,288,255a21.54,21.54,0,0,1,11.3-2.8c6.1,0,10.9,1.9,14.5,5.7s5.3,9.1,5.3,15.9v5.3h-27a9.81,9.81,0,0,0,3.2,5.8,9.49,9.49,0,0,0,6.4,2.1,12.38,12.38,0,0,0,10.1-4.5l6.2,7.3a17.92,17.92,0,0,1-7.2,5.6,28.32,28.32,0,0,1-10.1,1.9Zm-1.5-34.7c-4,0-6.3,2.6-7.1,7.9h13.7v-1a6.23,6.23,0,0,0-6.6-6.9Zm49.8,13.2h-7.6v20.7H327.3v-58.6h23.1c6.9,0,12.4,1.5,16.3,4.6s5.9,7.4,5.9,13.1a18.46,18.46,0,0,1-2.5,10.1,17.24,17.24,0,0,1-7.7,6.5l12.2,23.7v.6H359.5Zm-7.7-10.9h8.9c2.7,0,4.7-.7,6.1-2.1a9.52,9.52,0,0,0-.1-11.8,8.16,8.16,0,0,0-6-2.2h-8.9Zm38.5,9.4a25.67,25.67,0,0,1,2.5-11.6,17.79,17.79,0,0,1,7.3-7.8,22.26,22.26,0,0,1,11.1-2.7c6.5,0,11.7,2,15.4,6.1s5.6,9.5,5.6,16.5v.5q0,10.2-5.7,16.2t-15.3,6c-6.2,0-11.2-1.9-14.9-5.6s-5.8-8.8-6.1-15.1Zm13.6.9c0,4,.6,7,1.9,8.9a6.26,6.26,0,0,0,5.6,2.8c4.8,0,7.3-3.7,7.4-11.1v-1.4q0-11.7-7.5-11.7c-4.5,0-7,3.4-7.4,10.1Zm76.1-.1c0,7.1-1.5,12.6-4.4,16.5a15,15,0,0,1-12.5,5.8,12.94,12.94,0,0,1-10.7-5.3l-.6,4.5H429.1v-61.9h13.6v21.8a12.33,12.33,0,0,1,9.8-4.3c5.4,0,9.6,1.9,12.6,5.8s4.4,9.4,4.4,16.4v.7Zm-13.6-.9c0-4.2-.6-7.2-1.7-8.9a5.56,5.56,0,0,0-5.1-2.7c-3.1,0-5.2,1.2-6.4,3.5v17.3c1.2,2.3,3.3,3.5,6.4,3.5s5.2-1.6,6.1-4.7C455.7,280.65,455.9,278,455.9,274.15Zm19.1.1a25.67,25.67,0,0,1,2.5-11.6,17.79,17.79,0,0,1,7.3-7.8,22.26,22.26,0,0,1,11.1-2.7c6.5,0,11.7,2,15.4,6.1s5.6,9.5,5.6,16.5v.5q0,10.2-5.7,16.2t-15.3,6c-6.2,0-11.2-1.9-14.9-5.6s-5.8-8.8-6.1-15.1l.1-2.5Zm13.5.9c0,4,.6,7,1.9,8.9a6.26,6.26,0,0,0,5.6,2.8c4.8,0,7.3-3.7,7.4-11.1v-1.4q0-11.7-7.5-11.7c-4.5,0-7,3.4-7.4,10.1Zm51.5-33.1v10.8h7.2v9.4H540v19.9a5,5,0,0,0,.9,3.4,5,5,0,0,0,3.5,1,31.14,31.14,0,0,0,3.4-.2v9.7a24.18,24.18,0,0,1-7.6,1.2c-4.7,0-8.1-1.1-10.3-3.3s-3.3-5.5-3.3-10v-21.6H521V253h5.6v-10.9Z"/><circle class="b" cx="14.7" cy="281.55" r="14.7"/></svg>