<svg xmlns="http://www.w3.org/2000/svg" width="468" height="468" fill="none" viewBox="0 0 468 468"><circle cx="234" cy="234" r="226.5" fill="#fff" stroke="#1378D5" stroke-width="15"/><path fill="#1378D5" d="M168.051 288.516C155.269 273.004 148.303 253.516 148.356 233.415C148.367 231.527 148.456 229.633 148.588 227.739C149.328 217.077 152.084 206.651 156.707 197.015C157.841 194.643 159.115 192.329 160.395 190.149C166.346 180.148 174.281 171.47 183.711 164.649C193.142 157.828 203.868 153.01 215.23 150.489C216.662 150.163 218.107 149.88 219.552 149.626C222.802 149.068 226.08 148.692 229.371 148.498C241.244 147.857 253.119 149.714 264.23 153.949C266.449 154.784 268.639 155.704 270.807 156.743C272.975 157.782 275.064 158.913 277.103 160.107C290.265 167.777 301.122 178.847 308.535 192.156C310.858 196.314 312.836 200.657 314.448 205.14C319.585 219.481 320.799 234.933 317.965 249.901C317.078 254.58 315.793 259.176 314.126 263.638C313.233 266.055 312.234 268.45 311.101 270.808C306.805 279.837 300.957 288.043 293.823 295.05C291.981 296.857 290.034 298.556 288.031 300.184C284.351 303.185 280.424 305.869 276.292 308.209C271.867 310.722 267.23 312.841 262.434 314.545C245.93 320.394 228.028 321.035 211.148 316.38C194.268 311.725 179.224 301.999 168.051 288.516ZM122.137 145.256C139.89 122.772 164.07 106.229 191.459 97.8303L202.137 139.295C184.496 145.158 168.86 155.867 157.018 170.196L122.137 145.256ZM320.713 120.839L313.513 147.159C313.186 148.361 313.18 149.628 313.495 150.833C313.809 152.038 314.434 153.14 315.306 154.029C316.178 154.918 317.267 155.564 318.466 155.901C319.665 156.239 320.931 156.258 322.139 155.955L348.594 149.268C353.073 155.366 357.054 161.813 360.499 168.548L321.455 186.292C312.603 169.952 299.34 156.428 283.175 147.26L301.733 108.499C308.377 112.101 314.724 116.227 320.713 120.839ZM372.945 265.215L331.696 253.732C335.365 235.516 333.875 216.636 327.397 199.22L366.419 181.482C376.898 208.117 379.171 237.278 372.945 265.215ZM333.763 335.731C329.527 339.874 325.038 343.748 320.32 347.332L296.091 312.001C307.916 302.583 317.44 290.593 323.939 276.943C325.424 273.852 326.746 270.686 327.9 267.457L369.155 278.974C362.034 300.433 349.91 319.89 333.784 335.739L333.763 335.731ZM270.387 141.005C256.514 135.526 241.584 133.249 226.708 134.343C223.094 134.604 219.496 135.065 215.932 135.723L205.269 94.2733C209.782 93.3484 214.336 92.6643 218.909 92.1855C242.709 89.6474 266.766 93.145 288.859 102.356L270.387 141.005ZM267.098 328.026C273.073 325.916 278.836 323.247 284.309 320.054L308.539 355.385C284.096 370.29 255.755 377.545 227.157 376.218L231.325 333.71C243.496 334.018 255.621 332.091 267.098 328.026ZM216.287 78.1162L202.194 80.3269C200.13 80.7547 198.079 81.2203 196.042 81.7238C195.594 81.7515 195.148 81.8182 194.711 81.923C194.347 82.0386 193.993 82.1842 193.653 82.3582C158.401 91.5728 127.494 112.854 106.309 142.5L106.188 142.619L106.101 142.773C100.848 150.169 96.2384 158.003 92.325 166.187C87.2796 176.732 83.4336 187.81 80.8593 199.212L78.3326 213.26C76.9272 223.968 76.6347 234.792 77.4598 245.561C77.4583 245.716 77.4285 245.871 77.441 246.041C77.4535 246.211 77.515 246.431 77.5483 246.636C78.4226 257.58 80.4409 268.403 83.5703 278.926C84.1171 280.736 85.3596 282.256 87.0253 283.151C88.691 284.046 90.6437 284.244 92.455 283.701L92.6183 283.639C94.3865 283.074 95.8639 281.841 96.7347 280.201C97.6056 278.562 97.8008 276.647 97.2788 274.866C95.0436 267.396 93.4245 259.756 92.4378 252.021L135.181 248.717C137.98 267.098 145.824 284.342 157.842 298.529L127.213 328.568C119.501 319.857 112.886 310.234 107.515 299.914C106.655 298.266 105.185 297.019 103.419 296.441C101.653 295.862 99.7305 295.997 98.0624 296.816L97.892 296.885C96.2168 297.761 94.9575 299.265 94.391 301.068C93.8245 302.871 93.9972 304.826 94.8709 306.501C106.834 329.455 124.303 349.082 145.714 363.626C167.125 378.169 191.809 387.175 217.555 389.836C217.904 389.936 218.261 390.008 218.621 390.051C219.033 390.084 219.447 390.081 219.859 390.042C256.001 393.234 292.14 383.871 322.185 363.53C322.332 363.459 322.474 363.38 322.612 363.293C322.719 363.188 322.833 363.076 322.94 362.971C352.972 342.329 374.83 311.824 384.72 276.749C384.843 276.501 384.947 276.245 385.032 275.982C385.105 275.699 385.122 275.431 385.167 275.148C394.624 240.147 391.739 202.957 376.998 169.832C376.921 169.542 376.825 169.258 376.71 168.981C376.602 168.77 376.481 168.566 376.348 168.369C372.698 160.39 368.378 152.735 363.432 145.488L370.18 143.8C371.408 143.498 372.533 142.874 373.44 141.994C374.347 141.114 375.004 140.008 375.344 138.79C375.683 137.572 375.692 136.286 375.371 135.063C375.049 133.841 374.408 132.726 373.514 131.832L338.56 96.1918C337.675 95.3124 336.575 94.6801 335.37 94.3581C334.165 94.0361 332.896 94.0355 331.69 94.3564C330.485 94.6773 329.384 95.3085 328.499 96.1871C327.613 97.0657 326.973 98.1611 326.642 99.3641L324.809 106.064C317.591 100.951 309.957 96.4537 301.986 92.6186C301.838 92.5394 301.726 92.4393 301.571 92.3671C301.378 92.2794 301.181 92.2019 300.98 92.1351C274.609 79.6799 245.285 74.8322 216.308 78.1377L216.287 78.1162ZM91.3319 237.768C91.1234 230.534 91.468 223.294 92.3628 216.112C92.9618 211.39 93.8004 206.701 94.8754 202.064C97.2099 191.796 100.677 181.819 105.213 172.316C107.771 166.986 110.655 161.818 113.849 156.843L148.723 181.777C140.736 194.842 135.856 209.566 134.459 224.816C134.173 228.056 134.043 231.284 134.068 234.5L91.3319 237.768ZM167.82 308.618C174.742 314.75 182.487 319.883 190.831 323.869C199.173 327.882 208.032 330.719 217.153 332.299L213.013 374.878C184.672 370.727 158.244 358.12 137.184 338.706L167.82 308.618ZM286.474 255.952C291.673 243.588 292.321 229.781 288.303 216.985C286.882 212.429 284.9 208.068 282.404 204.001C277.937 196.725 271.884 190.553 264.696 185.945C262.694 184.651 260.613 183.483 258.465 182.448C256.828 181.59 255.588 180.13 255.005 178.376C254.422 176.622 254.542 174.711 255.339 173.044C256.137 171.376 257.55 170.083 259.281 169.436C261.012 168.789 262.927 168.838 264.622 169.574C266.79 170.613 268.886 171.751 270.897 172.973C285.223 181.679 296.023 195.156 301.396 211.036C306.769 226.916 306.372 244.182 300.276 259.798C299.637 261.433 298.957 263.067 298.178 264.657C297.319 266.294 295.86 267.534 294.106 268.117C292.352 268.7 290.441 268.58 288.773 267.783C287.106 266.985 285.813 265.573 285.166 263.841C284.519 262.11 284.568 260.196 285.304 258.5C285.727 257.656 286.117 256.806 286.474 255.952ZM188.21 288.663C184.548 285.614 181.202 282.203 178.225 278.482C167.772 265.372 162.237 249.016 162.58 232.253C162.593 231.694 162.591 231.135 162.618 230.577C163.054 221.051 165.401 211.71 169.518 203.108C169.872 202.354 170.357 201.669 170.952 201.085C171.679 200.382 172.547 199.841 173.499 199.498C174.828 199.017 176.27 198.942 177.642 199.282C179.014 199.621 180.255 200.361 181.207 201.406C182.158 202.451 182.778 203.755 182.988 205.153C183.198 206.551 182.988 207.98 182.385 209.258C180.844 212.49 179.608 215.858 178.695 219.32C177.668 223.184 177.055 227.146 176.868 231.14C176.832 231.932 176.825 232.709 176.817 233.501C176.794 237.484 177.194 241.459 178.01 245.357C179.744 253.741 183.335 261.629 188.52 268.442C194.011 275.652 201.139 281.451 209.315 285.361C210.952 286.219 212.192 287.678 212.775 289.432C213.358 291.186 213.238 293.098 212.441 294.765C211.643 296.432 210.23 297.725 208.499 298.372C206.768 299.019 204.853 298.97 203.158 298.234C197.797 295.678 192.775 292.462 188.21 288.663ZM205.971 239.491C206.213 240.721 206.537 241.934 206.94 243.121C207.527 244.853 208.283 246.523 209.196 248.107C211.603 252.297 215.04 255.801 219.181 258.288C219.962 258.756 220.756 259.195 221.594 259.592C222.432 259.989 223.27 260.343 224.136 260.656C228.672 262.32 233.559 262.794 238.33 262.031C240.054 261.759 241.75 261.333 243.398 260.758L243.561 260.682C248.088 259.039 252.122 256.273 255.286 252.643C256.481 251.254 257.535 249.751 258.434 248.155C258.801 247.515 259.168 246.875 259.493 246.192C262.198 240.487 262.939 234.048 261.603 227.878C260.266 221.708 256.926 216.153 252.103 212.079C250.268 210.532 248.247 209.22 246.087 208.173C244.123 207.244 242.058 206.543 239.934 206.084C239.709 206.025 239.483 205.981 239.25 205.943C234.706 205.059 230.016 205.302 225.588 206.652C225.17 206.782 224.751 206.884 224.347 207.028C221.149 208.204 218.17 209.908 215.536 212.07C214.966 212.545 214.396 213.02 213.867 213.538C211.491 215.876 209.542 218.612 208.11 221.622C207.779 222.297 207.517 222.988 207.242 223.678C207.06 224.164 206.893 224.65 206.733 225.144C206.318 226.375 205.989 227.634 205.748 228.91C205.161 232.42 205.237 236.009 205.971 239.491ZM219.715 232.511C219.856 230.955 220.258 229.434 220.904 228.011L221.013 227.736C222.488 224.72 224.977 222.319 228.044 220.953L228.264 220.849C228.556 220.717 228.826 220.55 229.131 220.447C230.293 220.046 231.504 219.801 232.73 219.718C234.4 219.57 236.082 219.723 237.697 220.17C238.49 220.385 239.263 220.667 240.008 221.012C240.752 221.371 241.462 221.794 242.132 222.278C242.497 222.536 242.841 222.815 243.17 223.094C244.902 224.582 246.249 226.466 247.098 228.585C247.948 230.704 248.275 232.997 248.051 235.269C247.895 236.92 247.451 238.531 246.739 240.029C246.116 241.285 245.311 242.442 244.351 243.464C244.158 243.653 243.973 243.835 243.787 244.017L243.594 244.206C242.454 245.25 241.154 246.104 239.744 246.736C239.353 246.909 238.991 247.138 238.579 247.276C237.391 247.678 236.154 247.921 234.902 247.997C233.266 248.133 231.618 247.981 230.034 247.546C228.414 247.13 226.889 246.404 225.543 245.41C224.549 244.703 223.652 243.869 222.873 242.93C222.572 242.623 222.335 242.253 222.099 241.897C221.184 240.547 220.508 239.05 220.098 237.472C219.673 235.862 219.536 234.19 219.693 232.532L219.715 232.511Z"/></svg>