<svg width="89" height="27" fill="none" xmlns="http://www.w3.org/2000/svg"><path d="M77.414 9.71h3.036v2.992l-.264-.022c.279-.88.748-1.65 1.408-2.31.675-.66 1.533-.99 2.574-.99 1.086 0 1.9.352 2.442 1.056.558.689.836 1.598.836 2.728v7.502H84.41v-6.6c0-.66-.117-1.159-.352-1.496-.234-.338-.623-.506-1.166-.506-.601 0-1.122.271-1.562.814a4.321 4.321 0 0 0-.88 1.848v5.94h-3.036V9.71ZM69.868 21.04c-1.13 0-2.142-.257-3.036-.77a5.547 5.547 0 0 1-2.068-2.09c-.484-.895-.726-1.892-.726-2.992 0-1.115.242-2.112.726-2.992a5.503 5.503 0 0 1 2.068-2.112c.88-.514 1.892-.77 3.036-.77 1.144 0 2.156.256 3.036.77a5.347 5.347 0 0 1 2.046 2.112c.498.88.748 1.87.748 2.97 0 1.114-.25 2.12-.748 3.014a5.343 5.343 0 0 1-2.068 2.09c-.88.513-1.885.77-3.014.77Zm0-2.618c.557 0 1.048-.132 1.474-.396a2.79 2.79 0 0 0 .99-1.144c.234-.499.352-1.064.352-1.694 0-.63-.118-1.188-.352-1.672a2.764 2.764 0 0 0-.99-1.166c-.426-.279-.917-.418-1.474-.418-.558 0-1.05.14-1.474.418a2.764 2.764 0 0 0-.99 1.166c-.22.484-.33 1.041-.33 1.672 0 .63.11 1.195.33 1.694.234.484.564.865.99 1.144.425.264.916.396 1.474.396ZM52.385 9.71h3.036v2.992l-.264-.022c.279-.88.748-1.65 1.408-2.31.675-.66 1.533-.99 2.574-.99 1.085 0 1.9.352 2.442 1.056.557.689.836 1.598.836 2.728v7.502h-3.036v-6.6c0-.66-.117-1.159-.352-1.496-.235-.338-.623-.506-1.166-.506-.601 0-1.122.271-1.562.814a4.321 4.321 0 0 0-.88 1.848v5.94h-3.036V9.71ZM43.904 20.952c-1.026 0-1.87-.308-2.53-.924-.66-.616-.99-1.416-.99-2.398 0-1.115.418-2.01 1.254-2.684.85-.69 2.105-1.034 3.762-1.034h2.75l-.924.352v-.462c0-.572-.176-1.02-.528-1.342-.352-.338-.931-.506-1.738-.506-.69 0-1.386.154-2.09.462-.704.308-1.29.69-1.76 1.144v-2.882c.47-.352 1.1-.66 1.892-.924a7.942 7.942 0 0 1 2.486-.396c1.599 0 2.78.41 3.542 1.232.778.806 1.166 1.914 1.166 3.322v5.742c0 .176.008.352.022.528.03.161.066.322.11.484h-3.014v-3.3l.044 1.386a4.044 4.044 0 0 1-1.32 1.606c-.572.396-1.283.594-2.134.594Zm.858-2.156c.558 0 1.049-.206 1.474-.616.44-.426.77-.954.99-1.584v-.792h-1.562c-.762 0-1.334.146-1.716.44-.381.278-.572.674-.572 1.188 0 .41.125.74.374.99.264.25.602.374 1.012.374ZM34.66 21.04c-1.525 0-2.874-.345-4.047-1.034-1.174-.704-2.09-1.68-2.75-2.926-.646-1.247-.968-2.662-.968-4.246 0-1.584.322-2.992.968-4.224.66-1.232 1.576-2.193 2.75-2.882 1.173-.704 2.522-1.056 4.048-1.056.968 0 1.818.11 2.552.33.748.22 1.356.506 1.826.858v3.498c-.396-.484-.96-.895-1.694-1.232-.719-.338-1.51-.506-2.376-.506-.939 0-1.775.22-2.508.66-.719.44-1.284 1.056-1.694 1.848-.396.792-.594 1.694-.594 2.706 0 1.026.198 1.943.594 2.75.41.792.975 1.408 1.694 1.848.733.44 1.57.66 2.508.66.88 0 1.68-.162 2.398-.484.718-.323 1.276-.726 1.672-1.21v3.41a5.686 5.686 0 0 1-1.87.902c-.704.22-1.54.33-2.508.33ZM11.275 6.271c.276.526.019 1.152-.464 1.498a5.846 5.846 0 0 0 1.004 10.082c.454.205.789.632.789 1.13v6.206a.837.837 0 0 1-.838.837C5.33 26.024.112 20.804.112 14.366V.862C.112.399.487.024.95.024c4.483 0 8.376 2.533 10.325 6.247Z" fill="#000"/><path d="M14.037 16.729a4.237 4.237 0 0 0 4.234-4.24 4.237 4.237 0 0 0-4.234-4.242 4.237 4.237 0 0 0-4.234 4.241 4.237 4.237 0 0 0 4.234 4.24Z" fill="#000"/></svg>