<svg xmlns="http://www.w3.org/2000/svg" width="687" height="421" fill="none" viewBox="0 0 687 421"><rect width="407.223" height="48.462" x="16.231" y="114.353" fill="#D9D9D9" rx="24.231" transform="rotate(-10.556 16.231 114.353)"/><rect width="337.679" height="48.462" x="56.533" y="151.306" fill="#D9D9D9" rx="24.231" transform="rotate(-10.556 56.533 151.306)"/><rect width="441.061" height="48.462" x="54.707" y="274.403" fill="#D9D9D9" rx="24.231" transform="rotate(-10.556 54.707 274.403)"/><rect width="440.421" height="48.462" x="38.122" y="321.956" fill="#D9D9D9" rx="24.231" transform="rotate(-10.556 38.122 321.956)"/><rect width="435.885" height="48.462" x="213.923" y="147.109" fill="#D9D9D9" rx="24.231" transform="rotate(-10.556 213.923 147.109)"/><rect width="431.054" height="48.462" x="199.842" y="194.196" fill="#D9D9D9" rx="24.231" transform="rotate(-10.556 199.842 194.196)"/><rect width="394.936" height="48.462" x="235.299" y="292.946" fill="#D9D9D9" rx="24.231" transform="rotate(-10.556 235.299 292.946)"/><rect width="456.282" height="48.462" x="199.862" y="344.013" fill="#D9D9D9" rx="24.231" transform="rotate(-10.556 199.862 344.013)"/><g filter="url(#a)"><rect width="461" height="286" x="126" y="67" fill="#F8F8F8" rx="10"/><path fill="#D9D9D9" d="M154 91h90v67.283h-90zm0 84.354h90v69.291h-90zm0 86.363h90V329h-90zM259 91h90v67.283h-90zm105 0h90v67.283h-90z"/><path fill="#EEE" d="M364 175.354h90v69.291h-90z"/><path fill="#D9D9D9" d="M364 261.717h90V329h-90zm-105-86.363h90v69.291h-90zm0 86.363h90V329h-90zM469 91h90v67.283h-90zm0 84.354h90v69.291h-90zm0 86.363h90V329h-90z"/></g><defs><filter id="a" width="485" height="310" x="116" y="59" color-interpolation-filters="sRGB" filterUnits="userSpaceOnUse"><feFlood flood-opacity="0" result="BackgroundImageFix"/><feColorMatrix in="SourceAlpha" values="0 0 0 0 0 0 0 0 0 0 0 0 0 0 0 0 0 0 127 0"/><feOffset dx="2" dy="4"/><feGaussianBlur stdDeviation="6"/><feColorMatrix values="0 0 0 0 0 0 0 0 0 0 0 0 0 0 0 0 0 0 0.25 0"/><feBlend in2="BackgroundImageFix" result="effect1_dropShadow"/><feBlend in="SourceGraphic" in2="effect1_dropShadow" result="shape"/></filter></defs></svg>