<svg xmlns="http://www.w3.org/2000/svg" xml:space="preserve" viewBox="0 0 512 512"><circle cx="256" cy="256" r="256" style="fill:#45b39c"/><path d="M512 256c0-10.816-.747-21.445-2.048-31.904L399.781 113.925l-.107-.107c-2.24-2.773-5.707-4.48-9.547-4.48H121.861c-6.933 0-12.533 5.6-12.533 12.533v268.267c0 3.253 1.227 6.187 3.253 8.373l111.424 111.424C234.496 511.248 245.157 512 256 512c141.387 0 256-114.613 256-256z" style="opacity:.1;enable-background:new"/><path d="M390.133 109.333H121.867c-6.923 0-12.533 5.611-12.533 12.533v42.277h293.333v-42.277c0-6.922-5.611-12.533-12.534-12.533z" style="fill:#e56353"/><path d="M109.333 164.144v225.989c0 6.923 5.611 12.533 12.533 12.533h268.267c6.923 0 12.533-5.611 12.533-12.533V164.144H109.333z" style="fill:#d5d6db"/><path d="M109.333 164.144v215.323c0 6.923 5.611 12.533 12.533 12.533h268.267c6.923 0 12.533-5.611 12.533-12.533V164.144H109.333z" style="fill:#ebf0f3"/><circle cx="144.8" cy="150.827" r="7.675" style="fill:#d15241"/><circle cx="144.8" cy="177.493" r="7.675" style="fill:#d5d6db"/><path d="M144.789 145.771a5.287 5.287 0 0 0-5.285 5.285v26.176a5.287 5.287 0 0 0 5.285 5.285 5.287 5.287 0 0 0 5.285-5.285v-26.176a5.29 5.29 0 0 0-5.285-5.285z" style="fill:#64798a"/><circle cx="367.216" cy="150.827" r="7.675" style="fill:#d15241"/><circle cx="367.216" cy="177.493" r="7.675" style="fill:#d5d6db"/><path d="M367.216 145.771a5.287 5.287 0 0 0-5.285 5.285v26.176a5.284 5.284 0 1 0 10.57 0v-26.176a5.29 5.29 0 0 0-5.285-5.285z" style="fill:#64798a"/><circle cx="293.072" cy="150.827" r="7.675" style="fill:#d15241"/><circle cx="293.072" cy="177.493" r="7.675" style="fill:#d5d6db"/><path d="M293.072 145.771a5.287 5.287 0 0 0-5.285 5.285v26.176a5.284 5.284 0 1 0 10.57 0v-26.176a5.287 5.287 0 0 0-5.285-5.285z" style="fill:#64798a"/><circle cx="218.933" cy="150.827" r="7.675" style="fill:#d15241"/><circle cx="218.933" cy="177.493" r="7.675" style="fill:#d5d6db"/><path d="M218.928 145.771a5.287 5.287 0 0 0-5.285 5.285v26.176a5.284 5.284 0 1 0 10.57 0v-26.176a5.287 5.287 0 0 0-5.285-5.285z" style="fill:#64798a"/><path d="M218.491 210.437h28.384v28.384h-28.384z" style="fill:#d5d6db"/><path d="M265.125 210.437h28.384v28.384h-28.384z" style="fill:#44c4a1"/><path d="M311.733 210.437h28.384v28.384h-28.384z" style="fill:#d5d6db"/><path d="M358.4 210.437h28.384v28.384H358.4z" style="fill:#e56353"/><path d="M125.221 255.019h28.384v28.384h-28.384zm46.619 0h28.384v28.384H171.84zm46.651 0h28.384v28.384h-28.384z" style="fill:#d5d6db"/><path d="M265.125 255.019h28.384v28.384h-28.384z" style="fill:#44c4a1"/><path d="M311.733 255.019h28.384v28.384h-28.384z" style="fill:#d5d6db"/><path d="M358.4 255.019h28.384v28.384H358.4z" style="fill:#e56353"/><path d="M125.221 299.573h28.384v28.384h-28.384zm46.619 0h28.384v28.384H171.84zm46.651 0h28.384v28.384h-28.384z" style="fill:#d5d6db"/><path d="M265.125 299.573h28.384v28.384h-28.384z" style="fill:#44c4a1"/><path d="M311.733 299.573h28.384v28.384h-28.384z" style="fill:#d5d6db"/><path d="M358.4 299.573h28.384v28.384H358.4z" style="fill:#e56353"/><path d="M125.221 344.16h28.384v28.384h-28.384zm46.619 0h28.384v28.384H171.84zm46.651 0h28.384v28.384h-28.384z" style="fill:#d5d6db"/></svg>