<?xml version="1.0" encoding="iso-8859-1"?>
<!-- Uploaded to: SVG Repo, www.svgrepo.com, Generator: SVG Repo Mixer Tools -->
<svg version="1.1" id="Layer_1" xmlns="http://www.w3.org/2000/svg" xmlns:xlink="http://www.w3.org/1999/xlink" 
	 viewBox="0 0 512 512" xml:space="preserve">
<circle style="fill:#45B39C;" cx="256" cy="256" r="256"/>
<path style="opacity:0.1;enable-background:new    ;" d="M512,256c0-10.816-0.747-21.445-2.048-31.904L399.781,113.925l-0.107-0.107
	c-2.24-2.773-5.707-4.48-9.547-4.48H121.861c-6.933,0-12.533,5.6-12.533,12.533v268.267c0,3.253,1.227,6.187,3.253,8.373
	l111.424,111.424C234.496,511.248,245.157,512,256,512C397.387,512,512,397.387,512,256z"/>
<path style="fill:#E56353;" d="M390.133,109.333H121.867c-6.923,0-12.533,5.611-12.533,12.533v42.277h293.333v-42.277
	C402.667,114.944,397.056,109.333,390.133,109.333z"/>
<path style="fill:#D5D6DB;" d="M109.333,164.144v225.989c0,6.923,5.611,12.533,12.533,12.533h268.267
	c6.923,0,12.533-5.611,12.533-12.533V164.144H109.333z"/>
<path style="fill:#EBF0F3;" d="M109.333,164.144v215.323c0,6.923,5.611,12.533,12.533,12.533h268.267
	c6.923,0,12.533-5.611,12.533-12.533V164.144H109.333z"/>
<circle style="fill:#D15241;" cx="144.8" cy="150.827" r="7.675"/>
<circle style="fill:#D5D6DB;" cx="144.8" cy="177.493" r="7.675"/>
<path style="fill:#64798A;" d="M144.789,145.771c-2.917,0-5.285,2.368-5.285,5.285v26.176c0,2.917,2.368,5.285,5.285,5.285
	c2.917,0,5.285-2.368,5.285-5.285v-26.176C150.069,148.139,147.707,145.771,144.789,145.771z"/>
<circle style="fill:#D15241;" cx="367.216" cy="150.827" r="7.675"/>
<circle style="fill:#D5D6DB;" cx="367.216" cy="177.493" r="7.675"/>
<path style="fill:#64798A;" d="M367.216,145.771c-2.917,0-5.285,2.368-5.285,5.285v26.176c0,2.917,2.363,5.285,5.285,5.285
	c2.917,0,5.285-2.368,5.285-5.285v-26.176C372.496,148.139,370.133,145.771,367.216,145.771z"/>
<circle style="fill:#D15241;" cx="293.072" cy="150.827" r="7.675"/>
<circle style="fill:#D5D6DB;" cx="293.072" cy="177.493" r="7.675"/>
<path style="fill:#64798A;" d="M293.072,145.771c-2.917,0-5.285,2.368-5.285,5.285v26.176c0,2.917,2.363,5.285,5.285,5.285
	c2.917,0,5.285-2.368,5.285-5.285v-26.176C298.357,148.139,295.989,145.771,293.072,145.771z"/>
<circle style="fill:#D15241;" cx="218.933" cy="150.827" r="7.675"/>
<circle style="fill:#D5D6DB;" cx="218.933" cy="177.493" r="7.675"/>
<path style="fill:#64798A;" d="M218.928,145.771c-2.917,0-5.285,2.368-5.285,5.285v26.176c0,2.917,2.363,5.285,5.285,5.285
	c2.917,0,5.285-2.368,5.285-5.285v-26.176C224.213,148.139,221.845,145.771,218.928,145.771z"/>
<rect x="218.491" y="210.437" style="fill:#D5D6DB;" width="28.384" height="28.384"/>
<rect x="265.125" y="210.437" style="fill:#44C4A1;" width="28.384" height="28.384"/>
<rect x="311.733" y="210.437" style="fill:#D5D6DB;" width="28.384" height="28.384"/>
<rect x="358.4" y="210.437" style="fill:#E56353;" width="28.384" height="28.384"/>
<g>
	<rect x="125.221" y="255.019" style="fill:#D5D6DB;" width="28.384" height="28.384"/>
	<rect x="171.84" y="255.019" style="fill:#D5D6DB;" width="28.384" height="28.384"/>
	<rect x="218.491" y="255.019" style="fill:#D5D6DB;" width="28.384" height="28.384"/>
</g>
<rect x="265.125" y="255.019" style="fill:#44C4A1;" width="28.384" height="28.384"/>
<rect x="311.733" y="255.019" style="fill:#D5D6DB;" width="28.384" height="28.384"/>
<rect x="358.4" y="255.019" style="fill:#E56353;" width="28.384" height="28.384"/>
<g>
	<rect x="125.221" y="299.573" style="fill:#D5D6DB;" width="28.384" height="28.384"/>
	<rect x="171.84" y="299.573" style="fill:#D5D6DB;" width="28.384" height="28.384"/>
	<rect x="218.491" y="299.573" style="fill:#D5D6DB;" width="28.384" height="28.384"/>
</g>
<rect x="265.125" y="299.573" style="fill:#44C4A1;" width="28.384" height="28.384"/>
<rect x="311.733" y="299.573" style="fill:#D5D6DB;" width="28.384" height="28.384"/>
<rect x="358.4" y="299.573" style="fill:#E56353;" width="28.384" height="28.384"/>
<g>
	<rect x="125.221" y="344.16" style="fill:#D5D6DB;" width="28.384" height="28.384"/>
	<rect x="171.84" y="344.16" style="fill:#D5D6DB;" width="28.384" height="28.384"/>
	<rect x="218.491" y="344.16" style="fill:#D5D6DB;" width="28.384" height="28.384"/>
</g>
</svg>