<?xml version="1.0" encoding="utf-8"?>
<!-- Uploaded to: SVG Repo, www.svgrepo.com, Generator: SVG Repo Mixer Tools -->
<svg width="800px" height="800px" viewBox="0 0 1024 1024" class="icon"  version="1.1" xmlns="http://www.w3.org/2000/svg"><path d="M778.666667 938.666667h-533.333334c-23.466667 0-38.4-25.6-27.733333-46.933334L277.333333 789.333333h469.333334l57.6 102.4c12.8 21.333333-2.133333 46.933333-25.6 46.933334z" fill="#455A64" /><path d="M512 490.666667m-384 0a384 384 0 1 0 768 0 384 384 0 1 0-768 0Z" fill="#78909C" /><path d="M512 746.666667c-140.8 0-256-115.2-256-256s115.2-256 256-256 256 115.2 256 256-115.2 256-256 256z" fill="#455A64" /><path d="M512 490.666667m-192 0a192 192 0 1 0 384 0 192 192 0 1 0-384 0Z" fill="#42A5F5" /><path d="M614.4 426.666667c-25.6-29.866667-64-46.933333-102.4-46.933334s-76.8 17.066667-102.4 46.933334c-10.666667 10.666667-8.533333 27.733333 2.133333 38.4s27.733333 8.533333 38.4-2.133334c32-36.266667 91.733333-36.266667 123.733334 0 6.4 6.4 12.8 8.533333 21.333333 8.533334 6.4 0 12.8-2.133333 19.2-6.4 8.533333-8.533333 10.666667-27.733333 0-38.4z" fill="#90CAF9" /></svg>