<svg xmlns="http://www.w3.org/2000/svg" width="800" height="800" class="icon" viewBox="0 0 1024 1024"><path fill="#455A64" d="M778.667 938.667H245.333c-23.466 0-38.4-25.6-27.733-46.934l59.733-102.4h469.334l57.6 102.4c12.8 21.334-2.134 46.934-25.6 46.934z"/><path fill="#78909C" d="M128 490.667a384 384 0 1 0 768 0 384 384 0 1 0-768 0Z"/><path fill="#455A64" d="M512 746.667c-140.8 0-256-115.2-256-256s115.2-256 256-256 256 115.2 256 256-115.2 256-256 256z"/><path fill="#42A5F5" d="M320 490.667a192 192 0 1 0 384 0 192 192 0 1 0-384 0Z"/><path fill="#90CAF9" d="M614.4 426.667c-25.6-29.867-64-46.934-102.4-46.934s-76.8 17.067-102.4 46.934c-10.667 10.666-8.533 27.733 2.133 38.4s27.734 8.533 38.4-2.134c32-36.266 91.734-36.266 123.734 0 6.4 6.4 12.8 8.534 21.333 8.534 6.4 0 12.8-2.134 19.2-6.4 8.533-8.534 10.667-27.734 0-38.4z"/></svg>