<svg xmlns="http://www.w3.org/2000/svg" width="693" height="425" fill="none" viewBox="0 0 693 425"><path fill="#000" fill-opacity=".05" fill-rule="evenodd" d="M40.439 110.977c-13.283 2.475-22.045 15.25-19.57 28.533 2.476 13.283 15.25 22.045 28.533 19.569l18.302-3.41c-5.096 5.484-7.619 13.227-6.142 21.151 2.475 13.283 15.25 22.045 28.533 19.57l130.295-24.28c.026.157.054.315.083.472 1.477 7.925 6.619 14.24 13.348 17.52l-7.995 1.49c-13.284 2.475-22.045 15.249-19.57 28.533 2.475 13.283 15.25 22.044 28.533 19.569l379.755-70.765c13.283-2.475 22.044-15.25 19.569-28.533-1.477-7.924-6.619-14.239-13.348-17.519l12.791-2.384c13.283-2.475 22.045-15.249 19.57-28.533-2.476-13.283-15.25-22.044-28.533-19.569L396.82 114.835a25.911 25.911 0 0 0-.083-.472c-1.477-7.925-6.619-14.24-13.348-17.52l22.114-4.12c13.283-2.476 22.044-15.25 19.569-28.534-2.475-13.283-15.25-22.044-28.533-19.569l-356.1 66.357Zm19.279 190.13c-2.475-13.283 6.286-26.057 19.57-28.533l389.687-72.615c13.283-2.475 26.057 6.286 28.533 19.569 2.475 13.283-6.287 26.058-19.57 28.533l-11.159 2.08a24.557 24.557 0 0 1 3.714 2.235l135.037-25.163c13.283-2.475 26.058 6.286 28.533 19.569 1.477 7.925-1.046 15.668-6.141 21.152l2.719-.507c13.283-2.475 26.058 6.286 28.533 19.569 2.475 13.283-6.286 26.058-19.57 28.533L234.809 390.96c-13.283 2.475-26.058-6.286-28.533-19.569-2.475-13.283 6.287-26.058 19.57-28.533l29.558-5.508a24.563 24.563 0 0 1-3.714-2.236L71.505 368.69c-13.283 2.475-26.057-6.286-28.533-19.569-2.475-13.283 6.287-26.058 19.57-28.533l10.523-1.961c-6.728-3.28-11.87-9.595-13.347-17.52Z" clip-rule="evenodd"/><g filter="url(#a)"><path fill="#9E9E9E" d="M567.437 70H125.484c-5.238 0-9.484 4.241-9.484 9.473v28.419c0 5.232 4.246 9.473 9.484 9.473h441.953c5.238 0 9.484-4.241 9.484-9.473V79.473c0-5.232-4.246-9.473-9.484-9.473Z"/><mask id="b" width="461" height="277" x="116" y="70" mask-type="alpha" maskUnits="userSpaceOnUse"><path fill="#404040" d="M567.437 70H125.484c-5.238 0-9.484 4.241-9.484 9.473v257.665c0 5.232 4.246 9.473 9.484 9.473h441.953c5.238 0 9.484-4.241 9.484-9.473V79.473c0-5.232-4.246-9.473-9.484-9.473Z"/></mask><g mask="url(#b)"><path fill="#EEE" d="M577 96.524H116V347h461V96.524Z"/><path fill="#D9D9D9" d="M129.278 87.048a3.79 3.79 0 0 0 3.793-3.787 3.79 3.79 0 0 0-3.793-3.788 3.79 3.79 0 0 0-3.794 3.788 3.79 3.79 0 0 0 3.794 3.787Zm13.484 0a3.79 3.79 0 0 0 3.793-3.787 3.79 3.79 0 0 0-3.793-3.788 3.791 3.791 0 0 0-3.794 3.788 3.791 3.791 0 0 0 3.794 3.787Z" opacity=".4"/><path fill="#D9D9D9" d="M155.833 87.048a3.79 3.79 0 0 0 3.793-3.787 3.79 3.79 0 0 0-3.793-3.788 3.791 3.791 0 0 0-3.794 3.788 3.791 3.791 0 0 0 3.794 3.787Z" opacity=".3"/><path fill="#616161" d="M116 96h27v251h-27z"/><path fill="#D9D9D9" d="M143 96h434v31H143z"/><rect width="60" height="7" x="153" y="136" fill="#fff" rx="3.5"/><rect width="118" height="7" x="153" y="148" fill="#fff" rx="3.5"/><rect width="52" height="16" x="515" y="136" fill="#BDBDBD" rx="2"/><rect width="121" height="94" x="154.5" y="166.5" stroke="#D9D9D9" stroke-dasharray="5 5" stroke-width="3" rx="3.5"/><rect width="128" height="94" x="292.5" y="166.5" stroke="#D9D9D9" stroke-dasharray="5 5" stroke-width="3" rx="3.5"/><rect width="128" height="94" x="437.5" y="166.5" stroke="#D9D9D9" stroke-dasharray="5 5" stroke-width="3" rx="3.5"/><rect width="197" height="78" x="154.5" y="276.5" stroke="#D9D9D9" stroke-dasharray="5 5" stroke-width="3" rx="3.5"/><rect width="197" height="78" x="368.5" y="276.5" stroke="#D9D9D9" stroke-dasharray="5 5" stroke-width="3" rx="3.5"/></g></g><defs><filter id="a" width="500.921" height="316.611" x="98" y="54" color-interpolation-filters="sRGB" filterUnits="userSpaceOnUse"><feFlood flood-opacity="0" result="BackgroundImageFix"/><feColorMatrix in="SourceAlpha" values="0 0 0 0 0 0 0 0 0 0 0 0 0 0 0 0 0 0 127 0"/><feOffset dx="2" dy="4"/><feGaussianBlur stdDeviation="10"/><feColorMatrix values="0 0 0 0 0 0 0 0 0 0 0 0 0 0 0 0 0 0 0.25 0"/><feBlend in2="BackgroundImageFix" result="effect1_dropShadow"/><feBlend in="SourceGraphic" in2="effect1_dropShadow" result="shape"/></filter></defs></svg>