<svg xmlns="http://www.w3.org/2000/svg" width="687" height="421" fill="none" viewBox="0 0 687 421"><path fill="#000" fill-opacity=".05" fill-rule="evenodd" d="M40.051 109.914c-13.156 2.452-21.833 15.104-19.382 28.26 2.452 13.156 15.104 21.833 28.26 19.382l18.126-3.378c-5.047 5.431-7.545 13.1-6.083 20.949 2.452 13.156 15.104 21.833 28.26 19.382l129.047-24.047c.026.155.054.311.083.467 1.462 7.849 6.555 14.103 13.22 17.352l-7.919 1.476c-13.156 2.451-21.833 15.104-19.382 28.259 2.452 13.156 15.104 21.834 28.26 19.382l376.117-70.087c13.156-2.451 21.834-15.103 19.382-28.259-1.462-7.849-6.555-14.103-13.219-17.352l12.668-2.361c13.156-2.451 21.833-15.103 19.382-28.26-2.452-13.155-15.104-21.833-28.26-19.381L393.02 113.735a25.494 25.494 0 0 0-.083-.468c-1.462-7.848-6.555-14.103-13.22-17.351l21.902-4.082c13.156-2.451 21.834-15.103 19.382-28.26-2.451-13.155-15.104-21.833-28.259-19.381l-352.69 65.721Zm19.095 188.31c-2.452-13.156 6.226-25.808 19.382-28.26l385.955-71.92c13.156-2.452 25.809 6.226 28.26 19.382 2.452 13.156-6.226 25.808-19.382 28.259l-11.052 2.06c1.29.629 2.521 1.37 3.678 2.214l133.744-24.922c13.156-2.452 25.808 6.226 28.26 19.382 1.462 7.848-1.036 15.518-6.083 20.949l2.693-.502c13.156-2.452 25.809 6.226 28.26 19.382 2.452 13.156-6.226 25.808-19.382 28.259l-400.918 74.709c-13.156 2.451-25.809-6.226-28.26-19.382-2.452-13.156 6.226-25.808 19.382-28.26l29.275-5.455a24.408 24.408 0 0 1-3.679-2.214L70.82 365.159c-13.155 2.452-25.808-6.226-28.26-19.382-2.45-13.156 6.227-25.808 19.383-28.259l10.423-1.943c-6.665-3.248-11.758-9.503-13.22-17.351Z" clip-rule="evenodd"/><g filter="url(#a)"><path fill="#9E9E9E" d="M566.795 76.029H124.842c-5.238 0-9.484 4.241-9.484 9.473v28.419c0 5.232 4.246 9.473 9.484 9.473h441.953c5.238 0 9.484-4.241 9.484-9.473v-28.42c0-5.231-4.246-9.472-9.484-9.472Z"/><mask id="b" width="462" height="277" x="115" y="76" mask-type="alpha" maskUnits="userSpaceOnUse"><path fill="#404040" d="M566.795 76.029H124.842c-5.238 0-9.484 4.241-9.484 9.473v257.665c0 5.232 4.246 9.473 9.484 9.473h441.953c5.238 0 9.484-4.241 9.484-9.473V85.502c0-5.232-4.246-9.473-9.484-9.473Z"/></mask><g mask="url(#b)"><path fill="#EEE" d="M583.866 102.553H115.358v263.349h468.508V102.553Z"/><path fill="#fff" d="M523.169 184.021H187.436a3.79 3.79 0 0 0-3.793 3.789 3.79 3.79 0 0 0 3.793 3.789h335.733a3.79 3.79 0 0 0 3.793-3.789 3.79 3.79 0 0 0-3.793-3.789Zm-128.982 17.051H187.436a3.791 3.791 0 0 0-3.793 3.789 3.791 3.791 0 0 0 3.793 3.79h206.751a3.791 3.791 0 0 0 3.793-3.79 3.791 3.791 0 0 0-3.793-3.789Zm-119.498-51.154h-87.253a3.791 3.791 0 0 0-3.793 3.789 3.791 3.791 0 0 0 3.793 3.79h87.253a3.791 3.791 0 0 0 3.793-3.79 3.791 3.791 0 0 0-3.793-3.789Zm-64.491-34.103H149.5a3.791 3.791 0 0 0-3.793 3.79 3.791 3.791 0 0 0 3.793 3.789h60.698a3.791 3.791 0 0 0 3.793-3.789 3.791 3.791 0 0 0-3.793-3.79Z"/><path fill="#F8F8F8" d="M132.429 119.605a3.791 3.791 0 0 0-3.793-3.79 3.792 3.792 0 0 0-3.794 3.79 3.791 3.791 0 0 0 3.794 3.789 3.791 3.791 0 0 0 3.793-3.789Zm0 17.051a3.79 3.79 0 0 0-3.793-3.789 3.79 3.79 0 0 0-3.794 3.789 3.79 3.79 0 0 0 3.794 3.789 3.79 3.79 0 0 0 3.793-3.789Zm0 17.051a3.791 3.791 0 0 0-3.793-3.789 3.791 3.791 0 0 0-3.794 3.789 3.792 3.792 0 0 0 3.794 3.79 3.791 3.791 0 0 0 3.793-3.79Zm0 17.052a3.791 3.791 0 0 0-3.793-3.79 3.792 3.792 0 0 0-3.794 3.79 3.791 3.791 0 0 0 3.794 3.789 3.791 3.791 0 0 0 3.793-3.789Zm0 18.946a3.79 3.79 0 0 0-3.793-3.789 3.79 3.79 0 0 0-3.794 3.789 3.791 3.791 0 0 0 3.794 3.789 3.791 3.791 0 0 0 3.793-3.789Zm0 15.156a3.791 3.791 0 0 0-3.793-3.789 3.791 3.791 0 0 0-3.794 3.789 3.792 3.792 0 0 0 3.794 3.79 3.791 3.791 0 0 0 3.793-3.79Zm0 17.052a3.79 3.79 0 0 0-3.793-3.789 3.79 3.79 0 0 0-3.794 3.789 3.791 3.791 0 0 0 3.794 3.789 3.791 3.791 0 0 0 3.793-3.789Zm0 17.051a3.791 3.791 0 0 0-3.793-3.789 3.791 3.791 0 0 0-3.794 3.789 3.79 3.79 0 0 0 3.794 3.789 3.79 3.79 0 0 0 3.793-3.789Z"/><path fill="#fff" d="M523.169 166.969H187.436a3.791 3.791 0 0 0-3.793 3.79 3.791 3.791 0 0 0 3.793 3.789h335.733a3.791 3.791 0 0 0 3.793-3.789 3.791 3.791 0 0 0-3.793-3.79Zm-314.868 68.206H149.5a3.791 3.791 0 0 0-3.793 3.789 3.79 3.79 0 0 0 3.793 3.789h58.801a3.79 3.79 0 0 0 3.793-3.789 3.791 3.791 0 0 0-3.793-3.789Zm127.085-17.051H168.468a3.79 3.79 0 0 0-3.793 3.789 3.791 3.791 0 0 0 3.793 3.789h166.918a3.792 3.792 0 0 0 3.794-3.789 3.791 3.791 0 0 0-3.794-3.789Zm-89.149-85.257h-77.769a3.79 3.79 0 0 0-3.793 3.789 3.79 3.79 0 0 0 3.793 3.789h77.769a3.79 3.79 0 0 0 3.793-3.789 3.79 3.79 0 0 0-3.793-3.789Z"/><path fill="#D9D9D9" d="M128.636 93.077a3.79 3.79 0 0 0 3.793-3.788 3.79 3.79 0 0 0-3.793-3.787 3.79 3.79 0 0 0-3.794 3.787 3.79 3.79 0 0 0 3.794 3.788Zm13.484 0a3.79 3.79 0 0 0 3.793-3.788 3.79 3.79 0 0 0-3.793-3.787 3.791 3.791 0 0 0-3.794 3.787 3.791 3.791 0 0 0 3.794 3.788Z" opacity=".4"/><path fill="#D9D9D9" d="M155.191 93.077a3.79 3.79 0 0 0 3.793-3.788 3.79 3.79 0 0 0-3.793-3.787 3.791 3.791 0 0 0-3.794 3.787 3.791 3.791 0 0 0 3.794 3.788Z" opacity=".3"/></g></g><defs><filter id="a" width="500.921" height="316.611" x="97.358" y="60.029" color-interpolation-filters="sRGB" filterUnits="userSpaceOnUse"><feFlood flood-opacity="0" result="BackgroundImageFix"/><feColorMatrix in="SourceAlpha" values="0 0 0 0 0 0 0 0 0 0 0 0 0 0 0 0 0 0 127 0"/><feOffset dx="2" dy="4"/><feGaussianBlur stdDeviation="10"/><feColorMatrix values="0 0 0 0 0 0 0 0 0 0 0 0 0 0 0 0 0 0 0.25 0"/><feBlend in2="BackgroundImageFix" result="effect1_dropShadow"/><feBlend in="SourceGraphic" in2="effect1_dropShadow" result="shape"/></filter></defs></svg>