<svg xmlns="http://www.w3.org/2000/svg" width="693" height="425" fill="none" viewBox="0 0 693 425"><path fill="#000" fill-opacity=".05" fill-rule="evenodd" d="M40.439 110.977c-13.283 2.475-22.045 15.25-19.57 28.533 2.476 13.283 15.25 22.045 28.533 19.569l18.302-3.41c-5.096 5.484-7.619 13.227-6.142 21.151 2.475 13.283 15.25 22.045 28.533 19.57l130.295-24.28c.026.157.054.315.083.472 1.477 7.925 6.619 14.24 13.348 17.52l-7.995 1.49c-13.284 2.475-22.045 15.249-19.57 28.533 2.475 13.283 15.25 22.044 28.533 19.569l379.755-70.765c13.283-2.475 22.044-15.25 19.569-28.533-1.477-7.924-6.619-14.239-13.348-17.519l12.791-2.384c13.283-2.475 22.045-15.249 19.57-28.533-2.476-13.283-15.25-22.044-28.533-19.569L396.82 114.835a25.911 25.911 0 0 0-.083-.472c-1.477-7.925-6.619-14.24-13.348-17.52l22.114-4.12c13.283-2.476 22.044-15.25 19.569-28.534-2.475-13.283-15.25-22.044-28.533-19.569l-356.1 66.357Zm19.279 190.13c-2.475-13.283 6.286-26.057 19.57-28.533l389.687-72.615c13.283-2.475 26.057 6.286 28.533 19.569 2.475 13.283-6.287 26.058-19.57 28.533l-11.159 2.08a24.557 24.557 0 0 1 3.714 2.235l135.037-25.163c13.283-2.475 26.058 6.286 28.533 19.569 1.477 7.925-1.046 15.668-6.141 21.152l2.719-.507c13.283-2.475 26.058 6.286 28.533 19.569 2.475 13.283-6.286 26.058-19.57 28.533L234.809 390.96c-13.283 2.475-26.058-6.286-28.533-19.569-2.475-13.283 6.287-26.058 19.57-28.533l29.558-5.508a24.563 24.563 0 0 1-3.714-2.236L71.505 368.69c-13.283 2.475-26.057-6.286-28.533-19.569-2.475-13.283 6.287-26.058 19.57-28.533l10.523-1.961c-6.728-3.28-11.87-9.595-13.347-17.52Z" clip-rule="evenodd"/><g filter="url(#a)"><rect width="461" height="286" x="122" y="70" fill="#F8F8F8" rx="10"/><rect width="55" height="7" x="150" y="96" fill="#D9D9D9" rx="3.5"/><rect width="42" height="7" x="150" y="135" fill="#BDBDBD" rx="3.5"/><rect width="65" height="7" x="150" y="174" fill="#BDBDBD" rx="3.5"/><rect width="60" height="7" x="150" y="213" fill="#BDBDBD" rx="3.5"/><rect width="84" height="7" x="150" y="252" fill="#BDBDBD" rx="3.5"/><rect width="42" height="7" x="150" y="291" fill="#BDBDBD" rx="3.5"/><rect width="65" height="7" x="150" y="330" fill="#BDBDBD" rx="3.5"/><rect width="35" height="7" x="282" y="96" fill="#D9D9D9" rx="3.5"/><rect width="102" height="7" x="282" y="135" fill="#BDBDBD" rx="3.5"/><rect width="77" height="7" x="282" y="174" fill="#BDBDBD" rx="3.5"/><rect width="93" height="7" x="282" y="213" fill="#BDBDBD" rx="3.5"/><rect width="42" height="7" x="282" y="252" fill="#BDBDBD" rx="3.5"/><rect width="69" height="7" x="282" y="291" fill="#BDBDBD" rx="3.5"/><rect width="97" height="7" x="282" y="330" fill="#BDBDBD" rx="3.5"/><rect width="92" height="7" x="422" y="96" fill="#D9D9D9" rx="3.5"/><rect width="62" height="7" x="422" y="135" fill="#BDBDBD" rx="3.5"/><rect width="21" height="7" x="422" y="174" fill="#BDBDBD" rx="3.5"/><rect width="39" height="7" x="422" y="213" fill="#BDBDBD" rx="3.5"/><rect width="112" height="7" x="422" y="252" fill="#BDBDBD" rx="3.5"/><rect width="65" height="7" x="422" y="291" fill="#BDBDBD" rx="3.5"/><rect width="30" height="7" x="422" y="330" fill="#BDBDBD" rx="3.5"/><path stroke="#EEE" d="M138 118.5h429m-429 39h429m-429 39h429m-429 39h429m-429 39h429m-429 39h429"/></g><defs><filter id="a" width="485" height="310" x="112" y="62" color-interpolation-filters="sRGB" filterUnits="userSpaceOnUse"><feFlood flood-opacity="0" result="BackgroundImageFix"/><feColorMatrix in="SourceAlpha" values="0 0 0 0 0 0 0 0 0 0 0 0 0 0 0 0 0 0 127 0"/><feOffset dx="2" dy="4"/><feGaussianBlur stdDeviation="6"/><feColorMatrix values="0 0 0 0 0 0 0 0 0 0 0 0 0 0 0 0 0 0 0.25 0"/><feBlend in2="BackgroundImageFix" result="effect1_dropShadow"/><feBlend in="SourceGraphic" in2="effect1_dropShadow" result="shape"/></filter></defs></svg>