<svg xmlns="http://www.w3.org/2000/svg" width="267" height="172" fill="none" viewBox="0 0 267 172"><g filter="url(#a)"><rect width="139" height="104.906" x="10" y="50.165" fill="#EEE" rx="5"/></g><mask id="b" width="121" height="98" x="19" y="58" mask-type="alpha" maskUnits="userSpaceOnUse"><rect width="9.179" height="70.156" x="19.835" y="85.571" fill="#fff" rx="4.59"/><rect width="9.179" height="78.679" x="38.194" y="77.047" fill="#fff" rx="4.59"/><rect width="9.179" height="97.693" x="56.552" y="58.033" fill="#fff" rx="4.59"/><rect width="9.179" height="81.957" x="74.91" y="73.769" fill="#fff" rx="4.59"/><rect width="9.179" height="60.321" x="93.269" y="95.406" fill="#fff" rx="4.59"/><rect width="9.179" height="74.09" x="111.627" y="81.637" fill="#fff" rx="4.59"/><rect width="9.179" height="93.104" x="129.986" y="62.623" fill="#fff" rx="4.59"/></mask><g mask="url(#b)"><path fill="#C4C4C4" d="M10.656 50.165h139v100.316h-139z"/></g><g filter="url(#c)"><rect width="144" height="108.679" x="109" y="8" fill="#EEE" rx="5"/></g><path fill="#D9D9D9" d="M173.85 62.12c-29.243-24.798-43.857 3.08-53.773 18.478v25.987h121.846V25.738c-33.751-1.155-29.354 69.216-68.073 36.381Z"/><path stroke="#9E9E9E" stroke-linecap="round" stroke-linejoin="round" d="M120.077 80.598c9.916-15.399 24.53-43.276 53.773-18.479 38.719 32.835 34.322-37.536 68.073-36.38"/><defs><filter id="a" width="163" height="128.906" x="0" y="42.165" color-interpolation-filters="sRGB" filterUnits="userSpaceOnUse"><feFlood flood-opacity="0" result="BackgroundImageFix"/><feColorMatrix in="SourceAlpha" values="0 0 0 0 0 0 0 0 0 0 0 0 0 0 0 0 0 0 127 0"/><feOffset dx="2" dy="4"/><feGaussianBlur stdDeviation="6"/><feColorMatrix values="0 0 0 0 0 0 0 0 0 0 0 0 0 0 0 0 0 0 0.25 0"/><feBlend in2="BackgroundImageFix" result="effect1_dropShadow"/><feBlend in="SourceGraphic" in2="effect1_dropShadow" result="shape"/></filter><filter id="c" width="168" height="132.679" x="99" y="0" color-interpolation-filters="sRGB" filterUnits="userSpaceOnUse"><feFlood flood-opacity="0" result="BackgroundImageFix"/><feColorMatrix in="SourceAlpha" values="0 0 0 0 0 0 0 0 0 0 0 0 0 0 0 0 0 0 127 0"/><feOffset dx="2" dy="4"/><feGaussianBlur stdDeviation="6"/><feColorMatrix values="0 0 0 0 0 0 0 0 0 0 0 0 0 0 0 0 0 0 0.25 0"/><feBlend in2="BackgroundImageFix" result="effect1_dropShadow"/><feBlend in="SourceGraphic" in2="effect1_dropShadow" result="shape"/></filter></defs></svg>