<svg xmlns="http://www.w3.org/2000/svg" width="267" height="172" fill="none" viewBox="0 0 267 172"><g filter="url(#filter0_d)"><rect width="139" height="104.906" x="10" y="50.165" fill="#EEE" rx="5"/></g><mask id="mask0" width="121" height="98" x="19" y="58" mask-type="alpha" maskUnits="userSpaceOnUse"><rect width="9.179" height="70.156" x="19.835" y="85.571" fill="#fff" rx="4.59"/><rect width="9.179" height="78.679" x="38.194" y="77.047" fill="#fff" rx="4.59"/><rect width="9.179" height="97.693" x="56.552" y="58.033" fill="#fff" rx="4.59"/><rect width="9.179" height="81.957" x="74.91" y="73.769" fill="#fff" rx="4.59"/><rect width="9.179" height="60.321" x="93.269" y="95.406" fill="#fff" rx="4.59"/><rect width="9.179" height="74.09" x="111.627" y="81.637" fill="#fff" rx="4.59"/><rect width="9.179" height="93.104" x="129.986" y="62.623" fill="#fff" rx="4.59"/></mask><g mask="url(#mask0)"><rect width="139" height="100.316" x="10.656" y="50.165" fill="#C4C4C4"/></g><g filter="url(#filter1_d)"><rect width="144" height="108.679" x="109" y="8" fill="#EEE" rx="5"/></g><path fill="#D9D9D9" d="M173.85 62.1192C144.607 37.3215 129.993 65.1991 120.077 80.5984V106.585H241.923V25.7384C208.172 24.5834 212.569 94.9538 173.85 62.1192Z"/><path stroke="#9E9E9E" stroke-linecap="round" stroke-linejoin="round" d="M120.077 80.5984C129.993 65.1991 144.607 37.3215 173.85 62.1192C212.569 94.9539 208.172 24.5834 241.923 25.7384"/><defs><filter id="filter0_d" width="163" height="128.906" x="0" y="42.165" color-interpolation-filters="sRGB" filterUnits="userSpaceOnUse"><feFlood flood-opacity="0" result="BackgroundImageFix"/><feColorMatrix in="SourceAlpha" type="matrix" values="0 0 0 0 0 0 0 0 0 0 0 0 0 0 0 0 0 0 127 0"/><feOffset dx="2" dy="4"/><feGaussianBlur stdDeviation="6"/><feColorMatrix type="matrix" values="0 0 0 0 0 0 0 0 0 0 0 0 0 0 0 0 0 0 0.25 0"/><feBlend in2="BackgroundImageFix" mode="normal" result="effect1_dropShadow"/><feBlend in="SourceGraphic" in2="effect1_dropShadow" mode="normal" result="shape"/></filter><filter id="filter1_d" width="168" height="132.679" x="99" y="0" color-interpolation-filters="sRGB" filterUnits="userSpaceOnUse"><feFlood flood-opacity="0" result="BackgroundImageFix"/><feColorMatrix in="SourceAlpha" type="matrix" values="0 0 0 0 0 0 0 0 0 0 0 0 0 0 0 0 0 0 127 0"/><feOffset dx="2" dy="4"/><feGaussianBlur stdDeviation="6"/><feColorMatrix type="matrix" values="0 0 0 0 0 0 0 0 0 0 0 0 0 0 0 0 0 0 0.25 0"/><feBlend in2="BackgroundImageFix" mode="normal" result="effect1_dropShadow"/><feBlend in="SourceGraphic" in2="effect1_dropShadow" mode="normal" result="shape"/></filter></defs></svg>