<svg width="641" height="393" viewBox="0 0 641 393" fill="none" xmlns="http://www.w3.org/2000/svg">
<rect x="15.1477" y="106.723" width="380.051" height="45.2281" rx="22.6141" transform="rotate(-10.5556 15.1477 106.723)" fill="#EEEEEE"/>
<rect x="52.761" y="141.21" width="315.147" height="45.2281" rx="22.6141" transform="rotate(-10.5556 52.761 141.21)" fill="#EEEEEE"/>
<rect x="51.0568" y="256.093" width="411.631" height="45.2281" rx="22.6141" transform="rotate(-10.5556 51.0568 256.093)" fill="#EEEEEE"/>
<rect x="35.5782" y="300.474" width="411.033" height="45.2281" rx="22.6141" transform="rotate(-10.5556 35.5782 300.474)" fill="#EEEEEE"/>
<rect x="199.649" y="137.293" width="406.8" height="45.2281" rx="22.6141" transform="rotate(-10.5556 199.649 137.293)" fill="#EEEEEE"/>
<rect x="186.507" y="181.238" width="402.291" height="45.2281" rx="22.6141" transform="rotate(-10.5556 186.507 181.238)" fill="#EEEEEE"/>
<rect x="219.599" y="273.399" width="368.583" height="45.2281" rx="22.6141" transform="rotate(-10.5556 219.599 273.399)" fill="#EEEEEE"/>
<rect x="186.526" y="321.058" width="425.836" height="45.2281" rx="22.6141" transform="rotate(-10.5556 186.526 321.058)" fill="#EEEEEE"/>
</svg>
