<svg xmlns="http://www.w3.org/2000/svg" width="641" height="393" fill="none" viewBox="0 0 641 393"><rect width="380.051" height="45.228" x="15.148" y="106.723" fill="#EEE" rx="22.614" transform="rotate(-10.5556 15.1477 106.723)"/><rect width="315.147" height="45.228" x="52.761" y="141.21" fill="#EEE" rx="22.614" transform="rotate(-10.5556 52.761 141.21)"/><rect width="411.631" height="45.228" x="51.057" y="256.093" fill="#EEE" rx="22.614" transform="rotate(-10.5556 51.0568 256.093)"/><rect width="411.033" height="45.228" x="35.578" y="300.474" fill="#EEE" rx="22.614" transform="rotate(-10.5556 35.5782 300.474)"/><rect width="406.8" height="45.228" x="199.649" y="137.293" fill="#EEE" rx="22.614" transform="rotate(-10.5556 199.649 137.293)"/><rect width="402.291" height="45.228" x="186.507" y="181.238" fill="#EEE" rx="22.614" transform="rotate(-10.5556 186.507 181.238)"/><rect width="368.583" height="45.228" x="219.599" y="273.399" fill="#EEE" rx="22.614" transform="rotate(-10.5556 219.599 273.399)"/><rect width="425.836" height="45.228" x="186.526" y="321.058" fill="#EEE" rx="22.614" transform="rotate(-10.5556 186.526 321.058)"/></svg>