<svg width="282" height="186" viewBox="0 0 282 186" fill="none" xmlns="http://www.w3.org/2000/svg">
<g filter="url(#filter0_d)">
<path d="M254.494 16.3785H23.3728C20.6336 16.3785 18.4131 18.5995 18.4131 21.3392V36.221C18.4131 38.9607 20.6336 41.1816 23.3728 41.1816H254.494C257.233 41.1816 259.454 38.9607 259.454 36.221V21.3392C259.454 18.5995 257.233 16.3785 254.494 16.3785Z" fill="#9E9E9E"/>
<mask id="mask0" mask-type="alpha" maskUnits="userSpaceOnUse" x="18" y="16" width="242" height="146">
<path d="M254.494 16.3785H23.3728C20.6336 16.3785 18.4131 18.5995 18.4131 21.3392V156.268C18.4131 159.008 20.6336 161.228 23.3728 161.228H254.494C257.233 161.228 259.454 159.008 259.454 156.268V21.3392C259.454 18.5995 257.233 16.3785 254.494 16.3785Z" fill="#404040"/>
</mask>
<g mask="url(#mask0)">
<path d="M259.495 30.2683H18.4131V161.432H259.495V30.2683Z" fill="#EEEEEE"/>
<path opacity="0.4" d="M25.3567 25.306C26.4524 25.306 27.3406 24.418 27.3406 23.3226C27.3406 22.2272 26.4524 21.3392 25.3567 21.3392C24.261 21.3392 23.3728 22.2272 23.3728 23.3226C23.3728 24.418 24.261 25.306 25.3567 25.306Z" fill="#D9D9D9"/>
<path opacity="0.4" d="M32.4084 25.306C33.5041 25.306 34.3923 24.418 34.3923 23.3226C34.3923 22.2272 33.5041 21.3392 32.4084 21.3392C31.3127 21.3392 30.4246 22.2272 30.4246 23.3226C30.4246 24.418 31.3127 25.306 32.4084 25.306Z" fill="#D9D9D9"/>
<path opacity="0.3" d="M39.2439 25.306C40.3395 25.306 41.2278 24.418 41.2278 23.3226C41.2278 22.2272 40.3395 21.3392 39.2439 21.3392C38.1482 21.3392 37.26 22.2272 37.26 23.3226C37.26 24.418 38.1482 25.306 39.2439 25.306Z" fill="#D9D9D9"/>
<path d="M32.5328 29.9937H18.4131V161.432H32.5328V29.9937Z" fill="#616161"/>
<path d="M259.495 29.9937H32.533V46.2271H259.495V29.9937Z" fill="#D9D9D9"/>
<path d="M67.3094 50.94H39.5928C38.5819 50.94 37.7625 51.7606 37.7625 52.7729C37.7625 53.7851 38.5819 54.6057 39.5928 54.6057H67.3094C68.3202 54.6057 69.1397 53.7851 69.1397 52.7729C69.1397 51.7606 68.3202 50.94 67.3094 50.94Z" fill="white"/>
<path d="M97.6407 57.224H39.5928C38.5819 57.224 37.7625 58.0445 37.7625 59.0568C37.7625 60.069 38.5819 60.8896 39.5928 60.8896H97.6407C98.6516 60.8896 99.471 60.069 99.471 59.0568C99.471 58.0445 98.6516 57.224 97.6407 57.224Z" fill="white"/>
<path d="M253.219 50.9401H228.118C227.54 50.9401 227.072 51.409 227.072 51.9874V58.2713C227.072 58.8497 227.54 59.3186 228.118 59.3186H253.219C253.797 59.3186 254.265 58.8497 254.265 58.2713V51.9874C254.265 51.409 253.797 50.9401 253.219 50.9401Z" fill="#BDBDBD"/>
<path d="M99.994 66.9117H40.3772C39.3663 66.9117 38.5469 67.7322 38.5469 68.7445V114.303C38.5469 115.315 39.3663 116.136 40.3772 116.136H99.994C101.005 116.136 101.824 115.315 101.824 114.303V68.7445C101.824 67.7322 101.005 66.9117 99.994 66.9117Z" stroke="#D9D9D9" stroke-width="2" stroke-dasharray="5 5"/>
<path d="M175.822 66.9117H112.545C111.534 66.9117 110.714 67.7322 110.714 68.7445V114.303C110.714 115.315 111.534 116.136 112.545 116.136H175.822C176.833 116.136 177.652 115.315 177.652 114.303V68.7445C177.652 67.7322 176.833 66.9117 175.822 66.9117Z" stroke="#D9D9D9" stroke-width="2" stroke-dasharray="5 5"/>
<path d="M251.65 66.9117H188.373C187.362 66.9117 186.543 67.7322 186.543 68.7445V114.303C186.543 115.315 187.362 116.136 188.373 116.136H251.65C252.661 116.136 253.481 115.315 253.481 114.303V68.7445C253.481 67.7322 252.661 66.9117 251.65 66.9117Z" stroke="#D9D9D9" stroke-width="2" stroke-dasharray="5 5"/>
<path d="M139.739 124.514H40.3772C39.3663 124.514 38.5469 125.335 38.5469 126.347V163.527C38.5469 164.539 39.3663 165.36 40.3772 165.36H139.739C140.749 165.36 141.569 164.539 141.569 163.527V126.347C141.569 125.335 140.749 124.514 139.739 124.514Z" stroke="#D9D9D9" stroke-width="2" stroke-dasharray="5 5"/>
<path d="M251.651 124.514H152.289C151.278 124.514 150.459 125.335 150.459 126.347V163.527C150.459 164.539 151.278 165.36 152.289 165.36H251.651C252.661 165.36 253.481 164.539 253.481 163.527V126.347C253.481 125.335 252.661 124.514 251.651 124.514Z" stroke="#D9D9D9" stroke-width="2" stroke-dasharray="5 5"/>
</g>
</g>
<defs>
<filter id="filter0_d" x="0.413086" y="0.37854" width="281.041" height="184.85" filterUnits="userSpaceOnUse" color-interpolation-filters="sRGB">
<feFlood flood-opacity="0" result="BackgroundImageFix"/>
<feColorMatrix in="SourceAlpha" type="matrix" values="0 0 0 0 0 0 0 0 0 0 0 0 0 0 0 0 0 0 127 0"/>
<feOffset dx="2" dy="4"/>
<feGaussianBlur stdDeviation="10"/>
<feColorMatrix type="matrix" values="0 0 0 0 0 0 0 0 0 0 0 0 0 0 0 0 0 0 0.25 0"/>
<feBlend mode="normal" in2="BackgroundImageFix" result="effect1_dropShadow"/>
<feBlend mode="normal" in="SourceGraphic" in2="effect1_dropShadow" result="shape"/>
</filter>
</defs>
</svg>
