<svg xmlns="http://www.w3.org/2000/svg" width="259" height="162" fill="none" viewBox="0 0 259 162"><g filter="url(#filter0_d)"><rect width="243" height="25" x="6" y="4" fill="#9E9E9E" rx="5"/><mask id="mask0" width="243" height="146" x="6" y="4" mask-type="alpha" maskUnits="userSpaceOnUse"><rect width="243" height="146" x="6" y="4" fill="#404040" rx="5"/></mask><g mask="url(#mask0)"><rect width="247" height="139" x="6" y="18" fill="#EEE"/><rect width="181" height="4" x="42" y="61" fill="#fff" rx="2"/><rect width="113" height="4" x="42" y="70" fill="#fff" rx="2"/><rect width="50" height="4" x="42" y="43" fill="#fff" rx="2"/><rect width="36" height="4" x="22" y="25" fill="#fff" rx="2"/><rect width="4" height="4" x="11" y="25" fill="#F8F8F8" rx="2"/><rect width="4" height="4" x="11" y="34" fill="#F8F8F8" rx="2"/><rect width="4" height="4" x="11" y="43" fill="#F8F8F8" rx="2"/><rect width="4" height="4" x="11" y="52" fill="#F8F8F8" rx="2"/><rect width="4" height="4" x="11" y="62" fill="#F8F8F8" rx="2"/><rect width="4" height="4" x="11" y="70" fill="#F8F8F8" rx="2"/><rect width="4" height="4" x="11" y="79" fill="#F8F8F8" rx="2"/><rect width="4" height="4" x="11" y="88" fill="#F8F8F8" rx="2"/><rect width="181" height="4" x="42" y="52" fill="#fff" rx="2"/><rect width="35" height="4" x="22" y="88" fill="#fff" rx="2"/><rect width="92" height="4" x="32" y="79" fill="#fff" rx="2"/><rect width="45" height="4" x="32" y="34" fill="#fff" rx="2"/></g><ellipse cx="13" cy="10.999" fill="#D9D9D9" opacity=".4" rx="2" ry="1.999"/><ellipse cx="20.109" cy="10.999" fill="#D9D9D9" opacity=".4" rx="2" ry="1.999"/><ellipse cx="27" cy="10.999" fill="#D9D9D9" opacity=".3" rx="2" ry="1.999"/></g><defs><filter id="filter0_d" width="259" height="162" x="0" y="0" color-interpolation-filters="sRGB" filterUnits="userSpaceOnUse"><feFlood flood-opacity="0" result="BackgroundImageFix"/><feColorMatrix in="SourceAlpha" type="matrix" values="0 0 0 0 0 0 0 0 0 0 0 0 0 0 0 0 0 0 127 0"/><feOffset dx="2" dy="4"/><feGaussianBlur stdDeviation="4"/><feColorMatrix type="matrix" values="0 0 0 0 0 0 0 0 0 0 0 0 0 0 0 0 0 0 0.25 0"/><feBlend in2="BackgroundImageFix" mode="normal" result="effect1_dropShadow"/><feBlend in="SourceGraphic" in2="effect1_dropShadow" mode="normal" result="shape"/></filter></defs></svg>