<svg xmlns="http://www.w3.org/2000/svg" width="687" height="421" fill="none" viewBox="0 0 687 421"><path fill="#000" fill-opacity=".05" fill-rule="evenodd" d="M40.0514 109.914C26.8955 112.366 18.2179 125.018 20.6695 138.174C23.121 151.33 35.7733 160.007 48.9292 157.556L67.0549 154.178C62.008 159.609 59.5097 167.278 60.9722 175.127C63.4237 188.283 76.076 196.96 89.2319 194.509L218.279 170.462C218.305 170.617 218.333 170.773 218.362 170.929C219.824 178.778 224.917 185.032 231.582 188.281L223.663 189.757C210.507 192.208 201.83 204.861 204.281 218.016C206.733 231.172 219.385 239.85 232.541 237.398L608.658 167.311C621.814 164.86 630.492 152.208 628.04 139.052C626.578 131.203 621.485 124.949 614.821 121.7L627.489 119.339C640.645 116.888 649.322 104.236 646.871 91.0797C644.419 77.9238 631.767 69.2462 618.611 71.6977L393.02 113.735C392.994 113.579 392.966 113.423 392.937 113.267C391.475 105.419 386.382 99.1643 379.717 95.9156L401.619 91.8343C414.775 89.3828 423.453 76.7305 421.001 63.5746C418.55 50.4187 405.897 41.7411 392.742 44.1927L40.0514 109.914ZM59.146 298.224C56.6945 285.068 65.3721 272.416 78.528 269.964L464.483 198.044C477.639 195.592 490.292 204.27 492.743 217.426C495.195 230.582 486.517 243.234 473.361 245.685L462.309 247.745C463.599 248.374 464.83 249.115 465.987 249.959L599.731 225.037C612.887 222.585 625.539 231.263 627.991 244.419C629.453 252.267 626.955 259.937 621.908 265.368L624.601 264.866C637.757 262.414 650.41 271.092 652.861 284.248C655.313 297.404 646.635 310.056 633.479 312.507L232.561 387.216C219.405 389.667 206.752 380.99 204.301 367.834C201.849 354.678 210.527 342.026 223.683 339.574L252.958 334.119C251.668 333.49 250.437 332.749 249.279 331.905L70.8205 365.159C57.6646 367.611 45.0123 358.933 42.5608 345.777C40.1093 332.621 48.7869 319.969 61.9428 317.518L72.3657 315.575C65.7014 312.327 60.6085 306.072 59.146 298.224Z" clip-rule="evenodd"/><g filter="url(#filter0_d)"><path fill="#9E9E9E" d="M566.795 76.0288H124.842C119.604 76.0288 115.358 80.27 115.358 85.5018V113.921C115.358 119.153 119.604 123.394 124.842 123.394H566.795C572.033 123.394 576.279 119.153 576.279 113.921V85.5018C576.279 80.27 572.033 76.0288 566.795 76.0288Z"/><mask id="mask0" width="462" height="277" x="115" y="76" mask-type="alpha" maskUnits="userSpaceOnUse"><path fill="#404040" d="M566.795 76.0288H124.842C119.604 76.0288 115.358 80.27 115.358 85.5018V343.167C115.358 348.399 119.604 352.64 124.842 352.64H566.795C572.033 352.64 576.279 348.399 576.279 343.167V85.5018C576.279 80.27 572.033 76.0288 566.795 76.0288Z"/></mask><g mask="url(#mask0)"><path fill="#EEE" d="M583.866 102.553H115.358V365.902H583.866V102.553Z"/><path fill="#fff" d="M523.169 184.021H187.436C185.341 184.021 183.643 185.717 183.643 187.81C183.643 189.903 185.341 191.599 187.436 191.599H523.169C525.264 191.599 526.962 189.903 526.962 187.81C526.962 185.717 525.264 184.021 523.169 184.021Z"/><path fill="#fff" d="M394.187 201.072H187.436C185.341 201.072 183.643 202.769 183.643 204.861C183.643 206.954 185.341 208.651 187.436 208.651H394.187C396.282 208.651 397.98 206.954 397.98 204.861C397.98 202.769 396.282 201.072 394.187 201.072Z"/><path fill="#fff" d="M274.689 149.918H187.436C185.341 149.918 183.643 151.615 183.643 153.707C183.643 155.8 185.341 157.497 187.436 157.497H274.689C276.784 157.497 278.482 155.8 278.482 153.707C278.482 151.615 276.784 149.918 274.689 149.918Z"/><path fill="#fff" d="M210.198 115.815H149.5C147.405 115.815 145.707 117.512 145.707 119.605C145.707 121.697 147.405 123.394 149.5 123.394H210.198C212.293 123.394 213.991 121.697 213.991 119.605C213.991 117.512 212.293 115.815 210.198 115.815Z"/><path fill="#F8F8F8" d="M132.429 119.605C132.429 117.512 130.731 115.815 128.636 115.815C126.54 115.815 124.842 117.512 124.842 119.605C124.842 121.697 126.54 123.394 128.636 123.394C130.731 123.394 132.429 121.697 132.429 119.605Z"/><path fill="#F8F8F8" d="M132.429 136.656C132.429 134.563 130.731 132.867 128.636 132.867C126.54 132.867 124.842 134.563 124.842 136.656C124.842 138.749 126.54 140.445 128.636 140.445C130.731 140.445 132.429 138.749 132.429 136.656Z"/><path fill="#F8F8F8" d="M132.429 153.707C132.429 151.615 130.731 149.918 128.636 149.918C126.54 149.918 124.842 151.615 124.842 153.707C124.842 155.8 126.54 157.497 128.636 157.497C130.731 157.497 132.429 155.8 132.429 153.707Z"/><path fill="#F8F8F8" d="M132.429 170.759C132.429 168.666 130.731 166.969 128.636 166.969C126.54 166.969 124.842 168.666 124.842 170.759C124.842 172.851 126.54 174.548 128.636 174.548C130.731 174.548 132.429 172.851 132.429 170.759Z"/><path fill="#F8F8F8" d="M132.429 189.705C132.429 187.612 130.731 185.916 128.636 185.916C126.54 185.916 124.842 187.612 124.842 189.705C124.842 191.797 126.54 193.494 128.636 193.494C130.731 193.494 132.429 191.797 132.429 189.705Z"/><path fill="#F8F8F8" d="M132.429 204.861C132.429 202.769 130.731 201.072 128.636 201.072C126.54 201.072 124.842 202.769 124.842 204.861C124.842 206.954 126.54 208.651 128.636 208.651C130.731 208.651 132.429 206.954 132.429 204.861Z"/><path fill="#F8F8F8" d="M132.429 221.913C132.429 219.82 130.731 218.124 128.636 218.124C126.54 218.124 124.842 219.82 124.842 221.913C124.842 224.005 126.54 225.702 128.636 225.702C130.731 225.702 132.429 224.005 132.429 221.913Z"/><path fill="#F8F8F8" d="M132.429 238.964C132.429 236.872 130.731 235.175 128.636 235.175C126.54 235.175 124.842 236.872 124.842 238.964C124.842 241.057 126.54 242.753 128.636 242.753C130.731 242.753 132.429 241.057 132.429 238.964Z"/><path fill="#fff" d="M523.169 166.969H187.436C185.341 166.969 183.643 168.666 183.643 170.759C183.643 172.851 185.341 174.548 187.436 174.548H523.169C525.264 174.548 526.962 172.851 526.962 170.759C526.962 168.666 525.264 166.969 523.169 166.969Z"/><path fill="#fff" d="M208.301 235.175H149.5C147.405 235.175 145.707 236.872 145.707 238.964C145.707 241.057 147.405 242.753 149.5 242.753H208.301C210.396 242.753 212.094 241.057 212.094 238.964C212.094 236.872 210.396 235.175 208.301 235.175Z"/><path fill="#fff" d="M335.386 218.124H168.468C166.373 218.124 164.675 219.82 164.675 221.913C164.675 224.005 166.373 225.702 168.468 225.702H335.386C337.481 225.702 339.18 224.005 339.18 221.913C339.18 219.82 337.481 218.124 335.386 218.124Z"/><path fill="#fff" d="M246.237 132.867H168.468C166.373 132.867 164.675 134.563 164.675 136.656C164.675 138.749 166.373 140.445 168.468 140.445H246.237C248.332 140.445 250.03 138.749 250.03 136.656C250.03 134.563 248.332 132.867 246.237 132.867Z"/><path fill="#D9D9D9" d="M128.636 93.0771C130.731 93.0771 132.429 91.3813 132.429 89.2894C132.429 87.1975 130.731 85.5017 128.636 85.5017C126.54 85.5017 124.842 87.1975 124.842 89.2894C124.842 91.3813 126.54 93.0771 128.636 93.0771Z" opacity=".4"/><path fill="#D9D9D9" d="M142.12 93.0771C144.215 93.0771 145.913 91.3813 145.913 89.2894C145.913 87.1975 144.215 85.5017 142.12 85.5017C140.025 85.5017 138.326 87.1975 138.326 89.2894C138.326 91.3813 140.025 93.0771 142.12 93.0771Z" opacity=".4"/><path fill="#D9D9D9" d="M155.191 93.0771C157.286 93.0771 158.984 91.3813 158.984 89.2894C158.984 87.1975 157.286 85.5017 155.191 85.5017C153.096 85.5017 151.397 87.1975 151.397 89.2894C151.397 91.3813 153.096 93.0771 155.191 93.0771Z" opacity=".3"/></g></g><defs><filter id="filter0_d" width="500.921" height="316.611" x="97.358" y="60.029" color-interpolation-filters="sRGB" filterUnits="userSpaceOnUse"><feFlood flood-opacity="0" result="BackgroundImageFix"/><feColorMatrix in="SourceAlpha" type="matrix" values="0 0 0 0 0 0 0 0 0 0 0 0 0 0 0 0 0 0 127 0"/><feOffset dx="2" dy="4"/><feGaussianBlur stdDeviation="10"/><feColorMatrix type="matrix" values="0 0 0 0 0 0 0 0 0 0 0 0 0 0 0 0 0 0 0.25 0"/><feBlend in2="BackgroundImageFix" mode="normal" result="effect1_dropShadow"/><feBlend in="SourceGraphic" in2="effect1_dropShadow" mode="normal" result="shape"/></filter></defs></svg>