<svg xmlns="http://www.w3.org/2000/svg" width="693" height="425" fill="none" viewBox="0 0 693 425"><path fill="#000" fill-opacity=".05" fill-rule="evenodd" d="M40.4387 110.977C27.1556 113.452 18.3941 126.227 20.8693 139.51C23.3445 152.793 36.1192 161.555 49.4023 159.079L67.7036 155.669C62.6078 161.153 60.0854 168.896 61.562 176.82C64.0372 190.103 76.8118 198.865 90.0949 196.39L220.39 172.11C220.416 172.267 220.444 172.425 220.473 172.582C221.95 180.507 227.092 186.822 233.821 190.102L225.826 191.592C212.542 194.067 203.781 206.841 206.256 220.125C208.731 233.408 221.506 242.169 234.789 239.694L614.544 168.929C627.827 166.454 636.588 153.679 634.113 140.396C632.636 132.472 627.494 126.157 620.765 122.877L633.556 120.493C646.839 118.018 655.601 105.244 653.126 91.9604C650.65 78.6773 637.876 69.9158 624.593 72.3911L396.82 114.835C396.794 114.678 396.766 114.52 396.737 114.363C395.26 106.438 390.118 100.123 383.389 96.8431L405.503 92.7224C418.786 90.2471 427.547 77.4725 425.072 64.1894C422.597 50.9063 409.822 42.1448 396.539 44.62L40.4387 110.977ZM59.718 301.107C57.2428 287.824 66.0043 275.05 79.2874 272.574L468.975 199.959C482.258 197.484 495.032 206.245 497.508 219.528C499.983 232.811 491.221 245.586 477.938 248.061L466.779 250.141C468.082 250.776 469.325 251.524 470.493 252.376L605.53 227.213C618.813 224.738 631.588 233.499 634.063 246.782C635.54 254.707 633.017 262.45 627.922 267.934L630.641 267.427C643.924 264.952 656.699 273.713 659.174 286.996C661.649 300.279 652.888 313.054 639.604 315.529L234.809 390.96C221.526 393.435 208.751 384.674 206.276 371.391C203.801 358.108 212.563 345.333 225.846 342.858L255.404 337.35C254.101 336.715 252.858 335.966 251.69 335.114L71.5053 368.69C58.2222 371.165 45.4476 362.404 42.9723 349.121C40.4971 335.838 49.2586 323.063 62.5417 320.588L73.0655 318.627C66.3367 315.347 61.1946 309.032 59.718 301.107Z" clip-rule="evenodd"/><g filter="url(#filter0_d)"><rect width="461" height="286" x="122" y="70" fill="#F8F8F8" rx="10"/><rect width="55" height="7" x="150" y="96" fill="#D9D9D9" rx="3.5"/><rect width="42" height="7" x="150" y="135" fill="#BDBDBD" rx="3.5"/><rect width="65" height="7" x="150" y="174" fill="#BDBDBD" rx="3.5"/><rect width="60" height="7" x="150" y="213" fill="#BDBDBD" rx="3.5"/><rect width="84" height="7" x="150" y="252" fill="#BDBDBD" rx="3.5"/><rect width="42" height="7" x="150" y="291" fill="#BDBDBD" rx="3.5"/><rect width="65" height="7" x="150" y="330" fill="#BDBDBD" rx="3.5"/><rect width="35" height="7" x="282" y="96" fill="#D9D9D9" rx="3.5"/><rect width="102" height="7" x="282" y="135" fill="#BDBDBD" rx="3.5"/><rect width="77" height="7" x="282" y="174" fill="#BDBDBD" rx="3.5"/><rect width="93" height="7" x="282" y="213" fill="#BDBDBD" rx="3.5"/><rect width="42" height="7" x="282" y="252" fill="#BDBDBD" rx="3.5"/><rect width="69" height="7" x="282" y="291" fill="#BDBDBD" rx="3.5"/><rect width="97" height="7" x="282" y="330" fill="#BDBDBD" rx="3.5"/><rect width="92" height="7" x="422" y="96" fill="#D9D9D9" rx="3.5"/><rect width="62" height="7" x="422" y="135" fill="#BDBDBD" rx="3.5"/><rect width="21" height="7" x="422" y="174" fill="#BDBDBD" rx="3.5"/><rect width="39" height="7" x="422" y="213" fill="#BDBDBD" rx="3.5"/><rect width="112" height="7" x="422" y="252" fill="#BDBDBD" rx="3.5"/><rect width="65" height="7" x="422" y="291" fill="#BDBDBD" rx="3.5"/><rect width="30" height="7" x="422" y="330" fill="#BDBDBD" rx="3.5"/><line x1="138" x2="567" y1="118.5" y2="118.5" stroke="#EEE"/><line x1="138" x2="567" y1="157.5" y2="157.5" stroke="#EEE"/><line x1="138" x2="567" y1="196.5" y2="196.5" stroke="#EEE"/><line x1="138" x2="567" y1="235.5" y2="235.5" stroke="#EEE"/><line x1="138" x2="567" y1="274.5" y2="274.5" stroke="#EEE"/><line x1="138" x2="567" y1="313.5" y2="313.5" stroke="#EEE"/></g><defs><filter id="filter0_d" width="485" height="310" x="112" y="62" color-interpolation-filters="sRGB" filterUnits="userSpaceOnUse"><feFlood flood-opacity="0" result="BackgroundImageFix"/><feColorMatrix in="SourceAlpha" type="matrix" values="0 0 0 0 0 0 0 0 0 0 0 0 0 0 0 0 0 0 127 0"/><feOffset dx="2" dy="4"/><feGaussianBlur stdDeviation="6"/><feColorMatrix type="matrix" values="0 0 0 0 0 0 0 0 0 0 0 0 0 0 0 0 0 0 0.25 0"/><feBlend in2="BackgroundImageFix" mode="normal" result="effect1_dropShadow"/><feBlend in="SourceGraphic" in2="effect1_dropShadow" mode="normal" result="shape"/></filter></defs></svg>