<svg width="270" height="177" viewBox="0 0 270 177" fill="none" xmlns="http://www.w3.org/2000/svg">
<g filter="url(#filter0_d)">
<path d="M250.664 8H15.3362C12.3891 8 10 10.3891 10 13.3362V155.28C10 158.227 12.3891 160.616 15.3362 160.616H250.664C253.611 160.616 256 158.227 256 155.28V13.3362C256 10.3891 253.611 8 250.664 8Z" fill="#F8F8F8"/>
<path d="M52.423 21.8742H26.8091C25.7776 21.8742 24.9414 22.7104 24.9414 23.7419C24.9414 24.7734 25.7776 25.6095 26.8091 25.6095H52.423C53.4545 25.6095 54.2906 24.7734 54.2906 23.7419C54.2906 22.7104 53.4545 21.8742 52.423 21.8742Z" fill="#D9D9D9"/>
<path d="M45.4859 42.6855H26.8091C25.7776 42.6855 24.9414 43.5217 24.9414 44.5531C24.9414 45.5846 25.7776 46.4208 26.8091 46.4208H45.4859C46.5174 46.4208 47.3536 45.5846 47.3536 44.5531C47.3536 43.5217 46.5174 42.6855 45.4859 42.6855Z" fill="#BDBDBD"/>
<path d="M57.7592 63.4967H26.8091C25.7776 63.4967 24.9414 64.3329 24.9414 65.3644C24.9414 66.3959 25.7776 67.2321 26.8091 67.2321H57.7592C58.7907 67.2321 59.6269 66.3959 59.6269 65.3644C59.6269 64.3329 58.7907 63.4967 57.7592 63.4967Z" fill="#BDBDBD"/>
<path d="M55.0911 84.308H26.8091C25.7776 84.308 24.9414 85.1442 24.9414 86.1757C24.9414 87.2072 25.7776 88.0434 26.8091 88.0434H55.0911C56.1226 88.0434 56.9588 87.2072 56.9588 86.1757C56.9588 85.1442 56.1226 84.308 55.0911 84.308Z" fill="#BDBDBD"/>
<path d="M67.898 105.119H26.8091C25.7776 105.119 24.9414 105.955 24.9414 106.987C24.9414 108.018 25.7776 108.855 26.8091 108.855H67.898C68.9295 108.855 69.7657 108.018 69.7657 106.987C69.7657 105.955 68.9295 105.119 67.898 105.119Z" fill="#BDBDBD"/>
<path d="M45.4859 125.931H26.8091C25.7776 125.931 24.9414 126.767 24.9414 127.798C24.9414 128.83 25.7776 129.666 26.8091 129.666H45.4859C46.5174 129.666 47.3536 128.83 47.3536 127.798C47.3536 126.767 46.5174 125.931 45.4859 125.931Z" fill="#BDBDBD"/>
<path d="M57.7592 146.742H26.8091C25.7776 146.742 24.9414 147.578 24.9414 148.61C24.9414 149.641 25.7776 150.477 26.8091 150.477H57.7592C58.7907 150.477 59.6269 149.641 59.6269 148.61C59.6269 147.578 58.7907 146.742 57.7592 146.742Z" fill="#BDBDBD"/>
<path d="M112.189 21.8742H97.2473C96.2158 21.8742 95.3796 22.7104 95.3796 23.7419C95.3796 24.7734 96.2158 25.6095 97.2473 25.6095H112.189C113.22 25.6095 114.056 24.7734 114.056 23.7419C114.056 22.7104 113.22 21.8742 112.189 21.8742Z" fill="#D9D9D9"/>
<path d="M147.941 42.6855H97.2473C96.2158 42.6855 95.3796 43.5217 95.3796 44.5531C95.3796 45.5846 96.2158 46.4208 97.2473 46.4208H147.941C148.973 46.4208 149.809 45.5846 149.809 44.5531C149.809 43.5217 148.973 42.6855 147.941 42.6855Z" fill="#BDBDBD"/>
<path d="M134.601 63.4967H97.2473C96.2158 63.4967 95.3796 64.3329 95.3796 65.3644C95.3796 66.3959 96.2158 67.2321 97.2473 67.2321H134.601C135.632 67.2321 136.469 66.3959 136.469 65.3644C136.469 64.3329 135.632 63.4967 134.601 63.4967Z" fill="#BDBDBD"/>
<path d="M143.139 84.308H97.2473C96.2158 84.308 95.3796 85.1442 95.3796 86.1757C95.3796 87.2072 96.2158 88.0434 97.2473 88.0434H143.139C144.17 88.0434 145.007 87.2072 145.007 86.1757C145.007 85.1442 144.17 84.308 143.139 84.308Z" fill="#BDBDBD"/>
<path d="M115.924 105.119H97.2473C96.2158 105.119 95.3796 105.955 95.3796 106.987C95.3796 108.018 96.2158 108.855 97.2473 108.855H115.924C116.956 108.855 117.792 108.018 117.792 106.987C117.792 105.955 116.956 105.119 115.924 105.119Z" fill="#BDBDBD"/>
<path d="M130.332 125.931H97.2473C96.2158 125.931 95.3796 126.767 95.3796 127.798C95.3796 128.83 96.2158 129.666 97.2473 129.666H130.332C131.363 129.666 132.2 128.83 132.2 127.798C132.2 126.767 131.363 125.931 130.332 125.931Z" fill="#BDBDBD"/>
<path d="M145.273 146.742H97.2473C96.2158 146.742 95.3796 147.578 95.3796 148.61C95.3796 149.641 96.2158 150.477 97.2473 150.477H145.273C146.305 150.477 147.141 149.641 147.141 148.61C147.141 147.578 146.305 146.742 145.273 146.742Z" fill="#BDBDBD"/>
<path d="M217.313 21.8742H171.955C170.923 21.8742 170.087 22.7104 170.087 23.7419C170.087 24.7734 170.923 25.6095 171.955 25.6095H217.313C218.344 25.6095 219.18 24.7734 219.18 23.7419C219.18 22.7104 218.344 21.8742 217.313 21.8742Z" fill="#D9D9D9"/>
<path d="M201.304 42.6855H171.955C170.923 42.6855 170.087 43.5217 170.087 44.5531C170.087 45.5846 170.923 46.4208 171.955 46.4208H201.304C202.335 46.4208 203.172 45.5846 203.172 44.5531C203.172 43.5217 202.335 42.6855 201.304 42.6855Z" fill="#BDBDBD"/>
<path d="M179.425 63.4967H171.955C170.923 63.4967 170.087 64.3329 170.087 65.3644C170.087 66.3959 170.923 67.2321 171.955 67.2321H179.425C180.457 67.2321 181.293 66.3959 181.293 65.3644C181.293 64.3329 180.457 63.4967 179.425 63.4967Z" fill="#BDBDBD"/>
<path d="M189.031 84.308H171.955C170.923 84.308 170.087 85.1442 170.087 86.1757C170.087 87.2072 170.923 88.0434 171.955 88.0434H189.031C190.062 88.0434 190.898 87.2072 190.898 86.1757C190.898 85.1442 190.062 84.308 189.031 84.308Z" fill="#BDBDBD"/>
<path d="M227.985 105.119H171.955C170.923 105.119 170.087 105.955 170.087 106.987C170.087 108.018 170.923 108.855 171.955 108.855H227.985C229.016 108.855 229.853 108.018 229.853 106.987C229.853 105.955 229.016 105.119 227.985 105.119Z" fill="#BDBDBD"/>
<path d="M202.905 125.931H171.955C170.923 125.931 170.087 126.767 170.087 127.798C170.087 128.83 170.923 129.666 171.955 129.666H202.905C203.936 129.666 204.772 128.83 204.772 127.798C204.772 126.767 203.936 125.931 202.905 125.931Z" fill="#BDBDBD"/>
<path d="M184.228 146.742H171.955C170.923 146.742 170.087 147.578 170.087 148.61C170.087 149.641 170.923 150.477 171.955 150.477H184.228C185.259 150.477 186.096 149.641 186.096 148.61C186.096 147.578 185.259 146.742 184.228 146.742Z" fill="#BDBDBD"/>
<path d="M18.5381 33.8807H247.462" stroke="#EEEEEE"/>
<path d="M18.5381 54.692H247.462" stroke="#EEEEEE"/>
<path d="M18.5381 75.5032H247.462" stroke="#EEEEEE"/>
<path d="M18.5381 96.3145H247.462" stroke="#EEEEEE"/>
<path d="M18.5381 117.126H247.462" stroke="#EEEEEE"/>
<path d="M18.5381 137.937H247.462" stroke="#EEEEEE"/>
</g>
<defs>
<filter id="filter0_d" x="0" y="0" width="270" height="176.616" filterUnits="userSpaceOnUse" color-interpolation-filters="sRGB">
<feFlood flood-opacity="0" result="BackgroundImageFix"/>
<feColorMatrix in="SourceAlpha" type="matrix" values="0 0 0 0 0 0 0 0 0 0 0 0 0 0 0 0 0 0 127 0"/>
<feOffset dx="2" dy="4"/>
<feGaussianBlur stdDeviation="6"/>
<feColorMatrix type="matrix" values="0 0 0 0 0 0 0 0 0 0 0 0 0 0 0 0 0 0 0.25 0"/>
<feBlend mode="normal" in2="BackgroundImageFix" result="effect1_dropShadow"/>
<feBlend mode="normal" in="SourceGraphic" in2="effect1_dropShadow" result="shape"/>
</filter>
</defs>
</svg>
