<svg width="267" height="172" viewBox="0 0 267 172" fill="none" xmlns="http://www.w3.org/2000/svg">
<g filter="url(#filter0_d)">
<rect x="10" y="50.1651" width="139" height="104.906" rx="5" fill="#EEEEEE"/>
</g>
<mask id="mask0" mask-type="alpha" maskUnits="userSpaceOnUse" x="19" y="58" width="121" height="98">
<rect x="19.835" y="85.5708" width="9.17924" height="70.1557" rx="4.58962" fill="white"/>
<rect x="38.1938" y="77.0472" width="9.17924" height="78.6792" rx="4.58962" fill="white"/>
<rect x="56.5522" y="58.033" width="9.17924" height="97.6934" rx="4.58962" fill="white"/>
<rect x="74.9102" y="73.7689" width="9.17924" height="81.9575" rx="4.58962" fill="white"/>
<rect x="93.269" y="95.4057" width="9.17924" height="60.3208" rx="4.58962" fill="white"/>
<rect x="111.627" y="81.6368" width="9.17924" height="74.0896" rx="4.58962" fill="white"/>
<rect x="129.986" y="62.6227" width="9.17924" height="93.1038" rx="4.58962" fill="white"/>
</mask>
<g mask="url(#mask0)">
<rect x="10.6558" y="50.1651" width="139" height="100.316" fill="#C4C4C4"/>
</g>
<g filter="url(#filter1_d)">
<rect x="109" y="8" width="144" height="108.679" rx="5" fill="#EEEEEE"/>
</g>
<path d="M173.85 62.1192C144.607 37.3215 129.993 65.1991 120.077 80.5984V106.585H241.923V25.7384C208.172 24.5834 212.569 94.9538 173.85 62.1192Z" fill="#D9D9D9"/>
<path d="M120.077 80.5984C129.993 65.1991 144.607 37.3215 173.85 62.1192C212.569 94.9539 208.172 24.5834 241.923 25.7384" stroke="#9E9E9E" stroke-linecap="round" stroke-linejoin="round"/>
<defs>
<filter id="filter0_d" x="0" y="42.1651" width="163" height="128.906" filterUnits="userSpaceOnUse" color-interpolation-filters="sRGB">
<feFlood flood-opacity="0" result="BackgroundImageFix"/>
<feColorMatrix in="SourceAlpha" type="matrix" values="0 0 0 0 0 0 0 0 0 0 0 0 0 0 0 0 0 0 127 0"/>
<feOffset dx="2" dy="4"/>
<feGaussianBlur stdDeviation="6"/>
<feColorMatrix type="matrix" values="0 0 0 0 0 0 0 0 0 0 0 0 0 0 0 0 0 0 0.25 0"/>
<feBlend mode="normal" in2="BackgroundImageFix" result="effect1_dropShadow"/>
<feBlend mode="normal" in="SourceGraphic" in2="effect1_dropShadow" result="shape"/>
</filter>
<filter id="filter1_d" x="99" y="0" width="168" height="132.679" filterUnits="userSpaceOnUse" color-interpolation-filters="sRGB">
<feFlood flood-opacity="0" result="BackgroundImageFix"/>
<feColorMatrix in="SourceAlpha" type="matrix" values="0 0 0 0 0 0 0 0 0 0 0 0 0 0 0 0 0 0 127 0"/>
<feOffset dx="2" dy="4"/>
<feGaussianBlur stdDeviation="6"/>
<feColorMatrix type="matrix" values="0 0 0 0 0 0 0 0 0 0 0 0 0 0 0 0 0 0 0.25 0"/>
<feBlend mode="normal" in2="BackgroundImageFix" result="effect1_dropShadow"/>
<feBlend mode="normal" in="SourceGraphic" in2="effect1_dropShadow" result="shape"/>
</filter>
</defs>
</svg>
