<svg width="373" height="418" xmlns="http://www.w3.org/2000/svg"><g fill-rule="evenodd"><path d="M50.77 275.72c9.87-12.14 8.15-29.8-3.86-39.46-12-9.64-29.74-7.62-39.62 4.52-9.87 12.14-8.15 29.8 3.85 39.46 12 9.64 29.75 7.62 39.63-4.52"/><path d="M341.06 19.81c-36.8-29.66-91.04-23.64-121.13 13.43a87.32 87.32 0 0 0-9.7 14.74C160.08 11.91 89.43 21.23 49.64 70.26 8.44 121 15.9 195.02 66.27 235.6a116.01 116.01 0 0 0 59.27 24.93c-32.42 42.05-25.8 102.1 15.37 135.28 41.82 33.7 103.44 26.86 137.63-15.26 34.18-42.12 28-103.58-13.84-137.27a96.26 96.26 0 0 0-38.97-18.94 118.45 118.45 0 0 0 30.18-56.75 86.8 86.8 0 0 0 97.32-26.94c30.09-37.07 24.64-91.17-12.18-120.83"/></g></svg>
