<svg width="484" height="379" xmlns="http://www.w3.org/2000/svg"><path d="M30.247 297.817C14.615 298.6 1.242 286.77.377 271.393c-.857-15.376 11.116-28.478 26.749-29.264 15.631-.78 29.001 11.046 29.866 26.423.86 15.38-11.113 28.479-26.745 29.265zm453.662-114.73c2.595 47.204-33.961 87.45-81.645 89.899-38.163 1.956-71.863-20.898-85.145-54.293-15.635 8.935-33.571 14.474-52.86 15.463-3.194.164-6.36.166-9.503.082 6.91 12.422 11.177 26.532 12.005 41.629 2.947 53.63-38.582 99.355-92.758 102.134-54.179 2.78-100.485-38.442-103.432-92.069-2.899-52.794 37.31-97.9 90.25-101.942-12.222-17.322-19.891-38.098-21.133-60.721C136.138 58.682 186.157 3.606 251.404.26c63.068-3.234 117.267 43.036 124.031 104.452a87.321 87.321 0 0 1 17.436-2.664c47.687-2.447 88.446 33.835 91.038 81.038z" fill-rule="evenodd" /></svg>
