<svg width="687" height="421" viewBox="0 0 687 421" fill="none"
	xmlns="http://www.w3.org/2000/svg">
	<rect x="16.231" y="114.353" width="407.223" height="48.4618" rx="24.2309" transform="rotate(-10.5556 16.231 114.353)" fill="#D9D9D9"/>
	<rect x="56.5332" y="151.306" width="337.679" height="48.4618" rx="24.2309" transform="rotate(-10.5556 56.5332 151.306)" fill="#D9D9D9"/>
	<rect x="54.707" y="274.403" width="441.061" height="48.4618" rx="24.2309" transform="rotate(-10.5556 54.707 274.403)" fill="#D9D9D9"/>
	<rect x="38.1221" y="321.956" width="440.421" height="48.4618" rx="24.2309" transform="rotate(-10.5556 38.1221 321.956)" fill="#D9D9D9"/>
	<rect x="213.923" y="147.109" width="435.885" height="48.4618" rx="24.2309" transform="rotate(-10.5556 213.923 147.109)" fill="#D9D9D9"/>
	<rect x="199.842" y="194.196" width="431.054" height="48.4618" rx="24.2309" transform="rotate(-10.5556 199.842 194.196)" fill="#D9D9D9"/>
	<rect x="235.299" y="292.946" width="394.936" height="48.4618" rx="24.2309" transform="rotate(-10.5556 235.299 292.946)" fill="#D9D9D9"/>
	<rect x="199.862" y="344.013" width="456.282" height="48.4618" rx="24.2309" transform="rotate(-10.5556 199.862 344.013)" fill="#D9D9D9"/>
	<g filter="url(#filter0_d)">
		<rect x="126" y="67" width="461" height="286" rx="10" fill="#F8F8F8"/>
		<rect x="154" y="91" width="90" height="67.2827" fill="#D9D9D9"/>
		<rect x="154" y="175.354" width="90" height="69.2911" fill="#D9D9D9"/>
		<rect x="154" y="261.717" width="90" height="67.2827" fill="#D9D9D9"/>
		<rect x="259" y="91" width="90" height="67.2827" fill="#D9D9D9"/>
		<rect x="364" y="91" width="90" height="67.2827" fill="#D9D9D9"/>
		<rect x="364" y="175.354" width="90" height="69.2911" fill="#EEEEEE"/>
		<rect x="364" y="261.717" width="90" height="67.2827" fill="#D9D9D9"/>
		<rect x="259" y="175.354" width="90" height="69.2911" fill="#D9D9D9"/>
		<rect x="259" y="261.717" width="90" height="67.2827" fill="#D9D9D9"/>
		<rect x="469" y="91" width="90" height="67.2827" fill="#D9D9D9"/>
		<rect x="469" y="175.354" width="90" height="69.2911" fill="#D9D9D9"/>
		<rect x="469" y="261.717" width="90" height="67.2827" fill="#D9D9D9"/>
	</g>
	<defs>
		<filter id="filter0_d" x="116" y="59" width="485" height="310" filterUnits="userSpaceOnUse" color-interpolation-filters="sRGB">
			<feFlood flood-opacity="0" result="BackgroundImageFix"/>
			<feColorMatrix in="SourceAlpha" type="matrix" values="0 0 0 0 0 0 0 0 0 0 0 0 0 0 0 0 0 0 127 0"/>
			<feOffset dx="2" dy="4"/>
			<feGaussianBlur stdDeviation="6"/>
			<feColorMatrix type="matrix" values="0 0 0 0 0 0 0 0 0 0 0 0 0 0 0 0 0 0 0.25 0"/>
			<feBlend mode="normal" in2="BackgroundImageFix" result="effect1_dropShadow"/>
			<feBlend mode="normal" in="SourceGraphic" in2="effect1_dropShadow" result="shape"/>
		</filter>
	</defs>
</svg>
