<svg xmlns="http://www.w3.org/2000/svg" width="1203" height="1128" fill="none" viewBox="0 0 1203 1128"><circle r="18.901" fill="#9BF0E1" transform="matrix(0 1 1 0 218.021 745.539)"/><rect width="260.413" height="37.802" fill="url(#paint0_linear)" transform="matrix(0 1 1 0 199.119 743.439)"/><circle r="18.901" fill="#9BF0E1" transform="matrix(0 1 1 0 314.626 678.336)"/><rect width="327.617" height="37.802" fill="url(#paint1_linear)" transform="matrix(0 1 1 0 295.724 676.236)"/><ellipse fill="#9BF0E1" rx="22.329" ry="18.901" transform="matrix(0 1 1 0 990.866 222.336)"/><rect width="779.047" height="37.802" fill="url(#paint2_linear)" transform="matrix(0 1 1 0 971.96 224.814)"/><circle r="18.901" fill="#9BF0E1" transform="matrix(0 1 1 0 411.231 594.331)"/><rect width="411.621" height="37.802" fill="url(#paint3_linear)" transform="matrix(0 1 1 0 392.329 592.231)"/><path fill="url(#paint4_radial)" fill-rule="evenodd" d="M203.419 912.067L194.922 940.336L919.676 1123.91L1202.33 183.574L1152.73 171.01C1113.55 311.407 1027.41 459.533 898.339 591.608C688.649 806.179 420.821 921.924 203.419 912.067Z" clip-rule="evenodd"/><path fill="url(#paint5_radial)" fill-rule="evenodd" d="M8.49696 916.158L0 944.426L724.755 1128L1007.41 187.664L957.809 175.101C918.627 315.497 832.49 463.624 703.419 595.699C493.729 810.27 225.899 926.015 8.49696 916.158Z" clip-rule="evenodd"/><circle r="18.901" fill="#F037A5" transform="matrix(0 1 1 0 507.837 480.944)"/><rect width="525.027" height="37.802" fill="url(#paint6_linear)" transform="matrix(0 1 1 0 488.935 478.844)"/><circle r="18.901" fill="#9BF0E1" transform="matrix(0 1 1 0 604.439 539.728)"/><rect width="466.224" height="37.802" fill="url(#paint7_linear)" transform="matrix(0 1 1 0 585.539 537.63)"/><circle r="18.901" fill="#9BF0E1" transform="matrix(0 1 1 0 701.049 594.331)"/><rect width="407.421" height="37.802" fill="url(#paint8_linear)" transform="matrix(0 1 1 0 682.147 596.431)"/><circle r="18.901" fill="#9BF0E1" transform="matrix(0 1 1 0 797.652 510.345)"/><rect width="495.625" height="37.802" fill="url(#paint9_linear)" transform="matrix(0 1 1 0 778.75 508.246)"/><ellipse fill="#9BF0E1" rx="21.418" ry="18.901" transform="matrix(0 1 1 0 894.254 349.422)"/><rect width="652.065" height="37.802" fill="url(#paint10_linear)" transform="matrix(0 1 1 0 875.354 351.801)"/><defs><linearGradient id="paint0_linear" x1="32.553" x2="232.692" y1="19.48" y2="19.131" gradientUnits="userSpaceOnUse"><stop stop-color="#9BF0E1"/><stop offset="1" stop-color="#9BF0E1" stop-opacity="0"/></linearGradient><linearGradient id="paint1_linear" x1="40.953" x2="292.742" y1="19.48" y2="18.928" gradientUnits="userSpaceOnUse"><stop stop-color="#9BF0E1"/><stop offset="1" stop-color="#9BF0E1" stop-opacity="0"/></linearGradient><linearGradient id="paint2_linear" x1="97.384" x2="696.103" y1="19.48" y2="16.359" gradientUnits="userSpaceOnUse"><stop stop-color="#9BF0E1"/><stop offset="1" stop-color="#9BF0E1" stop-opacity="0"/></linearGradient><linearGradient id="paint3_linear" x1="51.454" x2="367.803" y1="19.48" y2="18.608" gradientUnits="userSpaceOnUse"><stop stop-color="#9BF0E1"/><stop offset="1" stop-color="#9BF0E1" stop-opacity="0"/></linearGradient><radialGradient id="paint4_radial" cx="0" cy="0" r="1" gradientTransform="translate(595.63 492.857) rotate(69.5628) scale(444.189 541.718)" gradientUnits="userSpaceOnUse"><stop stop-color="#757575"/><stop offset="1" stop-color="#757575" stop-opacity="0"/></radialGradient><radialGradient id="paint5_radial" cx="0" cy="0" r="1" gradientTransform="translate(400.708 496.947) rotate(69.5628) scale(444.189 541.718)" gradientUnits="userSpaceOnUse"><stop stop-color="#757575"/><stop offset="1" stop-color="#757575" stop-opacity="0"/></radialGradient><linearGradient id="paint6_linear" x1="65.63" x2="469.134" y1="19.48" y2="18.062" gradientUnits="userSpaceOnUse"><stop stop-color="#F037A5"/><stop offset="1" stop-color="#F037A5" stop-opacity="0"/></linearGradient><linearGradient id="paint7_linear" x1="58.28" x2="416.592" y1="19.48" y2="18.362" gradientUnits="userSpaceOnUse"><stop stop-color="#9BF0E1"/><stop offset="1" stop-color="#9BF0E1" stop-opacity="0"/></linearGradient><linearGradient id="paint8_linear" x1="50.929" x2="364.05" y1="19.48" y2="18.626" gradientUnits="userSpaceOnUse"><stop stop-color="#9BF0E1"/><stop offset="1" stop-color="#9BF0E1" stop-opacity="0"/></linearGradient><linearGradient id="paint9_linear" x1="61.955" x2="442.863" y1="19.48" y2="18.216" gradientUnits="userSpaceOnUse"><stop stop-color="#9BF0E1"/><stop offset="1" stop-color="#9BF0E1" stop-opacity="0"/></linearGradient><linearGradient id="paint10_linear" x1="81.511" x2="582.645" y1="19.48" y2="17.293" gradientUnits="userSpaceOnUse"><stop stop-color="#9BF0E1"/><stop offset="1" stop-color="#9BF0E1" stop-opacity="0"/></linearGradient></defs></svg>