<svg width="241" height="88" viewBox="0 0 241 88" fill="none" xmlns="http://www.w3.org/2000/svg">
<title>Consul Logo</title>
<path d="M87.4688 34.7503C87.4688 27.3703 91.7687 23.0703 101.809 23.0703C105.516 23.0688 109.209 23.5154 112.809 24.4003L111.959 31.0003C108.706 30.391 105.408 30.0565 102.099 30.0003C96.8288 30.0003 95.0987 31.8103 95.0987 36.1103V51.5703C95.0987 55.8603 96.7888 57.6803 102.099 57.6803C105.408 57.6241 108.706 57.2896 111.959 56.6803L112.809 63.2803C109.209 64.1652 105.516 64.6118 101.809 64.6103C91.8087 64.6103 87.4688 60.3103 87.4688 52.9303V34.7503Z" fill="white"/>
<path d="M129.097 64.5804C118.987 64.5804 116.277 59.0004 116.277 53.0004V45.5204C116.277 39.5204 118.997 33.9004 129.107 33.9004C139.217 33.9004 141.927 39.4704 141.927 45.5204V53.0004C141.917 59.0004 139.197 64.5804 129.097 64.5804ZM129.097 40.1904C125.157 40.1904 123.647 41.9504 123.647 45.2804V53.2004C123.647 56.5304 125.157 58.2804 129.097 58.2804C133.037 58.2804 134.537 56.5304 134.537 53.2004V45.2804C134.537 42.0004 133.027 40.1904 129.097 40.1904Z" fill="white"/>
<path d="M164.367 64.0002V43.4002C164.367 41.8302 163.697 41.0402 162.007 41.0402C160.317 41.0402 157.007 42.1302 154.317 43.5202V64.0002H146.938V34.5102H152.567L153.277 37.0002C156.953 35.1591 160.972 34.1065 165.077 33.9102C169.977 33.9102 171.738 37.3602 171.738 42.6202V64.0002H164.367Z" fill="white"/>
<path d="M186.928 64.5803C183.475 64.5229 180.051 63.9499 176.768 62.8803L177.768 57.2603C180.621 58.0738 183.571 58.501 186.538 58.5303C189.808 58.5303 190.288 57.8003 190.288 55.5303C190.288 53.7203 189.928 52.8103 185.148 51.6603C177.948 49.9103 177.098 48.0903 177.098 42.4003C177.098 36.4703 179.698 33.8703 188.098 33.8703C191.07 33.8618 194.033 34.1973 196.928 34.8703L196.278 40.8003C193.6 40.3066 190.889 40.0224 188.168 39.9503C184.958 39.9503 184.418 40.6803 184.418 42.4903C184.418 44.8503 184.598 45.0303 188.598 46.0603C196.818 48.2403 197.598 49.3303 197.598 55.3803C197.578 61.0703 195.828 64.5803 186.928 64.5803Z" fill="white"/>
<path d="M209.798 34.5098V55.0798C209.798 56.6498 210.458 57.4398 212.158 57.4398C213.858 57.4398 217.158 56.3498 219.838 54.9598V34.5098H227.218V63.9998H221.598L220.868 61.5198C217.193 63.3623 213.174 64.4148 209.068 64.6098C204.168 64.6098 202.418 61.1598 202.418 55.8898V34.5098H209.798Z" fill="white"/>
<path d="M233.566 64.0007V22.4707L240.946 21.4707V64.0007H233.566Z" fill="white"/>
<path d="M31.7776 75.5903C26.609 75.5932 21.5178 74.3346 16.9459 71.9237C12.374 69.5129 8.45959 66.0227 5.54237 61.7561C2.62514 57.4894 0.793299 52.5753 0.205828 47.4402C-0.381643 42.3051 0.293013 37.1042 2.17124 32.289C4.04947 27.4737 7.0745 23.1896 10.9838 19.8085C14.8931 16.4274 19.5685 14.0515 24.6042 12.887C29.6399 11.7224 34.8837 11.8045 39.8805 13.126C44.8773 14.4475 49.476 16.9686 53.2776 20.4703L45.7676 28.3503C42.7702 25.6478 39.0535 23.8723 35.0676 23.2389C31.0818 22.6055 26.9977 23.1415 23.3102 24.7817C19.6227 26.422 16.4899 29.0963 14.2913 32.4807C12.0926 35.8651 10.9224 39.8144 10.9224 43.8503C10.9224 47.8862 12.0926 51.8355 14.2913 55.2199C16.4899 58.6043 19.6227 61.2786 23.3102 62.9189C26.9977 64.5592 31.0818 65.0951 35.0676 64.4617C39.0535 63.8283 42.7702 62.0529 45.7676 59.3503L53.2776 67.2003C47.4219 72.6025 39.7447 75.5984 31.7776 75.5903Z" fill="#E03875"/>
<path d="M57.3383 59.7C56.824 59.7 56.3214 59.5475 55.8938 59.2618C55.4662 58.9761 55.133 58.5701 54.9362 58.095C54.7394 57.6199 54.6879 57.0971 54.7882 56.5928C54.8886 56.0884 55.1362 55.6251 55.4998 55.2615C55.8634 54.8979 56.3267 54.6503 56.831 54.55C57.3354 54.4496 57.8582 54.5011 58.3333 54.6979C58.8083 54.8947 59.2144 55.228 59.5001 55.6555C59.7858 56.0831 59.9383 56.5858 59.9383 57.1C59.9383 57.7896 59.6644 58.4509 59.1768 58.9385C58.6892 59.4261 58.0278 59.7 57.3383 59.7Z" fill="#E03875"/>
<path d="M31.5773 50.7112C30.2165 50.7112 28.8864 50.3077 27.7549 49.5517C26.6235 48.7957 25.7417 47.7212 25.221 46.464C24.7002 45.2069 24.564 43.8235 24.8295 42.489C25.0949 41.1544 25.7502 39.9285 26.7124 38.9663C27.6746 38.0041 28.9005 37.3488 30.235 37.0834C31.5696 36.8179 32.953 36.9542 34.2101 37.4749C35.4673 37.9956 36.5418 38.8774 37.2978 40.0088C38.0538 41.1403 38.4573 42.4704 38.4573 43.8312C38.4573 45.6559 37.7324 47.4058 36.4422 48.6961C35.1519 49.9863 33.402 50.7112 31.5773 50.7112Z" fill="#E03875"/>
<path d="M60.3266 50.8104C59.8123 50.8104 59.3096 50.6579 58.8821 50.3722C58.4545 50.0865 58.1213 49.6804 57.9245 49.2053C57.7277 48.7302 57.6762 48.2075 57.7765 47.7031C57.8768 47.1988 58.1245 46.7355 58.4881 46.3719C58.8517 46.0083 59.315 45.7606 59.8193 45.6603C60.3237 45.56 60.8464 45.6115 61.3215 45.8083C61.7966 46.0051 62.2027 46.3383 62.4884 46.7659C62.7741 47.1934 62.9266 47.6961 62.9266 48.2104C62.9239 48.8991 62.6492 49.5589 62.1621 50.0459C61.6751 50.5329 61.0153 50.8077 60.3266 50.8104Z" fill="#E03875"/>
<path d="M52.5883 50.5106C52.074 50.5106 51.5714 50.3581 51.1438 50.0724C50.7162 49.7867 50.383 49.3806 50.1862 48.9055C49.9894 48.4304 49.9379 47.9077 50.0382 47.4033C50.1386 46.899 50.3862 46.4357 50.7498 46.0721C51.1134 45.7085 51.5767 45.4608 52.081 45.3605C52.5854 45.2602 53.1082 45.3117 53.5833 45.5085C54.0583 45.7053 54.4644 46.0385 54.7501 46.4661C55.0358 46.8936 55.1883 47.3963 55.1883 47.9106C55.1883 48.6001 54.9144 49.2614 54.4268 49.749C53.9392 50.2366 53.2778 50.5106 52.5883 50.5106Z" fill="#E03875"/>
<path d="M60.3266 42.0604C59.8123 42.0604 59.3096 41.9079 58.8821 41.6222C58.4545 41.3365 58.1213 40.9304 57.9245 40.4553C57.7277 39.9802 57.6762 39.4575 57.7765 38.9531C57.8768 38.4488 58.1245 37.9855 58.4881 37.6219C58.8517 37.2583 59.315 37.0106 59.8193 36.9103C60.3237 36.81 60.8464 36.8615 61.3215 37.0583C61.7966 37.2551 62.2027 37.5883 62.4884 38.0159C62.7741 38.4434 62.9266 38.9461 62.9266 39.4604C62.9239 40.1491 62.6492 40.8089 62.1621 41.2959C61.6751 41.7829 61.0153 42.0577 60.3266 42.0604Z" fill="#E03875"/>
<path d="M52.5883 42.3602C52.074 42.3602 51.5714 42.2077 51.1438 41.922C50.7162 41.6363 50.383 41.2302 50.1862 40.7551C49.9894 40.28 49.9379 39.7573 50.0382 39.2529C50.1386 38.7486 50.3862 38.2853 50.7498 37.9217C51.1134 37.5581 51.5767 37.3104 52.081 37.2101C52.5854 37.1098 53.1082 37.1613 53.5833 37.3581C54.0583 37.5549 54.4644 37.8881 54.7501 38.3157C55.0358 38.7432 55.1883 39.2459 55.1883 39.7602C55.1883 40.4497 54.9144 41.111 54.4268 41.5986C53.9392 42.0862 53.2778 42.3602 52.5883 42.3602Z" fill="#E03875"/>
<path d="M57.4867 33.3104C56.9725 33.3104 56.4698 33.1579 56.0422 32.8722C55.6147 32.5865 55.2814 32.1804 55.0846 31.7053C54.8878 31.2302 54.8364 30.7075 54.9367 30.2031C55.037 29.6988 55.2846 29.2355 55.6482 28.8719C56.0119 28.5083 56.4751 28.2606 56.9795 28.1603C57.4838 28.06 58.0066 28.1115 58.4817 28.3083C58.9568 28.5051 59.3628 28.8383 59.6485 29.2659C59.9342 29.6934 60.0867 30.1961 60.0867 30.7104C60.0867 31.3999 59.8128 32.0612 59.3252 32.5488C58.8376 33.0364 58.1763 33.3104 57.4867 33.3104Z" fill="#E03875"/>
</svg>
