<?xml version="1.0" encoding="utf-8"?>
<!-- Generator: Adobe Illustrator 24.2.1, SVG Export Plug-In . SVG Version: 6.00 Build 0)  -->
<svg version="1.1" id="Layer_1" xmlns="http://www.w3.org/2000/svg" xmlns:xlink="http://www.w3.org/1999/xlink" x="0px" y="0px"
	 viewBox="0 0 140 140" style="enable-background:new 0 0 140 140;" xml:space="preserve">
<style type="text/css">
	.st0{fill:#0D80D8;}
</style>
<path class="st0" d="M19.1,102.1c9.4-6,20.3-16.3,16.2-28.5C33,67,29.9,61.3,29.5,54.2C29.1,48.1,30,42,32.1,36.3
	C40.5,13.8,65.4,3.2,87.9,10c20.8,6.3,35.2,30.5,26.6,51.6c-5,12.2-7.2,21.6,3.9,31c3,2.6,10.3,6.4,10.3,11c0,6-11.7-1.3-13-2.3
	c1.5,2.6,16.2,18,6.8,19.1c-8.6,1-16.3-11.1-21.5-16.2c-8.7-8.7-7.2,10.6-7.2,14.5c-0.1,6.3-4.5,19-12.5,10.7
	c-6.6-6.8-4.1-17.8-8.7-25.4c-5-8.3-13.3,8.3-15.4,11.4c-2.3,3.4-14,19.9-18.6,11.1c-3.8-7.1,2.2-18.3,5.2-24.8
	c-1.1,2.3-8.7,5.8-10.9,6.9c-5,2.5-10.1,4.1-15.8,3.7C5.4,111.5,14.4,105.3,19.1,102.1L19.1,102.1z"/>
</svg>
