<svg xmlns="http://www.w3.org/2000/svg" viewBox="0 0 982.38 1247.39"><defs><linearGradient id="a" x1="392.22" x2="609.18" y1="1235.97" y2="5.5" gradientUnits="userSpaceOnUse"><stop offset=".07" stop-color="#36baa2"/><stop offset=".34" stop-color="#61ddc8"/><stop offset=".53" stop-color="#7df3e1"/></linearGradient></defs><path d="M702.28 857.87c-57 54.61-134.4 84.68-218 84.68-64.94 0-129.45-18.31-186.61-53L0 708.94v71.84l316.14 191.87c53.11 32.19 111.56 47.78 168.15 47.78 72.55 0 142.06-25.62 193.35-74.77 37.49-35.93 58.2-79 57.29-120.8v-5.2a253.66 253.66 0 0 1-32.65 38.21Zm0-113.47c-57 54.6-134.4 84.68-218 84.68-64.94 0-129.45-18.32-186.61-53L0 595.47v71.83l316.14 191.86C369.25 891.36 427.7 907 484.29 907c72.55 0 142.06-25.62 193.35-74.77 37.49-35.93 58.2-79 57.29-120.79v-5.31a252.11 252.11 0 0 1-32.65 38.27Zm0 227c-57 54.6-134.4 84.68-218 84.68-64.94 0-129.45-18.32-186.61-53L0 822.42v71.84l316.14 191.86c53.11 32.2 111.56 47.79 168.15 47.79 72.55 0 142.06-25.63 193.35-74.78 37.49-35.92 58.2-79 57.29-120.78v-5.22a253.79 253.79 0 0 1-32.65 38.23Zm0 113.48c-57 54.6-134.4 84.68-218 84.68-64.94 0-129.45-18.32-186.61-53L0 935.9v71.84l316.14 191.86c53.11 32.2 111.56 47.79 168.15 47.79 72.55 0 142.06-25.62 193.35-74.78 37.49-35.92 58.2-79 57.29-120.78v-5.21a253.73 253.73 0 0 1-32.65 38.22Zm249.51-498.61c-2 2-3.79 4.1-5.88 6.09A283.08 283.08 0 0 1 881.13 638a278.45 278.45 0 0 1-110.44 29.63h-.15v77.63h.11C825 741.78 878.61 721 921.28 680.14c2.33-2.24 4.38-4.54 6.59-6.8A239.4 239.4 0 0 0 951 646a185 185 0 0 0 18.29-31.37 141.27 141.27 0 0 0 12.57-47.87c.27-3.6.6-7.2.56-10.79v-6.38c-2.17 3.12-4.26 6.26-6.61 9.36a284.07 284.07 0 0 1-24.02 27.32Zm.1-113.36c-2 2-3.92 4-6 6a288.89 288.89 0 0 1-64.72 45.66 276.05 276.05 0 0 1-76.4 25.37 287 287 0 0 1-41.23 4.55c1.48 4.7 2.63 9.47 3.64 14.27a155 155 0 0 1 3.32 34.94v28.1h.16a245.44 245.44 0 0 0 73.78-16.15 235.88 235.88 0 0 0 76.81-49c2.33-2.24 4.38-4.53 6.59-6.8a237.77 237.77 0 0 0 23.16-27.3 184.13 184.13 0 0 0 18.29-31.36 141.22 141.22 0 0 0 12.57-47.86c.27-3.6.6-7.2.56-10.8v-6c-2.09 3-4.29 6-6.56 9a285.06 285.06 0 0 1-23.97 27.38Zm-.1 226.84c-2 2-3.8 4.09-5.88 6.09-47.11 45.16-108.83 71.54-175.22 75.27h-.09v77.63h.06c54.26-3.48 107.92-24.23 150.59-65.12 21.84-20.92 37.77-43 48-65.47a141.28 141.28 0 0 0 12.57-47.86c.27-3.61.6-7.21.56-10.8v-6.39c-2.17 3.13-4.26 6.27-6.61 9.36a283 283 0 0 1-23.98 27.29Zm-181.1 194.84v77.63C825 968.74 878.61 948 921.28 907.1c40.67-39 61.55-81.83 61.09-124.13v-6.4a276.79 276.79 0 0 1-36.46 42.76c-47.12 45.14-108.83 71.53-175.22 75.26ZM878.3 182.25 578 0 227.93 335.43 0 553.82l316.14 191.86c53.11 32.2 111.56 47.79 168.15 47.79 72.55 0 142.06-25.62 193.35-74.77 55.78-53.45 74.29-122.64 39.87-180.11a142.23 142.23 0 0 0-19.79-25.82 260 260 0 0 0 56.15 6.23h.43a247.6 247.6 0 0 0 90.17-16.86 235.71 235.71 0 0 0 76.81-49c2.32-2.21 4.52-4.45 6.7-6.69a238.54 238.54 0 0 0 23.08-27.3 184.08 184.08 0 0 0 18.25-31.34 141.52 141.52 0 0 0 12.69-47.7c4.32-56.45-29-112.58-103.7-157.86Zm-289 475.23c-56.21 53.88-146.69 61.82-220.3 17.18L150.25 541.89l196.33-188.18L569 488.74c80.19 48.6 75.77 115.62 20.33 168.74Zm240.5-261.25C776 447.8 689 462.79 615.33 418.14L409.67 293.29l187.5-179.81 201.94 122.59c75.51 45.78 85.32 107.83 30.72 160.16Z" style="fill:url(#a)"/></svg>