<svg xmlns="http://www.w3.org/2000/svg" xmlns:xlink="http://www.w3.org/1999/xlink" id="Assets" viewBox="0 0 982.38 1247.39"><defs><style>.cls-1{fill:url(#linear-gradient)}</style><linearGradient id="linear-gradient" x1="392.22" x2="609.18" y1="1235.97" y2="5.5" gradientUnits="userSpaceOnUse"><stop offset=".07" stop-color="#36baa2"/><stop offset=".34" stop-color="#61ddc8"/><stop offset=".53" stop-color="#7df3e1"/></linearGradient></defs><title>07 Large Icon_Gradient</title><path d="M702.28,857.87c-57,54.61-134.4,84.68-218,84.68-64.94,0-129.45-18.31-186.61-53L0,708.94v71.84L316.14,972.65c53.11,32.19,111.56,47.78,168.15,47.78,72.55,0,142.06-25.62,193.35-74.77,37.49-35.93,58.2-79,57.29-120.8v-5.2A253.66,253.66,0,0,1,702.28,857.87Zm0-113.47c-57,54.6-134.4,84.68-218,84.68-64.94,0-129.45-18.32-186.61-53L0,595.47V667.3L316.14,859.16C369.25,891.36,427.7,907,484.29,907c72.55,0,142.06-25.62,193.35-74.77,37.49-35.93,58.2-79,57.29-120.79v-5.31A252.11,252.11,0,0,1,702.28,744.4Zm0,227c-57,54.6-134.4,84.68-218,84.68-64.94,0-129.45-18.32-186.61-53L0,822.42v71.84l316.14,191.86c53.11,32.2,111.56,47.79,168.15,47.79,72.55,0,142.06-25.63,193.35-74.78,37.49-35.92,58.2-79,57.29-120.78v-5.22A253.79,253.79,0,0,1,702.28,971.36Zm0,113.48c-57,54.6-134.4,84.68-218,84.68-64.94,0-129.45-18.32-186.61-53L0,935.9v71.84L316.14,1199.6c53.11,32.2,111.56,47.79,168.15,47.79,72.55,0,142.06-25.62,193.35-74.78,37.49-35.92,58.2-79,57.29-120.78v-5.21A253.73,253.73,0,0,1,702.28,1084.84ZM951.79,586.27c-2,2-3.79,4.1-5.88,6.09A283.08,283.08,0,0,1,881.13,638a278.45,278.45,0,0,1-110.44,29.63h-.15l0,77.63h.11C825,741.78,878.61,721,921.28,680.14c2.33-2.24,4.38-4.54,6.59-6.8A239.4,239.4,0,0,0,951,646a185,185,0,0,0,18.29-31.37,141.27,141.27,0,0,0,12.57-47.87c.27-3.6.6-7.2.56-10.79v-6.38c-2.17,3.12-4.26,6.26-6.61,9.36A284.07,284.07,0,0,1,951.79,586.27Zm.1-113.36c-2,2-3.92,4-6,6a288.89,288.89,0,0,1-64.72,45.66,276.05,276.05,0,0,1-76.4,25.37,287,287,0,0,1-41.23,4.55c1.48,4.7,2.63,9.47,3.64,14.27a155,155,0,0,1,3.32,34.94v28.1h.16a245.44,245.44,0,0,0,73.78-16.15,235.88,235.88,0,0,0,76.81-49c2.33-2.24,4.38-4.53,6.59-6.8A237.77,237.77,0,0,0,951,532.55a184.13,184.13,0,0,0,18.29-31.36,141.22,141.22,0,0,0,12.57-47.86c.27-3.6.6-7.2.56-10.8v-6c-2.09,3-4.29,6-6.56,9A285.06,285.06,0,0,1,951.89,472.91Zm-.1,226.84c-2,2-3.8,4.09-5.88,6.09C898.8,751,837.08,777.38,770.69,781.11h-.09l0,77.63h.06c54.26-3.48,107.92-24.23,150.59-65.12,21.84-20.92,37.77-43,48-65.47a141.28,141.28,0,0,0,12.57-47.86c.27-3.61.6-7.21.56-10.8V663.1c-2.17,3.13-4.26,6.27-6.61,9.36A283,283,0,0,1,951.79,699.75ZM770.69,894.59h0l0,77.63C825,968.74,878.61,948,921.28,907.1c40.67-39,61.55-81.83,61.09-124.13v-6.4a276.79,276.79,0,0,1-36.46,42.76C898.79,864.47,837.08,890.86,770.69,894.59ZM878.3,182.25,578,0,227.93,335.43,0,553.82,316.14,745.68c53.11,32.2,111.56,47.79,168.15,47.79,72.55,0,142.06-25.62,193.35-74.77,55.78-53.45,74.29-122.64,39.87-180.11a142.23,142.23,0,0,0-19.79-25.82A260,260,0,0,0,753.87,519h.43a247.6,247.6,0,0,0,90.17-16.86,235.71,235.71,0,0,0,76.81-49c2.32-2.21,4.52-4.45,6.7-6.69a238.54,238.54,0,0,0,23.08-27.3,184.08,184.08,0,0,0,18.25-31.34A141.52,141.52,0,0,0,982,340.11C986.32,283.66,953,227.53,878.3,182.25Zm-289,475.23C533.09,711.36,442.61,719.3,369,674.66L150.25,541.89,346.58,353.71,569,488.74C649.19,537.34,644.77,604.36,589.33,657.48Zm240.5-261.25C776,447.8,689,462.79,615.33,418.14L409.67,293.29l187.5-179.81L799.11,236.07C874.62,281.85,884.43,343.9,829.83,396.23Z" class="cls-1"/></svg>